<?xml version="1.0" encoding="utf-8" standalone="no"?>
<!DOCTYPE svg PUBLIC "-//W3C//DTD SVG 1.1//EN"
  "http://www.w3.org/Graphics/SVG/1.1/DTD/svg11.dtd">
<svg xmlns:xlink="http://www.w3.org/1999/xlink" width="728.15pt" height="394.19125pt" viewBox="0 0 728.15 394.19125" xmlns="http://www.w3.org/2000/svg" version="1.1">
 <metadata>
  <rdf:RDF xmlns:dc="http://purl.org/dc/elements/1.1/" xmlns:cc="http://creativecommons.org/ns#" xmlns:rdf="http://www.w3.org/1999/02/22-rdf-syntax-ns#">
   <cc:Work>
    <dc:type rdf:resource="http://purl.org/dc/dcmitype/StillImage"/>
    <dc:date>2026-02-15T17:58:17.265481</dc:date>
    <dc:format>image/svg+xml</dc:format>
    <dc:creator>
     <cc:Agent>
      <dc:title>Matplotlib v3.7.5, https://matplotlib.org/</dc:title>
     </cc:Agent>
    </dc:creator>
   </cc:Work>
  </rdf:RDF>
 </metadata>
 <defs>
  <style type="text/css">*{stroke-linejoin: round; stroke-linecap: butt}</style>
 </defs>
 <g id="figure_1">
  <g id="patch_1">
   <path d="M 0 394.19125 
L 728.15 394.19125 
L 728.15 0 
L 0 0 
z
" style="fill: #ffffff"/>
  </g>
  <g id="axes_1">
   <g id="patch_2">
    <path d="M 162.95 355.39125 
L 720.95 355.39125 
L 720.95 22.75125 
L 162.95 22.75125 
z
" style="fill: #ffffff"/>
   </g>
   <g id="patch_3">
    <path d="M 162.95 340.27125 
L 431.348268 340.27125 
L 431.348268 328.053068 
L 162.95 328.053068 
z
" clip-path="url(#p8c5eeb545d)" style="fill: #1f77b4"/>
   </g>
   <g id="patch_4">
    <path d="M 162.95 324.998523 
L 442.084199 324.998523 
L 442.084199 312.780341 
L 162.95 312.780341 
z
" clip-path="url(#p8c5eeb545d)" style="fill: #1f77b4"/>
   </g>
   <g id="patch_5">
    <path d="M 162.95 309.725795 
L 463.556061 309.725795 
L 463.556061 297.507614 
L 162.95 297.507614 
z
" clip-path="url(#p8c5eeb545d)" style="fill: #1f77b4"/>
   </g>
   <g id="patch_6">
    <path d="M 162.95 294.453068 
L 463.556061 294.453068 
L 463.556061 282.234886 
L 162.95 282.234886 
z
" clip-path="url(#p8c5eeb545d)" style="fill: #1f77b4"/>
   </g>
   <g id="patch_7">
    <path d="M 162.95 279.180341 
L 474.291991 279.180341 
L 474.291991 266.962159 
L 162.95 266.962159 
z
" clip-path="url(#p8c5eeb545d)" style="fill: #1f77b4"/>
   </g>
   <g id="patch_8">
    <path d="M 162.95 263.907614 
L 544.075541 263.907614 
L 544.075541 251.689432 
L 162.95 251.689432 
z
" clip-path="url(#p8c5eeb545d)" style="fill: #1f77b4"/>
   </g>
   <g id="patch_9">
    <path d="M 162.95 248.634886 
L 549.443506 248.634886 
L 549.443506 236.416705 
L 162.95 236.416705 
z
" clip-path="url(#p8c5eeb545d)" style="fill: #1f77b4"/>
   </g>
   <g id="patch_10">
    <path d="M 162.95 233.362159 
L 576.283333 233.362159 
L 576.283333 221.143977 
L 162.95 221.143977 
z
" clip-path="url(#p8c5eeb545d)" style="fill: #1f77b4"/>
   </g>
   <g id="patch_11">
    <path d="M 162.95 218.089432 
L 619.227056 218.089432 
L 619.227056 205.87125 
L 162.95 205.87125 
z
" clip-path="url(#p8c5eeb545d)" style="fill: #1f77b4"/>
   </g>
   <g id="patch_12">
    <path d="M 162.95 202.816705 
L 635.330952 202.816705 
L 635.330952 190.598523 
L 162.95 190.598523 
z
" clip-path="url(#p8c5eeb545d)" style="fill: #1f77b4"/>
   </g>
   <g id="patch_13">
    <path d="M 162.95 187.543977 
L 646.066883 187.543977 
L 646.066883 175.325795 
L 162.95 175.325795 
z
" clip-path="url(#p8c5eeb545d)" style="fill: #1f77b4"/>
   </g>
   <g id="patch_14">
    <path d="M 162.95 172.27125 
L 651.434848 172.27125 
L 651.434848 160.053068 
L 162.95 160.053068 
z
" clip-path="url(#p8c5eeb545d)" style="fill: #1f77b4"/>
   </g>
   <g id="patch_15">
    <path d="M 162.95 156.998523 
L 667.538745 156.998523 
L 667.538745 144.780341 
L 162.95 144.780341 
z
" clip-path="url(#p8c5eeb545d)" style="fill: #1f77b4"/>
   </g>
   <g id="patch_16">
    <path d="M 162.95 141.725795 
L 672.90671 141.725795 
L 672.90671 129.507614 
L 162.95 129.507614 
z
" clip-path="url(#p8c5eeb545d)" style="fill: #1f77b4"/>
   </g>
   <g id="patch_17">
    <path d="M 162.95 126.453068 
L 678.274675 126.453068 
L 678.274675 114.234886 
L 162.95 114.234886 
z
" clip-path="url(#p8c5eeb545d)" style="fill: #1f77b4"/>
   </g>
   <g id="patch_18">
    <path d="M 162.95 111.180341 
L 689.010606 111.180341 
L 689.010606 98.962159 
L 162.95 98.962159 
z
" clip-path="url(#p8c5eeb545d)" style="fill: #1f77b4"/>
   </g>
   <g id="patch_19">
    <path d="M 162.95 95.907614 
L 689.010606 95.907614 
L 689.010606 83.689432 
L 162.95 83.689432 
z
" clip-path="url(#p8c5eeb545d)" style="fill: #1f77b4"/>
   </g>
   <g id="patch_20">
    <path d="M 162.95 80.634886 
L 694.378571 80.634886 
L 694.378571 68.416705 
L 162.95 68.416705 
z
" clip-path="url(#p8c5eeb545d)" style="fill: #1f77b4"/>
   </g>
   <g id="patch_21">
    <path d="M 162.95 65.362159 
L 694.378571 65.362159 
L 694.378571 53.143977 
L 162.95 53.143977 
z
" clip-path="url(#p8c5eeb545d)" style="fill: #1f77b4"/>
   </g>
   <g id="patch_22">
    <path d="M 162.95 50.089432 
L 694.378571 50.089432 
L 694.378571 37.87125 
L 162.95 37.87125 
z
" clip-path="url(#p8c5eeb545d)" style="fill: #1f77b4"/>
   </g>
   <g id="matplotlib.axis_1">
    <g id="xtick_1">
     <g id="line2d_1">
      <defs>
       <path id="m00f79658f6" d="M 0 0 
L 0 3.5 
" style="stroke: #000000; stroke-width: 0.8"/>
      </defs>
      <g>
       <use xlink:href="#m00f79658f6" x="162.95" y="355.39125" style="stroke: #000000; stroke-width: 0.8"/>
      </g>
     </g>
     <g id="text_1">
      <!-- 0.0 -->
      <g transform="translate(156.010156 370.350625) scale(0.1 -0.1)">
       <defs>
        <path id="NotoSansCJKjp-Regular-30" d="M 1779 -83 
C 2669 -83 3238 723 3238 2362 
C 3238 3987 2669 4774 1779 4774 
C 883 4774 320 3987 320 2362 
C 320 723 883 -83 1779 -83 
z
M 1779 390 
C 1248 390 883 986 883 2362 
C 883 3731 1248 4314 1779 4314 
C 2310 4314 2675 3731 2675 2362 
C 2675 986 2310 390 1779 390 
z
" transform="scale(0.015625)"/>
        <path id="NotoSansCJKjp-Regular-2e" d="M 890 -83 
C 1120 -83 1312 96 1312 358 
C 1312 627 1120 806 890 806 
C 653 806 467 627 467 358 
C 467 96 653 -83 890 -83 
z
" transform="scale(0.015625)"/>
       </defs>
       <use xlink:href="#NotoSansCJKjp-Regular-30"/>
       <use xlink:href="#NotoSansCJKjp-Regular-2e" x="55.499985"/>
       <use xlink:href="#NotoSansCJKjp-Regular-30" x="83.299973"/>
      </g>
     </g>
    </g>
    <g id="xtick_2">
     <g id="line2d_2">
      <g>
       <use xlink:href="#m00f79658f6" x="270.309307" y="355.39125" style="stroke: #000000; stroke-width: 0.8"/>
      </g>
     </g>
     <g id="text_2">
      <!-- 0.2 -->
      <g transform="translate(263.369464 370.350625) scale(0.1 -0.1)">
       <defs>
        <path id="NotoSansCJKjp-Regular-32" d="M 282 0 
L 3232 0 
L 3232 506 
L 1933 506 
C 1696 506 1408 480 1165 461 
C 2266 1504 3008 2458 3008 3398 
C 3008 4230 2477 4774 1638 4774 
C 1043 4774 634 4506 256 4090 
L 595 3757 
C 858 4070 1184 4301 1568 4301 
C 2150 4301 2432 3910 2432 3373 
C 2432 2566 1754 1632 282 346 
L 282 0 
z
" transform="scale(0.015625)"/>
       </defs>
       <use xlink:href="#NotoSansCJKjp-Regular-30"/>
       <use xlink:href="#NotoSansCJKjp-Regular-2e" x="55.499985"/>
       <use xlink:href="#NotoSansCJKjp-Regular-32" x="83.299973"/>
      </g>
     </g>
    </g>
    <g id="xtick_3">
     <g id="line2d_3">
      <g>
       <use xlink:href="#m00f79658f6" x="377.668615" y="355.39125" style="stroke: #000000; stroke-width: 0.8"/>
      </g>
     </g>
     <g id="text_3">
      <!-- 0.4 -->
      <g transform="translate(370.728771 370.350625) scale(0.1 -0.1)">
       <defs>
        <path id="NotoSansCJKjp-Regular-34" d="M 2176 0 
L 2726 0 
L 2726 1293 
L 3354 1293 
L 3354 1760 
L 2726 1760 
L 2726 4691 
L 2080 4691 
L 128 1677 
L 128 1293 
L 2176 1293 
L 2176 0 
z
M 2176 1760 
L 736 1760 
L 1805 3360 
C 1939 3590 2067 3827 2182 4051 
L 2208 4051 
C 2195 3814 2176 3430 2176 3200 
L 2176 1760 
z
" transform="scale(0.015625)"/>
       </defs>
       <use xlink:href="#NotoSansCJKjp-Regular-30"/>
       <use xlink:href="#NotoSansCJKjp-Regular-2e" x="55.499985"/>
       <use xlink:href="#NotoSansCJKjp-Regular-34" x="83.299973"/>
      </g>
     </g>
    </g>
    <g id="xtick_4">
     <g id="line2d_4">
      <g>
       <use xlink:href="#m00f79658f6" x="485.027922" y="355.39125" style="stroke: #000000; stroke-width: 0.8"/>
      </g>
     </g>
     <g id="text_4">
      <!-- 0.6 -->
      <g transform="translate(478.088078 370.350625) scale(0.1 -0.1)">
       <defs>
        <path id="NotoSansCJKjp-Regular-36" d="M 1926 -83 
C 2656 -83 3277 531 3277 1440 
C 3277 2426 2765 2912 1971 2912 
C 1606 2912 1197 2701 909 2349 
C 934 3802 1466 4294 2118 4294 
C 2400 4294 2682 4154 2861 3936 
L 3194 4294 
C 2931 4576 2579 4774 2093 4774 
C 1184 4774 358 4077 358 2240 
C 358 691 1030 -83 1926 -83 
z
M 922 1882 
C 1229 2317 1587 2477 1875 2477 
C 2445 2477 2720 2074 2720 1440 
C 2720 800 2374 378 1926 378 
C 1338 378 986 909 922 1882 
z
" transform="scale(0.015625)"/>
       </defs>
       <use xlink:href="#NotoSansCJKjp-Regular-30"/>
       <use xlink:href="#NotoSansCJKjp-Regular-2e" x="55.499985"/>
       <use xlink:href="#NotoSansCJKjp-Regular-36" x="83.299973"/>
      </g>
     </g>
    </g>
    <g id="xtick_5">
     <g id="line2d_5">
      <g>
       <use xlink:href="#m00f79658f6" x="592.387229" y="355.39125" style="stroke: #000000; stroke-width: 0.8"/>
      </g>
     </g>
     <g id="text_5">
      <!-- 0.8 -->
      <g transform="translate(585.447386 370.350625) scale(0.1 -0.1)">
       <defs>
        <path id="NotoSansCJKjp-Regular-38" d="M 1792 -83 
C 2669 -83 3258 448 3258 1126 
C 3258 1773 2880 2125 2470 2362 
L 2470 2394 
C 2746 2611 3091 3034 3091 3526 
C 3091 4250 2605 4762 1805 4762 
C 1075 4762 518 4282 518 3571 
C 518 3078 813 2726 1152 2490 
L 1152 2464 
C 723 2234 294 1792 294 1165 
C 294 442 922 -83 1792 -83 
z
M 2112 2547 
C 1555 2765 1050 3014 1050 3571 
C 1050 4026 1363 4326 1798 4326 
C 2298 4326 2592 3962 2592 3494 
C 2592 3149 2426 2829 2112 2547 
z
M 1798 352 
C 1235 352 813 717 813 1216 
C 813 1664 1082 2035 1459 2278 
C 2125 2010 2701 1779 2701 1146 
C 2701 678 2342 352 1798 352 
z
" transform="scale(0.015625)"/>
       </defs>
       <use xlink:href="#NotoSansCJKjp-Regular-30"/>
       <use xlink:href="#NotoSansCJKjp-Regular-2e" x="55.499985"/>
       <use xlink:href="#NotoSansCJKjp-Regular-38" x="83.299973"/>
      </g>
     </g>
    </g>
    <g id="xtick_6">
     <g id="line2d_6">
      <g>
       <use xlink:href="#m00f79658f6" x="699.746537" y="355.39125" style="stroke: #000000; stroke-width: 0.8"/>
      </g>
     </g>
     <g id="text_6">
      <!-- 1.0 -->
      <g transform="translate(692.806693 370.350625) scale(0.1 -0.1)">
       <defs>
        <path id="NotoSansCJKjp-Regular-31" d="M 563 0 
L 3136 0 
L 3136 486 
L 2195 486 
L 2195 4691 
L 1747 4691 
C 1491 4544 1190 4435 774 4358 
L 774 3987 
L 1613 3987 
L 1613 486 
L 563 486 
L 563 0 
z
" transform="scale(0.015625)"/>
       </defs>
       <use xlink:href="#NotoSansCJKjp-Regular-31"/>
       <use xlink:href="#NotoSansCJKjp-Regular-2e" x="55.499985"/>
       <use xlink:href="#NotoSansCJKjp-Regular-30" x="83.299973"/>
      </g>
     </g>
    </g>
    <g id="text_7">
     <!-- ECC_AC / ECC_MM（越小越好） -->
     <g transform="translate(369.158594 384.700625) scale(0.1 -0.1)">
      <defs>
       <path id="NotoSansCJKjp-Regular-45" d="M 646 0 
L 3418 0 
L 3418 506 
L 1235 506 
L 1235 2214 
L 3014 2214 
L 3014 2720 
L 1235 2720 
L 1235 4192 
L 3347 4192 
L 3347 4691 
L 646 4691 
L 646 0 
z
" transform="scale(0.015625)"/>
       <path id="NotoSansCJKjp-Regular-43" d="M 2413 -83 
C 3021 -83 3482 160 3853 589 
L 3526 966 
C 3226 634 2886 435 2438 435 
C 1542 435 979 1178 979 2362 
C 979 3533 1574 4256 2458 4256 
C 2861 4256 3168 4077 3418 3814 
L 3738 4198 
C 3469 4499 3021 4774 2451 4774 
C 1261 4774 371 3859 371 2342 
C 371 819 1242 -83 2413 -83 
z
" transform="scale(0.015625)"/>
       <path id="NotoSansCJKjp-Regular-5f" d="M 83 -896 
L 3488 -896 
L 3488 -512 
L 83 -512 
L 83 -896 
z
" transform="scale(0.015625)"/>
       <path id="NotoSansCJKjp-Regular-41" d="M 26 0 
L 621 0 
L 1075 1434 
L 2790 1434 
L 3238 0 
L 3866 0 
L 2272 4691 
L 1613 4691 
L 26 0 
z
M 1222 1901 
L 1453 2624 
C 1619 3155 1773 3661 1920 4211 
L 1946 4211 
C 2099 3667 2246 3155 2419 2624 
L 2643 1901 
L 1222 1901 
z
" transform="scale(0.015625)"/>
       <path id="NotoSansCJKjp-Regular-20" transform="scale(0.015625)"/>
       <path id="NotoSansCJKjp-Regular-2f" d="M 70 -1146 
L 499 -1146 
L 2413 5082 
L 1990 5082 
L 70 -1146 
z
" transform="scale(0.015625)"/>
       <path id="NotoSansCJKjp-Regular-4d" d="M 646 0 
L 1178 0 
L 1178 2598 
C 1178 3002 1139 3571 1101 3981 
L 1126 3981 
L 1504 2912 
L 2394 474 
L 2790 474 
L 3674 2912 
L 4051 3981 
L 4077 3981 
C 4045 3571 4000 3002 4000 2598 
L 4000 0 
L 4550 0 
L 4550 4691 
L 3840 4691 
L 2944 2182 
C 2835 1862 2739 1530 2618 1203 
L 2592 1203 
C 2477 1530 2374 1862 2253 2182 
L 1357 4691 
L 646 4691 
L 646 0 
z
" transform="scale(0.015625)"/>
       <path id="NotoSansCJKjp-Regular-ff08" d="M 4448 2432 
C 4448 1184 4954 166 5722 -614 
L 6106 -416 
C 5370 346 4915 1293 4915 2432 
C 4915 3571 5370 4518 6106 5280 
L 5722 5478 
C 4954 4698 4448 3680 4448 2432 
z
" transform="scale(0.015625)"/>
       <path id="NotoSansCJKjp-Regular-8d8a" d="M 5050 5139 
C 5280 4902 5549 4570 5670 4346 
L 6016 4557 
C 5894 4768 5619 5088 5382 5318 
L 5050 5139 
z
M 5632 3443 
C 5491 2963 5293 2496 5050 2074 
C 4947 2554 4870 3162 4826 3853 
L 6144 3853 
L 6144 4262 
L 4800 4262 
C 4787 4614 4781 4986 4781 5376 
L 4326 5376 
C 4333 4992 4346 4621 4358 4262 
L 3200 4262 
L 3200 1414 
L 2643 1114 
L 2854 730 
C 3328 1005 3936 1370 4499 1715 
L 4371 2074 
L 3635 1658 
L 3635 3853 
L 4384 3853 
C 4448 2963 4550 2182 4723 1594 
C 4422 1203 4077 883 3699 666 
C 3789 589 3923 435 3994 326 
C 4320 538 4614 806 4883 1126 
C 5075 691 5318 435 5632 435 
C 6022 435 6170 710 6240 1600 
C 6131 1651 5984 1734 5888 1830 
C 5869 1158 5805 883 5683 883 
C 5498 883 5325 1120 5190 1536 
C 5542 2061 5818 2675 6010 3341 
L 5632 3443 
z
M 646 2483 
C 659 1626 602 557 134 -211 
C 237 -256 390 -397 461 -493 
C 704 -96 851 365 941 838 
C 1434 -122 2234 -346 3648 -346 
L 6010 -346 
C 6035 -205 6125 19 6202 128 
C 5824 115 3936 115 3642 115 
C 2976 115 2451 166 2042 352 
L 2042 1600 
L 2963 1600 
L 2963 2029 
L 2042 2029 
L 2042 2918 
L 3040 2918 
L 3040 3347 
L 1952 3347 
L 1952 4160 
L 2925 4160 
L 2925 4582 
L 1952 4582 
L 1952 5376 
L 1510 5376 
L 1510 4582 
L 525 4582 
L 525 4160 
L 1510 4160 
L 1510 3347 
L 282 3347 
L 282 2918 
L 1606 2918 
L 1606 634 
C 1357 864 1171 1184 1030 1632 
C 1050 1920 1056 2195 1050 2458 
L 646 2483 
z
" transform="scale(0.015625)"/>
       <path id="NotoSansCJKjp-Regular-5c0f" d="M 2970 5286 
L 2970 154 
C 2970 26 2918 -13 2790 -19 
C 2656 -26 2195 -32 1728 -13 
C 1805 -147 1894 -378 1926 -512 
C 2528 -518 2925 -506 3162 -422 
C 3392 -346 3488 -198 3488 154 
L 3488 5286 
L 2970 5286 
z
M 4512 3654 
C 5062 2733 5581 1536 5728 774 
L 6246 986 
C 6080 1754 5536 2931 4973 3827 
L 4512 3654 
z
M 1293 3782 
C 1133 2925 774 1818 205 1139 
C 339 1082 550 966 659 883 
C 1242 1594 1619 2752 1830 3693 
L 1293 3782 
z
" transform="scale(0.015625)"/>
       <path id="NotoSansCJKjp-Regular-597d" d="M 4160 3648 
L 4160 2797 
L 2643 2797 
L 2643 2342 
L 4160 2342 
L 4160 96 
C 4160 0 4122 -26 4013 -32 
C 3898 -38 3546 -38 3136 -26 
C 3206 -160 3290 -365 3315 -499 
C 3821 -499 4160 -486 4365 -416 
C 4570 -333 4634 -198 4634 96 
L 4634 2342 
L 6163 2342 
L 6163 2797 
L 4634 2797 
L 4634 3360 
C 5126 3750 5677 4326 6035 4845 
L 5715 5075 
L 5619 5050 
L 2861 5050 
L 2861 4602 
L 5267 4602 
C 5005 4269 4666 3904 4346 3648 
L 4160 3648 
z
M 1242 5376 
C 1171 4979 1082 4525 986 4058 
L 275 4058 
L 275 3603 
L 883 3603 
C 710 2803 518 2016 365 1466 
L 762 1248 
L 832 1517 
C 1056 1382 1280 1222 1498 1062 
C 1190 506 800 109 333 -141 
C 435 -237 563 -410 627 -525 
C 1126 -224 1542 198 1869 768 
C 2138 544 2368 320 2522 122 
L 2816 512 
C 2643 723 2381 960 2080 1197 
C 2394 1920 2592 2842 2675 4013 
L 2387 4070 
L 2304 4058 
L 1440 4058 
C 1536 4499 1626 4934 1702 5325 
L 1242 5376 
z
M 1338 3603 
L 2195 3603 
C 2106 2765 1939 2054 1696 1478 
C 1446 1651 1190 1818 947 1958 
C 1075 2458 1210 3034 1338 3603 
z
" transform="scale(0.015625)"/>
       <path id="NotoSansCJKjp-Regular-ff09" d="M 1952 2432 
C 1952 3680 1446 4698 678 5478 
L 294 5280 
C 1030 4518 1485 3571 1485 2432 
C 1485 1293 1030 346 294 -416 
L 678 -614 
C 1446 166 1952 1184 1952 2432 
z
" transform="scale(0.015625)"/>
      </defs>
      <use xlink:href="#NotoSansCJKjp-Regular-45"/>
      <use xlink:href="#NotoSansCJKjp-Regular-43" x="58.899994"/>
      <use xlink:href="#NotoSansCJKjp-Regular-43" x="122.699982"/>
      <use xlink:href="#NotoSansCJKjp-Regular-5f" x="186.499969"/>
      <use xlink:href="#NotoSansCJKjp-Regular-41" x="242.399963"/>
      <use xlink:href="#NotoSansCJKjp-Regular-43" x="303.199951"/>
      <use xlink:href="#NotoSansCJKjp-Regular-20" x="366.999939"/>
      <use xlink:href="#NotoSansCJKjp-Regular-2f" x="389.399933"/>
      <use xlink:href="#NotoSansCJKjp-Regular-20" x="428.59993"/>
      <use xlink:href="#NotoSansCJKjp-Regular-45" x="450.999924"/>
      <use xlink:href="#NotoSansCJKjp-Regular-43" x="509.899918"/>
      <use xlink:href="#NotoSansCJKjp-Regular-43" x="573.699905"/>
      <use xlink:href="#NotoSansCJKjp-Regular-5f" x="637.499893"/>
      <use xlink:href="#NotoSansCJKjp-Regular-4d" x="693.399887"/>
      <use xlink:href="#NotoSansCJKjp-Regular-4d" x="774.599869"/>
      <use xlink:href="#NotoSansCJKjp-Regular-ff08" x="855.79985"/>
      <use xlink:href="#NotoSansCJKjp-Regular-8d8a" x="955.799835"/>
      <use xlink:href="#NotoSansCJKjp-Regular-5c0f" x="1055.79982"/>
      <use xlink:href="#NotoSansCJKjp-Regular-8d8a" x="1155.799805"/>
      <use xlink:href="#NotoSansCJKjp-Regular-597d" x="1255.799789"/>
      <use xlink:href="#NotoSansCJKjp-Regular-ff09" x="1355.799774"/>
     </g>
    </g>
   </g>
   <g id="matplotlib.axis_2">
    <g id="ytick_1">
     <g id="line2d_7">
      <defs>
       <path id="m0c9cad4d05" d="M 0 0 
L -3.5 0 
" style="stroke: #000000; stroke-width: 0.8"/>
      </defs>
      <g>
       <use xlink:href="#m0c9cad4d05" x="162.95" y="334.162159" style="stroke: #000000; stroke-width: 0.8"/>
      </g>
     </g>
     <g id="text_8">
      <!-- email-Eu-core-temporal -->
      <g transform="translate(43.798437 338.141847) scale(0.1 -0.1)">
       <defs>
        <path id="NotoSansCJKjp-Regular-65" d="M 1997 -83 
C 2464 -83 2835 70 3136 269 
L 2931 659 
C 2669 486 2400 384 2061 384 
C 1402 384 947 858 909 1600 
L 3251 1600 
C 3264 1690 3277 1805 3277 1933 
C 3277 2925 2778 3565 1888 3565 
C 1094 3565 333 2867 333 1734 
C 333 589 1069 -83 1997 -83 
z
M 902 2016 
C 973 2707 1408 3098 1901 3098 
C 2445 3098 2765 2720 2765 2016 
L 902 2016 
z
" transform="scale(0.015625)"/>
        <path id="NotoSansCJKjp-Regular-6d" d="M 589 0 
L 1178 0 
L 1178 2522 
C 1491 2880 1786 3053 2048 3053 
C 2490 3053 2694 2778 2694 2125 
L 2694 0 
L 3277 0 
L 3277 2522 
C 3603 2880 3885 3053 4154 3053 
C 4595 3053 4800 2778 4800 2125 
L 4800 0 
L 5382 0 
L 5382 2202 
C 5382 3085 5043 3565 4333 3565 
C 3904 3565 3546 3290 3181 2899 
C 3040 3309 2758 3565 2221 3565 
C 1805 3565 1446 3302 1139 2970 
L 1126 2970 
L 1069 3475 
L 589 3475 
L 589 0 
z
" transform="scale(0.015625)"/>
        <path id="NotoSansCJKjp-Regular-61" d="M 1389 -83 
C 1818 -83 2208 141 2541 416 
L 2560 416 
L 2611 0 
L 3091 0 
L 3091 2138 
C 3091 3002 2739 3565 1888 3565 
C 1325 3565 838 3315 525 3110 
L 749 2707 
C 1024 2893 1389 3078 1792 3078 
C 2362 3078 2509 2650 2509 2202 
C 1030 2035 378 1658 378 902 
C 378 275 806 -83 1389 -83 
z
M 1555 390 
C 1210 390 941 544 941 941 
C 941 1389 1338 1677 2509 1811 
L 2509 845 
C 2170 544 1888 390 1555 390 
z
" transform="scale(0.015625)"/>
        <path id="NotoSansCJKjp-Regular-69" d="M 589 0 
L 1178 0 
L 1178 3475 
L 589 3475 
L 589 0 
z
M 883 4192 
C 1114 4192 1274 4346 1274 4582 
C 1274 4806 1114 4960 883 4960 
C 653 4960 499 4806 499 4582 
C 499 4346 653 4192 883 4192 
z
" transform="scale(0.015625)"/>
        <path id="NotoSansCJKjp-Regular-6c" d="M 1203 -83 
C 1363 -83 1459 -58 1542 -32 
L 1459 416 
C 1395 403 1370 403 1338 403 
C 1248 403 1178 474 1178 653 
L 1178 5094 
L 589 5094 
L 589 691 
C 589 198 768 -83 1203 -83 
z
" transform="scale(0.015625)"/>
        <path id="NotoSansCJKjp-Regular-2d" d="M 294 1568 
L 1933 1568 
L 1933 2016 
L 294 2016 
L 294 1568 
z
" transform="scale(0.015625)"/>
        <path id="NotoSansCJKjp-Regular-75" d="M 1606 -83 
C 2080 -83 2426 166 2752 544 
L 2771 544 
L 2816 0 
L 3302 0 
L 3302 3475 
L 2720 3475 
L 2720 1011 
C 2387 602 2138 422 1779 422 
C 1318 422 1126 698 1126 1344 
L 1126 3475 
L 538 3475 
L 538 1274 
C 538 384 870 -83 1606 -83 
z
" transform="scale(0.015625)"/>
        <path id="NotoSansCJKjp-Regular-63" d="M 1958 -83 
C 2374 -83 2771 83 3085 352 
L 2829 749 
C 2611 557 2330 403 2010 403 
C 1370 403 934 934 934 1734 
C 934 2534 1395 3072 2029 3072 
C 2298 3072 2522 2950 2720 2771 
L 3014 3155 
C 2771 3373 2458 3565 2003 3565 
C 1107 3565 333 2893 333 1734 
C 333 582 1037 -83 1958 -83 
z
" transform="scale(0.015625)"/>
        <path id="NotoSansCJKjp-Regular-6f" d="M 1939 -83 
C 2790 -83 3546 582 3546 1734 
C 3546 2893 2790 3565 1939 3565 
C 1088 3565 333 2893 333 1734 
C 333 582 1088 -83 1939 -83 
z
M 1939 403 
C 1338 403 934 934 934 1734 
C 934 2534 1338 3072 1939 3072 
C 2541 3072 2950 2534 2950 1734 
C 2950 934 2541 403 1939 403 
z
" transform="scale(0.015625)"/>
        <path id="NotoSansCJKjp-Regular-72" d="M 589 0 
L 1178 0 
L 1178 2234 
C 1408 2822 1760 3040 2048 3040 
C 2195 3040 2272 3021 2387 2982 
L 2496 3488 
C 2387 3546 2278 3565 2125 3565 
C 1741 3565 1382 3283 1139 2842 
L 1126 2842 
L 1069 3475 
L 589 3475 
L 589 0 
z
" transform="scale(0.015625)"/>
        <path id="NotoSansCJKjp-Regular-74" d="M 1677 -83 
C 1894 -83 2125 -19 2323 45 
L 2208 486 
C 2093 435 1939 390 1811 390 
C 1408 390 1274 634 1274 1056 
L 1274 3002 
L 2221 3002 
L 2221 3475 
L 1274 3475 
L 1274 4454 
L 787 4454 
L 723 3475 
L 173 3443 
L 173 3002 
L 691 3002 
L 691 1075 
C 691 378 941 -83 1677 -83 
z
" transform="scale(0.015625)"/>
        <path id="NotoSansCJKjp-Regular-70" d="M 589 -1466 
L 1178 -1466 
L 1178 -288 
L 1158 320 
C 1472 58 1805 -83 2118 -83 
C 2912 -83 3629 602 3629 1792 
C 3629 2867 3142 3565 2246 3565 
C 1843 3565 1453 3334 1139 3072 
L 1126 3072 
L 1069 3475 
L 589 3475 
L 589 -1466 
z
M 2022 410 
C 1792 410 1485 499 1178 768 
L 1178 2598 
C 1510 2906 1811 3072 2099 3072 
C 2765 3072 3021 2560 3021 1786 
C 3021 928 2598 410 2022 410 
z
" transform="scale(0.015625)"/>
       </defs>
       <use xlink:href="#NotoSansCJKjp-Regular-65"/>
       <use xlink:href="#NotoSansCJKjp-Regular-6d" x="55.399994"/>
       <use xlink:href="#NotoSansCJKjp-Regular-61" x="147.999985"/>
       <use xlink:href="#NotoSansCJKjp-Regular-69" x="204.299973"/>
       <use xlink:href="#NotoSansCJKjp-Regular-6c" x="231.799957"/>
       <use xlink:href="#NotoSansCJKjp-Regular-2d" x="260.199951"/>
       <use xlink:href="#NotoSansCJKjp-Regular-45" x="294.899948"/>
       <use xlink:href="#NotoSansCJKjp-Regular-75" x="353.799942"/>
       <use xlink:href="#NotoSansCJKjp-Regular-2d" x="414.499939"/>
       <use xlink:href="#NotoSansCJKjp-Regular-63" x="449.199936"/>
       <use xlink:href="#NotoSansCJKjp-Regular-6f" x="500.199921"/>
       <use xlink:href="#NotoSansCJKjp-Regular-72" x="560.799911"/>
       <use xlink:href="#NotoSansCJKjp-Regular-65" x="599.599899"/>
       <use xlink:href="#NotoSansCJKjp-Regular-2d" x="654.999893"/>
       <use xlink:href="#NotoSansCJKjp-Regular-74" x="689.69989"/>
       <use xlink:href="#NotoSansCJKjp-Regular-65" x="727.399887"/>
       <use xlink:href="#NotoSansCJKjp-Regular-6d" x="782.799881"/>
       <use xlink:href="#NotoSansCJKjp-Regular-70" x="875.399872"/>
       <use xlink:href="#NotoSansCJKjp-Regular-6f" x="937.399857"/>
       <use xlink:href="#NotoSansCJKjp-Regular-72" x="997.999847"/>
       <use xlink:href="#NotoSansCJKjp-Regular-61" x="1036.799835"/>
       <use xlink:href="#NotoSansCJKjp-Regular-6c" x="1093.099823"/>
      </g>
     </g>
    </g>
    <g id="ytick_2">
     <g id="line2d_8">
      <g>
       <use xlink:href="#m0c9cad4d05" x="162.95" y="318.889432" style="stroke: #000000; stroke-width: 0.8"/>
      </g>
     </g>
     <g id="text_9">
      <!-- email-Eu-core-temporal-Dept3 -->
      <g transform="translate(12.3875 322.869119) scale(0.1 -0.1)">
       <defs>
        <path id="NotoSansCJKjp-Regular-44" d="M 646 0 
L 1843 0 
C 3258 0 4026 877 4026 2362 
C 4026 3859 3258 4691 1818 4691 
L 646 4691 
L 646 0 
z
M 1235 486 
L 1235 4211 
L 1766 4211 
C 2874 4211 3418 3552 3418 2362 
C 3418 1178 2874 486 1766 486 
L 1235 486 
z
" transform="scale(0.015625)"/>
        <path id="NotoSansCJKjp-Regular-33" d="M 1683 -83 
C 2522 -83 3194 416 3194 1254 
C 3194 1901 2752 2310 2202 2445 
L 2202 2477 
C 2701 2650 3034 3034 3034 3603 
C 3034 4346 2458 4774 1664 4774 
C 1126 4774 710 4538 358 4218 
L 672 3846 
C 941 4115 1267 4301 1645 4301 
C 2138 4301 2438 4006 2438 3558 
C 2438 3053 2112 2662 1139 2662 
L 1139 2214 
C 2227 2214 2598 1843 2598 1274 
C 2598 736 2208 403 1645 403 
C 1114 403 762 659 486 941 
L 186 563 
C 493 224 954 -83 1683 -83 
z
" transform="scale(0.015625)"/>
       </defs>
       <use xlink:href="#NotoSansCJKjp-Regular-65"/>
       <use xlink:href="#NotoSansCJKjp-Regular-6d" x="55.399994"/>
       <use xlink:href="#NotoSansCJKjp-Regular-61" x="147.999985"/>
       <use xlink:href="#NotoSansCJKjp-Regular-69" x="204.299973"/>
       <use xlink:href="#NotoSansCJKjp-Regular-6c" x="231.799957"/>
       <use xlink:href="#NotoSansCJKjp-Regular-2d" x="260.199951"/>
       <use xlink:href="#NotoSansCJKjp-Regular-45" x="294.899948"/>
       <use xlink:href="#NotoSansCJKjp-Regular-75" x="353.799942"/>
       <use xlink:href="#NotoSansCJKjp-Regular-2d" x="414.499939"/>
       <use xlink:href="#NotoSansCJKjp-Regular-63" x="449.199936"/>
       <use xlink:href="#NotoSansCJKjp-Regular-6f" x="500.199921"/>
       <use xlink:href="#NotoSansCJKjp-Regular-72" x="560.799911"/>
       <use xlink:href="#NotoSansCJKjp-Regular-65" x="599.599899"/>
       <use xlink:href="#NotoSansCJKjp-Regular-2d" x="654.999893"/>
       <use xlink:href="#NotoSansCJKjp-Regular-74" x="689.69989"/>
       <use xlink:href="#NotoSansCJKjp-Regular-65" x="727.399887"/>
       <use xlink:href="#NotoSansCJKjp-Regular-6d" x="782.799881"/>
       <use xlink:href="#NotoSansCJKjp-Regular-70" x="875.399872"/>
       <use xlink:href="#NotoSansCJKjp-Regular-6f" x="937.399857"/>
       <use xlink:href="#NotoSansCJKjp-Regular-72" x="997.999847"/>
       <use xlink:href="#NotoSansCJKjp-Regular-61" x="1036.799835"/>
       <use xlink:href="#NotoSansCJKjp-Regular-6c" x="1093.099823"/>
       <use xlink:href="#NotoSansCJKjp-Regular-2d" x="1121.499817"/>
       <use xlink:href="#NotoSansCJKjp-Regular-44" x="1156.199814"/>
       <use xlink:href="#NotoSansCJKjp-Regular-65" x="1224.999802"/>
       <use xlink:href="#NotoSansCJKjp-Regular-70" x="1280.399796"/>
       <use xlink:href="#NotoSansCJKjp-Regular-74" x="1342.39978"/>
       <use xlink:href="#NotoSansCJKjp-Regular-33" x="1380.099777"/>
      </g>
     </g>
    </g>
    <g id="ytick_3">
     <g id="line2d_9">
      <g>
       <use xlink:href="#m0c9cad4d05" x="162.95" y="303.616705" style="stroke: #000000; stroke-width: 0.8"/>
      </g>
     </g>
     <g id="text_10">
      <!-- email-Eu-core-temporal-Dept1 -->
      <g transform="translate(12.3875 307.596392) scale(0.1 -0.1)">
       <use xlink:href="#NotoSansCJKjp-Regular-65"/>
       <use xlink:href="#NotoSansCJKjp-Regular-6d" x="55.399994"/>
       <use xlink:href="#NotoSansCJKjp-Regular-61" x="147.999985"/>
       <use xlink:href="#NotoSansCJKjp-Regular-69" x="204.299973"/>
       <use xlink:href="#NotoSansCJKjp-Regular-6c" x="231.799957"/>
       <use xlink:href="#NotoSansCJKjp-Regular-2d" x="260.199951"/>
       <use xlink:href="#NotoSansCJKjp-Regular-45" x="294.899948"/>
       <use xlink:href="#NotoSansCJKjp-Regular-75" x="353.799942"/>
       <use xlink:href="#NotoSansCJKjp-Regular-2d" x="414.499939"/>
       <use xlink:href="#NotoSansCJKjp-Regular-63" x="449.199936"/>
       <use xlink:href="#NotoSansCJKjp-Regular-6f" x="500.199921"/>
       <use xlink:href="#NotoSansCJKjp-Regular-72" x="560.799911"/>
       <use xlink:href="#NotoSansCJKjp-Regular-65" x="599.599899"/>
       <use xlink:href="#NotoSansCJKjp-Regular-2d" x="654.999893"/>
       <use xlink:href="#NotoSansCJKjp-Regular-74" x="689.69989"/>
       <use xlink:href="#NotoSansCJKjp-Regular-65" x="727.399887"/>
       <use xlink:href="#NotoSansCJKjp-Regular-6d" x="782.799881"/>
       <use xlink:href="#NotoSansCJKjp-Regular-70" x="875.399872"/>
       <use xlink:href="#NotoSansCJKjp-Regular-6f" x="937.399857"/>
       <use xlink:href="#NotoSansCJKjp-Regular-72" x="997.999847"/>
       <use xlink:href="#NotoSansCJKjp-Regular-61" x="1036.799835"/>
       <use xlink:href="#NotoSansCJKjp-Regular-6c" x="1093.099823"/>
       <use xlink:href="#NotoSansCJKjp-Regular-2d" x="1121.499817"/>
       <use xlink:href="#NotoSansCJKjp-Regular-44" x="1156.199814"/>
       <use xlink:href="#NotoSansCJKjp-Regular-65" x="1224.999802"/>
       <use xlink:href="#NotoSansCJKjp-Regular-70" x="1280.399796"/>
       <use xlink:href="#NotoSansCJKjp-Regular-74" x="1342.39978"/>
       <use xlink:href="#NotoSansCJKjp-Regular-31" x="1380.099777"/>
      </g>
     </g>
    </g>
    <g id="ytick_4">
     <g id="line2d_10">
      <g>
       <use xlink:href="#m0c9cad4d05" x="162.95" y="288.343977" style="stroke: #000000; stroke-width: 0.8"/>
      </g>
     </g>
     <g id="text_11">
      <!-- email-Eu-core-temporal-Dept4 -->
      <g transform="translate(12.3875 292.323665) scale(0.1 -0.1)">
       <use xlink:href="#NotoSansCJKjp-Regular-65"/>
       <use xlink:href="#NotoSansCJKjp-Regular-6d" x="55.399994"/>
       <use xlink:href="#NotoSansCJKjp-Regular-61" x="147.999985"/>
       <use xlink:href="#NotoSansCJKjp-Regular-69" x="204.299973"/>
       <use xlink:href="#NotoSansCJKjp-Regular-6c" x="231.799957"/>
       <use xlink:href="#NotoSansCJKjp-Regular-2d" x="260.199951"/>
       <use xlink:href="#NotoSansCJKjp-Regular-45" x="294.899948"/>
       <use xlink:href="#NotoSansCJKjp-Regular-75" x="353.799942"/>
       <use xlink:href="#NotoSansCJKjp-Regular-2d" x="414.499939"/>
       <use xlink:href="#NotoSansCJKjp-Regular-63" x="449.199936"/>
       <use xlink:href="#NotoSansCJKjp-Regular-6f" x="500.199921"/>
       <use xlink:href="#NotoSansCJKjp-Regular-72" x="560.799911"/>
       <use xlink:href="#NotoSansCJKjp-Regular-65" x="599.599899"/>
       <use xlink:href="#NotoSansCJKjp-Regular-2d" x="654.999893"/>
       <use xlink:href="#NotoSansCJKjp-Regular-74" x="689.69989"/>
       <use xlink:href="#NotoSansCJKjp-Regular-65" x="727.399887"/>
       <use xlink:href="#NotoSansCJKjp-Regular-6d" x="782.799881"/>
       <use xlink:href="#NotoSansCJKjp-Regular-70" x="875.399872"/>
       <use xlink:href="#NotoSansCJKjp-Regular-6f" x="937.399857"/>
       <use xlink:href="#NotoSansCJKjp-Regular-72" x="997.999847"/>
       <use xlink:href="#NotoSansCJKjp-Regular-61" x="1036.799835"/>
       <use xlink:href="#NotoSansCJKjp-Regular-6c" x="1093.099823"/>
       <use xlink:href="#NotoSansCJKjp-Regular-2d" x="1121.499817"/>
       <use xlink:href="#NotoSansCJKjp-Regular-44" x="1156.199814"/>
       <use xlink:href="#NotoSansCJKjp-Regular-65" x="1224.999802"/>
       <use xlink:href="#NotoSansCJKjp-Regular-70" x="1280.399796"/>
       <use xlink:href="#NotoSansCJKjp-Regular-74" x="1342.39978"/>
       <use xlink:href="#NotoSansCJKjp-Regular-34" x="1380.099777"/>
      </g>
     </g>
    </g>
    <g id="ytick_5">
     <g id="line2d_11">
      <g>
       <use xlink:href="#m0c9cad4d05" x="162.95" y="273.07125" style="stroke: #000000; stroke-width: 0.8"/>
      </g>
     </g>
     <g id="text_12">
      <!-- email-Eu-core-temporal-Dept2 -->
      <g transform="translate(12.3875 277.050937) scale(0.1 -0.1)">
       <use xlink:href="#NotoSansCJKjp-Regular-65"/>
       <use xlink:href="#NotoSansCJKjp-Regular-6d" x="55.399994"/>
       <use xlink:href="#NotoSansCJKjp-Regular-61" x="147.999985"/>
       <use xlink:href="#NotoSansCJKjp-Regular-69" x="204.299973"/>
       <use xlink:href="#NotoSansCJKjp-Regular-6c" x="231.799957"/>
       <use xlink:href="#NotoSansCJKjp-Regular-2d" x="260.199951"/>
       <use xlink:href="#NotoSansCJKjp-Regular-45" x="294.899948"/>
       <use xlink:href="#NotoSansCJKjp-Regular-75" x="353.799942"/>
       <use xlink:href="#NotoSansCJKjp-Regular-2d" x="414.499939"/>
       <use xlink:href="#NotoSansCJKjp-Regular-63" x="449.199936"/>
       <use xlink:href="#NotoSansCJKjp-Regular-6f" x="500.199921"/>
       <use xlink:href="#NotoSansCJKjp-Regular-72" x="560.799911"/>
       <use xlink:href="#NotoSansCJKjp-Regular-65" x="599.599899"/>
       <use xlink:href="#NotoSansCJKjp-Regular-2d" x="654.999893"/>
       <use xlink:href="#NotoSansCJKjp-Regular-74" x="689.69989"/>
       <use xlink:href="#NotoSansCJKjp-Regular-65" x="727.399887"/>
       <use xlink:href="#NotoSansCJKjp-Regular-6d" x="782.799881"/>
       <use xlink:href="#NotoSansCJKjp-Regular-70" x="875.399872"/>
       <use xlink:href="#NotoSansCJKjp-Regular-6f" x="937.399857"/>
       <use xlink:href="#NotoSansCJKjp-Regular-72" x="997.999847"/>
       <use xlink:href="#NotoSansCJKjp-Regular-61" x="1036.799835"/>
       <use xlink:href="#NotoSansCJKjp-Regular-6c" x="1093.099823"/>
       <use xlink:href="#NotoSansCJKjp-Regular-2d" x="1121.499817"/>
       <use xlink:href="#NotoSansCJKjp-Regular-44" x="1156.199814"/>
       <use xlink:href="#NotoSansCJKjp-Regular-65" x="1224.999802"/>
       <use xlink:href="#NotoSansCJKjp-Regular-70" x="1280.399796"/>
       <use xlink:href="#NotoSansCJKjp-Regular-74" x="1342.39978"/>
       <use xlink:href="#NotoSansCJKjp-Regular-32" x="1380.099777"/>
      </g>
     </g>
    </g>
    <g id="ytick_6">
     <g id="line2d_12">
      <g>
       <use xlink:href="#m0c9cad4d05" x="162.95" y="257.798523" style="stroke: #000000; stroke-width: 0.8"/>
      </g>
     </g>
     <g id="text_13">
      <!-- ia-hospital-ward-proximity-attr -->
      <g transform="translate(10.051562 261.77821) scale(0.1 -0.1)">
       <defs>
        <path id="NotoSansCJKjp-Regular-68" d="M 589 0 
L 1178 0 
L 1178 2522 
C 1523 2874 1766 3053 2125 3053 
C 2586 3053 2784 2778 2784 2125 
L 2784 0 
L 3366 0 
L 3366 2202 
C 3366 3085 3034 3565 2304 3565 
C 1830 3565 1472 3302 1152 2982 
L 1178 3699 
L 1178 5094 
L 589 5094 
L 589 0 
z
" transform="scale(0.015625)"/>
        <path id="NotoSansCJKjp-Regular-73" d="M 1498 -83 
C 2317 -83 2758 384 2758 947 
C 2758 1606 2208 1811 1702 2003 
C 1312 2150 954 2278 954 2605 
C 954 2880 1158 3110 1600 3110 
C 1907 3110 2150 2976 2387 2803 
L 2669 3168 
C 2406 3386 2022 3565 1594 3565 
C 832 3565 397 3130 397 2579 
C 397 1984 922 1754 1408 1574 
C 1792 1434 2202 1267 2202 915 
C 2202 614 1978 371 1517 371 
C 1101 371 794 538 486 787 
L 205 397 
C 531 122 1005 -83 1498 -83 
z
" transform="scale(0.015625)"/>
        <path id="NotoSansCJKjp-Regular-77" d="M 1139 0 
L 1818 0 
L 2310 1862 
C 2400 2195 2470 2522 2547 2874 
L 2579 2874 
C 2662 2522 2726 2202 2816 1875 
L 3315 0 
L 4026 0 
L 4966 3475 
L 4403 3475 
L 3898 1466 
C 3821 1133 3757 819 3686 499 
L 3654 499 
C 3571 819 3494 1133 3411 1466 
L 2867 3475 
L 2298 3475 
L 1754 1466 
C 1670 1133 1594 819 1523 499 
L 1491 499 
C 1421 819 1357 1133 1286 1466 
L 768 3475 
L 173 3475 
L 1139 0 
z
" transform="scale(0.015625)"/>
        <path id="NotoSansCJKjp-Regular-64" d="M 1773 -83 
C 2189 -83 2560 141 2829 410 
L 2848 410 
L 2899 0 
L 3379 0 
L 3379 5094 
L 2790 5094 
L 2790 3757 
L 2822 3162 
C 2515 3411 2253 3565 1843 3565 
C 1050 3565 339 2861 339 1734 
C 339 576 902 -83 1773 -83 
z
M 1901 410 
C 1293 410 941 902 941 1741 
C 941 2534 1389 3072 1946 3072 
C 2234 3072 2502 2970 2790 2707 
L 2790 883 
C 2502 563 2221 410 1901 410 
z
" transform="scale(0.015625)"/>
        <path id="NotoSansCJKjp-Regular-78" d="M 96 0 
L 710 0 
L 1178 813 
C 1299 1024 1408 1235 1530 1434 
L 1562 1434 
C 1696 1235 1824 1024 1939 813 
L 2451 0 
L 3091 0 
L 1946 1754 
L 3002 3475 
L 2394 3475 
L 1965 2714 
C 1856 2515 1760 2330 1658 2131 
L 1626 2131 
C 1510 2330 1389 2515 1286 2714 
L 819 3475 
L 186 3475 
L 1242 1811 
L 96 0 
z
" transform="scale(0.015625)"/>
        <path id="NotoSansCJKjp-Regular-79" d="M 646 -1498 
C 1338 -1498 1702 -973 1946 -294 
L 3251 3475 
L 2682 3475 
L 2054 1549 
C 1965 1235 1862 883 1773 563 
L 1741 563 
C 1619 890 1504 1242 1395 1549 
L 691 3475 
L 83 3475 
L 1478 -6 
L 1402 -269 
C 1254 -698 1011 -1018 621 -1018 
C 525 -1018 422 -986 352 -960 
L 237 -1427 
C 346 -1472 486 -1498 646 -1498 
z
" transform="scale(0.015625)"/>
       </defs>
       <use xlink:href="#NotoSansCJKjp-Regular-69"/>
       <use xlink:href="#NotoSansCJKjp-Regular-61" x="27.499985"/>
       <use xlink:href="#NotoSansCJKjp-Regular-2d" x="83.799973"/>
       <use xlink:href="#NotoSansCJKjp-Regular-68" x="118.499969"/>
       <use xlink:href="#NotoSansCJKjp-Regular-6f" x="179.199966"/>
       <use xlink:href="#NotoSansCJKjp-Regular-73" x="239.799957"/>
       <use xlink:href="#NotoSansCJKjp-Regular-70" x="286.599945"/>
       <use xlink:href="#NotoSansCJKjp-Regular-69" x="348.59993"/>
       <use xlink:href="#NotoSansCJKjp-Regular-74" x="376.099915"/>
       <use xlink:href="#NotoSansCJKjp-Regular-61" x="413.799911"/>
       <use xlink:href="#NotoSansCJKjp-Regular-6c" x="470.099899"/>
       <use xlink:href="#NotoSansCJKjp-Regular-2d" x="498.499893"/>
       <use xlink:href="#NotoSansCJKjp-Regular-77" x="533.19989"/>
       <use xlink:href="#NotoSansCJKjp-Regular-61" x="613.399872"/>
       <use xlink:href="#NotoSansCJKjp-Regular-72" x="669.69986"/>
       <use xlink:href="#NotoSansCJKjp-Regular-64" x="708.499847"/>
       <use xlink:href="#NotoSansCJKjp-Regular-2d" x="770.499832"/>
       <use xlink:href="#NotoSansCJKjp-Regular-70" x="805.199829"/>
       <use xlink:href="#NotoSansCJKjp-Regular-72" x="867.199814"/>
       <use xlink:href="#NotoSansCJKjp-Regular-6f" x="905.999802"/>
       <use xlink:href="#NotoSansCJKjp-Regular-78" x="966.599792"/>
       <use xlink:href="#NotoSansCJKjp-Regular-69" x="1016.39978"/>
       <use xlink:href="#NotoSansCJKjp-Regular-6d" x="1043.899765"/>
       <use xlink:href="#NotoSansCJKjp-Regular-69" x="1136.499756"/>
       <use xlink:href="#NotoSansCJKjp-Regular-74" x="1163.999741"/>
       <use xlink:href="#NotoSansCJKjp-Regular-79" x="1201.699738"/>
       <use xlink:href="#NotoSansCJKjp-Regular-2d" x="1253.799728"/>
       <use xlink:href="#NotoSansCJKjp-Regular-61" x="1288.499725"/>
       <use xlink:href="#NotoSansCJKjp-Regular-74" x="1344.799713"/>
       <use xlink:href="#NotoSansCJKjp-Regular-74" x="1382.49971"/>
       <use xlink:href="#NotoSansCJKjp-Regular-72" x="1420.199707"/>
      </g>
     </g>
    </g>
    <g id="ytick_7">
     <g id="line2d_13">
      <g>
       <use xlink:href="#m0c9cad4d05" x="162.95" y="242.525795" style="stroke: #000000; stroke-width: 0.8"/>
      </g>
     </g>
     <g id="text_14">
      <!-- contacts-prox-high-school-2013 -->
      <g transform="translate(7.2 246.505483) scale(0.1 -0.1)">
       <defs>
        <path id="NotoSansCJKjp-Regular-6e" d="M 589 0 
L 1178 0 
L 1178 2522 
C 1523 2874 1766 3053 2125 3053 
C 2586 3053 2784 2778 2784 2125 
L 2784 0 
L 3366 0 
L 3366 2202 
C 3366 3085 3034 3565 2304 3565 
C 1830 3565 1466 3302 1139 2970 
L 1126 2970 
L 1069 3475 
L 589 3475 
L 589 0 
z
" transform="scale(0.015625)"/>
        <path id="NotoSansCJKjp-Regular-67" d="M 1760 -1600 
C 2835 -1600 3520 -1043 3520 -397 
C 3520 179 3110 429 2310 429 
L 1626 429 
C 1158 429 1018 589 1018 806 
C 1018 998 1114 1114 1242 1222 
C 1395 1146 1587 1101 1754 1101 
C 2470 1101 3027 1568 3027 2310 
C 3027 2611 2912 2867 2746 3027 
L 3456 3027 
L 3456 3475 
L 2246 3475 
C 2125 3526 1952 3565 1754 3565 
C 1056 3565 454 3085 454 2323 
C 454 1907 678 1568 909 1389 
L 909 1363 
C 723 1235 525 1005 525 717 
C 525 442 659 256 838 147 
L 838 115 
C 512 -83 326 -371 326 -672 
C 326 -1267 915 -1600 1760 -1600 
z
M 1754 1498 
C 1357 1498 1018 1818 1018 2323 
C 1018 2835 1350 3136 1754 3136 
C 2170 3136 2496 2835 2496 2323 
C 2496 1818 2157 1498 1754 1498 
z
M 1843 -1197 
C 1210 -1197 838 -960 838 -589 
C 838 -390 941 -179 1190 0 
C 1344 -38 1510 -51 1638 -51 
L 2240 -51 
C 2701 -51 2944 -166 2944 -493 
C 2944 -851 2515 -1197 1843 -1197 
z
" transform="scale(0.015625)"/>
       </defs>
       <use xlink:href="#NotoSansCJKjp-Regular-63"/>
       <use xlink:href="#NotoSansCJKjp-Regular-6f" x="50.999985"/>
       <use xlink:href="#NotoSansCJKjp-Regular-6e" x="111.599976"/>
       <use xlink:href="#NotoSansCJKjp-Regular-74" x="172.59996"/>
       <use xlink:href="#NotoSansCJKjp-Regular-61" x="210.299957"/>
       <use xlink:href="#NotoSansCJKjp-Regular-63" x="266.599945"/>
       <use xlink:href="#NotoSansCJKjp-Regular-74" x="317.59993"/>
       <use xlink:href="#NotoSansCJKjp-Regular-73" x="355.299927"/>
       <use xlink:href="#NotoSansCJKjp-Regular-2d" x="402.099915"/>
       <use xlink:href="#NotoSansCJKjp-Regular-70" x="436.799911"/>
       <use xlink:href="#NotoSansCJKjp-Regular-72" x="498.799896"/>
       <use xlink:href="#NotoSansCJKjp-Regular-6f" x="537.599884"/>
       <use xlink:href="#NotoSansCJKjp-Regular-78" x="598.199875"/>
       <use xlink:href="#NotoSansCJKjp-Regular-2d" x="647.999863"/>
       <use xlink:href="#NotoSansCJKjp-Regular-68" x="682.69986"/>
       <use xlink:href="#NotoSansCJKjp-Regular-69" x="743.399857"/>
       <use xlink:href="#NotoSansCJKjp-Regular-67" x="770.899841"/>
       <use xlink:href="#NotoSansCJKjp-Regular-68" x="827.299835"/>
       <use xlink:href="#NotoSansCJKjp-Regular-2d" x="887.999832"/>
       <use xlink:href="#NotoSansCJKjp-Regular-73" x="922.699829"/>
       <use xlink:href="#NotoSansCJKjp-Regular-63" x="969.499817"/>
       <use xlink:href="#NotoSansCJKjp-Regular-68" x="1020.499802"/>
       <use xlink:href="#NotoSansCJKjp-Regular-6f" x="1081.199799"/>
       <use xlink:href="#NotoSansCJKjp-Regular-6f" x="1141.799789"/>
       <use xlink:href="#NotoSansCJKjp-Regular-6c" x="1202.39978"/>
       <use xlink:href="#NotoSansCJKjp-Regular-2d" x="1230.799774"/>
       <use xlink:href="#NotoSansCJKjp-Regular-32" x="1265.499771"/>
       <use xlink:href="#NotoSansCJKjp-Regular-30" x="1320.999756"/>
       <use xlink:href="#NotoSansCJKjp-Regular-31" x="1376.499741"/>
       <use xlink:href="#NotoSansCJKjp-Regular-33" x="1431.999725"/>
      </g>
     </g>
    </g>
    <g id="ytick_8">
     <g id="line2d_14">
      <g>
       <use xlink:href="#m0c9cad4d05" x="162.95" y="227.253068" style="stroke: #000000; stroke-width: 0.8"/>
      </g>
     </g>
     <g id="text_15">
      <!-- copresence-LH10 -->
      <g transform="translate(74.929687 231.232756) scale(0.1 -0.1)">
       <defs>
        <path id="NotoSansCJKjp-Regular-4c" d="M 646 0 
L 3290 0 
L 3290 506 
L 1235 506 
L 1235 4691 
L 646 4691 
L 646 0 
z
" transform="scale(0.015625)"/>
        <path id="NotoSansCJKjp-Regular-48" d="M 646 0 
L 1235 0 
L 1235 2214 
L 3424 2214 
L 3424 0 
L 4019 0 
L 4019 4691 
L 3424 4691 
L 3424 2726 
L 1235 2726 
L 1235 4691 
L 646 4691 
L 646 0 
z
" transform="scale(0.015625)"/>
       </defs>
       <use xlink:href="#NotoSansCJKjp-Regular-63"/>
       <use xlink:href="#NotoSansCJKjp-Regular-6f" x="50.999985"/>
       <use xlink:href="#NotoSansCJKjp-Regular-70" x="111.599976"/>
       <use xlink:href="#NotoSansCJKjp-Regular-72" x="173.59996"/>
       <use xlink:href="#NotoSansCJKjp-Regular-65" x="212.399948"/>
       <use xlink:href="#NotoSansCJKjp-Regular-73" x="267.799942"/>
       <use xlink:href="#NotoSansCJKjp-Regular-65" x="314.59993"/>
       <use xlink:href="#NotoSansCJKjp-Regular-6e" x="369.999924"/>
       <use xlink:href="#NotoSansCJKjp-Regular-63" x="430.999908"/>
       <use xlink:href="#NotoSansCJKjp-Regular-65" x="481.999893"/>
       <use xlink:href="#NotoSansCJKjp-Regular-2d" x="537.399887"/>
       <use xlink:href="#NotoSansCJKjp-Regular-4c" x="572.099884"/>
       <use xlink:href="#NotoSansCJKjp-Regular-48" x="626.399872"/>
       <use xlink:href="#NotoSansCJKjp-Regular-31" x="699.19986"/>
       <use xlink:href="#NotoSansCJKjp-Regular-30" x="754.699844"/>
      </g>
     </g>
    </g>
    <g id="ytick_9">
     <g id="line2d_15">
      <g>
       <use xlink:href="#m0c9cad4d05" x="162.95" y="211.980341" style="stroke: #000000; stroke-width: 0.8"/>
      </g>
     </g>
     <g id="text_16">
      <!-- ia-radoslaw-email -->
      <g transform="translate(71.670312 215.960028) scale(0.1 -0.1)">
       <use xlink:href="#NotoSansCJKjp-Regular-69"/>
       <use xlink:href="#NotoSansCJKjp-Regular-61" x="27.499985"/>
       <use xlink:href="#NotoSansCJKjp-Regular-2d" x="83.799973"/>
       <use xlink:href="#NotoSansCJKjp-Regular-72" x="118.499969"/>
       <use xlink:href="#NotoSansCJKjp-Regular-61" x="157.299957"/>
       <use xlink:href="#NotoSansCJKjp-Regular-64" x="213.599945"/>
       <use xlink:href="#NotoSansCJKjp-Regular-6f" x="275.59993"/>
       <use xlink:href="#NotoSansCJKjp-Regular-73" x="336.199921"/>
       <use xlink:href="#NotoSansCJKjp-Regular-6c" x="382.999908"/>
       <use xlink:href="#NotoSansCJKjp-Regular-61" x="411.399902"/>
       <use xlink:href="#NotoSansCJKjp-Regular-77" x="467.69989"/>
       <use xlink:href="#NotoSansCJKjp-Regular-2d" x="547.899872"/>
       <use xlink:href="#NotoSansCJKjp-Regular-65" x="582.599869"/>
       <use xlink:href="#NotoSansCJKjp-Regular-6d" x="637.999863"/>
       <use xlink:href="#NotoSansCJKjp-Regular-61" x="730.599854"/>
       <use xlink:href="#NotoSansCJKjp-Regular-69" x="786.899841"/>
       <use xlink:href="#NotoSansCJKjp-Regular-6c" x="814.399826"/>
      </g>
     </g>
    </g>
    <g id="ytick_10">
     <g id="line2d_16">
      <g>
       <use xlink:href="#m0c9cad4d05" x="162.95" y="196.707614" style="stroke: #000000; stroke-width: 0.8"/>
      </g>
     </g>
     <g id="text_17">
      <!-- ia-workplace-contacts -->
      <g transform="translate(51.629687 200.687301) scale(0.1 -0.1)">
       <defs>
        <path id="NotoSansCJKjp-Regular-6b" d="M 589 0 
L 1165 0 
L 1165 915 
L 1818 1677 
L 2835 0 
L 3469 0 
L 2157 2074 
L 3315 3475 
L 2662 3475 
L 1190 1645 
L 1165 1645 
L 1165 5094 
L 589 5094 
L 589 0 
z
" transform="scale(0.015625)"/>
       </defs>
       <use xlink:href="#NotoSansCJKjp-Regular-69"/>
       <use xlink:href="#NotoSansCJKjp-Regular-61" x="27.499985"/>
       <use xlink:href="#NotoSansCJKjp-Regular-2d" x="83.799973"/>
       <use xlink:href="#NotoSansCJKjp-Regular-77" x="118.499969"/>
       <use xlink:href="#NotoSansCJKjp-Regular-6f" x="198.699951"/>
       <use xlink:href="#NotoSansCJKjp-Regular-72" x="259.299942"/>
       <use xlink:href="#NotoSansCJKjp-Regular-6b" x="298.09993"/>
       <use xlink:href="#NotoSansCJKjp-Regular-70" x="353.299927"/>
       <use xlink:href="#NotoSansCJKjp-Regular-6c" x="415.299911"/>
       <use xlink:href="#NotoSansCJKjp-Regular-61" x="443.699905"/>
       <use xlink:href="#NotoSansCJKjp-Regular-63" x="499.999893"/>
       <use xlink:href="#NotoSansCJKjp-Regular-65" x="550.999878"/>
       <use xlink:href="#NotoSansCJKjp-Regular-2d" x="606.399872"/>
       <use xlink:href="#NotoSansCJKjp-Regular-63" x="641.099869"/>
       <use xlink:href="#NotoSansCJKjp-Regular-6f" x="692.099854"/>
       <use xlink:href="#NotoSansCJKjp-Regular-6e" x="752.699844"/>
       <use xlink:href="#NotoSansCJKjp-Regular-74" x="813.699829"/>
       <use xlink:href="#NotoSansCJKjp-Regular-61" x="851.399826"/>
       <use xlink:href="#NotoSansCJKjp-Regular-63" x="907.699814"/>
       <use xlink:href="#NotoSansCJKjp-Regular-74" x="958.699799"/>
       <use xlink:href="#NotoSansCJKjp-Regular-73" x="996.399796"/>
      </g>
     </g>
    </g>
    <g id="ytick_11">
     <g id="line2d_17">
      <g>
       <use xlink:href="#m0c9cad4d05" x="162.95" y="181.434886" style="stroke: #000000; stroke-width: 0.8"/>
      </g>
     </g>
     <g id="text_18">
      <!-- fb-forum -->
      <g transform="translate(114.53125 185.414574) scale(0.1 -0.1)">
       <defs>
        <path id="NotoSansCJKjp-Regular-66" d="M 211 3002 
L 685 3002 
L 685 0 
L 1267 0 
L 1267 3002 
L 2003 3002 
L 2003 3475 
L 1267 3475 
L 1267 4026 
C 1267 4474 1427 4710 1760 4710 
C 1882 4710 2022 4678 2150 4614 
L 2278 5069 
C 2118 5133 1914 5178 1696 5178 
C 1005 5178 685 4736 685 4032 
L 685 3475 
L 211 3443 
L 211 3002 
z
" transform="scale(0.015625)"/>
        <path id="NotoSansCJKjp-Regular-62" d="M 2118 -83 
C 2912 -83 3629 602 3629 1792 
C 3629 2867 3142 3565 2246 3565 
C 1856 3565 1472 3347 1152 3078 
L 1178 3699 
L 1178 5094 
L 589 5094 
L 589 0 
L 1056 0 
L 1107 358 
L 1133 358 
C 1434 83 1798 -83 2118 -83 
z
M 2022 410 
C 1792 410 1478 499 1178 768 
L 1178 2598 
C 1504 2906 1811 3072 2099 3072 
C 2765 3072 3021 2560 3021 1786 
C 3021 928 2598 410 2022 410 
z
" transform="scale(0.015625)"/>
       </defs>
       <use xlink:href="#NotoSansCJKjp-Regular-66"/>
       <use xlink:href="#NotoSansCJKjp-Regular-62" x="32.499985"/>
       <use xlink:href="#NotoSansCJKjp-Regular-2d" x="94.299973"/>
       <use xlink:href="#NotoSansCJKjp-Regular-66" x="128.999969"/>
       <use xlink:href="#NotoSansCJKjp-Regular-6f" x="161.499954"/>
       <use xlink:href="#NotoSansCJKjp-Regular-72" x="222.099945"/>
       <use xlink:href="#NotoSansCJKjp-Regular-75" x="260.899933"/>
       <use xlink:href="#NotoSansCJKjp-Regular-6d" x="321.59993"/>
      </g>
     </g>
    </g>
    <g id="ytick_12">
     <g id="line2d_18">
      <g>
       <use xlink:href="#m0c9cad4d05" x="162.95" y="166.162159" style="stroke: #000000; stroke-width: 0.8"/>
      </g>
     </g>
     <g id="text_19">
      <!-- CollegeMsg -->
      <g transform="translate(102.667187 170.141847) scale(0.1 -0.1)">
       <use xlink:href="#NotoSansCJKjp-Regular-43"/>
       <use xlink:href="#NotoSansCJKjp-Regular-6f" x="63.799988"/>
       <use xlink:href="#NotoSansCJKjp-Regular-6c" x="124.399979"/>
       <use xlink:href="#NotoSansCJKjp-Regular-6c" x="152.799973"/>
       <use xlink:href="#NotoSansCJKjp-Regular-65" x="181.199966"/>
       <use xlink:href="#NotoSansCJKjp-Regular-67" x="236.59996"/>
       <use xlink:href="#NotoSansCJKjp-Regular-65" x="292.999954"/>
       <use xlink:href="#NotoSansCJKjp-Regular-4d" x="348.399948"/>
       <use xlink:href="#NotoSansCJKjp-Regular-73" x="429.59993"/>
       <use xlink:href="#NotoSansCJKjp-Regular-67" x="476.399918"/>
      </g>
     </g>
    </g>
    <g id="ytick_13">
     <g id="line2d_19">
      <g>
       <use xlink:href="#m0c9cad4d05" x="162.95" y="150.889432" style="stroke: #000000; stroke-width: 0.8"/>
      </g>
     </g>
     <g id="text_20">
      <!-- sx-mathoverflow -->
      <g transform="translate(77.23125 154.869119) scale(0.1 -0.1)">
       <defs>
        <path id="NotoSansCJKjp-Regular-76" d="M 1338 0 
L 2022 0 
L 3251 3475 
L 2675 3475 
L 2016 1498 
C 1914 1158 1798 806 1696 474 
L 1664 474 
C 1562 806 1453 1158 1344 1498 
L 691 3475 
L 83 3475 
L 1338 0 
z
" transform="scale(0.015625)"/>
       </defs>
       <use xlink:href="#NotoSansCJKjp-Regular-73"/>
       <use xlink:href="#NotoSansCJKjp-Regular-78" x="46.799988"/>
       <use xlink:href="#NotoSansCJKjp-Regular-2d" x="96.599976"/>
       <use xlink:href="#NotoSansCJKjp-Regular-6d" x="131.299973"/>
       <use xlink:href="#NotoSansCJKjp-Regular-61" x="223.899963"/>
       <use xlink:href="#NotoSansCJKjp-Regular-74" x="280.199951"/>
       <use xlink:href="#NotoSansCJKjp-Regular-68" x="317.899948"/>
       <use xlink:href="#NotoSansCJKjp-Regular-6f" x="378.599945"/>
       <use xlink:href="#NotoSansCJKjp-Regular-76" x="439.199936"/>
       <use xlink:href="#NotoSansCJKjp-Regular-65" x="491.299927"/>
       <use xlink:href="#NotoSansCJKjp-Regular-72" x="546.699921"/>
       <use xlink:href="#NotoSansCJKjp-Regular-66" x="585.499908"/>
       <use xlink:href="#NotoSansCJKjp-Regular-6c" x="617.999893"/>
       <use xlink:href="#NotoSansCJKjp-Regular-6f" x="646.399887"/>
       <use xlink:href="#NotoSansCJKjp-Regular-77" x="706.999878"/>
      </g>
     </g>
    </g>
    <g id="ytick_14">
     <g id="line2d_20">
      <g>
       <use xlink:href="#m0c9cad4d05" x="162.95" y="135.616705" style="stroke: #000000; stroke-width: 0.8"/>
      </g>
     </g>
     <g id="text_21">
      <!-- sx-mathoverflow-c2q -->
      <g transform="translate(56.910937 139.662017) scale(0.1 -0.1)">
       <defs>
        <path id="NotoSansCJKjp-Regular-71" d="M 2790 -1466 
L 3379 -1466 
L 3379 3475 
L 2912 3475 
L 2854 3149 
L 2842 3149 
C 2534 3418 2253 3565 1843 3565 
C 1050 3565 339 2861 339 1734 
C 339 576 902 -83 1773 -83 
C 2176 -83 2541 128 2822 403 
L 2790 -230 
L 2790 -1466 
z
M 1901 410 
C 1293 410 941 902 941 1741 
C 941 2534 1389 3072 1946 3072 
C 2234 3072 2502 2970 2790 2707 
L 2790 883 
C 2502 563 2221 410 1901 410 
z
" transform="scale(0.015625)"/>
       </defs>
       <use xlink:href="#NotoSansCJKjp-Regular-73"/>
       <use xlink:href="#NotoSansCJKjp-Regular-78" x="46.799988"/>
       <use xlink:href="#NotoSansCJKjp-Regular-2d" x="96.599976"/>
       <use xlink:href="#NotoSansCJKjp-Regular-6d" x="131.299973"/>
       <use xlink:href="#NotoSansCJKjp-Regular-61" x="223.899963"/>
       <use xlink:href="#NotoSansCJKjp-Regular-74" x="280.199951"/>
       <use xlink:href="#NotoSansCJKjp-Regular-68" x="317.899948"/>
       <use xlink:href="#NotoSansCJKjp-Regular-6f" x="378.599945"/>
       <use xlink:href="#NotoSansCJKjp-Regular-76" x="439.199936"/>
       <use xlink:href="#NotoSansCJKjp-Regular-65" x="491.299927"/>
       <use xlink:href="#NotoSansCJKjp-Regular-72" x="546.699921"/>
       <use xlink:href="#NotoSansCJKjp-Regular-66" x="585.499908"/>
       <use xlink:href="#NotoSansCJKjp-Regular-6c" x="617.999893"/>
       <use xlink:href="#NotoSansCJKjp-Regular-6f" x="646.399887"/>
       <use xlink:href="#NotoSansCJKjp-Regular-77" x="706.999878"/>
       <use xlink:href="#NotoSansCJKjp-Regular-2d" x="787.19986"/>
       <use xlink:href="#NotoSansCJKjp-Regular-63" x="821.899857"/>
       <use xlink:href="#NotoSansCJKjp-Regular-32" x="872.899841"/>
       <use xlink:href="#NotoSansCJKjp-Regular-71" x="928.399826"/>
      </g>
     </g>
    </g>
    <g id="ytick_15">
     <g id="line2d_21">
      <g>
       <use xlink:href="#m0c9cad4d05" x="162.95" y="120.343977" style="stroke: #000000; stroke-width: 0.8"/>
      </g>
     </g>
     <g id="text_22">
      <!-- sx-mathoverflow-a2q -->
      <g transform="translate(56.38125 124.38929) scale(0.1 -0.1)">
       <use xlink:href="#NotoSansCJKjp-Regular-73"/>
       <use xlink:href="#NotoSansCJKjp-Regular-78" x="46.799988"/>
       <use xlink:href="#NotoSansCJKjp-Regular-2d" x="96.599976"/>
       <use xlink:href="#NotoSansCJKjp-Regular-6d" x="131.299973"/>
       <use xlink:href="#NotoSansCJKjp-Regular-61" x="223.899963"/>
       <use xlink:href="#NotoSansCJKjp-Regular-74" x="280.199951"/>
       <use xlink:href="#NotoSansCJKjp-Regular-68" x="317.899948"/>
       <use xlink:href="#NotoSansCJKjp-Regular-6f" x="378.599945"/>
       <use xlink:href="#NotoSansCJKjp-Regular-76" x="439.199936"/>
       <use xlink:href="#NotoSansCJKjp-Regular-65" x="491.299927"/>
       <use xlink:href="#NotoSansCJKjp-Regular-72" x="546.699921"/>
       <use xlink:href="#NotoSansCJKjp-Regular-66" x="585.499908"/>
       <use xlink:href="#NotoSansCJKjp-Regular-6c" x="617.999893"/>
       <use xlink:href="#NotoSansCJKjp-Regular-6f" x="646.399887"/>
       <use xlink:href="#NotoSansCJKjp-Regular-77" x="706.999878"/>
       <use xlink:href="#NotoSansCJKjp-Regular-2d" x="787.19986"/>
       <use xlink:href="#NotoSansCJKjp-Regular-61" x="821.899857"/>
       <use xlink:href="#NotoSansCJKjp-Regular-32" x="878.199844"/>
       <use xlink:href="#NotoSansCJKjp-Regular-71" x="933.699829"/>
      </g>
     </g>
    </g>
    <g id="ytick_16">
     <g id="line2d_22">
      <g>
       <use xlink:href="#m0c9cad4d05" x="162.95" y="105.07125" style="stroke: #000000; stroke-width: 0.8"/>
      </g>
     </g>
     <g id="text_23">
      <!-- sx-superuser -->
      <g transform="translate(96.279687 109.050937) scale(0.1 -0.1)">
       <use xlink:href="#NotoSansCJKjp-Regular-73"/>
       <use xlink:href="#NotoSansCJKjp-Regular-78" x="46.799988"/>
       <use xlink:href="#NotoSansCJKjp-Regular-2d" x="96.599976"/>
       <use xlink:href="#NotoSansCJKjp-Regular-73" x="131.299973"/>
       <use xlink:href="#NotoSansCJKjp-Regular-75" x="178.09996"/>
       <use xlink:href="#NotoSansCJKjp-Regular-70" x="238.799957"/>
       <use xlink:href="#NotoSansCJKjp-Regular-65" x="300.799942"/>
       <use xlink:href="#NotoSansCJKjp-Regular-72" x="356.199936"/>
       <use xlink:href="#NotoSansCJKjp-Regular-75" x="394.999924"/>
       <use xlink:href="#NotoSansCJKjp-Regular-73" x="455.699921"/>
       <use xlink:href="#NotoSansCJKjp-Regular-65" x="502.499908"/>
       <use xlink:href="#NotoSansCJKjp-Regular-72" x="557.899902"/>
      </g>
     </g>
    </g>
    <g id="ytick_17">
     <g id="line2d_23">
      <g>
       <use xlink:href="#m0c9cad4d05" x="162.95" y="89.798523" style="stroke: #000000; stroke-width: 0.8"/>
      </g>
     </g>
     <g id="text_24">
      <!-- sx-mathoverflow-c2a -->
      <g transform="translate(57.48125 93.77821) scale(0.1 -0.1)">
       <use xlink:href="#NotoSansCJKjp-Regular-73"/>
       <use xlink:href="#NotoSansCJKjp-Regular-78" x="46.799988"/>
       <use xlink:href="#NotoSansCJKjp-Regular-2d" x="96.599976"/>
       <use xlink:href="#NotoSansCJKjp-Regular-6d" x="131.299973"/>
       <use xlink:href="#NotoSansCJKjp-Regular-61" x="223.899963"/>
       <use xlink:href="#NotoSansCJKjp-Regular-74" x="280.199951"/>
       <use xlink:href="#NotoSansCJKjp-Regular-68" x="317.899948"/>
       <use xlink:href="#NotoSansCJKjp-Regular-6f" x="378.599945"/>
       <use xlink:href="#NotoSansCJKjp-Regular-76" x="439.199936"/>
       <use xlink:href="#NotoSansCJKjp-Regular-65" x="491.299927"/>
       <use xlink:href="#NotoSansCJKjp-Regular-72" x="546.699921"/>
       <use xlink:href="#NotoSansCJKjp-Regular-66" x="585.499908"/>
       <use xlink:href="#NotoSansCJKjp-Regular-6c" x="617.999893"/>
       <use xlink:href="#NotoSansCJKjp-Regular-6f" x="646.399887"/>
       <use xlink:href="#NotoSansCJKjp-Regular-77" x="706.999878"/>
       <use xlink:href="#NotoSansCJKjp-Regular-2d" x="787.19986"/>
       <use xlink:href="#NotoSansCJKjp-Regular-63" x="821.899857"/>
       <use xlink:href="#NotoSansCJKjp-Regular-32" x="872.899841"/>
       <use xlink:href="#NotoSansCJKjp-Regular-61" x="928.399826"/>
      </g>
     </g>
    </g>
    <g id="ytick_18">
     <g id="line2d_24">
      <g>
       <use xlink:href="#m0c9cad4d05" x="162.95" y="74.525795" style="stroke: #000000; stroke-width: 0.8"/>
      </g>
     </g>
     <g id="text_25">
      <!-- sx-superuser-c2q -->
      <g transform="translate(75.959375 78.505483) scale(0.1 -0.1)">
       <use xlink:href="#NotoSansCJKjp-Regular-73"/>
       <use xlink:href="#NotoSansCJKjp-Regular-78" x="46.799988"/>
       <use xlink:href="#NotoSansCJKjp-Regular-2d" x="96.599976"/>
       <use xlink:href="#NotoSansCJKjp-Regular-73" x="131.299973"/>
       <use xlink:href="#NotoSansCJKjp-Regular-75" x="178.09996"/>
       <use xlink:href="#NotoSansCJKjp-Regular-70" x="238.799957"/>
       <use xlink:href="#NotoSansCJKjp-Regular-65" x="300.799942"/>
       <use xlink:href="#NotoSansCJKjp-Regular-72" x="356.199936"/>
       <use xlink:href="#NotoSansCJKjp-Regular-75" x="394.999924"/>
       <use xlink:href="#NotoSansCJKjp-Regular-73" x="455.699921"/>
       <use xlink:href="#NotoSansCJKjp-Regular-65" x="502.499908"/>
       <use xlink:href="#NotoSansCJKjp-Regular-72" x="557.899902"/>
       <use xlink:href="#NotoSansCJKjp-Regular-2d" x="596.69989"/>
       <use xlink:href="#NotoSansCJKjp-Regular-63" x="631.399887"/>
       <use xlink:href="#NotoSansCJKjp-Regular-32" x="682.399872"/>
       <use xlink:href="#NotoSansCJKjp-Regular-71" x="737.899857"/>
      </g>
     </g>
    </g>
    <g id="ytick_19">
     <g id="line2d_25">
      <g>
       <use xlink:href="#m0c9cad4d05" x="162.95" y="59.253068" style="stroke: #000000; stroke-width: 0.8"/>
      </g>
     </g>
     <g id="text_26">
      <!-- edit-enwikibooks -->
      <g transform="translate(75.039062 63.232756) scale(0.1 -0.1)">
       <use xlink:href="#NotoSansCJKjp-Regular-65"/>
       <use xlink:href="#NotoSansCJKjp-Regular-64" x="55.399994"/>
       <use xlink:href="#NotoSansCJKjp-Regular-69" x="117.399979"/>
       <use xlink:href="#NotoSansCJKjp-Regular-74" x="144.899963"/>
       <use xlink:href="#NotoSansCJKjp-Regular-2d" x="182.59996"/>
       <use xlink:href="#NotoSansCJKjp-Regular-65" x="217.299957"/>
       <use xlink:href="#NotoSansCJKjp-Regular-6e" x="272.699951"/>
       <use xlink:href="#NotoSansCJKjp-Regular-77" x="333.699936"/>
       <use xlink:href="#NotoSansCJKjp-Regular-69" x="413.899918"/>
       <use xlink:href="#NotoSansCJKjp-Regular-6b" x="441.399902"/>
       <use xlink:href="#NotoSansCJKjp-Regular-69" x="496.599899"/>
       <use xlink:href="#NotoSansCJKjp-Regular-62" x="524.099884"/>
       <use xlink:href="#NotoSansCJKjp-Regular-6f" x="585.899872"/>
       <use xlink:href="#NotoSansCJKjp-Regular-6f" x="646.499863"/>
       <use xlink:href="#NotoSansCJKjp-Regular-6b" x="707.099854"/>
       <use xlink:href="#NotoSansCJKjp-Regular-73" x="762.29985"/>
      </g>
     </g>
    </g>
    <g id="ytick_20">
     <g id="line2d_26">
      <g>
       <use xlink:href="#m0c9cad4d05" x="162.95" y="43.980341" style="stroke: #000000; stroke-width: 0.8"/>
      </g>
     </g>
     <g id="text_27">
      <!-- sx-superuser-a2q -->
      <g transform="translate(75.429687 47.960028) scale(0.1 -0.1)">
       <use xlink:href="#NotoSansCJKjp-Regular-73"/>
       <use xlink:href="#NotoSansCJKjp-Regular-78" x="46.799988"/>
       <use xlink:href="#NotoSansCJKjp-Regular-2d" x="96.599976"/>
       <use xlink:href="#NotoSansCJKjp-Regular-73" x="131.299973"/>
       <use xlink:href="#NotoSansCJKjp-Regular-75" x="178.09996"/>
       <use xlink:href="#NotoSansCJKjp-Regular-70" x="238.799957"/>
       <use xlink:href="#NotoSansCJKjp-Regular-65" x="300.799942"/>
       <use xlink:href="#NotoSansCJKjp-Regular-72" x="356.199936"/>
       <use xlink:href="#NotoSansCJKjp-Regular-75" x="394.999924"/>
       <use xlink:href="#NotoSansCJKjp-Regular-73" x="455.699921"/>
       <use xlink:href="#NotoSansCJKjp-Regular-65" x="502.499908"/>
       <use xlink:href="#NotoSansCJKjp-Regular-72" x="557.899902"/>
       <use xlink:href="#NotoSansCJKjp-Regular-2d" x="596.69989"/>
       <use xlink:href="#NotoSansCJKjp-Regular-61" x="631.399887"/>
       <use xlink:href="#NotoSansCJKjp-Regular-32" x="687.699875"/>
       <use xlink:href="#NotoSansCJKjp-Regular-71" x="743.19986"/>
      </g>
     </g>
    </g>
   </g>
   <g id="line2d_27">
    <path d="M 699.746537 355.39125 
L 699.746537 22.75125 
" clip-path="url(#p8c5eeb545d)" style="fill: none; stroke-dasharray: 5.55,2.4; stroke-dashoffset: 0; stroke: #1f77b4; stroke-width: 1.5"/>
   </g>
   <g id="patch_23">
    <path d="M 162.95 355.39125 
L 162.95 22.75125 
" style="fill: none; stroke: #000000; stroke-width: 0.8; stroke-linejoin: miter; stroke-linecap: square"/>
   </g>
   <g id="patch_24">
    <path d="M 720.95 355.39125 
L 720.95 22.75125 
" style="fill: none; stroke: #000000; stroke-width: 0.8; stroke-linejoin: miter; stroke-linecap: square"/>
   </g>
   <g id="patch_25">
    <path d="M 162.95 355.39125 
L 720.95 355.39125 
" style="fill: none; stroke: #000000; stroke-width: 0.8; stroke-linejoin: miter; stroke-linecap: square"/>
   </g>
   <g id="patch_26">
    <path d="M 162.95 22.75125 
L 720.95 22.75125 
" style="fill: none; stroke: #000000; stroke-width: 0.8; stroke-linejoin: miter; stroke-linecap: square"/>
   </g>
   <g id="text_28">
    <!-- 20个网络平均≈0.81 -->
    <g transform="translate(624.840312 346.447825) scale(0.1 -0.1)">
     <defs>
      <path id="NotoSansCJKjp-Regular-4e2a" d="M 3174 4858 
C 3770 4026 4941 3014 5990 2406 
C 6080 2554 6189 2720 6317 2842 
C 5261 3373 4090 4365 3398 5357 
L 2893 5357 
C 2387 4493 1274 3411 115 2758 
C 224 2656 358 2483 422 2368 
C 1562 3040 2650 4051 3174 4858 
z
M 2925 3264 
L 2925 -512 
L 3430 -512 
L 3430 3264 
L 2925 3264 
z
" transform="scale(0.015625)"/>
      <path id="NotoSansCJKjp-Regular-7f51" d="M 563 4992 
L 563 -499 
L 1030 -499 
L 1030 4531 
L 2304 4531 
C 2278 3955 2246 3411 2182 2912 
C 1971 3142 1747 3360 1536 3558 
L 1274 3270 
C 1549 3008 1837 2701 2099 2387 
C 1952 1568 1696 883 1254 378 
C 1357 314 1555 166 1626 90 
C 2029 595 2285 1222 2451 1965 
C 2656 1709 2829 1459 2950 1254 
L 3238 1594 
C 3078 1850 2835 2170 2554 2502 
C 2650 3110 2707 3789 2746 4531 
L 4006 4531 
C 3987 3994 3962 3488 3910 3021 
C 3706 3232 3494 3443 3290 3629 
L 3021 3341 
C 3290 3085 3571 2790 3834 2483 
C 3693 1606 3430 890 2950 365 
C 3059 301 3258 154 3328 77 
C 3763 602 4026 1261 4192 2054 
C 4435 1747 4646 1459 4794 1216 
L 5088 1562 
C 4902 1856 4614 2221 4288 2598 
C 4371 3181 4416 3827 4448 4531 
L 5402 4531 
L 5402 109 
C 5402 0 5357 -32 5248 -38 
C 5139 -38 4768 -45 4384 -32 
C 4448 -160 4525 -371 4550 -493 
C 5088 -499 5408 -486 5606 -410 
C 5798 -333 5869 -179 5869 109 
L 5869 4992 
L 563 4992 
z
" transform="scale(0.015625)"/>
      <path id="NotoSansCJKjp-Regular-7edc" d="M 262 320 
L 378 -160 
C 966 32 1754 269 2502 499 
L 2432 915 
C 1626 685 806 454 262 320 
z
M 3648 5459 
C 3386 4768 2944 4102 2451 3648 
L 2509 3744 
L 2086 4006 
C 1971 3782 1837 3552 1702 3334 
L 883 3251 
C 1267 3789 1645 4474 1933 5133 
L 1472 5350 
C 1210 4595 742 3776 589 3558 
C 454 3347 339 3200 218 3174 
C 275 3046 358 2803 384 2707 
C 474 2752 627 2790 1408 2893 
C 1126 2490 870 2163 755 2042 
C 557 1805 403 1651 269 1626 
C 320 1498 397 1267 422 1165 
C 563 1254 781 1325 2362 1702 
C 2342 1805 2336 1997 2349 2125 
L 1165 1869 
C 1600 2368 2029 2970 2406 3571 
C 2496 3482 2637 3296 2694 3213 
C 2893 3398 3091 3622 3277 3872 
C 3462 3558 3706 3270 3987 3008 
C 3507 2688 2957 2445 2394 2278 
C 2464 2182 2566 1965 2605 1837 
C 3213 2035 3814 2330 4346 2714 
C 4819 2355 5382 2067 5984 1875 
C 6010 2003 6093 2202 6170 2310 
C 5626 2458 5126 2688 4691 2982 
C 5210 3424 5632 3962 5907 4602 
L 5626 4781 
L 5542 4762 
L 3827 4762 
C 3923 4947 4013 5139 4090 5331 
L 3648 5459 
z
M 2982 1894 
L 2982 -454 
L 3430 -454 
L 3430 -134 
L 5248 -134 
L 5248 -442 
L 5709 -442 
L 5709 1894 
L 2982 1894 
z
M 3430 294 
L 3430 1466 
L 5248 1466 
L 5248 294 
L 3430 294 
z
M 5267 4326 
C 5037 3917 4717 3565 4333 3258 
C 4000 3546 3725 3878 3533 4250 
L 3584 4326 
L 5267 4326 
z
" transform="scale(0.015625)"/>
      <path id="NotoSansCJKjp-Regular-5e73" d="M 1114 4032 
C 1363 3558 1613 2938 1702 2554 
L 2157 2714 
C 2067 3085 1805 3699 1549 4160 
L 1114 4032 
z
M 4832 4192 
C 4672 3725 4378 3072 4134 2669 
L 4550 2534 
C 4800 2918 5101 3533 5338 4051 
L 4832 4192 
z
M 333 2227 
L 333 1747 
L 2938 1747 
L 2938 -506 
L 3437 -506 
L 3437 1747 
L 6074 1747 
L 6074 2227 
L 3437 2227 
L 3437 4467 
L 5715 4467 
L 5715 4947 
L 672 4947 
L 672 4467 
L 2938 4467 
L 2938 2227 
L 333 2227 
z
" transform="scale(0.015625)"/>
      <path id="NotoSansCJKjp-Regular-5747" d="M 2803 3021 
L 2803 2579 
L 4794 2579 
L 4794 3021 
L 2803 3021 
z
M 2509 954 
L 2707 506 
C 3334 742 4173 1075 4954 1389 
L 4870 1805 
C 4000 1478 3091 1146 2509 954 
z
M 3245 5376 
C 3002 4480 2586 3610 2054 3053 
C 2176 2982 2381 2835 2477 2746 
C 2726 3046 2970 3430 3181 3853 
L 5542 3853 
C 5459 1254 5357 269 5152 51 
C 5075 -32 5005 -58 4877 -51 
C 4723 -51 4326 -51 3898 -13 
C 3981 -154 4045 -358 4058 -499 
C 4442 -518 4838 -531 5062 -506 
C 5293 -486 5440 -429 5587 -237 
C 5843 77 5939 1101 6029 4058 
C 6035 4128 6035 4314 6035 4314 
L 3392 4314 
C 3526 4621 3635 4941 3731 5267 
L 3245 5376 
z
M 218 1030 
L 390 550 
C 986 794 1773 1126 2509 1440 
L 2406 1894 
L 1606 1568 
L 1606 3430 
L 2362 3430 
L 2362 3885 
L 1606 3885 
L 1606 5338 
L 1139 5338 
L 1139 3885 
L 333 3885 
L 333 3430 
L 1139 3430 
L 1139 1382 
C 794 1248 474 1120 218 1030 
z
" transform="scale(0.015625)"/>
      <path id="NotoSansCJKjp-Regular-2248" d="M 3290 1875 
C 2970 2106 2656 2266 2259 2266 
C 1677 2266 1152 1933 806 1350 
L 1171 1088 
C 1434 1568 1850 1830 2259 1830 
C 2579 1830 2810 1677 3091 1478 
C 3418 1254 3725 1088 4128 1088 
C 4710 1088 5229 1421 5574 2010 
L 5216 2266 
C 4954 1792 4538 1530 4128 1530 
C 3802 1530 3571 1683 3290 1875 
z
M 3290 3386 
C 2970 3610 2656 3776 2259 3776 
C 1677 3776 1152 3443 806 2854 
L 1171 2598 
C 1434 3072 1850 3334 2259 3334 
C 2579 3334 2810 3181 3091 2989 
C 3418 2758 3725 2598 4128 2598 
C 4710 2598 5229 2931 5574 3514 
L 5216 3776 
C 4954 3296 4538 3034 4128 3034 
C 3802 3034 3571 3187 3290 3386 
z
" transform="scale(0.015625)"/>
     </defs>
     <use xlink:href="#NotoSansCJKjp-Regular-32"/>
     <use xlink:href="#NotoSansCJKjp-Regular-30" x="55.499985"/>
     <use xlink:href="#NotoSansCJKjp-Regular-4e2a" x="110.999969"/>
     <use xlink:href="#NotoSansCJKjp-Regular-7f51" x="210.999954"/>
     <use xlink:href="#NotoSansCJKjp-Regular-7edc" x="310.999939"/>
     <use xlink:href="#NotoSansCJKjp-Regular-5e73" x="410.999924"/>
     <use xlink:href="#NotoSansCJKjp-Regular-5747" x="510.999908"/>
     <use xlink:href="#NotoSansCJKjp-Regular-2248" x="610.999893"/>
     <use xlink:href="#NotoSansCJKjp-Regular-30" x="710.999878"/>
     <use xlink:href="#NotoSansCJKjp-Regular-2e" x="766.499863"/>
     <use xlink:href="#NotoSansCJKjp-Regular-38" x="794.29985"/>
     <use xlink:href="#NotoSansCJKjp-Regular-31" x="849.799835"/>
    </g>
   </g>
   <g id="text_29">
    <!-- 真实网络：AC相对MM的切换成本比值（Table III） -->
    <g transform="translate(306.403437 16.75125) scale(0.12 -0.12)">
     <defs>
      <path id="NotoSansCJKjp-Regular-771f" d="M 3795 269 
C 4512 13 5242 -301 5683 -525 
L 6086 -198 
C 5606 26 4819 333 4109 576 
L 3795 269 
z
M 365 1094 
L 365 685 
L 6048 685 
L 6048 1094 
L 365 1094 
z
M 1792 2957 
L 4710 2957 
L 4710 2528 
L 1792 2528 
L 1792 2957 
z
M 1792 2221 
L 4710 2221 
L 4710 1786 
L 1792 1786 
L 1792 2221 
z
M 1792 3680 
L 4710 3680 
L 4710 3264 
L 1792 3264 
L 1792 3680 
z
M 2214 563 
C 1805 294 1005 -13 365 -186 
C 467 -275 614 -429 691 -525 
C 1325 -346 2131 -26 2637 288 
L 2214 563 
z
M 1325 4006 
L 1325 1472 
L 5197 1472 
L 5197 4006 
L 3437 4006 
L 3437 4429 
L 5888 4429 
L 5888 4838 
L 3437 4838 
L 3437 5382 
L 2938 5382 
L 2938 4838 
L 544 4838 
L 544 4429 
L 2938 4429 
L 2938 4006 
L 1325 4006 
z
" transform="scale(0.015625)"/>
      <path id="NotoSansCJKjp-Regular-5b9e" d="M 3443 685 
C 4294 365 5146 -77 5664 -474 
L 5958 -96 
C 5427 282 4531 723 3674 1037 
L 3443 685 
z
M 1536 3565 
C 1882 3360 2291 3040 2477 2816 
L 2784 3162 
C 2586 3392 2170 3680 1824 3872 
L 1536 3565 
z
M 896 2566 
C 1261 2368 1690 2048 1894 1818 
L 2189 2182 
C 1978 2406 1542 2701 1184 2886 
L 896 2566 
z
M 576 4646 
L 576 3347 
L 1056 3347 
L 1056 4198 
L 5338 4198 
L 5338 3347 
L 5837 3347 
L 5837 4646 
L 3642 4646 
C 3546 4870 3379 5184 3219 5421 
L 2746 5274 
C 2861 5082 2982 4851 3072 4646 
L 576 4646 
z
M 454 1638 
L 454 1222 
L 2765 1222 
C 2406 602 1747 186 518 -70 
C 621 -179 742 -365 794 -493 
C 2234 -160 2950 397 3315 1222 
L 5984 1222 
L 5984 1638 
L 3462 1638 
C 3648 2259 3693 3002 3718 3878 
L 3219 3878 
C 3194 2970 3155 2234 2950 1638 
L 454 1638 
z
" transform="scale(0.015625)"/>
      <path id="NotoSansCJKjp-Regular-ff1a" d="M 3200 3482 
C 3456 3482 3686 3667 3686 3962 
C 3686 4256 3456 4442 3200 4442 
C 2944 4442 2714 4256 2714 3962 
C 2714 3667 2944 3482 3200 3482 
z
M 3200 346 
C 3456 346 3686 538 3686 826 
C 3686 1120 3456 1312 3200 1312 
C 2944 1312 2714 1120 2714 826 
C 2714 538 2944 346 3200 346 
z
" transform="scale(0.015625)"/>
      <path id="NotoSansCJKjp-Regular-76f8" d="M 3494 3034 
L 5440 3034 
L 5440 1920 
L 3494 1920 
L 3494 3034 
z
M 3494 3469 
L 3494 4544 
L 5440 4544 
L 5440 3469 
L 3494 3469 
z
M 3494 1478 
L 5440 1478 
L 5440 365 
L 3494 365 
L 3494 1478 
z
M 3027 4998 
L 3027 -467 
L 3494 -467 
L 3494 -77 
L 5440 -77 
L 5440 -448 
L 5926 -448 
L 5926 4998 
L 3027 4998 
z
M 1370 5376 
L 1370 4006 
L 333 4006 
L 333 3546 
L 1312 3546 
C 1088 2662 634 1651 186 1120 
C 262 1005 384 813 435 685 
C 781 1126 1120 1837 1370 2573 
L 1370 -506 
L 1837 -506 
L 1837 2419 
C 2080 2106 2368 1709 2490 1498 
L 2784 1888 
C 2643 2061 2061 2746 1837 2970 
L 1837 3546 
L 2752 3546 
L 2752 4006 
L 1837 4006 
L 1837 5376 
L 1370 5376 
z
" transform="scale(0.015625)"/>
      <path id="NotoSansCJKjp-Regular-5bf9" d="M 3213 2522 
C 3514 2067 3802 1459 3904 1075 
L 4326 1286 
C 4224 1670 3917 2259 3603 2701 
L 3213 2522 
z
M 582 2899 
C 973 2547 1389 2131 1760 1709 
C 1376 890 870 269 288 -109 
C 403 -205 550 -384 627 -499 
C 1216 -77 1715 512 2106 1299 
C 2394 941 2630 602 2784 314 
L 3168 666 
C 2982 998 2682 1395 2330 1798 
C 2624 2534 2835 3411 2944 4448 
L 2630 4538 
L 2547 4518 
L 448 4518 
L 448 4064 
L 2419 4064 
C 2323 3373 2170 2752 1965 2202 
C 1626 2554 1267 2899 922 3200 
L 582 2899 
z
M 4896 5376 
L 4896 3834 
L 3085 3834 
L 3085 3373 
L 4896 3373 
L 4896 141 
C 4896 26 4851 -6 4742 -13 
C 4634 -13 4275 -19 3872 0 
C 3936 -147 4006 -371 4032 -506 
C 4576 -506 4902 -493 5094 -410 
C 5293 -326 5370 -179 5370 141 
L 5370 3373 
L 6138 3373 
L 6138 3834 
L 5370 3834 
L 5370 5376 
L 4896 5376 
z
" transform="scale(0.015625)"/>
      <path id="NotoSansCJKjp-Regular-7684" d="M 3533 2707 
C 3885 2240 4320 1600 4512 1210 
L 4922 1466 
C 4710 1843 4269 2464 3904 2918 
L 3533 2707 
z
M 1536 5389 
C 1485 5082 1376 4659 1274 4346 
L 557 4346 
L 557 -346 
L 998 -346 
L 998 160 
L 2784 160 
L 2784 4346 
L 1715 4346 
C 1824 4621 1946 4979 2054 5299 
L 1536 5389 
z
M 998 3917 
L 2342 3917 
L 2342 2566 
L 998 2566 
L 998 3917 
z
M 998 595 
L 998 2144 
L 2342 2144 
L 2342 595 
L 998 595 
z
M 3827 5402 
C 3622 4518 3277 3635 2835 3066 
C 2950 3002 3149 2867 3238 2790 
C 3456 3098 3661 3488 3840 3923 
L 5478 3923 
C 5402 1357 5299 371 5094 154 
C 5018 64 4947 45 4819 45 
C 4672 45 4288 51 3866 83 
C 3955 -38 4013 -243 4026 -378 
C 4384 -397 4762 -410 4979 -390 
C 5210 -365 5350 -314 5498 -122 
C 5754 192 5843 1184 5939 4122 
C 5946 4186 5946 4365 5946 4365 
L 4013 4365 
C 4115 4666 4211 4986 4288 5299 
L 3827 5402 
z
" transform="scale(0.015625)"/>
      <path id="NotoSansCJKjp-Regular-5207" d="M 2566 4813 
L 2566 4352 
L 3693 4352 
C 3661 2490 3558 730 1971 -160 
C 2099 -243 2253 -410 2323 -538 
C 3987 448 4128 2349 4173 4352 
L 5523 4352 
C 5446 1440 5357 371 5165 134 
C 5094 45 5030 19 4909 19 
C 4762 19 4429 19 4051 51 
C 4141 -83 4198 -301 4205 -442 
C 4544 -461 4902 -467 5114 -442 
C 5325 -416 5472 -358 5613 -154 
C 5862 166 5933 1261 6016 4544 
C 6016 4614 6016 4813 6016 4813 
L 2566 4813 
z
M 960 5197 
L 960 3482 
L 186 3315 
L 269 2880 
L 960 3027 
L 960 1440 
C 960 864 1088 710 1568 710 
C 1664 710 2144 710 2246 710 
C 2688 710 2797 986 2848 1875 
C 2720 1907 2528 1990 2419 2080 
C 2400 1331 2374 1165 2208 1165 
C 2106 1165 1715 1165 1638 1165 
C 1466 1165 1434 1203 1434 1434 
L 1434 3130 
L 2970 3456 
L 2886 3885 
L 1434 3578 
L 1434 5197 
L 960 5197 
z
" transform="scale(0.015625)"/>
      <path id="NotoSansCJKjp-Regular-6362" d="M 1050 5370 
L 1050 4083 
L 307 4083 
L 307 3635 
L 1050 3635 
L 1050 2208 
C 742 2118 461 2035 230 1978 
L 358 1504 
L 1050 1728 
L 1050 77 
C 1050 0 1018 -26 947 -26 
C 877 -32 659 -32 410 -26 
C 474 -160 538 -371 557 -493 
C 928 -499 1165 -480 1312 -397 
C 1466 -320 1523 -186 1523 77 
L 1523 1882 
L 2208 2106 
L 2138 2554 
L 1523 2355 
L 1523 3635 
L 2118 3635 
L 2118 4083 
L 1523 4083 
L 1523 5370 
L 1050 5370 
z
M 3430 4403 
L 4762 4403 
C 4614 4186 4429 3949 4250 3757 
L 2931 3757 
C 3117 3968 3283 4186 3430 4403 
z
M 2131 1850 
L 2131 1434 
L 3680 1434 
C 3424 877 2893 307 1786 -179 
C 1888 -269 2035 -422 2106 -518 
C 3194 -6 3763 595 4064 1190 
C 4474 435 5133 -179 5894 -493 
C 5958 -378 6099 -205 6202 -109 
C 5427 160 4762 736 4397 1434 
L 6080 1434 
L 6080 1850 
L 5632 1850 
L 5632 3757 
L 4800 3757 
C 5043 4026 5293 4339 5459 4621 
L 5139 4838 
L 5062 4813 
L 3680 4813 
C 3770 4979 3853 5139 3923 5299 
L 3437 5389 
C 3213 4845 2784 4166 2157 3661 
C 2259 3590 2413 3430 2483 3322 
L 2598 3424 
L 2598 1850 
L 2131 1850 
z
M 3059 1850 
L 3059 3373 
L 3910 3373 
L 3910 2701 
C 3910 2445 3898 2157 3827 1850 
L 3059 1850 
z
M 5152 1850 
L 4294 1850 
C 4365 2150 4378 2438 4378 2694 
L 4378 3373 
L 5152 3373 
L 5152 1850 
z
" transform="scale(0.015625)"/>
      <path id="NotoSansCJKjp-Regular-6210" d="M 3482 5370 
C 3482 5005 3494 4640 3514 4288 
L 819 4288 
L 819 2490 
C 819 1658 762 550 230 -237 
C 346 -294 550 -461 634 -557 
C 1222 288 1318 1581 1318 2483 
L 1318 2528 
L 2490 2528 
C 2464 1427 2432 1018 2349 922 
C 2298 864 2240 851 2144 851 
C 2035 851 1760 851 1466 883 
C 1542 762 1594 570 1600 435 
C 1914 416 2208 416 2374 429 
C 2547 448 2656 493 2758 614 
C 2893 787 2925 1331 2957 2771 
C 2957 2835 2963 2976 2963 2976 
L 1318 2976 
L 1318 3821 
L 3546 3821 
C 3622 2784 3776 1837 4019 1101 
C 3597 614 3104 218 2534 -83 
C 2637 -179 2810 -378 2886 -480 
C 3379 -186 3821 166 4211 589 
C 4506 -70 4890 -467 5382 -467 
C 5875 -467 6054 -147 6138 947 
C 6010 992 5830 1101 5722 1210 
C 5683 358 5606 26 5421 26 
C 5094 26 4806 390 4570 1018 
C 5043 1632 5421 2362 5696 3200 
L 5216 3322 
C 5011 2675 4736 2093 4390 1581 
C 4224 2202 4102 2963 4032 3821 
L 6086 3821 
L 6086 4288 
L 4006 4288 
C 3987 4640 3981 4998 3981 5370 
L 3482 5370 
z
M 4294 5056 
C 4704 4845 5197 4518 5440 4288 
L 5741 4621 
C 5491 4838 4986 5152 4582 5350 
L 4294 5056 
z
" transform="scale(0.015625)"/>
      <path id="NotoSansCJKjp-Regular-672c" d="M 2944 5370 
L 2944 4026 
L 416 4026 
L 416 3539 
L 2643 3539 
C 2099 2438 1171 1402 198 896 
C 307 800 461 621 544 499 
C 1478 1050 2355 2016 2944 3130 
L 2944 1171 
L 1690 1171 
L 1690 685 
L 2944 685 
L 2944 -512 
L 3450 -512 
L 3450 685 
L 4672 685 
L 4672 1171 
L 3450 1171 
L 3450 3123 
C 4026 2016 4896 1043 5856 512 
C 5939 646 6106 838 6221 934 
C 5210 1427 4288 2438 3744 3539 
L 5997 3539 
L 5997 4026 
L 3450 4026 
L 3450 5370 
L 2944 5370 
z
" transform="scale(0.015625)"/>
      <path id="NotoSansCJKjp-Regular-6bd4" d="M 250 128 
L 397 -371 
C 1197 -179 2278 77 3290 326 
L 3245 787 
C 2694 659 2125 525 1600 410 
L 1600 2925 
L 3046 2925 
L 3046 3398 
L 1600 3398 
L 1600 5344 
L 1107 5344 
L 1107 301 
L 250 128 
z
M 3520 5344 
L 3520 512 
C 3520 -186 3693 -371 4320 -371 
C 4448 -371 5261 -371 5395 -371 
C 6003 -371 6138 -13 6202 1037 
C 6061 1069 5869 1152 5747 1248 
C 5709 320 5670 83 5370 83 
C 5190 83 4506 83 4371 83 
C 4064 83 4013 147 4013 499 
L 4013 2586 
C 4691 2874 5414 3219 5952 3571 
L 5594 3974 
C 5216 3674 4608 3328 4013 3046 
L 4013 5344 
L 3520 5344 
z
" transform="scale(0.015625)"/>
      <path id="NotoSansCJKjp-Regular-503c" d="M 3834 5376 
C 3814 5184 3782 4954 3750 4723 
L 2106 4723 
L 2106 4294 
L 3674 4294 
C 3635 4077 3597 3872 3552 3699 
L 2445 3699 
L 2445 90 
L 1830 90 
L 1830 -326 
L 6131 -326 
L 6131 90 
L 5562 90 
L 5562 3699 
L 3987 3699 
C 4038 3872 4090 4077 4134 4294 
L 5939 4294 
L 5939 4723 
L 4230 4723 
L 4346 5344 
L 3834 5376 
z
M 2880 90 
L 2880 621 
L 5114 621 
L 5114 90 
L 2880 90 
z
M 2880 2426 
L 5114 2426 
L 5114 1875 
L 2880 1875 
L 2880 2426 
z
M 2880 2784 
L 2880 3322 
L 5114 3322 
L 5114 2784 
L 2880 2784 
z
M 2880 1530 
L 5114 1530 
L 5114 973 
L 2880 973 
L 2880 1530 
z
M 1690 5370 
C 1350 4397 794 3443 205 2816 
C 288 2701 422 2451 474 2342 
C 659 2547 845 2784 1018 3040 
L 1018 -512 
L 1466 -512 
L 1466 3770 
C 1722 4230 1946 4730 2131 5229 
L 1690 5370 
z
" transform="scale(0.015625)"/>
      <path id="NotoSansCJKjp-Regular-54" d="M 1619 0 
L 2214 0 
L 2214 4192 
L 3635 4192 
L 3635 4691 
L 198 4691 
L 198 4192 
L 1619 4192 
L 1619 0 
z
" transform="scale(0.015625)"/>
      <path id="NotoSansCJKjp-Regular-49" d="M 646 0 
L 1235 0 
L 1235 4691 
L 646 4691 
L 646 0 
z
" transform="scale(0.015625)"/>
     </defs>
     <use xlink:href="#NotoSansCJKjp-Regular-771f"/>
     <use xlink:href="#NotoSansCJKjp-Regular-5b9e" x="99.999985"/>
     <use xlink:href="#NotoSansCJKjp-Regular-7f51" x="199.999969"/>
     <use xlink:href="#NotoSansCJKjp-Regular-7edc" x="299.999954"/>
     <use xlink:href="#NotoSansCJKjp-Regular-ff1a" x="399.999939"/>
     <use xlink:href="#NotoSansCJKjp-Regular-41" x="499.999924"/>
     <use xlink:href="#NotoSansCJKjp-Regular-43" x="560.799911"/>
     <use xlink:href="#NotoSansCJKjp-Regular-76f8" x="624.599899"/>
     <use xlink:href="#NotoSansCJKjp-Regular-5bf9" x="724.599884"/>
     <use xlink:href="#NotoSansCJKjp-Regular-4d" x="824.599869"/>
     <use xlink:href="#NotoSansCJKjp-Regular-4d" x="905.79985"/>
     <use xlink:href="#NotoSansCJKjp-Regular-7684" x="986.999832"/>
     <use xlink:href="#NotoSansCJKjp-Regular-5207" x="1086.999817"/>
     <use xlink:href="#NotoSansCJKjp-Regular-6362" x="1186.999802"/>
     <use xlink:href="#NotoSansCJKjp-Regular-6210" x="1286.999786"/>
     <use xlink:href="#NotoSansCJKjp-Regular-672c" x="1386.999771"/>
     <use xlink:href="#NotoSansCJKjp-Regular-6bd4" x="1486.999756"/>
     <use xlink:href="#NotoSansCJKjp-Regular-503c" x="1586.999741"/>
     <use xlink:href="#NotoSansCJKjp-Regular-ff08" x="1686.999725"/>
     <use xlink:href="#NotoSansCJKjp-Regular-54" x="1786.99971"/>
     <use xlink:href="#NotoSansCJKjp-Regular-61" x="1846.899704"/>
     <use xlink:href="#NotoSansCJKjp-Regular-62" x="1903.199692"/>
     <use xlink:href="#NotoSansCJKjp-Regular-6c" x="1964.99968"/>
     <use xlink:href="#NotoSansCJKjp-Regular-65" x="1993.399673"/>
     <use xlink:href="#NotoSansCJKjp-Regular-20" x="2048.799667"/>
     <use xlink:href="#NotoSansCJKjp-Regular-49" x="2071.199661"/>
     <use xlink:href="#NotoSansCJKjp-Regular-49" x="2100.499649"/>
     <use xlink:href="#NotoSansCJKjp-Regular-49" x="2129.799637"/>
     <use xlink:href="#NotoSansCJKjp-Regular-ff09" x="2159.099625"/>
    </g>
   </g>
  </g>
 </g>
 <defs>
  <clipPath id="p8c5eeb545d">
   <rect x="162.95" y="22.75125" width="558" height="332.64"/>
  </clipPath>
 </defs>
</svg>
