<?xml version="1.0" encoding="utf-8" standalone="no"?>
<!DOCTYPE svg PUBLIC "-//W3C//DTD SVG 1.1//EN"
  "http://www.w3.org/Graphics/SVG/1.1/DTD/svg11.dtd">
<svg xmlns:xlink="http://www.w3.org/1999/xlink" width="572.4pt" height="174.033225pt" viewBox="0 0 572.4 174.033225" xmlns="http://www.w3.org/2000/svg" version="1.1">
 <metadata>
  <rdf:RDF xmlns:dc="http://purl.org/dc/elements/1.1/" xmlns:cc="http://creativecommons.org/ns#" xmlns:rdf="http://www.w3.org/1999/02/22-rdf-syntax-ns#">
   <cc:Work>
    <dc:type rdf:resource="http://purl.org/dc/dcmitype/StillImage"/>
    <dc:date>2026-02-15T17:59:20.058101</dc:date>
    <dc:format>image/svg+xml</dc:format>
    <dc:creator>
     <cc:Agent>
      <dc:title>Matplotlib v3.7.5, https://matplotlib.org/</dc:title>
     </cc:Agent>
    </dc:creator>
   </cc:Work>
  </rdf:RDF>
 </metadata>
 <defs>
  <style type="text/css">*{stroke-linejoin: round; stroke-linecap: butt}</style>
 </defs>
 <g id="figure_1">
  <g id="patch_1">
   <path d="M 0 174.033225 
L 572.4 174.033225 
L 572.4 0 
L 0 0 
z
" style="fill: #ffffff"/>
  </g>
  <g id="axes_1">
   <g id="patch_2">
    <path d="M 37.096202 89.217225 
Q 286.196335 89.217225 533.619417 89.217225 
" clip-path="url(#p00432f55f1)" style="fill: none; stroke: #000000; stroke-width: 1.5; stroke-linecap: round"/>
    <path d="M 527.619417 86.217225 
L 533.619417 89.217225 
L 527.619417 92.217225 
" clip-path="url(#p00432f55f1)" style="fill: none; stroke: #000000; stroke-width: 1.5; stroke-linecap: round"/>
   </g>
   <g id="patch_3">
    <path d="M 35.1 140.961225 
L 342 140.961225 
L 342 58.170825 
L 35.1 58.170825 
z
" clip-path="url(#p00432f55f1)" style="fill: #1f77b4; opacity: 0.15"/>
   </g>
   <g id="patch_4">
    <path d="M 342 140.961225 
L 537.3 140.961225 
L 537.3 58.170825 
L 342 58.170825 
z
" clip-path="url(#p00432f55f1)" style="fill: url(#h13e0b7da99); opacity: 0.08"/>
   </g>
   <g id="patch_5">
    <path d="M 63 121.298505 
L 107.64 121.298505 
Q 108.756 121.298505 108.756 120.263625 
L 108.756 73.694025 
Q 108.756 72.659145 107.64 72.659145 
L 63 72.659145 
Q 61.884 72.659145 61.884 73.694025 
L 61.884 120.263625 
Q 61.884 121.298505 63 121.298505 
z
" clip-path="url(#p00432f55f1)" style="fill: #ffffff; stroke: #000000; stroke-linejoin: miter"/>
   </g>
   <g id="patch_6">
    <path d="M 135.54 121.298505 
L 180.18 121.298505 
Q 181.296 121.298505 181.296 120.263625 
L 181.296 73.694025 
Q 181.296 72.659145 180.18 72.659145 
L 135.54 72.659145 
Q 134.424 72.659145 134.424 73.694025 
L 134.424 120.263625 
Q 134.424 121.298505 135.54 121.298505 
z
" clip-path="url(#p00432f55f1)" style="fill: #ffffff; stroke: #000000; stroke-linejoin: miter"/>
   </g>
   <g id="patch_7">
    <path d="M 208.08 121.298505 
L 252.72 121.298505 
Q 253.836 121.298505 253.836 120.263625 
L 253.836 73.694025 
Q 253.836 72.659145 252.72 72.659145 
L 208.08 72.659145 
Q 206.964 72.659145 206.964 73.694025 
L 206.964 120.263625 
Q 206.964 121.298505 208.08 121.298505 
z
" clip-path="url(#p00432f55f1)" style="fill: #ffffff; stroke: #000000; stroke-linejoin: miter"/>
   </g>
   <g id="patch_8">
    <path d="M 280.62 121.298505 
L 325.26 121.298505 
Q 326.376 121.298505 326.376 120.263625 
L 326.376 73.694025 
Q 326.376 72.659145 325.26 72.659145 
L 280.62 72.659145 
Q 279.504 72.659145 279.504 73.694025 
L 279.504 120.263625 
Q 279.504 121.298505 280.62 121.298505 
z
" clip-path="url(#p00432f55f1)" style="fill: #ffffff; stroke: #000000; stroke-linejoin: miter"/>
   </g>
   <g id="patch_9">
    <path d="M 353.16 121.298505 
L 397.8 121.298505 
Q 398.916 121.298505 398.916 120.263625 
L 398.916 73.694025 
Q 398.916 72.659145 397.8 72.659145 
L 353.16 72.659145 
Q 352.044 72.659145 352.044 73.694025 
L 352.044 120.263625 
Q 352.044 121.298505 353.16 121.298505 
z
" clip-path="url(#p00432f55f1)" style="fill: #ffffff; stroke: #000000; stroke-linejoin: miter"/>
   </g>
   <g id="patch_10">
    <path d="M 425.7 121.298505 
L 470.34 121.298505 
Q 471.456 121.298505 471.456 120.263625 
L 471.456 73.694025 
Q 471.456 72.659145 470.34 72.659145 
L 425.7 72.659145 
Q 424.584 72.659145 424.584 73.694025 
L 424.584 120.263625 
Q 424.584 121.298505 425.7 121.298505 
z
" clip-path="url(#p00432f55f1)" style="fill: #ffffff; stroke: #000000; stroke-linejoin: miter"/>
   </g>
   <g id="patch_11">
    <path d="M 498.24 121.298505 
L 542.88 121.298505 
Q 543.996 121.298505 543.996 120.263625 
L 543.996 73.694025 
Q 543.996 72.659145 542.88 72.659145 
L 498.24 72.659145 
Q 497.124 72.659145 497.124 73.694025 
L 497.124 120.263625 
Q 497.124 121.298505 498.24 121.298505 
z
" clip-path="url(#p00432f55f1)" style="fill: #ffffff; stroke: #000000; stroke-linejoin: miter"/>
   </g>
   <g id="text_1">
    <!-- 时间 -->
    <g transform="translate(276.2 78.868425) scale(0.1 -0.1)">
     <defs>
      <path id="NotoSansCJKjp-Regular-65f6" d="M 3034 2893 
C 3373 2400 3808 1722 4013 1331 
L 4435 1574 
C 4218 1965 3776 2618 3430 3104 
L 3034 2893 
z
M 2074 2573 
L 2074 1114 
L 979 1114 
L 979 2573 
L 2074 2573 
z
M 2074 3002 
L 979 3002 
L 979 4403 
L 2074 4403 
L 2074 3002 
z
M 518 4838 
L 518 160 
L 979 160 
L 979 678 
L 2522 678 
L 2522 4838 
L 518 4838 
z
M 4890 5344 
L 4890 4096 
L 2816 4096 
L 2816 3622 
L 4890 3622 
L 4890 211 
C 4890 83 4838 38 4710 38 
C 4570 26 4096 26 3597 45 
C 3667 -96 3744 -314 3776 -448 
C 4416 -448 4826 -442 5056 -358 
C 5286 -282 5376 -141 5376 211 
L 5376 3622 
L 6157 3622 
L 6157 4096 
L 5376 4096 
L 5376 5344 
L 4890 5344 
z
" transform="scale(0.015625)"/>
      <path id="NotoSansCJKjp-Regular-95f4" d="M 582 3936 
L 582 -512 
L 1075 -512 
L 1075 3936 
L 582 3936 
z
M 678 5062 
C 973 4781 1306 4378 1453 4122 
L 1850 4378 
C 1696 4646 1350 5024 1050 5293 
L 678 5062 
z
M 2426 1888 
L 3962 1888 
L 3962 1024 
L 2426 1024 
L 2426 1888 
z
M 2426 3142 
L 3962 3142 
L 3962 2291 
L 2426 2291 
L 2426 3142 
z
M 1990 3546 
L 1990 627 
L 4416 627 
L 4416 3546 
L 1990 3546 
z
M 2253 5018 
L 2253 4563 
L 5350 4563 
L 5350 70 
C 5350 -13 5325 -38 5242 -45 
C 5158 -45 4896 -51 4627 -38 
C 4691 -160 4755 -365 4781 -480 
C 5171 -480 5446 -480 5619 -403 
C 5786 -320 5843 -198 5843 70 
L 5843 5018 
L 2253 5018 
z
" transform="scale(0.015625)"/>
     </defs>
     <use xlink:href="#NotoSansCJKjp-Regular-65f6"/>
     <use xlink:href="#NotoSansCJKjp-Regular-95f4" x="99.999985"/>
    </g>
   </g>
   <g id="text_2">
    <!-- 已知：历史快照 -->
    <g transform="translate(153.55 47.322663) scale(0.1 -0.1)">
     <defs>
      <path id="NotoSansCJKjp-Regular-5df2" d="M 595 4979 
L 595 4499 
L 4781 4499 
L 4781 2816 
L 1421 2816 
L 1421 3872 
L 934 3872 
L 934 653 
C 934 -141 1261 -333 2298 -333 
C 2541 -333 4448 -333 4704 -333 
C 5760 -333 5971 19 6093 1197 
C 5952 1222 5734 1306 5606 1395 
C 5517 365 5408 141 4710 141 
C 4275 141 2611 141 2272 141 
C 1568 141 1421 237 1421 646 
L 1421 2342 
L 4781 2342 
L 4781 2022 
L 5280 2022 
L 5280 4979 
L 595 4979 
z
" transform="scale(0.015625)"/>
      <path id="NotoSansCJKjp-Regular-77e5" d="M 3501 4819 
L 3501 -326 
L 3968 -326 
L 3968 179 
L 5325 179 
L 5325 -256 
L 5811 -256 
L 5811 4819 
L 3501 4819 
z
M 3968 634 
L 3968 4365 
L 5325 4365 
L 5325 634 
L 3968 634 
z
M 1005 5382 
C 858 4595 589 3834 211 3341 
C 320 3270 518 3136 602 3059 
C 794 3334 973 3686 1120 4070 
L 1613 4070 
L 1613 3021 
L 1613 2790 
L 288 2790 
L 288 2330 
L 1581 2330 
C 1498 1478 1190 557 218 -134 
C 314 -205 493 -397 550 -493 
C 1286 32 1677 717 1882 1408 
C 2227 1011 2733 403 2950 90 
L 3277 499 
C 3085 717 2304 1594 1997 1894 
C 2029 2042 2048 2189 2061 2330 
L 3296 2330 
L 3296 2790 
L 2086 2790 
L 2093 3014 
L 2093 4070 
L 3110 4070 
L 3110 4518 
L 1274 4518 
C 1350 4768 1414 5024 1472 5286 
L 1005 5382 
z
" transform="scale(0.015625)"/>
      <path id="NotoSansCJKjp-Regular-ff1a" d="M 3200 3482 
C 3456 3482 3686 3667 3686 3962 
C 3686 4256 3456 4442 3200 4442 
C 2944 4442 2714 4256 2714 3962 
C 2714 3667 2944 3482 3200 3482 
z
M 3200 346 
C 3456 346 3686 538 3686 826 
C 3686 1120 3456 1312 3200 1312 
C 2944 1312 2714 1120 2714 826 
C 2714 538 2944 346 3200 346 
z
" transform="scale(0.015625)"/>
      <path id="NotoSansCJKjp-Regular-5386" d="M 736 5062 
L 736 3021 
C 736 2048 698 723 224 -224 
C 339 -275 557 -410 646 -493 
C 1152 512 1222 1990 1222 3021 
L 1222 4608 
L 6061 4608 
L 6061 5062 
L 736 5062 
z
M 3162 4269 
C 3155 3904 3142 3546 3123 3206 
L 1632 3206 
L 1632 2752 
L 3085 2752 
C 2963 1498 2592 474 1357 -128 
C 1466 -211 1613 -371 1677 -480 
C 3014 205 3424 1350 3571 2752 
L 5235 2752 
C 5146 998 5043 301 4858 134 
C 4794 58 4717 45 4589 45 
C 4442 45 4045 51 3642 90 
C 3725 -45 3789 -250 3795 -390 
C 4186 -416 4570 -422 4774 -403 
C 5005 -384 5139 -339 5274 -173 
C 5510 83 5619 864 5722 2982 
C 5728 3046 5734 3206 5734 3206 
L 3610 3206 
C 3635 3546 3642 3904 3654 4269 
L 3162 4269 
z
" transform="scale(0.015625)"/>
      <path id="NotoSansCJKjp-Regular-53f2" d="M 1254 3904 
L 2963 3904 
L 2963 2707 
L 1254 2707 
L 1254 3904 
z
M 3456 3904 
L 5171 3904 
L 5171 2707 
L 3456 2707 
L 3456 3904 
z
M 1517 2029 
L 1088 1869 
C 1338 1318 1658 902 2048 576 
C 1651 314 1088 90 275 -83 
C 378 -192 506 -403 563 -512 
C 1427 -307 2035 -32 2464 288 
C 3315 -224 4461 -410 5946 -499 
C 5978 -333 6074 -122 6170 -6 
C 4723 51 3642 192 2835 621 
C 3270 1101 3405 1658 3443 2246 
L 5658 2246 
L 5658 4365 
L 3456 4365 
L 3456 5350 
L 2963 5350 
L 2963 4365 
L 787 4365 
L 787 2246 
L 2950 2246 
C 2918 1754 2810 1286 2419 890 
C 2054 1171 1754 1542 1517 2029 
z
" transform="scale(0.015625)"/>
      <path id="NotoSansCJKjp-Regular-5feb" d="M 1088 5376 
L 1088 -506 
L 1568 -506 
L 1568 5376 
L 1088 5376 
z
M 512 4141 
C 467 3622 352 2918 179 2496 
L 557 2362 
C 730 2829 845 3571 877 4090 
L 512 4141 
z
M 1581 4198 
C 1773 3814 1978 3309 2054 3002 
L 2413 3181 
C 2336 3482 2118 3974 1920 4346 
L 1581 4198 
z
M 5152 2438 
L 4160 2438 
C 4186 2714 4192 2982 4192 3245 
L 4192 3904 
L 5152 3904 
L 5152 2438 
z
M 3712 5376 
L 3712 4358 
L 2458 4358 
L 2458 3904 
L 3712 3904 
L 3712 3245 
C 3712 2989 3706 2714 3680 2438 
L 2112 2438 
L 2112 1971 
L 3616 1971 
C 3450 1184 3027 397 1901 -166 
C 2010 -256 2176 -435 2240 -538 
C 3315 58 3802 851 4019 1664 
C 4390 659 4986 -134 5888 -531 
C 5958 -390 6118 -186 6234 -83 
C 5338 243 4723 1024 4378 1971 
L 6176 1971 
L 6176 2438 
L 5626 2438 
L 5626 4358 
L 4192 4358 
L 4192 5376 
L 3712 5376 
z
" transform="scale(0.015625)"/>
      <path id="NotoSansCJKjp-Regular-7167" d="M 3379 2605 
L 5254 2605 
L 5254 1632 
L 3379 1632 
L 3379 2605 
z
M 2931 3008 
L 2931 1229 
L 5728 1229 
L 5728 3008 
L 2931 3008 
z
M 2176 800 
C 2253 378 2304 -160 2310 -486 
L 2778 -416 
C 2771 -96 2701 435 2618 845 
L 2176 800 
z
M 3546 819 
C 3712 403 3872 -147 3936 -474 
L 4410 -371 
C 4346 -32 4166 499 3994 902 
L 3546 819 
z
M 4851 851 
C 5158 429 5510 -160 5664 -525 
L 6118 -320 
C 5958 45 5594 614 5286 1030 
L 4851 851 
z
M 1114 986 
C 902 512 563 -19 275 -339 
L 736 -544 
C 1030 -179 1350 378 1574 851 
L 1114 986 
z
M 1050 4672 
L 2010 4672 
L 2010 3546 
L 1050 3546 
L 1050 4672 
z
M 1050 1869 
L 1050 3123 
L 2010 3123 
L 2010 1869 
L 1050 1869 
z
M 595 5101 
L 595 1107 
L 1050 1107 
L 1050 1434 
L 2458 1434 
L 2458 5101 
L 595 5101 
z
M 2739 5114 
L 2739 4685 
L 3808 4685 
C 3680 4090 3379 3680 2534 3450 
C 2630 3373 2752 3200 2803 3091 
C 3776 3392 4141 3910 4282 4685 
L 5427 4685 
C 5382 4077 5338 3827 5254 3744 
C 5210 3699 5152 3693 5062 3693 
C 4960 3693 4698 3693 4416 3718 
C 4486 3610 4531 3443 4538 3322 
C 4832 3302 5120 3309 5267 3315 
C 5434 3328 5542 3366 5645 3469 
C 5779 3616 5843 3994 5901 4928 
C 5907 4992 5914 5114 5914 5114 
L 2739 5114 
z
" transform="scale(0.015625)"/>
     </defs>
     <use xlink:href="#NotoSansCJKjp-Regular-5df2"/>
     <use xlink:href="#NotoSansCJKjp-Regular-77e5" x="99.999985"/>
     <use xlink:href="#NotoSansCJKjp-Regular-ff1a" x="199.999969"/>
     <use xlink:href="#NotoSansCJKjp-Regular-5386" x="299.999954"/>
     <use xlink:href="#NotoSansCJKjp-Regular-53f2" x="399.999939"/>
     <use xlink:href="#NotoSansCJKjp-Regular-5feb" x="499.999924"/>
     <use xlink:href="#NotoSansCJKjp-Regular-7167" x="599.999908"/>
    </g>
    <!-- G1...Gn -->
    <g transform="translate(171.664844 59.164538) scale(0.1 -0.1)">
     <defs>
      <path id="NotoSansCJKjp-Regular-47" d="M 2490 -83 
C 3117 -83 3635 147 3936 461 
L 3936 2432 
L 2394 2432 
L 2394 1939 
L 3392 1939 
L 3392 710 
C 3206 538 2880 435 2547 435 
C 1542 435 979 1178 979 2362 
C 979 3533 1594 4256 2541 4256 
C 3008 4256 3315 4058 3552 3814 
L 3872 4198 
C 3603 4480 3174 4774 2522 4774 
C 1280 4774 371 3859 371 2342 
C 371 819 1254 -83 2490 -83 
z
" transform="scale(0.015625)"/>
      <path id="NotoSansCJKjp-Regular-31" d="M 563 0 
L 3136 0 
L 3136 486 
L 2195 486 
L 2195 4691 
L 1747 4691 
C 1491 4544 1190 4435 774 4358 
L 774 3987 
L 1613 3987 
L 1613 486 
L 563 486 
L 563 0 
z
" transform="scale(0.015625)"/>
      <path id="NotoSansCJKjp-Regular-2e" d="M 890 -83 
C 1120 -83 1312 96 1312 358 
C 1312 627 1120 806 890 806 
C 653 806 467 627 467 358 
C 467 96 653 -83 890 -83 
z
" transform="scale(0.015625)"/>
      <path id="NotoSansCJKjp-Regular-6e" d="M 589 0 
L 1178 0 
L 1178 2522 
C 1523 2874 1766 3053 2125 3053 
C 2586 3053 2784 2778 2784 2125 
L 2784 0 
L 3366 0 
L 3366 2202 
C 3366 3085 3034 3565 2304 3565 
C 1830 3565 1466 3302 1139 2970 
L 1126 2970 
L 1069 3475 
L 589 3475 
L 589 0 
z
" transform="scale(0.015625)"/>
     </defs>
     <use xlink:href="#NotoSansCJKjp-Regular-47"/>
     <use xlink:href="#NotoSansCJKjp-Regular-31" x="68.899994"/>
     <use xlink:href="#NotoSansCJKjp-Regular-2e" x="124.399979"/>
     <use xlink:href="#NotoSansCJKjp-Regular-2e" x="152.199966"/>
     <use xlink:href="#NotoSansCJKjp-Regular-2e" x="179.999954"/>
     <use xlink:href="#NotoSansCJKjp-Regular-47" x="207.799942"/>
     <use xlink:href="#NotoSansCJKjp-Regular-6e" x="276.699936"/>
    </g>
   </g>
   <g id="text_3">
    <!-- 未知：未来拓扑 -->
    <g transform="translate(404.65 53.2436) scale(0.1 -0.1)">
     <defs>
      <path id="NotoSansCJKjp-Regular-672a" d="M 2938 5370 
L 2938 4326 
L 851 4326 
L 851 3853 
L 2938 3853 
L 2938 2746 
L 397 2746 
L 397 2272 
L 2662 2272 
C 2086 1446 1114 646 218 250 
C 326 154 486 -32 570 -154 
C 1414 282 2317 1043 2938 1894 
L 2938 -512 
L 3443 -512 
L 3443 1920 
C 4070 1062 4979 269 5830 -160 
C 5914 -32 6074 160 6182 256 
C 5286 646 4307 1446 3718 2272 
L 6029 2272 
L 6029 2746 
L 3443 2746 
L 3443 3853 
L 5594 3853 
L 5594 4326 
L 3443 4326 
L 3443 5370 
L 2938 5370 
z
" transform="scale(0.015625)"/>
      <path id="NotoSansCJKjp-Regular-6765" d="M 4838 4026 
C 4691 3635 4416 3085 4192 2739 
L 4602 2598 
C 4826 2918 5107 3424 5338 3872 
L 4838 4026 
z
M 1184 3840 
C 1434 3456 1683 2938 1766 2611 
L 2221 2790 
C 2131 3117 1869 3622 1613 3994 
L 1184 3840 
z
M 2944 5376 
L 2944 4602 
L 666 4602 
L 666 4147 
L 2944 4147 
L 2944 2534 
L 365 2534 
L 365 2074 
L 2618 2074 
C 2029 1293 1082 544 218 166 
C 333 70 486 -115 563 -230 
C 1408 192 2323 960 2944 1805 
L 2944 -506 
L 3450 -506 
L 3450 1824 
C 4070 966 4992 173 5850 -250 
C 5933 -128 6080 51 6195 147 
C 5325 531 4371 1293 3782 2074 
L 6048 2074 
L 6048 2534 
L 3450 2534 
L 3450 4147 
L 5779 4147 
L 5779 4602 
L 3450 4602 
L 3450 5376 
L 2944 5376 
z
" transform="scale(0.015625)"/>
      <path id="NotoSansCJKjp-Regular-62d3" d="M 1203 5376 
L 1203 4083 
L 275 4083 
L 275 3635 
L 1203 3635 
L 1203 2285 
C 832 2170 493 2067 218 1990 
L 365 1530 
L 1203 1805 
L 1203 96 
C 1203 6 1165 -19 1075 -26 
C 992 -26 717 -32 416 -19 
C 474 -141 544 -339 563 -461 
C 1005 -461 1267 -454 1440 -378 
C 1600 -301 1670 -173 1670 96 
L 1670 1958 
L 2483 2240 
L 2406 2669 
L 1670 2432 
L 1670 3635 
L 2445 3635 
L 2445 4083 
L 1670 4083 
L 1670 5376 
L 1203 5376 
z
M 2426 4928 
L 2426 4467 
L 3648 4467 
C 3366 3379 2835 2170 2022 1421 
C 2118 1338 2266 1165 2336 1062 
C 2605 1312 2842 1600 3053 1920 
L 3053 -512 
L 3514 -512 
L 3514 -141 
L 5389 -141 
L 5389 -480 
L 5856 -480 
L 5856 2726 
L 3514 2726 
C 3789 3290 4000 3885 4160 4467 
L 6118 4467 
L 6118 4928 
L 2426 4928 
z
M 3514 314 
L 3514 2272 
L 5389 2272 
L 5389 314 
L 3514 314 
z
" transform="scale(0.015625)"/>
      <path id="NotoSansCJKjp-Regular-6251" d="M 3757 5376 
L 3757 -506 
L 4243 -506 
L 4243 2733 
C 4845 2387 5491 1939 5837 1626 
L 6131 2029 
C 5722 2400 4902 2906 4243 3251 
L 4243 5376 
L 3757 5376 
z
M 205 1939 
L 326 1440 
L 1363 1709 
L 1363 90 
C 1363 -19 1325 -45 1222 -51 
C 1120 -58 781 -58 429 -51 
C 486 -179 557 -384 582 -512 
C 1075 -512 1389 -499 1581 -422 
C 1766 -346 1843 -211 1843 90 
L 1843 1837 
L 2925 2125 
L 2874 2573 
L 1843 2317 
L 1843 3571 
L 2848 3571 
L 2848 4032 
L 1843 4032 
L 1843 5376 
L 1363 5376 
L 1363 4032 
L 288 4032 
L 288 3571 
L 1363 3571 
L 1363 2202 
C 922 2099 518 2003 205 1939 
z
" transform="scale(0.015625)"/>
     </defs>
     <use xlink:href="#NotoSansCJKjp-Regular-672a"/>
     <use xlink:href="#NotoSansCJKjp-Regular-77e5" x="99.999985"/>
     <use xlink:href="#NotoSansCJKjp-Regular-ff1a" x="199.999969"/>
     <use xlink:href="#NotoSansCJKjp-Regular-672a" x="299.999954"/>
     <use xlink:href="#NotoSansCJKjp-Regular-6765" x="399.999939"/>
     <use xlink:href="#NotoSansCJKjp-Regular-62d3" x="499.999924"/>
     <use xlink:href="#NotoSansCJKjp-Regular-6251" x="599.999908"/>
    </g>
   </g>
   <g id="text_4">
    <!-- G1 -->
    <g transform="translate(79.099688 99.8132) scale(0.1 -0.1)">
     <use xlink:href="#NotoSansCJKjp-Regular-47"/>
     <use xlink:href="#NotoSansCJKjp-Regular-31" x="68.899994"/>
    </g>
   </g>
   <g id="text_5">
    <!-- G2 -->
    <g transform="translate(151.639688 99.8132) scale(0.1 -0.1)">
     <defs>
      <path id="NotoSansCJKjp-Regular-32" d="M 282 0 
L 3232 0 
L 3232 506 
L 1933 506 
C 1696 506 1408 480 1165 461 
C 2266 1504 3008 2458 3008 3398 
C 3008 4230 2477 4774 1638 4774 
C 1043 4774 634 4506 256 4090 
L 595 3757 
C 858 4070 1184 4301 1568 4301 
C 2150 4301 2432 3910 2432 3373 
C 2432 2566 1754 1632 282 346 
L 282 0 
z
" transform="scale(0.015625)"/>
     </defs>
     <use xlink:href="#NotoSansCJKjp-Regular-47"/>
     <use xlink:href="#NotoSansCJKjp-Regular-32" x="68.899994"/>
    </g>
   </g>
   <g id="text_6">
    <!-- G3 -->
    <g transform="translate(224.179688 99.8132) scale(0.1 -0.1)">
     <defs>
      <path id="NotoSansCJKjp-Regular-33" d="M 1683 -83 
C 2522 -83 3194 416 3194 1254 
C 3194 1901 2752 2310 2202 2445 
L 2202 2477 
C 2701 2650 3034 3034 3034 3603 
C 3034 4346 2458 4774 1664 4774 
C 1126 4774 710 4538 358 4218 
L 672 3846 
C 941 4115 1267 4301 1645 4301 
C 2138 4301 2438 4006 2438 3558 
C 2438 3053 2112 2662 1139 2662 
L 1139 2214 
C 2227 2214 2598 1843 2598 1274 
C 2598 736 2208 403 1645 403 
C 1114 403 762 659 486 941 
L 186 563 
C 493 224 954 -83 1683 -83 
z
" transform="scale(0.015625)"/>
     </defs>
     <use xlink:href="#NotoSansCJKjp-Regular-47"/>
     <use xlink:href="#NotoSansCJKjp-Regular-33" x="68.899994"/>
    </g>
   </g>
   <g id="text_7">
    <!-- G4 -->
    <g transform="translate(296.719688 99.8132) scale(0.1 -0.1)">
     <defs>
      <path id="NotoSansCJKjp-Regular-34" d="M 2176 0 
L 2726 0 
L 2726 1293 
L 3354 1293 
L 3354 1760 
L 2726 1760 
L 2726 4691 
L 2080 4691 
L 128 1677 
L 128 1293 
L 2176 1293 
L 2176 0 
z
M 2176 1760 
L 736 1760 
L 1805 3360 
C 1939 3590 2067 3827 2182 4051 
L 2208 4051 
C 2195 3814 2176 3430 2176 3200 
L 2176 1760 
z
" transform="scale(0.015625)"/>
     </defs>
     <use xlink:href="#NotoSansCJKjp-Regular-47"/>
     <use xlink:href="#NotoSansCJKjp-Regular-34" x="68.899994"/>
    </g>
   </g>
   <g id="text_8">
    <!-- G? -->
    <g transform="translate(369.664375 99.8132) scale(0.1 -0.1)">
     <defs>
      <path id="NotoSansCJKjp-Regular-3f" d="M 1139 1414 
L 1658 1414 
C 1542 2419 2694 2797 2694 3738 
C 2694 4442 2221 4877 1498 4877 
C 979 4877 570 4627 275 4288 
L 608 3981 
C 832 4237 1114 4390 1434 4390 
C 1894 4390 2125 4083 2125 3699 
C 2125 2938 986 2528 1139 1414 
z
M 1414 -83 
C 1651 -83 1843 96 1843 358 
C 1843 627 1651 806 1414 806 
C 1178 806 998 627 998 358 
C 998 96 1178 -83 1414 -83 
z
" transform="scale(0.015625)"/>
     </defs>
     <use xlink:href="#NotoSansCJKjp-Regular-47"/>
     <use xlink:href="#NotoSansCJKjp-Regular-3f" x="68.899994"/>
    </g>
   </g>
   <g id="text_9">
    <!-- G? -->
    <g transform="translate(442.204375 99.8132) scale(0.1 -0.1)">
     <use xlink:href="#NotoSansCJKjp-Regular-47"/>
     <use xlink:href="#NotoSansCJKjp-Regular-3f" x="68.899994"/>
    </g>
   </g>
   <g id="text_10">
    <!-- G? -->
    <g transform="translate(514.744375 99.8132) scale(0.1 -0.1)">
     <use xlink:href="#NotoSansCJKjp-Regular-47"/>
     <use xlink:href="#NotoSansCJKjp-Regular-3f" x="68.899994"/>
    </g>
   </g>
   <g id="text_11">
    <!-- 在当前时刻，只能基于过去与当前结构 -->
    <g transform="translate(177.84 145.944919) scale(0.09 -0.09)">
     <defs>
      <path id="NotoSansCJKjp-Regular-5728" d="M 2502 5376 
C 2413 5050 2298 4710 2163 4384 
L 403 4384 
L 403 3923 
L 1952 3923 
C 1542 3104 979 2342 243 1830 
C 320 1722 442 1517 493 1389 
C 762 1581 1011 1798 1235 2035 
L 1235 -486 
L 1715 -486 
L 1715 2605 
C 2016 3014 2278 3462 2496 3923 
L 6010 3923 
L 6010 4384 
L 2694 4384 
C 2810 4672 2912 4966 3002 5254 
L 2502 5376 
z
M 3827 3590 
L 3827 2355 
L 2387 2355 
L 2387 1907 
L 3827 1907 
L 3827 90 
L 2131 90 
L 2131 -358 
L 6003 -358 
L 6003 90 
L 4307 90 
L 4307 1907 
L 5760 1907 
L 5760 2355 
L 4307 2355 
L 4307 3590 
L 3827 3590 
z
" transform="scale(0.015625)"/>
      <path id="NotoSansCJKjp-Regular-5f53" d="M 774 4922 
C 1114 4467 1459 3846 1600 3430 
L 2061 3642 
C 1914 4045 1562 4646 1210 5094 
L 774 4922 
z
M 5126 5152 
C 4941 4659 4582 3981 4307 3552 
L 4723 3392 
C 5011 3802 5370 4435 5645 4979 
L 5126 5152 
z
M 736 243 
L 736 -237 
L 5056 -237 
L 5056 -518 
L 5562 -518 
L 5562 3110 
L 3456 3110 
L 3456 5376 
L 2931 5376 
L 2931 3110 
L 864 3110 
L 864 2630 
L 5056 2630 
L 5056 1702 
L 1075 1702 
L 1075 1242 
L 5056 1242 
L 5056 243 
L 736 243 
z
" transform="scale(0.015625)"/>
      <path id="NotoSansCJKjp-Regular-524d" d="M 3866 3290 
L 3866 666 
L 4314 666 
L 4314 3290 
L 3866 3290 
z
M 5165 3482 
L 5165 90 
C 5165 -6 5133 -32 5030 -32 
C 4922 -38 4576 -38 4186 -26 
C 4256 -154 4333 -358 4358 -486 
C 4851 -493 5178 -480 5370 -403 
C 5568 -326 5638 -192 5638 83 
L 5638 3482 
L 5165 3482 
z
M 4627 5408 
C 4486 5094 4243 4672 4026 4365 
L 2106 4365 
L 2419 4480 
C 2298 4736 2022 5114 1779 5382 
L 1331 5222 
C 1562 4960 1798 4614 1920 4365 
L 339 4365 
L 339 3923 
L 6061 3923 
L 6061 4365 
L 4570 4365 
C 4755 4627 4960 4947 5139 5242 
L 4627 5408 
z
M 2618 1926 
L 2618 1280 
L 1197 1280 
L 1197 1926 
L 2618 1926 
z
M 2618 2304 
L 1197 2304 
L 1197 2938 
L 2618 2938 
L 2618 2304 
z
M 742 3347 
L 742 -480 
L 1197 -480 
L 1197 902 
L 2618 902 
L 2618 45 
C 2618 -38 2592 -64 2502 -64 
C 2419 -70 2125 -70 1798 -58 
C 1862 -179 1933 -365 1965 -486 
C 2394 -486 2682 -480 2854 -403 
C 3034 -333 3085 -205 3085 38 
L 3085 3347 
L 742 3347 
z
" transform="scale(0.015625)"/>
      <path id="NotoSansCJKjp-Regular-523b" d="M 3968 4666 
L 3968 1094 
L 4429 1094 
L 4429 4666 
L 3968 4666 
z
M 5382 5248 
L 5382 102 
C 5382 -13 5344 -45 5229 -45 
C 5120 -51 4762 -58 4365 -38 
C 4429 -179 4499 -390 4525 -518 
C 5062 -525 5389 -512 5581 -429 
C 5773 -352 5850 -205 5850 102 
L 5850 5248 
L 5382 5248 
z
M 2701 3616 
C 2470 3213 2150 2816 1786 2451 
C 1632 2605 1421 2778 1203 2944 
C 1504 3270 1843 3706 2125 4096 
L 2099 4109 
L 3661 4109 
L 3661 4544 
L 2240 4544 
L 2240 5338 
L 1773 5338 
L 1773 4544 
L 333 4544 
L 333 4109 
L 1555 4109 
C 1370 3808 1114 3456 877 3174 
L 595 3366 
L 320 3046 
C 704 2790 1165 2432 1446 2144 
C 1088 1837 698 1568 301 1363 
C 416 1274 550 1126 627 1018 
C 1606 1568 2547 2470 3123 3450 
L 2701 3616 
z
M 3174 2406 
C 2554 1350 1414 397 198 -134 
C 314 -237 454 -397 525 -512 
C 1139 -218 1734 173 2259 627 
C 2662 275 3117 -160 3347 -448 
L 3718 -109 
C 3475 173 3002 602 2598 947 
C 2989 1338 3328 1766 3597 2221 
L 3174 2406 
z
" transform="scale(0.015625)"/>
      <path id="NotoSansCJKjp-Regular-ff0c" d="M 1005 -685 
C 1677 -448 2112 77 2112 768 
C 2112 1216 1920 1504 1568 1504 
C 1306 1504 1082 1344 1082 1043 
C 1082 742 1299 589 1562 589 
L 1670 602 
C 1638 160 1357 -141 864 -346 
L 1005 -685 
z
" transform="scale(0.015625)"/>
      <path id="NotoSansCJKjp-Regular-53ea" d="M 3776 1011 
C 4410 557 5184 -102 5549 -531 
L 5971 -230 
C 5581 205 4787 838 4160 1267 
L 3776 1011 
z
M 2163 1280 
C 1792 768 1043 186 371 -179 
C 486 -262 659 -416 755 -518 
C 1440 -134 2195 493 2675 1082 
L 2163 1280 
z
M 1062 4941 
L 1062 1491 
L 1542 1491 
L 1542 1722 
L 4973 1722 
L 4973 1523 
L 5472 1523 
L 5472 4941 
L 1062 4941 
z
M 1542 2182 
L 1542 4474 
L 4973 4474 
L 4973 2182 
L 1542 2182 
z
" transform="scale(0.015625)"/>
      <path id="NotoSansCJKjp-Regular-80fd" d="M 2131 4774 
C 2278 4576 2432 4339 2560 4109 
L 1248 4058 
C 1446 4422 1651 4864 1824 5261 
L 1331 5382 
C 1197 4979 966 4442 742 4038 
L 256 4019 
L 294 3552 
C 960 3590 1882 3635 2784 3693 
C 2854 3552 2912 3424 2950 3309 
L 3366 3494 
C 3226 3891 2867 4486 2528 4928 
L 2131 4774 
z
M 2451 2688 
L 2451 2138 
L 1088 2138 
L 1088 2688 
L 2451 2688 
z
M 640 3098 
L 640 -506 
L 1088 -506 
L 1088 800 
L 2451 800 
L 2451 51 
C 2451 -32 2432 -58 2349 -58 
C 2253 -64 1984 -64 1683 -51 
C 1747 -179 1818 -365 1843 -493 
C 2246 -493 2522 -486 2701 -416 
C 2874 -339 2925 -205 2925 45 
L 2925 3098 
L 640 3098 
z
M 1088 1760 
L 2451 1760 
L 2451 1178 
L 1088 1178 
L 1088 1760 
z
M 5491 4896 
C 5126 4704 4550 4474 4006 4288 
L 4006 5363 
L 3526 5363 
L 3526 3238 
C 3526 2707 3686 2566 4307 2566 
C 4429 2566 5267 2566 5408 2566 
C 5920 2566 6061 2771 6118 3558 
C 5984 3590 5786 3661 5683 3744 
C 5658 3110 5613 3002 5363 3002 
C 5184 3002 4480 3002 4352 3002 
C 4058 3002 4006 3040 4006 3245 
L 4006 3904 
C 4621 4083 5306 4307 5811 4538 
L 5491 4896 
z
M 5568 2042 
C 5197 1805 4582 1555 4000 1363 
L 4000 2387 
L 3526 2387 
L 3526 224 
C 3526 -314 3693 -454 4320 -454 
C 4454 -454 5318 -454 5459 -454 
C 5997 -454 6138 -224 6195 634 
C 6061 666 5875 742 5760 819 
C 5734 96 5690 -26 5421 -26 
C 5229 -26 4506 -26 4365 -26 
C 4058 -26 4000 13 4000 224 
L 4000 966 
C 4646 1146 5382 1395 5882 1683 
L 5568 2042 
z
" transform="scale(0.015625)"/>
      <path id="NotoSansCJKjp-Regular-57fa" d="M 4378 5370 
L 4378 4755 
L 2048 4755 
L 2048 5376 
L 1568 5376 
L 1568 4755 
L 589 4755 
L 589 4352 
L 1568 4352 
L 1568 2298 
L 294 2298 
L 294 1888 
L 1690 1888 
C 1318 1434 755 1030 230 819 
C 333 730 474 563 544 448 
C 1165 742 1818 1286 2214 1888 
L 4237 1888 
C 4627 1318 5254 787 5869 525 
C 5946 640 6086 813 6189 902 
C 5651 1094 5107 1466 4742 1888 
L 6112 1888 
L 6112 2298 
L 4864 2298 
L 4864 4352 
L 5830 4352 
L 5830 4755 
L 4864 4755 
L 4864 5370 
L 4378 5370 
z
M 2048 4352 
L 4378 4352 
L 4378 3923 
L 2048 3923 
L 2048 4352 
z
M 2944 1683 
L 2944 1146 
L 1632 1146 
L 1632 749 
L 2944 749 
L 2944 70 
L 794 70 
L 794 -339 
L 5645 -339 
L 5645 70 
L 3430 70 
L 3430 749 
L 4774 749 
L 4774 1146 
L 3430 1146 
L 3430 1683 
L 2944 1683 
z
M 2048 3565 
L 4378 3565 
L 4378 3117 
L 2048 3117 
L 2048 3565 
z
M 2048 2752 
L 4378 2752 
L 4378 2298 
L 2048 2298 
L 2048 2752 
z
" transform="scale(0.015625)"/>
      <path id="NotoSansCJKjp-Regular-4e8e" d="M 794 4922 
L 794 4442 
L 3008 4442 
L 3008 2822 
L 352 2822 
L 352 2342 
L 3008 2342 
L 3008 192 
C 3008 58 2957 19 2816 19 
C 2675 13 2182 6 1658 26 
C 1734 -115 1824 -339 1856 -480 
C 2515 -480 2938 -474 3174 -390 
C 3418 -314 3514 -160 3514 192 
L 3514 2342 
L 6054 2342 
L 6054 2822 
L 3514 2822 
L 3514 4442 
L 5606 4442 
L 5606 4922 
L 794 4922 
z
" transform="scale(0.015625)"/>
      <path id="NotoSansCJKjp-Regular-8fc7" d="M 506 4954 
C 864 4621 1274 4154 1453 3853 
L 1856 4134 
C 1658 4435 1235 4883 877 5203 
L 506 4954 
z
M 2438 3053 
C 2765 2656 3155 2093 3334 1760 
L 3738 2003 
C 3552 2336 3149 2874 2822 3264 
L 2438 3053 
z
M 1677 2976 
L 320 2976 
L 320 2528 
L 1203 2528 
L 1203 851 
C 915 749 582 461 237 90 
L 570 -365 
C 896 77 1210 454 1421 454 
C 1568 454 1773 237 2042 70 
C 2490 -211 3027 -275 3821 -275 
C 4435 -275 5568 -243 6022 -218 
C 6029 -70 6112 173 6170 301 
C 5549 237 4582 179 3834 179 
C 3117 179 2573 230 2150 486 
C 1933 614 1798 742 1677 819 
L 1677 2976 
z
M 4608 5357 
L 4608 4224 
L 2125 4224 
L 2125 3770 
L 4608 3770 
L 4608 1229 
C 4608 1114 4563 1082 4435 1075 
C 4307 1069 3859 1069 3392 1088 
C 3462 947 3539 736 3565 595 
C 4166 595 4557 602 4781 685 
C 5011 762 5094 902 5094 1229 
L 5094 3770 
L 5984 3770 
L 5984 4224 
L 5094 4224 
L 5094 5357 
L 4608 5357 
z
" transform="scale(0.015625)"/>
      <path id="NotoSansCJKjp-Regular-53bb" d="M 4096 1510 
C 4371 1197 4672 813 4928 442 
L 2016 314 
C 2336 883 2682 1619 2963 2240 
L 6086 2240 
L 6086 2720 
L 3437 2720 
L 3437 3930 
L 5613 3930 
L 5613 4410 
L 3437 4410 
L 3437 5382 
L 2931 5382 
L 2931 4410 
L 832 4410 
L 832 3930 
L 2931 3930 
L 2931 2720 
L 339 2720 
L 339 2240 
L 2349 2240 
C 2125 1626 1779 851 1466 294 
L 563 262 
L 634 -243 
C 1798 -198 3565 -109 5235 -13 
C 5363 -218 5472 -403 5549 -563 
L 6022 -314 
C 5734 256 5114 1094 4538 1722 
L 4096 1510 
z
" transform="scale(0.015625)"/>
      <path id="NotoSansCJKjp-Regular-4e0e" d="M 1939 5389 
C 1773 4429 1485 3098 1267 2317 
L 1760 2272 
L 1843 2605 
L 4525 2605 
C 4486 2246 4454 1939 4416 1664 
L 346 1664 
L 346 1210 
L 4346 1210 
C 4230 518 4102 160 3949 26 
C 3866 -45 3776 -51 3616 -51 
C 3437 -51 2957 -51 2470 0 
C 2560 -134 2624 -339 2637 -480 
C 3098 -512 3558 -518 3789 -506 
C 4045 -486 4198 -442 4365 -282 
C 4570 -83 4710 346 4845 1210 
L 6074 1210 
L 6074 1664 
L 4902 1664 
C 4947 1997 4986 2374 5030 2816 
C 5037 2886 5050 3053 5050 3053 
L 1952 3053 
L 2163 4000 
L 5402 4000 
L 5402 4461 
L 2259 4461 
L 2432 5338 
L 1939 5389 
z
" transform="scale(0.015625)"/>
      <path id="NotoSansCJKjp-Regular-7ed3" d="M 224 339 
L 307 -154 
C 941 -13 1792 166 2598 352 
L 2560 794 
C 1702 621 819 435 224 339 
z
M 358 2733 
C 454 2778 614 2810 1427 2906 
C 1139 2502 870 2182 749 2061 
C 538 1830 390 1677 243 1645 
C 301 1517 378 1280 403 1178 
C 557 1261 787 1312 2573 1638 
C 2560 1741 2541 1933 2547 2061 
L 1120 1830 
C 1638 2387 2144 3066 2579 3757 
L 2138 4026 
C 2016 3795 1875 3565 1728 3341 
L 877 3270 
C 1254 3802 1626 4480 1914 5133 
L 1421 5338 
C 1165 4589 704 3795 557 3590 
C 422 3386 307 3238 192 3213 
C 250 3078 333 2835 358 2733 
z
M 4090 5382 
L 4090 4518 
L 2611 4518 
L 2611 4058 
L 4090 4058 
L 4090 3059 
L 2771 3059 
L 2771 2598 
L 5926 2598 
L 5926 3059 
L 4582 3059 
L 4582 4058 
L 6035 4058 
L 6035 4518 
L 4582 4518 
L 4582 5382 
L 4090 5382 
z
M 2938 1946 
L 2938 -506 
L 3405 -506 
L 3405 -230 
L 5286 -230 
L 5286 -480 
L 5766 -480 
L 5766 1946 
L 2938 1946 
z
M 3405 205 
L 3405 1510 
L 5286 1510 
L 5286 205 
L 3405 205 
z
" transform="scale(0.015625)"/>
      <path id="NotoSansCJKjp-Regular-6784" d="M 3341 5376 
C 3181 4723 2931 4090 2618 3578 
L 2618 4006 
L 1766 4006 
L 1766 5376 
L 1306 5376 
L 1306 4006 
L 307 4006 
L 307 3546 
L 1242 3546 
C 1024 2694 576 1702 147 1184 
C 224 1069 346 870 397 742 
C 730 1171 1056 1882 1306 2605 
L 1306 -506 
L 1766 -506 
L 1766 2483 
C 1990 2176 2266 1779 2381 1568 
L 2682 1958 
C 2547 2138 1958 2842 1766 3046 
L 1766 3546 
L 2598 3546 
C 2483 3354 2349 3174 2214 3021 
C 2336 2950 2534 2797 2618 2720 
C 2874 3034 3110 3430 3322 3878 
L 5530 3878 
C 5446 1254 5350 275 5158 51 
C 5094 -32 5030 -51 4915 -45 
C 4781 -45 4474 -45 4128 -13 
C 4211 -154 4269 -358 4282 -493 
C 4595 -512 4915 -518 5107 -493 
C 5318 -467 5453 -416 5587 -237 
C 5824 77 5914 1069 6010 4077 
C 6010 4141 6010 4326 6010 4326 
L 3514 4326 
C 3629 4627 3738 4947 3827 5267 
L 3341 5376 
z
M 2432 1248 
L 2541 794 
L 4589 1101 
C 4646 928 4698 774 4723 640 
L 5126 794 
C 5030 1184 4749 1811 4474 2298 
L 4102 2170 
C 4224 1958 4339 1709 4442 1466 
L 3392 1344 
C 3603 1901 3827 2662 4000 3283 
L 3533 3386 
C 3411 2765 3168 1875 2950 1299 
L 2432 1248 
z
" transform="scale(0.015625)"/>
     </defs>
     <use xlink:href="#NotoSansCJKjp-Regular-5728"/>
     <use xlink:href="#NotoSansCJKjp-Regular-5f53" x="99.999985"/>
     <use xlink:href="#NotoSansCJKjp-Regular-524d" x="199.999969"/>
     <use xlink:href="#NotoSansCJKjp-Regular-65f6" x="299.999954"/>
     <use xlink:href="#NotoSansCJKjp-Regular-523b" x="399.999939"/>
     <use xlink:href="#NotoSansCJKjp-Regular-ff0c" x="499.999924"/>
     <use xlink:href="#NotoSansCJKjp-Regular-53ea" x="599.999908"/>
     <use xlink:href="#NotoSansCJKjp-Regular-80fd" x="699.999893"/>
     <use xlink:href="#NotoSansCJKjp-Regular-57fa" x="799.999878"/>
     <use xlink:href="#NotoSansCJKjp-Regular-4e8e" x="899.999863"/>
     <use xlink:href="#NotoSansCJKjp-Regular-8fc7" x="999.999847"/>
     <use xlink:href="#NotoSansCJKjp-Regular-53bb" x="1099.999832"/>
     <use xlink:href="#NotoSansCJKjp-Regular-4e0e" x="1199.999817"/>
     <use xlink:href="#NotoSansCJKjp-Regular-5f53" x="1299.999802"/>
     <use xlink:href="#NotoSansCJKjp-Regular-524d" x="1399.999786"/>
     <use xlink:href="#NotoSansCJKjp-Regular-7ed3" x="1499.999771"/>
     <use xlink:href="#NotoSansCJKjp-Regular-6784" x="1599.999756"/>
    </g>
    <!-- 实时计算当前MDS -->
    <g transform="translate(257.976562 156.602606) scale(0.09 -0.09)">
     <defs>
      <path id="NotoSansCJKjp-Regular-5b9e" d="M 3443 685 
C 4294 365 5146 -77 5664 -474 
L 5958 -96 
C 5427 282 4531 723 3674 1037 
L 3443 685 
z
M 1536 3565 
C 1882 3360 2291 3040 2477 2816 
L 2784 3162 
C 2586 3392 2170 3680 1824 3872 
L 1536 3565 
z
M 896 2566 
C 1261 2368 1690 2048 1894 1818 
L 2189 2182 
C 1978 2406 1542 2701 1184 2886 
L 896 2566 
z
M 576 4646 
L 576 3347 
L 1056 3347 
L 1056 4198 
L 5338 4198 
L 5338 3347 
L 5837 3347 
L 5837 4646 
L 3642 4646 
C 3546 4870 3379 5184 3219 5421 
L 2746 5274 
C 2861 5082 2982 4851 3072 4646 
L 576 4646 
z
M 454 1638 
L 454 1222 
L 2765 1222 
C 2406 602 1747 186 518 -70 
C 621 -179 742 -365 794 -493 
C 2234 -160 2950 397 3315 1222 
L 5984 1222 
L 5984 1638 
L 3462 1638 
C 3648 2259 3693 3002 3718 3878 
L 3219 3878 
C 3194 2970 3155 2234 2950 1638 
L 454 1638 
z
" transform="scale(0.015625)"/>
      <path id="NotoSansCJKjp-Regular-8ba1" d="M 877 4960 
C 1235 4659 1683 4224 1888 3949 
L 2214 4307 
C 1997 4570 1542 4979 1190 5267 
L 877 4960 
z
M 294 3366 
L 294 2893 
L 1312 2893 
L 1312 595 
C 1312 320 1114 128 992 51 
C 1082 -45 1210 -262 1254 -390 
C 1357 -256 1536 -115 2746 742 
C 2694 832 2618 1037 2586 1165 
L 1798 627 
L 1798 3366 
L 294 3366 
z
M 4006 5357 
L 4006 3251 
L 2381 3251 
L 2381 2758 
L 4006 2758 
L 4006 -512 
L 4512 -512 
L 4512 2758 
L 6138 2758 
L 6138 3251 
L 4512 3251 
L 4512 5357 
L 4006 5357 
z
" transform="scale(0.015625)"/>
      <path id="NotoSansCJKjp-Regular-7b97" d="M 1613 2925 
L 4890 2925 
L 4890 2547 
L 1613 2547 
L 1613 2925 
z
M 1613 2240 
L 4890 2240 
L 4890 1856 
L 1613 1856 
L 1613 2240 
z
M 1613 3597 
L 4890 3597 
L 4890 3232 
L 1613 3232 
L 1613 3597 
z
M 3686 5408 
C 3507 4915 3181 4448 2790 4141 
C 2899 4096 3085 3994 3181 3923 
L 1894 3923 
L 2259 4058 
C 2214 4179 2118 4352 2016 4506 
L 3117 4506 
L 3117 4902 
L 1427 4902 
C 1498 5030 1562 5158 1619 5286 
L 1171 5408 
C 966 4909 614 4410 224 4083 
C 333 4019 525 3891 614 3814 
C 813 4000 1011 4243 1184 4506 
L 1517 4506 
C 1645 4314 1773 4077 1837 3923 
L 1133 3923 
L 1133 1530 
L 1990 1530 
L 1990 1114 
L 1984 973 
L 358 973 
L 358 576 
L 1830 576 
C 1651 307 1267 38 461 -160 
C 563 -250 698 -416 762 -518 
C 1786 -224 2214 179 2381 576 
L 4109 576 
L 4109 -499 
L 4602 -499 
L 4602 576 
L 6067 576 
L 6067 973 
L 4602 973 
L 4602 1530 
L 5389 1530 
L 5389 3923 
L 4749 3923 
L 5094 4083 
C 5030 4205 4915 4358 4787 4506 
L 6016 4506 
L 6016 4902 
L 3968 4902 
C 4038 5030 4096 5165 4147 5299 
L 3686 5408 
z
M 4109 973 
L 2470 973 
L 2477 1101 
L 2477 1530 
L 4109 1530 
L 4109 973 
z
M 3232 3923 
C 3405 4083 3578 4282 3731 4506 
L 4243 4506 
C 4416 4320 4595 4090 4678 3923 
L 3232 3923 
z
" transform="scale(0.015625)"/>
      <path id="NotoSansCJKjp-Regular-4d" d="M 646 0 
L 1178 0 
L 1178 2598 
C 1178 3002 1139 3571 1101 3981 
L 1126 3981 
L 1504 2912 
L 2394 474 
L 2790 474 
L 3674 2912 
L 4051 3981 
L 4077 3981 
C 4045 3571 4000 3002 4000 2598 
L 4000 0 
L 4550 0 
L 4550 4691 
L 3840 4691 
L 2944 2182 
C 2835 1862 2739 1530 2618 1203 
L 2592 1203 
C 2477 1530 2374 1862 2253 2182 
L 1357 4691 
L 646 4691 
L 646 0 
z
" transform="scale(0.015625)"/>
      <path id="NotoSansCJKjp-Regular-44" d="M 646 0 
L 1843 0 
C 3258 0 4026 877 4026 2362 
C 4026 3859 3258 4691 1818 4691 
L 646 4691 
L 646 0 
z
M 1235 486 
L 1235 4211 
L 1766 4211 
C 2874 4211 3418 3552 3418 2362 
C 3418 1178 2874 486 1766 486 
L 1235 486 
z
" transform="scale(0.015625)"/>
      <path id="NotoSansCJKjp-Regular-53" d="M 1946 -83 
C 2925 -83 3539 506 3539 1248 
C 3539 1946 3117 2266 2573 2502 
L 1907 2790 
C 1542 2944 1126 3117 1126 3578 
C 1126 3994 1472 4256 2003 4256 
C 2438 4256 2784 4090 3072 3821 
L 3379 4198 
C 3053 4538 2560 4774 2003 4774 
C 1152 4774 525 4256 525 3533 
C 525 2848 1043 2515 1478 2330 
L 2150 2035 
C 2598 1837 2938 1683 2938 1197 
C 2938 742 2573 435 1952 435 
C 1466 435 992 666 659 1018 
L 307 608 
C 710 186 1280 -83 1946 -83 
z
" transform="scale(0.015625)"/>
     </defs>
     <use xlink:href="#NotoSansCJKjp-Regular-5b9e"/>
     <use xlink:href="#NotoSansCJKjp-Regular-65f6" x="99.999985"/>
     <use xlink:href="#NotoSansCJKjp-Regular-8ba1" x="199.999969"/>
     <use xlink:href="#NotoSansCJKjp-Regular-7b97" x="299.999954"/>
     <use xlink:href="#NotoSansCJKjp-Regular-5f53" x="399.999939"/>
     <use xlink:href="#NotoSansCJKjp-Regular-524d" x="499.999924"/>
     <use xlink:href="#NotoSansCJKjp-Regular-4d" x="599.999908"/>
     <use xlink:href="#NotoSansCJKjp-Regular-44" x="681.19989"/>
     <use xlink:href="#NotoSansCJKjp-Regular-53" x="749.999878"/>
    </g>
   </g>
   <g id="text_12">
    <!-- 自适应控制：在线、未来未知 -->
    <g transform="translate(35.1 16.775625) scale(0.12 -0.12)">
     <defs>
      <path id="NotoSansCJKjp-Bold-81ea" d="M 1696 2502 
L 4755 2502 
L 4755 1843 
L 1696 1843 
L 1696 2502 
z
M 1696 3213 
L 1696 3872 
L 4755 3872 
L 4755 3213 
L 1696 3213 
z
M 1696 1133 
L 4755 1133 
L 4755 467 
L 1696 467 
L 1696 1133 
z
M 2739 5446 
C 2707 5197 2637 4883 2560 4608 
L 922 4608 
L 922 -570 
L 1696 -570 
L 1696 -243 
L 4755 -243 
L 4755 -557 
L 5568 -557 
L 5568 4608 
L 3366 4608 
C 3469 4832 3571 5088 3667 5344 
L 2739 5446 
z
" transform="scale(0.015625)"/>
      <path id="NotoSansCJKjp-Bold-9002" d="M 538 4928 
C 896 4704 1338 4365 1536 4115 
L 2086 4634 
C 1869 4883 1408 5203 1050 5402 
L 538 4928 
z
M 282 3635 
C 659 3424 1120 3098 1325 2854 
L 1862 3398 
C 1632 3635 1152 3942 781 4128 
L 282 3635 
z
M 3123 2048 
L 5030 2048 
L 5030 1344 
L 3123 1344 
L 3123 2048 
z
M 2394 2707 
L 2394 685 
L 5805 685 
L 5805 2707 
L 4448 2707 
L 4448 3309 
L 6112 3309 
L 6112 3962 
L 4448 3962 
L 4448 4602 
C 4986 4659 5498 4742 5933 4845 
L 5453 5421 
C 4659 5229 3341 5101 2195 5050 
C 2266 4890 2355 4621 2374 4454 
C 2790 4467 3232 4493 3674 4525 
L 3674 3962 
L 2016 3962 
L 2016 3309 
L 3674 3309 
L 3674 2707 
L 2394 2707 
z
M 1747 2528 
L 275 2528 
L 275 1824 
L 998 1824 
L 998 858 
C 717 640 410 435 141 269 
L 512 -512 
C 851 -230 1146 13 1421 262 
C 1830 -230 2368 -422 3162 -454 
C 3923 -486 5235 -474 6003 -435 
C 6042 -211 6163 147 6246 326 
C 5389 256 3923 237 3168 269 
C 2496 301 2016 480 1747 909 
L 1747 2528 
z
" transform="scale(0.015625)"/>
      <path id="NotoSansCJKjp-Bold-5e94" d="M 1651 3130 
C 1914 2438 2214 1517 2330 915 
L 3053 1216 
C 2912 1811 2605 2694 2323 3392 
L 1651 3130 
z
M 2925 3533 
C 3130 2835 3360 1920 3443 1325 
L 4186 1530 
C 4083 2131 3846 3008 3622 3712 
L 2925 3533 
z
M 2906 5331 
C 2989 5139 3085 4909 3155 4691 
L 691 4691 
L 691 2970 
C 691 2042 653 717 173 -192 
C 358 -269 710 -499 851 -634 
C 1389 358 1472 1939 1472 2970 
L 1472 3968 
L 6093 3968 
L 6093 4691 
L 4013 4691 
C 3930 4941 3802 5261 3680 5510 
L 2906 5331 
z
M 1376 403 
L 1376 -320 
L 6163 -320 
L 6163 403 
L 4576 403 
C 5146 1344 5600 2445 5907 3462 
L 5088 3738 
C 4851 2650 4384 1363 3770 403 
L 1376 403 
z
" transform="scale(0.015625)"/>
      <path id="NotoSansCJKjp-Bold-63a7" d="M 2118 301 
L 2118 -397 
L 6195 -397 
L 6195 301 
L 4525 301 
L 4525 1350 
L 5869 1350 
L 5869 2042 
L 2490 2042 
L 2490 1350 
L 3770 1350 
L 3770 301 
L 2118 301 
z
M 3789 5440 
L 3789 4883 
L 2214 4883 
L 2214 3661 
L 2880 3661 
L 2880 4250 
L 3264 4250 
C 3238 3424 3123 3014 2170 2790 
C 2304 2662 2477 2406 2534 2246 
C 3725 2560 3917 3168 3955 4250 
L 4326 4250 
L 4326 3194 
C 4326 2605 4448 2406 5037 2406 
C 5146 2406 5414 2406 5536 2406 
C 5965 2406 6138 2592 6208 3270 
C 6016 3309 5734 3418 5600 3520 
C 5581 3085 5555 3021 5446 3021 
C 5395 3021 5203 3021 5152 3021 
C 5043 3021 5030 3034 5030 3194 
L 5030 4250 
L 5453 4250 
L 5453 3680 
L 6150 3680 
L 6150 4883 
L 4538 4883 
L 4538 5440 
L 3789 5440 
z
M 909 5434 
L 909 4224 
L 237 4224 
L 237 3520 
L 909 3520 
L 909 2464 
L 134 2221 
L 314 1485 
L 909 1696 
L 909 237 
C 909 154 883 128 806 128 
C 730 122 506 122 269 134 
C 365 -70 448 -390 467 -576 
C 883 -576 1165 -550 1357 -429 
C 1555 -314 1613 -115 1613 237 
L 1613 1952 
L 2253 2189 
L 2118 2867 
L 1613 2694 
L 1613 3520 
L 2150 3520 
L 2150 4224 
L 1613 4224 
L 1613 5434 
L 909 5434 
z
" transform="scale(0.015625)"/>
      <path id="NotoSansCJKjp-Bold-5236" d="M 4115 4909 
L 4115 1286 
L 4832 1286 
L 4832 4909 
L 4115 4909 
z
M 5267 5325 
L 5267 333 
C 5267 230 5229 205 5126 198 
C 5018 198 4685 198 4352 211 
C 4448 -13 4557 -352 4582 -563 
C 5082 -563 5453 -538 5690 -416 
C 5926 -288 6003 -77 6003 333 
L 6003 5325 
L 5267 5325 
z
M 723 5318 
C 614 4710 403 4058 134 3648 
C 288 3597 538 3494 710 3411 
L 237 3411 
L 237 2714 
L 1696 2714 
L 1696 2253 
L 486 2253 
L 486 -58 
L 1171 -58 
L 1171 1568 
L 1696 1568 
L 1696 -570 
L 2426 -570 
L 2426 1568 
L 2989 1568 
L 2989 627 
C 2989 570 2970 550 2912 550 
C 2854 550 2688 550 2509 557 
C 2592 378 2682 102 2701 -90 
C 3021 -96 3264 -90 3450 19 
C 3635 134 3680 320 3680 614 
L 3680 2253 
L 2426 2253 
L 2426 2714 
L 3827 2714 
L 3827 3411 
L 2426 3411 
L 2426 3891 
L 3578 3891 
L 3578 4582 
L 2426 4582 
L 2426 5395 
L 1696 5395 
L 1696 4582 
L 1286 4582 
C 1344 4774 1395 4973 1434 5171 
L 723 5318 
z
M 1696 3411 
L 826 3411 
C 902 3552 979 3712 1050 3891 
L 1696 3891 
L 1696 3411 
z
" transform="scale(0.015625)"/>
      <path id="NotoSansCJKjp-Bold-ff1a" d="M 3200 3302 
C 3539 3302 3808 3558 3808 3898 
C 3808 4250 3539 4506 3200 4506 
C 2861 4506 2592 4250 2592 3898 
C 2592 3558 2861 3302 3200 3302 
z
M 3200 250 
C 3539 250 3808 506 3808 845 
C 3808 1197 3539 1453 3200 1453 
C 2861 1453 2592 1197 2592 845 
C 2592 506 2861 250 3200 250 
z
" transform="scale(0.015625)"/>
      <path id="NotoSansCJKjp-Bold-5728" d="M 2374 5440 
C 2298 5146 2202 4845 2086 4550 
L 352 4550 
L 352 3814 
L 1747 3814 
C 1357 3072 826 2400 147 1958 
C 269 1773 442 1434 525 1222 
C 730 1363 915 1510 1094 1677 
L 1094 -563 
L 1869 -563 
L 1869 2547 
C 2157 2938 2406 3366 2618 3814 
L 6061 3814 
L 6061 4550 
L 2931 4550 
C 3021 4781 3104 5018 3174 5248 
L 2374 5440 
z
M 3744 3539 
L 3744 2477 
L 2438 2477 
L 2438 1766 
L 3744 1766 
L 3744 301 
L 2195 301 
L 2195 -410 
L 6042 -410 
L 6042 301 
L 4518 301 
L 4518 1766 
L 5798 1766 
L 5798 2477 
L 4518 2477 
L 4518 3539 
L 3744 3539 
z
" transform="scale(0.015625)"/>
      <path id="NotoSansCJKjp-Bold-7ebf" d="M 307 454 
L 461 -275 
C 1088 -64 1869 211 2605 474 
L 2483 1107 
C 1683 851 845 595 307 454 
z
M 4525 4979 
C 4787 4800 5139 4538 5318 4371 
L 5779 4819 
C 5594 4979 5229 5229 4973 5376 
L 4525 4979 
z
M 474 2643 
C 576 2694 730 2733 1293 2803 
C 1082 2502 896 2272 794 2170 
C 595 1933 448 1792 282 1754 
C 365 1568 480 1222 518 1082 
C 685 1178 947 1254 2509 1555 
C 2496 1709 2509 2003 2528 2195 
L 1517 2029 
C 1958 2547 2381 3149 2726 3750 
L 2106 4141 
C 1990 3910 1862 3680 1728 3462 
L 1184 3424 
C 1542 3910 1894 4512 2144 5082 
L 1427 5427 
C 1197 4698 755 3923 614 3725 
C 474 3520 365 3392 230 3354 
C 314 3155 435 2790 474 2643 
z
M 5517 2246 
C 5325 1939 5082 1664 4800 1414 
C 4742 1664 4685 1946 4634 2246 
L 6112 2522 
L 5984 3187 
L 4544 2925 
L 4486 3526 
L 5946 3757 
L 5818 4429 
L 4442 4218 
C 4422 4627 4416 5043 4422 5459 
L 3654 5459 
C 3654 5011 3667 4550 3693 4102 
L 2765 3962 
L 2886 3270 
L 3738 3405 
L 3802 2790 
L 2624 2579 
L 2752 1894 
L 3891 2106 
C 3962 1677 4051 1280 4154 928 
C 3629 595 3027 339 2400 154 
C 2573 -26 2765 -288 2861 -486 
C 3411 -288 3936 -45 4410 256 
C 4659 -256 4986 -570 5395 -570 
C 5907 -570 6112 -365 6234 429 
C 6067 512 5843 672 5696 851 
C 5664 333 5606 173 5485 173 
C 5325 173 5165 365 5030 698 
C 5472 1062 5856 1478 6163 1958 
L 5517 2246 
z
" transform="scale(0.015625)"/>
      <path id="NotoSansCJKjp-Bold-3001" d="M 1632 -442 
L 2317 147 
C 1997 544 1376 1178 922 1549 
L 256 973 
C 698 589 1242 38 1632 -442 
z
" transform="scale(0.015625)"/>
      <path id="NotoSansCJKjp-Bold-672a" d="M 2784 5434 
L 2784 4474 
L 826 4474 
L 826 3712 
L 2784 3712 
L 2784 2893 
L 346 2893 
L 346 2131 
L 2426 2131 
C 1869 1414 986 736 128 371 
C 314 211 570 -96 698 -294 
C 1446 96 2202 717 2784 1427 
L 2784 -576 
L 3603 -576 
L 3603 1459 
C 4186 736 4934 96 5690 -301 
C 5818 -96 6067 211 6246 365 
C 5395 736 4518 1414 3962 2131 
L 6080 2131 
L 6080 2893 
L 3603 2893 
L 3603 3712 
L 5613 3712 
L 5613 4474 
L 3603 4474 
L 3603 5434 
L 2784 5434 
z
" transform="scale(0.015625)"/>
      <path id="NotoSansCJKjp-Bold-6765" d="M 2797 2643 
L 1683 2643 
L 2291 2886 
C 2214 3200 1978 3654 1747 4006 
L 2797 4006 
L 2797 2643 
z
M 3610 2643 
L 3610 4006 
L 4691 4006 
C 4570 3635 4333 3149 4147 2829 
L 4698 2643 
L 3610 2643 
z
M 1056 3750 
C 1267 3411 1472 2957 1542 2643 
L 326 2643 
L 326 1907 
L 2342 1907 
C 1779 1248 954 634 147 294 
C 326 141 570 -154 691 -346 
C 1459 38 2214 672 2797 1395 
L 2797 -570 
L 3610 -570 
L 3610 1402 
C 4192 672 4941 26 5709 -358 
C 5824 -166 6074 134 6246 288 
C 5446 627 4627 1242 4077 1907 
L 6080 1907 
L 6080 2643 
L 4838 2643 
C 5037 2938 5286 3373 5504 3789 
L 4762 4006 
L 5830 4006 
L 5830 4742 
L 3610 4742 
L 3610 5440 
L 2797 5440 
L 2797 4742 
L 627 4742 
L 627 4006 
L 1722 4006 
L 1056 3750 
z
" transform="scale(0.015625)"/>
      <path id="NotoSansCJKjp-Bold-77e5" d="M 3430 4883 
L 3430 -390 
L 4173 -390 
L 4173 77 
L 5107 77 
L 5107 -294 
L 5882 -294 
L 5882 4883 
L 3430 4883 
z
M 4173 800 
L 4173 4166 
L 5107 4166 
L 5107 800 
L 4173 800 
z
M 832 5434 
C 704 4704 461 3962 115 3501 
C 288 3405 595 3187 736 3059 
C 896 3296 1043 3590 1171 3917 
L 1427 3917 
L 1427 3059 
L 1427 2899 
L 237 2899 
L 237 2176 
L 1376 2176 
C 1267 1427 973 627 141 26 
C 301 -90 589 -397 691 -557 
C 1312 -102 1683 499 1907 1126 
C 2221 736 2592 250 2797 -83 
L 3315 570 
C 3142 781 2432 1587 2106 1914 
L 2150 2176 
L 3258 2176 
L 3258 2899 
L 2202 2899 
L 2202 3053 
L 2202 3917 
L 3104 3917 
L 3104 4627 
L 1408 4627 
C 1472 4845 1523 5062 1568 5286 
L 832 5434 
z
" transform="scale(0.015625)"/>
     </defs>
     <use xlink:href="#NotoSansCJKjp-Bold-81ea"/>
     <use xlink:href="#NotoSansCJKjp-Bold-9002" x="99.999985"/>
     <use xlink:href="#NotoSansCJKjp-Bold-5e94" x="199.999969"/>
     <use xlink:href="#NotoSansCJKjp-Bold-63a7" x="299.999954"/>
     <use xlink:href="#NotoSansCJKjp-Bold-5236" x="399.999939"/>
     <use xlink:href="#NotoSansCJKjp-Bold-ff1a" x="499.999924"/>
     <use xlink:href="#NotoSansCJKjp-Bold-5728" x="599.999908"/>
     <use xlink:href="#NotoSansCJKjp-Bold-7ebf" x="699.999893"/>
     <use xlink:href="#NotoSansCJKjp-Bold-3001" x="799.999878"/>
     <use xlink:href="#NotoSansCJKjp-Bold-672a" x="899.999863"/>
     <use xlink:href="#NotoSansCJKjp-Bold-6765" x="999.999847"/>
     <use xlink:href="#NotoSansCJKjp-Bold-672a" x="1099.999832"/>
     <use xlink:href="#NotoSansCJKjp-Bold-77e5" x="1199.999817"/>
    </g>
   </g>
  </g>
 </g>
 <defs>
  <clipPath id="p00432f55f1">
   <rect x="7.2" y="11.601225" width="558" height="155.232"/>
  </clipPath>
 </defs>
 <defs>
  <pattern id="h13e0b7da99" patternUnits="userSpaceOnUse" x="0" y="0" width="72" height="72">
   <rect x="0" y="0" width="73" height="73" fill="#1f77b4"/>
   <path d="M -36 36 
L 36 -36 
M -32 40 
L 40 -32 
M -28 44 
L 44 -28 
M -24 48 
L 48 -24 
M -20 52 
L 52 -20 
M -16 56 
L 56 -16 
M -12 60 
L 60 -12 
M -8 64 
L 64 -8 
M -4 68 
L 68 -4 
M 0 72 
L 72 0 
M 4 76 
L 76 4 
M 8 80 
L 80 8 
M 12 84 
L 84 12 
M 16 88 
L 88 16 
M 20 92 
L 92 20 
M 24 96 
L 96 24 
M 28 100 
L 100 28 
M 32 104 
L 104 32 
M 36 108 
L 108 36 
" style="fill: #000000; stroke: #000000; stroke-width: 1.0; stroke-linecap: butt; stroke-linejoin: miter"/>
  </pattern>
 </defs>
</svg>
