<?xml version="1.0" encoding="utf-8" standalone="no"?>
<!DOCTYPE svg PUBLIC "-//W3C//DTD SVG 1.1//EN"
  "http://www.w3.org/Graphics/SVG/1.1/DTD/svg11.dtd">
<svg xmlns:xlink="http://www.w3.org/1999/xlink" width="516.6pt" height="210.96pt" viewBox="0 0 516.6 210.96" xmlns="http://www.w3.org/2000/svg" version="1.1">
 <metadata>
  <rdf:RDF xmlns:dc="http://purl.org/dc/elements/1.1/" xmlns:cc="http://creativecommons.org/ns#" xmlns:rdf="http://www.w3.org/1999/02/22-rdf-syntax-ns#">
   <cc:Work>
    <dc:type rdf:resource="http://purl.org/dc/dcmitype/StillImage"/>
    <dc:date>2026-02-15T17:59:52.781095</dc:date>
    <dc:format>image/svg+xml</dc:format>
    <dc:creator>
     <cc:Agent>
      <dc:title>Matplotlib v3.7.5, https://matplotlib.org/</dc:title>
     </cc:Agent>
    </dc:creator>
   </cc:Work>
  </rdf:RDF>
 </metadata>
 <defs>
  <style type="text/css">*{stroke-linejoin: round; stroke-linecap: butt}</style>
 </defs>
 <g id="figure_1">
  <g id="patch_1">
   <path d="M 0 210.96 
L 516.6 210.96 
L 516.6 0 
L 0 0 
z
" style="fill: #ffffff"/>
  </g>
  <g id="axes_1">
   <g id="patch_2">
    <path d="M 36.892295 68.625 
Q 81.0525 68.625 124.094671 68.625 
" clip-path="url(#pab51be7a5a)" style="fill: none; stroke: #000000; stroke-linecap: round"/>
    <path d="M 120.094671 66.625 
L 124.094671 68.625 
L 120.094671 70.625 
" clip-path="url(#pab51be7a5a)" style="fill: none; stroke: #000000; stroke-linecap: round"/>
   </g>
   <g id="patch_3">
    <path d="M 34.894853 70.626723 
Q 34.894853 120.600606 34.894853 169.456455 
" clip-path="url(#pab51be7a5a)" style="fill: none; stroke: #000000; stroke-linecap: round"/>
    <path d="M 36.894853 165.456455 
L 34.894853 169.456455 
L 32.894853 165.456455 
" clip-path="url(#pab51be7a5a)" style="fill: none; stroke: #000000; stroke-linecap: round"/>
   </g>
   <g id="patch_4">
    <path d="M 127.211029 70.626723 
Q 127.211029 120.600606 127.211029 169.456455 
" clip-path="url(#pab51be7a5a)" style="fill: none; stroke: #000000; stroke-linecap: round"/>
    <path d="M 129.211029 165.456455 
L 127.211029 169.456455 
L 125.211029 165.456455 
" clip-path="url(#pab51be7a5a)" style="fill: none; stroke: #000000; stroke-linecap: round"/>
   </g>
   <g id="patch_5">
    <path d="M 34.894853 79.02 
C 37.343107 79.02 39.691416 77.924717 41.422592 75.975375 
C 43.153769 74.026033 44.126471 71.381786 44.126471 68.625 
C 44.126471 65.868214 43.153769 63.223967 41.422592 61.274625 
C 39.691416 59.325283 37.343107 58.23 34.894853 58.23 
C 32.446599 58.23 30.09829 59.325283 28.367114 61.274625 
C 26.635937 63.223967 25.663235 65.868214 25.663235 68.625 
C 25.663235 71.381786 26.635937 74.026033 28.367114 75.975375 
C 30.09829 77.924717 32.446599 79.02 34.894853 79.02 
L 34.894853 79.02 
z
" clip-path="url(#pab51be7a5a)" style="fill: none; stroke: #000000; stroke-width: 2; stroke-linejoin: miter"/>
   </g>
   <g id="patch_6">
    <path d="M 127.211029 79.02 
C 129.659283 79.02 132.007592 77.924717 133.738769 75.975375 
C 135.469946 74.026033 136.442647 71.381786 136.442647 68.625 
C 136.442647 65.868214 135.469946 63.223967 133.738769 61.274625 
C 132.007592 59.325283 129.659283 58.23 127.211029 58.23 
C 124.762776 58.23 122.414467 59.325283 120.68329 61.274625 
C 118.952113 63.223967 117.979412 65.868214 117.979412 68.625 
C 117.979412 71.381786 118.952113 74.026033 120.68329 75.975375 
C 122.414467 77.924717 124.762776 79.02 127.211029 79.02 
L 127.211029 79.02 
z
" clip-path="url(#pab51be7a5a)" style="fill: none; stroke: #000000; stroke-linejoin: miter"/>
   </g>
   <g id="patch_7">
    <path d="M 34.894853 182.97 
C 37.343107 182.97 39.691416 181.874717 41.422592 179.925375 
C 43.153769 177.976033 44.126471 175.331786 44.126471 172.575 
C 44.126471 169.818214 43.153769 167.173967 41.422592 165.224625 
C 39.691416 163.275283 37.343107 162.18 34.894853 162.18 
C 32.446599 162.18 30.09829 163.275283 28.367114 165.224625 
C 26.635937 167.173967 25.663235 169.818214 25.663235 172.575 
C 25.663235 175.331786 26.635937 177.976033 28.367114 179.925375 
C 30.09829 181.874717 32.446599 182.97 34.894853 182.97 
L 34.894853 182.97 
z
" clip-path="url(#pab51be7a5a)" style="fill: none; stroke: #000000; stroke-linejoin: miter"/>
   </g>
   <g id="patch_8">
    <path d="M 127.211029 182.97 
C 129.659283 182.97 132.007592 181.874717 133.738769 179.925375 
C 135.469946 177.976033 136.442647 175.331786 136.442647 172.575 
C 136.442647 169.818214 135.469946 167.173967 133.738769 165.224625 
C 132.007592 163.275283 129.659283 162.18 127.211029 162.18 
C 124.762776 162.18 122.414467 163.275283 120.68329 165.224625 
C 118.952113 167.173967 117.979412 169.818214 117.979412 172.575 
C 117.979412 175.331786 118.952113 177.976033 120.68329 179.925375 
C 122.414467 181.874717 124.762776 182.97 127.211029 182.97 
L 127.211029 182.97 
z
" clip-path="url(#pab51be7a5a)" style="fill: none; stroke: #000000; stroke-width: 2; stroke-linejoin: miter"/>
   </g>
   <g id="text_1">
    <!-- v1 -->
    <g transform="translate(30.053134 71.175938) scale(0.09 -0.09)">
     <defs>
      <path id="NotoSansCJKjp-Regular-76" d="M 1338 0 
L 2022 0 
L 3251 3475 
L 2675 3475 
L 2016 1498 
C 1914 1158 1798 806 1696 474 
L 1664 474 
C 1562 806 1453 1158 1344 1498 
L 691 3475 
L 83 3475 
L 1338 0 
z
" transform="scale(0.015625)"/>
      <path id="NotoSansCJKjp-Regular-31" d="M 563 0 
L 3136 0 
L 3136 486 
L 2195 486 
L 2195 4691 
L 1747 4691 
C 1491 4544 1190 4435 774 4358 
L 774 3987 
L 1613 3987 
L 1613 486 
L 563 486 
L 563 0 
z
" transform="scale(0.015625)"/>
     </defs>
     <use xlink:href="#NotoSansCJKjp-Regular-76"/>
     <use xlink:href="#NotoSansCJKjp-Regular-31" x="52.099991"/>
    </g>
   </g>
   <g id="text_2">
    <!-- v2 -->
    <g transform="translate(122.369311 71.175938) scale(0.09 -0.09)">
     <defs>
      <path id="NotoSansCJKjp-Regular-32" d="M 282 0 
L 3232 0 
L 3232 506 
L 1933 506 
C 1696 506 1408 480 1165 461 
C 2266 1504 3008 2458 3008 3398 
C 3008 4230 2477 4774 1638 4774 
C 1043 4774 634 4506 256 4090 
L 595 3757 
C 858 4070 1184 4301 1568 4301 
C 2150 4301 2432 3910 2432 3373 
C 2432 2566 1754 1632 282 346 
L 282 0 
z
" transform="scale(0.015625)"/>
     </defs>
     <use xlink:href="#NotoSansCJKjp-Regular-76"/>
     <use xlink:href="#NotoSansCJKjp-Regular-32" x="52.099991"/>
    </g>
   </g>
   <g id="text_3">
    <!-- v3 -->
    <g transform="translate(30.053134 175.125937) scale(0.09 -0.09)">
     <defs>
      <path id="NotoSansCJKjp-Regular-33" d="M 1683 -83 
C 2522 -83 3194 416 3194 1254 
C 3194 1901 2752 2310 2202 2445 
L 2202 2477 
C 2701 2650 3034 3034 3034 3603 
C 3034 4346 2458 4774 1664 4774 
C 1126 4774 710 4538 358 4218 
L 672 3846 
C 941 4115 1267 4301 1645 4301 
C 2138 4301 2438 4006 2438 3558 
C 2438 3053 2112 2662 1139 2662 
L 1139 2214 
C 2227 2214 2598 1843 2598 1274 
C 2598 736 2208 403 1645 403 
C 1114 403 762 659 486 941 
L 186 563 
C 493 224 954 -83 1683 -83 
z
" transform="scale(0.015625)"/>
     </defs>
     <use xlink:href="#NotoSansCJKjp-Regular-76"/>
     <use xlink:href="#NotoSansCJKjp-Regular-33" x="52.099991"/>
    </g>
   </g>
   <g id="text_4">
    <!-- v4 -->
    <g transform="translate(122.369311 175.125937) scale(0.09 -0.09)">
     <defs>
      <path id="NotoSansCJKjp-Regular-34" d="M 2176 0 
L 2726 0 
L 2726 1293 
L 3354 1293 
L 3354 1760 
L 2726 1760 
L 2726 4691 
L 2080 4691 
L 128 1677 
L 128 1293 
L 2176 1293 
L 2176 0 
z
M 2176 1760 
L 736 1760 
L 1805 3360 
C 1939 3590 2067 3827 2182 4051 
L 2208 4051 
C 2195 3814 2176 3430 2176 3200 
L 2176 1760 
z
" transform="scale(0.015625)"/>
     </defs>
     <use xlink:href="#NotoSansCJKjp-Regular-76"/>
     <use xlink:href="#NotoSansCJKjp-Regular-34" x="52.099991"/>
    </g>
   </g>
   <g id="text_5">
    <!-- 一种MDS示例：{v1,v4} -->
    <g transform="translate(30.044347 31.44) scale(0.1 -0.1)">
     <defs>
      <path id="NotoSansCJKjp-Regular-4e00" d="M 282 2758 
L 282 2234 
L 6144 2234 
L 6144 2758 
L 282 2758 
z
" transform="scale(0.015625)"/>
      <path id="NotoSansCJKjp-Regular-79cd" d="M 4179 3558 
L 4179 2035 
L 3277 2035 
L 3277 3558 
L 4179 3558 
z
M 4659 3558 
L 5542 3558 
L 5542 2035 
L 4659 2035 
L 4659 3558 
z
M 4179 5363 
L 4179 4026 
L 2822 4026 
L 2822 1178 
L 3277 1178 
L 3277 1568 
L 4179 1568 
L 4179 -499 
L 4659 -499 
L 4659 1568 
L 5542 1568 
L 5542 1216 
L 6010 1216 
L 6010 4026 
L 4659 4026 
L 4659 5363 
L 4179 5363 
z
M 2349 5286 
C 1862 5075 1018 4883 294 4768 
C 352 4666 416 4506 435 4397 
C 717 4435 1024 4480 1325 4544 
L 1325 3571 
L 294 3571 
L 294 3123 
L 1254 3123 
C 998 2387 550 1555 147 1101 
C 224 986 339 794 384 659 
C 717 1056 1062 1696 1325 2349 
L 1325 -499 
L 1792 -499 
L 1792 2458 
C 2003 2144 2266 1741 2368 1542 
L 2656 1914 
C 2534 2086 1971 2784 1792 2982 
L 1792 3123 
L 2611 3123 
L 2611 3571 
L 1792 3571 
L 1792 4640 
C 2106 4717 2394 4806 2637 4902 
L 2349 5286 
z
" transform="scale(0.015625)"/>
      <path id="NotoSansCJKjp-Regular-4d" d="M 646 0 
L 1178 0 
L 1178 2598 
C 1178 3002 1139 3571 1101 3981 
L 1126 3981 
L 1504 2912 
L 2394 474 
L 2790 474 
L 3674 2912 
L 4051 3981 
L 4077 3981 
C 4045 3571 4000 3002 4000 2598 
L 4000 0 
L 4550 0 
L 4550 4691 
L 3840 4691 
L 2944 2182 
C 2835 1862 2739 1530 2618 1203 
L 2592 1203 
C 2477 1530 2374 1862 2253 2182 
L 1357 4691 
L 646 4691 
L 646 0 
z
" transform="scale(0.015625)"/>
      <path id="NotoSansCJKjp-Regular-44" d="M 646 0 
L 1843 0 
C 3258 0 4026 877 4026 2362 
C 4026 3859 3258 4691 1818 4691 
L 646 4691 
L 646 0 
z
M 1235 486 
L 1235 4211 
L 1766 4211 
C 2874 4211 3418 3552 3418 2362 
C 3418 1178 2874 486 1766 486 
L 1235 486 
z
" transform="scale(0.015625)"/>
      <path id="NotoSansCJKjp-Regular-53" d="M 1946 -83 
C 2925 -83 3539 506 3539 1248 
C 3539 1946 3117 2266 2573 2502 
L 1907 2790 
C 1542 2944 1126 3117 1126 3578 
C 1126 3994 1472 4256 2003 4256 
C 2438 4256 2784 4090 3072 3821 
L 3379 4198 
C 3053 4538 2560 4774 2003 4774 
C 1152 4774 525 4256 525 3533 
C 525 2848 1043 2515 1478 2330 
L 2150 2035 
C 2598 1837 2938 1683 2938 1197 
C 2938 742 2573 435 1952 435 
C 1466 435 992 666 659 1018 
L 307 608 
C 710 186 1280 -83 1946 -83 
z
" transform="scale(0.015625)"/>
      <path id="NotoSansCJKjp-Regular-793a" d="M 1498 2246 
C 1222 1523 749 813 224 358 
C 346 294 563 154 666 70 
C 1171 563 1677 1325 1990 2112 
L 1498 2246 
z
M 4378 2048 
C 4838 1434 5325 602 5498 64 
L 5978 282 
C 5786 826 5286 1632 4819 2234 
L 4378 2048 
z
M 954 4902 
L 954 4429 
L 5459 4429 
L 5459 4902 
L 954 4902 
z
M 384 3347 
L 384 2874 
L 2950 2874 
L 2950 122 
C 2950 19 2912 -6 2797 -13 
C 2675 -19 2253 -19 1818 0 
C 1894 -147 1971 -358 1990 -506 
C 2560 -506 2938 -499 3162 -422 
C 3392 -339 3469 -198 3469 115 
L 3469 2874 
L 6022 2874 
L 6022 3347 
L 384 3347 
z
" transform="scale(0.015625)"/>
      <path id="NotoSansCJKjp-Regular-4f8b" d="M 4320 4653 
L 4320 954 
L 4755 954 
L 4755 4653 
L 4320 4653 
z
M 5491 5274 
L 5491 90 
C 5491 -19 5453 -45 5350 -51 
C 5242 -58 4902 -58 4512 -45 
C 4582 -179 4646 -390 4672 -518 
C 5178 -518 5491 -506 5683 -422 
C 5869 -346 5939 -211 5939 96 
L 5939 5274 
L 5491 5274 
z
M 1958 5050 
L 1958 4621 
L 2547 4621 
C 2413 3680 2131 2573 1562 1894 
C 1651 1818 1792 1658 1856 1568 
C 2016 1754 2157 1971 2285 2208 
C 2579 1997 2906 1722 3110 1510 
C 2790 762 2349 205 1818 -160 
C 1920 -237 2067 -416 2138 -525 
C 3117 179 3827 1549 4077 3635 
L 3795 3731 
L 3718 3712 
L 2822 3712 
C 2899 4019 2963 4326 3014 4621 
L 4288 4621 
L 4288 5050 
L 1958 5050 
z
M 2707 3283 
L 3584 3283 
C 3514 2797 3411 2355 3277 1958 
C 3072 2157 2752 2406 2464 2592 
C 2554 2810 2637 3046 2707 3283 
z
M 1491 5350 
C 1184 4365 672 3392 115 2752 
C 198 2630 320 2374 371 2266 
C 582 2509 781 2797 973 3110 
L 973 -512 
L 1421 -512 
L 1421 3942 
C 1619 4358 1792 4794 1933 5222 
L 1491 5350 
z
" transform="scale(0.015625)"/>
      <path id="NotoSansCJKjp-Regular-ff1a" d="M 3200 3482 
C 3456 3482 3686 3667 3686 3962 
C 3686 4256 3456 4442 3200 4442 
C 2944 4442 2714 4256 2714 3962 
C 2714 3667 2944 3482 3200 3482 
z
M 3200 346 
C 3456 346 3686 538 3686 826 
C 3686 1120 3456 1312 3200 1312 
C 2944 1312 2714 1120 2714 826 
C 2714 538 2944 346 3200 346 
z
" transform="scale(0.015625)"/>
      <path id="NotoSansCJKjp-Regular-7b" d="M 1626 -1088 
L 1946 -1088 
L 1946 -755 
L 1760 -755 
C 1376 -755 1274 -563 1274 -102 
C 1274 333 1312 710 1312 1197 
C 1312 1651 1197 1888 883 1971 
L 883 2003 
C 1197 2086 1312 2317 1312 2778 
C 1312 3270 1274 3642 1274 4077 
C 1274 4544 1376 4730 1760 4730 
L 1946 4730 
L 1946 5069 
L 1626 5069 
C 1062 5069 794 4851 794 4109 
C 794 3590 858 3213 858 2726 
C 858 2458 730 2182 243 2176 
L 243 1805 
C 730 1805 858 1530 858 1242 
C 858 762 794 384 794 -141 
C 794 -877 1062 -1088 1626 -1088 
z
" transform="scale(0.015625)"/>
      <path id="NotoSansCJKjp-Regular-2c" d="M 480 -1216 
C 1056 -973 1414 -493 1414 122 
C 1414 550 1229 806 922 806 
C 685 806 480 653 480 397 
C 480 141 678 -13 909 -13 
L 979 -6 
C 973 -390 736 -698 339 -870 
L 480 -1216 
z
" transform="scale(0.015625)"/>
      <path id="NotoSansCJKjp-Regular-7d" d="M 218 -1088 
L 538 -1088 
C 1101 -1088 1376 -877 1376 -141 
C 1376 384 1312 762 1312 1242 
C 1312 1530 1440 1805 1920 1805 
L 1920 2176 
C 1440 2182 1312 2458 1312 2726 
C 1312 3213 1376 3590 1376 4109 
C 1376 4851 1101 5069 538 5069 
L 218 5069 
L 218 4730 
L 403 4730 
C 787 4730 890 4544 890 4077 
C 890 3642 858 3270 858 2778 
C 858 2317 966 2086 1280 2003 
L 1280 1971 
C 966 1888 858 1651 858 1197 
C 858 710 890 333 890 -102 
C 890 -563 787 -755 403 -755 
L 218 -755 
L 218 -1088 
z
" transform="scale(0.015625)"/>
     </defs>
     <use xlink:href="#NotoSansCJKjp-Regular-4e00"/>
     <use xlink:href="#NotoSansCJKjp-Regular-79cd" x="99.999985"/>
     <use xlink:href="#NotoSansCJKjp-Regular-4d" x="199.999969"/>
     <use xlink:href="#NotoSansCJKjp-Regular-44" x="281.199951"/>
     <use xlink:href="#NotoSansCJKjp-Regular-53" x="349.999939"/>
     <use xlink:href="#NotoSansCJKjp-Regular-793a" x="409.59993"/>
     <use xlink:href="#NotoSansCJKjp-Regular-4f8b" x="509.599915"/>
     <use xlink:href="#NotoSansCJKjp-Regular-ff1a" x="609.599899"/>
     <use xlink:href="#NotoSansCJKjp-Regular-7b" x="709.599884"/>
     <use xlink:href="#NotoSansCJKjp-Regular-76" x="743.399872"/>
     <use xlink:href="#NotoSansCJKjp-Regular-31" x="795.499863"/>
     <use xlink:href="#NotoSansCJKjp-Regular-2c" x="850.999847"/>
     <use xlink:href="#NotoSansCJKjp-Regular-76" x="878.799835"/>
     <use xlink:href="#NotoSansCJKjp-Regular-34" x="930.899826"/>
     <use xlink:href="#NotoSansCJKjp-Regular-7d" x="986.399811"/>
    </g>
   </g>
  </g>
  <g id="axes_2">
   <g id="patch_9">
    <path d="M 214.139353 68.625 
Q 258.299559 68.625 301.34173 68.625 
" clip-path="url(#pb2381fcb4f)" style="fill: none; stroke: #000000; stroke-linecap: round"/>
    <path d="M 297.34173 66.625 
L 301.34173 68.625 
L 297.34173 70.625 
" clip-path="url(#pb2381fcb4f)" style="fill: none; stroke: #000000; stroke-linecap: round"/>
   </g>
   <g id="patch_10">
    <path d="M 212.141912 70.626723 
Q 212.141912 120.600606 212.141912 169.456455 
" clip-path="url(#pb2381fcb4f)" style="fill: none; stroke: #000000; stroke-linecap: round"/>
    <path d="M 214.141912 165.456455 
L 212.141912 169.456455 
L 210.141912 165.456455 
" clip-path="url(#pb2381fcb4f)" style="fill: none; stroke: #000000; stroke-linecap: round"/>
   </g>
   <g id="patch_11">
    <path d="M 304.458088 70.626723 
Q 304.458088 120.600606 304.458088 169.456455 
" clip-path="url(#pb2381fcb4f)" style="fill: none; stroke: #000000; stroke-linecap: round"/>
    <path d="M 306.458088 165.456455 
L 304.458088 169.456455 
L 302.458088 165.456455 
" clip-path="url(#pb2381fcb4f)" style="fill: none; stroke: #000000; stroke-linecap: round"/>
   </g>
   <g id="patch_12">
    <path d="M 212.141912 79.02 
C 214.590165 79.02 216.938474 77.924717 218.669651 75.975375 
C 220.400828 74.026033 221.373529 71.381786 221.373529 68.625 
C 221.373529 65.868214 220.400828 63.223967 218.669651 61.274625 
C 216.938474 59.325283 214.590165 58.23 212.141912 58.23 
C 209.693658 58.23 207.345349 59.325283 205.614172 61.274625 
C 203.882996 63.223967 202.910294 65.868214 202.910294 68.625 
C 202.910294 71.381786 203.882996 74.026033 205.614172 75.975375 
C 207.345349 77.924717 209.693658 79.02 212.141912 79.02 
L 212.141912 79.02 
z
" clip-path="url(#pb2381fcb4f)" style="fill: none; stroke: #000000; stroke-linejoin: miter"/>
   </g>
   <g id="patch_13">
    <path d="M 304.458088 79.02 
C 306.906342 79.02 309.254651 77.924717 310.985828 75.975375 
C 312.717004 74.026033 313.689706 71.381786 313.689706 68.625 
C 313.689706 65.868214 312.717004 63.223967 310.985828 61.274625 
C 309.254651 59.325283 306.906342 58.23 304.458088 58.23 
C 302.009835 58.23 299.661526 59.325283 297.930349 61.274625 
C 296.199172 63.223967 295.226471 65.868214 295.226471 68.625 
C 295.226471 71.381786 296.199172 74.026033 297.930349 75.975375 
C 299.661526 77.924717 302.009835 79.02 304.458088 79.02 
L 304.458088 79.02 
z
" clip-path="url(#pb2381fcb4f)" style="fill: none; stroke: #000000; stroke-width: 2; stroke-linejoin: miter"/>
   </g>
   <g id="patch_14">
    <path d="M 212.141912 182.97 
C 214.590165 182.97 216.938474 181.874717 218.669651 179.925375 
C 220.400828 177.976033 221.373529 175.331786 221.373529 172.575 
C 221.373529 169.818214 220.400828 167.173967 218.669651 165.224625 
C 216.938474 163.275283 214.590165 162.18 212.141912 162.18 
C 209.693658 162.18 207.345349 163.275283 205.614172 165.224625 
C 203.882996 167.173967 202.910294 169.818214 202.910294 172.575 
C 202.910294 175.331786 203.882996 177.976033 205.614172 179.925375 
C 207.345349 181.874717 209.693658 182.97 212.141912 182.97 
L 212.141912 182.97 
z
" clip-path="url(#pb2381fcb4f)" style="fill: none; stroke: #000000; stroke-width: 2; stroke-linejoin: miter"/>
   </g>
   <g id="patch_15">
    <path d="M 304.458088 182.97 
C 306.906342 182.97 309.254651 181.874717 310.985828 179.925375 
C 312.717004 177.976033 313.689706 175.331786 313.689706 172.575 
C 313.689706 169.818214 312.717004 167.173967 310.985828 165.224625 
C 309.254651 163.275283 306.906342 162.18 304.458088 162.18 
C 302.009835 162.18 299.661526 163.275283 297.930349 165.224625 
C 296.199172 167.173967 295.226471 169.818214 295.226471 172.575 
C 295.226471 175.331786 296.199172 177.976033 297.930349 179.925375 
C 299.661526 181.874717 302.009835 182.97 304.458088 182.97 
L 304.458088 182.97 
z
" clip-path="url(#pb2381fcb4f)" style="fill: none; stroke: #000000; stroke-linejoin: miter"/>
   </g>
   <g id="text_6">
    <!-- v1 -->
    <g transform="translate(207.300193 71.175938) scale(0.09 -0.09)">
     <use xlink:href="#NotoSansCJKjp-Regular-76"/>
     <use xlink:href="#NotoSansCJKjp-Regular-31" x="52.099991"/>
    </g>
   </g>
   <g id="text_7">
    <!-- v2 -->
    <g transform="translate(299.616369 71.175938) scale(0.09 -0.09)">
     <use xlink:href="#NotoSansCJKjp-Regular-76"/>
     <use xlink:href="#NotoSansCJKjp-Regular-32" x="52.099991"/>
    </g>
   </g>
   <g id="text_8">
    <!-- v3 -->
    <g transform="translate(207.300193 175.125937) scale(0.09 -0.09)">
     <use xlink:href="#NotoSansCJKjp-Regular-76"/>
     <use xlink:href="#NotoSansCJKjp-Regular-33" x="52.099991"/>
    </g>
   </g>
   <g id="text_9">
    <!-- v4 -->
    <g transform="translate(299.616369 175.125937) scale(0.09 -0.09)">
     <use xlink:href="#NotoSansCJKjp-Regular-76"/>
     <use xlink:href="#NotoSansCJKjp-Regular-34" x="52.099991"/>
    </g>
   </g>
   <g id="text_10">
    <!-- 另一种MDS示例：{v2,v3} -->
    <g transform="translate(202.291406 31.44) scale(0.1 -0.1)">
     <defs>
      <path id="NotoSansCJKjp-Regular-53e6" d="M 1517 4621 
L 4896 4621 
L 4896 3226 
L 1517 3226 
L 1517 4621 
z
M 1043 5075 
L 1043 2765 
L 2842 2765 
C 2822 2541 2790 2323 2752 2118 
L 461 2118 
L 461 1677 
L 2637 1677 
C 2368 864 1786 243 320 -90 
C 422 -192 544 -390 595 -512 
C 2240 -109 2874 666 3162 1677 
L 5120 1677 
C 5043 595 4960 141 4819 13 
C 4755 -51 4685 -58 4550 -58 
C 4403 -58 4000 -51 3590 -19 
C 3680 -147 3744 -346 3757 -486 
C 4154 -512 4550 -512 4749 -499 
C 4973 -486 5114 -442 5248 -307 
C 5446 -96 5542 474 5638 1894 
C 5645 1965 5658 2118 5658 2118 
L 3258 2118 
C 3296 2323 3328 2541 3347 2765 
L 5395 2765 
L 5395 5075 
L 1043 5075 
z
" transform="scale(0.015625)"/>
     </defs>
     <use xlink:href="#NotoSansCJKjp-Regular-53e6"/>
     <use xlink:href="#NotoSansCJKjp-Regular-4e00" x="99.999985"/>
     <use xlink:href="#NotoSansCJKjp-Regular-79cd" x="199.999969"/>
     <use xlink:href="#NotoSansCJKjp-Regular-4d" x="299.999954"/>
     <use xlink:href="#NotoSansCJKjp-Regular-44" x="381.199936"/>
     <use xlink:href="#NotoSansCJKjp-Regular-53" x="449.999924"/>
     <use xlink:href="#NotoSansCJKjp-Regular-793a" x="509.599915"/>
     <use xlink:href="#NotoSansCJKjp-Regular-4f8b" x="609.599899"/>
     <use xlink:href="#NotoSansCJKjp-Regular-ff1a" x="709.599884"/>
     <use xlink:href="#NotoSansCJKjp-Regular-7b" x="809.599869"/>
     <use xlink:href="#NotoSansCJKjp-Regular-76" x="843.399857"/>
     <use xlink:href="#NotoSansCJKjp-Regular-32" x="895.499847"/>
     <use xlink:href="#NotoSansCJKjp-Regular-2c" x="950.999832"/>
     <use xlink:href="#NotoSansCJKjp-Regular-76" x="978.79982"/>
     <use xlink:href="#NotoSansCJKjp-Regular-33" x="1030.899811"/>
     <use xlink:href="#NotoSansCJKjp-Regular-7d" x="1086.399796"/>
    </g>
   </g>
  </g>
  <g id="axes_3">
   <g id="patch_16">
    <path d="M 391.386412 68.625 
Q 435.546618 68.625 478.588789 68.625 
" clip-path="url(#p4e2ac9379d)" style="fill: none; stroke: #000000; stroke-linecap: round"/>
    <path d="M 474.588789 66.625 
L 478.588789 68.625 
L 474.588789 70.625 
" clip-path="url(#p4e2ac9379d)" style="fill: none; stroke: #000000; stroke-linecap: round"/>
   </g>
   <g id="patch_17">
    <path d="M 389.388971 70.626723 
Q 389.388971 120.600606 389.388971 169.456455 
" clip-path="url(#p4e2ac9379d)" style="fill: none; stroke: #000000; stroke-linecap: round"/>
    <path d="M 391.388971 165.456455 
L 389.388971 169.456455 
L 387.388971 165.456455 
" clip-path="url(#p4e2ac9379d)" style="fill: none; stroke: #000000; stroke-linecap: round"/>
   </g>
   <g id="patch_18">
    <path d="M 481.705147 70.626723 
Q 481.705147 120.600606 481.705147 169.456455 
" clip-path="url(#p4e2ac9379d)" style="fill: none; stroke: #000000; stroke-linecap: round"/>
    <path d="M 483.705147 165.456455 
L 481.705147 169.456455 
L 479.705147 165.456455 
" clip-path="url(#p4e2ac9379d)" style="fill: none; stroke: #000000; stroke-linecap: round"/>
   </g>
   <g id="patch_19">
    <path d="M 389.388971 79.02 
C 391.837224 79.02 394.185533 77.924717 395.91671 75.975375 
C 397.647887 74.026033 398.620588 71.381786 398.620588 68.625 
C 398.620588 65.868214 397.647887 63.223967 395.91671 61.274625 
C 394.185533 59.325283 391.837224 58.23 389.388971 58.23 
C 386.940717 58.23 384.592408 59.325283 382.861231 61.274625 
C 381.130054 63.223967 380.157353 65.868214 380.157353 68.625 
C 380.157353 71.381786 381.130054 74.026033 382.861231 75.975375 
C 384.592408 77.924717 386.940717 79.02 389.388971 79.02 
L 389.388971 79.02 
z
" clip-path="url(#p4e2ac9379d)" style="fill: none; stroke: #000000; stroke-linejoin: miter"/>
   </g>
   <g id="patch_20">
    <path d="M 481.705147 79.02 
C 484.153401 79.02 486.50171 77.924717 488.232886 75.975375 
C 489.964063 74.026033 490.936765 71.381786 490.936765 68.625 
C 490.936765 65.868214 489.964063 63.223967 488.232886 61.274625 
C 486.50171 59.325283 484.153401 58.23 481.705147 58.23 
C 479.256893 58.23 476.908584 59.325283 475.177408 61.274625 
C 473.446231 63.223967 472.473529 65.868214 472.473529 68.625 
C 472.473529 71.381786 473.446231 74.026033 475.177408 75.975375 
C 476.908584 77.924717 479.256893 79.02 481.705147 79.02 
L 481.705147 79.02 
z
" clip-path="url(#p4e2ac9379d)" style="fill: none; stroke: #000000; stroke-linejoin: miter"/>
   </g>
   <g id="patch_21">
    <path d="M 389.388971 182.97 
C 391.837224 182.97 394.185533 181.874717 395.91671 179.925375 
C 397.647887 177.976033 398.620588 175.331786 398.620588 172.575 
C 398.620588 169.818214 397.647887 167.173967 395.91671 165.224625 
C 394.185533 163.275283 391.837224 162.18 389.388971 162.18 
C 386.940717 162.18 384.592408 163.275283 382.861231 165.224625 
C 381.130054 167.173967 380.157353 169.818214 380.157353 172.575 
C 380.157353 175.331786 381.130054 177.976033 382.861231 179.925375 
C 384.592408 181.874717 386.940717 182.97 389.388971 182.97 
L 389.388971 182.97 
z
" clip-path="url(#p4e2ac9379d)" style="fill: none; stroke: #000000; stroke-width: 2; stroke-linejoin: miter"/>
   </g>
   <g id="patch_22">
    <path d="M 481.705147 182.97 
C 484.153401 182.97 486.50171 181.874717 488.232886 179.925375 
C 489.964063 177.976033 490.936765 175.331786 490.936765 172.575 
C 490.936765 169.818214 489.964063 167.173967 488.232886 165.224625 
C 486.50171 163.275283 484.153401 162.18 481.705147 162.18 
C 479.256893 162.18 476.908584 163.275283 475.177408 165.224625 
C 473.446231 167.173967 472.473529 169.818214 472.473529 172.575 
C 472.473529 175.331786 473.446231 177.976033 475.177408 179.925375 
C 476.908584 181.874717 479.256893 182.97 481.705147 182.97 
L 481.705147 182.97 
z
" clip-path="url(#p4e2ac9379d)" style="fill: none; stroke: #000000; stroke-width: 2; stroke-linejoin: miter"/>
   </g>
   <g id="text_11">
    <!-- v1 -->
    <g transform="translate(384.547252 71.175938) scale(0.09 -0.09)">
     <use xlink:href="#NotoSansCJKjp-Regular-76"/>
     <use xlink:href="#NotoSansCJKjp-Regular-31" x="52.099991"/>
    </g>
   </g>
   <g id="text_12">
    <!-- v2 -->
    <g transform="translate(476.863428 71.175938) scale(0.09 -0.09)">
     <use xlink:href="#NotoSansCJKjp-Regular-76"/>
     <use xlink:href="#NotoSansCJKjp-Regular-32" x="52.099991"/>
    </g>
   </g>
   <g id="text_13">
    <!-- v3 -->
    <g transform="translate(384.547252 175.125937) scale(0.09 -0.09)">
     <use xlink:href="#NotoSansCJKjp-Regular-76"/>
     <use xlink:href="#NotoSansCJKjp-Regular-33" x="52.099991"/>
    </g>
   </g>
   <g id="text_14">
    <!-- v4 -->
    <g transform="translate(476.863428 175.125937) scale(0.09 -0.09)">
     <use xlink:href="#NotoSansCJKjp-Regular-76"/>
     <use xlink:href="#NotoSansCJKjp-Regular-34" x="52.099991"/>
    </g>
   </g>
   <g id="text_15">
    <!-- 第三种MDS示例：{v3,v4} -->
    <g transform="translate(379.538465 31.44) scale(0.1 -0.1)">
     <defs>
      <path id="NotoSansCJKjp-Regular-7b2c" d="M 1133 2566 
C 1037 2061 877 1421 742 1005 
L 1216 934 
L 1280 1158 
L 2547 1158 
C 1965 640 1069 198 275 -26 
C 378 -115 518 -288 589 -410 
C 1414 -134 2342 390 2963 1005 
L 2963 -512 
L 3430 -512 
L 3430 1158 
L 5363 1158 
C 5299 576 5229 326 5139 237 
C 5082 192 5024 186 4909 186 
C 4794 179 4493 186 4179 218 
C 4256 96 4307 -90 4314 -224 
C 4646 -243 4960 -243 5120 -230 
C 5299 -218 5421 -179 5530 -70 
C 5690 90 5779 480 5869 1376 
C 5875 1440 5882 1568 5882 1568 
L 3430 1568 
L 3430 2163 
L 5510 2163 
L 5510 3622 
L 826 3622 
L 826 3213 
L 2963 3213 
L 2963 2566 
L 1133 2566 
z
M 1523 2163 
L 2963 2163 
L 2963 1568 
L 1382 1568 
L 1523 2163 
z
M 3430 3213 
L 5037 3213 
L 5037 2566 
L 3430 2566 
L 3430 3213 
z
M 1178 5408 
C 966 4838 614 4269 211 3898 
C 326 3834 518 3706 608 3635 
C 819 3846 1024 4128 1210 4435 
L 1446 4435 
C 1581 4179 1702 3878 1747 3674 
L 2170 3840 
C 2125 3994 2029 4224 1926 4435 
L 3110 4435 
L 3110 4819 
L 1421 4819 
C 1498 4973 1562 5126 1626 5286 
L 1178 5408 
z
M 3699 5408 
C 3488 4832 3104 4294 2650 3942 
C 2765 3885 2963 3744 3046 3667 
C 3283 3872 3507 4141 3706 4435 
L 4160 4435 
C 4352 4179 4544 3872 4621 3661 
L 5043 3827 
C 4973 4000 4826 4230 4672 4435 
L 6099 4435 
L 6099 4819 
L 3936 4819 
C 4019 4973 4090 5133 4154 5293 
L 3699 5408 
z
" transform="scale(0.015625)"/>
      <path id="NotoSansCJKjp-Regular-4e09" d="M 787 4755 
L 787 4269 
L 5626 4269 
L 5626 4755 
L 787 4755 
z
M 1197 2662 
L 1197 2182 
L 5126 2182 
L 5126 2662 
L 1197 2662 
z
M 416 442 
L 416 -45 
L 5978 -45 
L 5978 442 
L 416 442 
z
" transform="scale(0.015625)"/>
     </defs>
     <use xlink:href="#NotoSansCJKjp-Regular-7b2c"/>
     <use xlink:href="#NotoSansCJKjp-Regular-4e09" x="99.999985"/>
     <use xlink:href="#NotoSansCJKjp-Regular-79cd" x="199.999969"/>
     <use xlink:href="#NotoSansCJKjp-Regular-4d" x="299.999954"/>
     <use xlink:href="#NotoSansCJKjp-Regular-44" x="381.199936"/>
     <use xlink:href="#NotoSansCJKjp-Regular-53" x="449.999924"/>
     <use xlink:href="#NotoSansCJKjp-Regular-793a" x="509.599915"/>
     <use xlink:href="#NotoSansCJKjp-Regular-4f8b" x="609.599899"/>
     <use xlink:href="#NotoSansCJKjp-Regular-ff1a" x="709.599884"/>
     <use xlink:href="#NotoSansCJKjp-Regular-7b" x="809.599869"/>
     <use xlink:href="#NotoSansCJKjp-Regular-76" x="843.399857"/>
     <use xlink:href="#NotoSansCJKjp-Regular-33" x="895.499847"/>
     <use xlink:href="#NotoSansCJKjp-Regular-2c" x="950.999832"/>
     <use xlink:href="#NotoSansCJKjp-Regular-76" x="978.79982"/>
     <use xlink:href="#NotoSansCJKjp-Regular-34" x="1030.899811"/>
     <use xlink:href="#NotoSansCJKjp-Regular-7d" x="1086.399796"/>
    </g>
   </g>
  </g>
  <g id="text_16">
   <!-- 同一张网络可能有多套“最少控制点”（示意图） -->
   <g transform="translate(124.51125 16.75125) scale(0.12 -0.12)">
    <defs>
     <path id="NotoSansCJKjp-Regular-540c" d="M 1587 3917 
L 1587 3501 
L 4838 3501 
L 4838 3917 
L 1587 3917 
z
M 2355 2419 
L 4045 2419 
L 4045 1203 
L 2355 1203 
L 2355 2419 
z
M 1914 2829 
L 1914 326 
L 2355 326 
L 2355 794 
L 4493 794 
L 4493 2829 
L 1914 2829 
z
M 563 5043 
L 563 -525 
L 1030 -525 
L 1030 4589 
L 5376 4589 
L 5376 102 
C 5376 -13 5338 -51 5222 -58 
C 5114 -58 4742 -64 4339 -51 
C 4416 -173 4486 -390 4512 -518 
C 5062 -518 5389 -506 5581 -429 
C 5779 -352 5850 -198 5850 96 
L 5850 5043 
L 563 5043 
z
" transform="scale(0.015625)"/>
     <path id="NotoSansCJKjp-Regular-5f20" d="M 5414 5088 
C 5056 4429 4461 3808 3827 3411 
C 3936 3341 4122 3174 4198 3091 
C 4838 3533 5478 4224 5882 4954 
L 5414 5088 
z
M 749 3693 
C 717 3072 640 2253 563 1747 
L 1843 1747 
C 1779 595 1702 134 1587 19 
C 1530 -38 1466 -51 1357 -51 
C 1242 -51 928 -45 602 -19 
C 678 -141 736 -320 742 -448 
C 1069 -467 1389 -467 1555 -454 
C 1754 -435 1875 -397 1990 -269 
C 2176 -77 2253 480 2330 1984 
C 2336 2048 2342 2182 2342 2182 
L 1062 2182 
C 1101 2502 1133 2880 1165 3238 
L 2304 3238 
L 2304 5133 
L 595 5133 
L 595 4685 
L 1843 4685 
L 1843 3693 
L 749 3693 
z
M 3034 -544 
C 3136 -454 3315 -378 4589 160 
C 4576 262 4563 467 4563 608 
L 3597 243 
L 3597 2432 
L 4224 2432 
C 4518 1190 5062 141 5888 -422 
C 5965 -294 6112 -128 6221 -32 
C 5466 422 4941 1357 4672 2432 
L 6131 2432 
L 6131 2893 
L 3597 2893 
L 3597 5248 
L 3123 5248 
L 3123 2893 
L 2406 2893 
L 2406 2432 
L 3123 2432 
L 3123 301 
C 3123 45 2944 -77 2829 -134 
C 2906 -230 3002 -429 3034 -544 
z
" transform="scale(0.015625)"/>
     <path id="NotoSansCJKjp-Regular-7f51" d="M 563 4992 
L 563 -499 
L 1030 -499 
L 1030 4531 
L 2304 4531 
C 2278 3955 2246 3411 2182 2912 
C 1971 3142 1747 3360 1536 3558 
L 1274 3270 
C 1549 3008 1837 2701 2099 2387 
C 1952 1568 1696 883 1254 378 
C 1357 314 1555 166 1626 90 
C 2029 595 2285 1222 2451 1965 
C 2656 1709 2829 1459 2950 1254 
L 3238 1594 
C 3078 1850 2835 2170 2554 2502 
C 2650 3110 2707 3789 2746 4531 
L 4006 4531 
C 3987 3994 3962 3488 3910 3021 
C 3706 3232 3494 3443 3290 3629 
L 3021 3341 
C 3290 3085 3571 2790 3834 2483 
C 3693 1606 3430 890 2950 365 
C 3059 301 3258 154 3328 77 
C 3763 602 4026 1261 4192 2054 
C 4435 1747 4646 1459 4794 1216 
L 5088 1562 
C 4902 1856 4614 2221 4288 2598 
C 4371 3181 4416 3827 4448 4531 
L 5402 4531 
L 5402 109 
C 5402 0 5357 -32 5248 -38 
C 5139 -38 4768 -45 4384 -32 
C 4448 -160 4525 -371 4550 -493 
C 5088 -499 5408 -486 5606 -410 
C 5798 -333 5869 -179 5869 109 
L 5869 4992 
L 563 4992 
z
" transform="scale(0.015625)"/>
     <path id="NotoSansCJKjp-Regular-7edc" d="M 262 320 
L 378 -160 
C 966 32 1754 269 2502 499 
L 2432 915 
C 1626 685 806 454 262 320 
z
M 3648 5459 
C 3386 4768 2944 4102 2451 3648 
L 2509 3744 
L 2086 4006 
C 1971 3782 1837 3552 1702 3334 
L 883 3251 
C 1267 3789 1645 4474 1933 5133 
L 1472 5350 
C 1210 4595 742 3776 589 3558 
C 454 3347 339 3200 218 3174 
C 275 3046 358 2803 384 2707 
C 474 2752 627 2790 1408 2893 
C 1126 2490 870 2163 755 2042 
C 557 1805 403 1651 269 1626 
C 320 1498 397 1267 422 1165 
C 563 1254 781 1325 2362 1702 
C 2342 1805 2336 1997 2349 2125 
L 1165 1869 
C 1600 2368 2029 2970 2406 3571 
C 2496 3482 2637 3296 2694 3213 
C 2893 3398 3091 3622 3277 3872 
C 3462 3558 3706 3270 3987 3008 
C 3507 2688 2957 2445 2394 2278 
C 2464 2182 2566 1965 2605 1837 
C 3213 2035 3814 2330 4346 2714 
C 4819 2355 5382 2067 5984 1875 
C 6010 2003 6093 2202 6170 2310 
C 5626 2458 5126 2688 4691 2982 
C 5210 3424 5632 3962 5907 4602 
L 5626 4781 
L 5542 4762 
L 3827 4762 
C 3923 4947 4013 5139 4090 5331 
L 3648 5459 
z
M 2982 1894 
L 2982 -454 
L 3430 -454 
L 3430 -134 
L 5248 -134 
L 5248 -442 
L 5709 -442 
L 5709 1894 
L 2982 1894 
z
M 3430 294 
L 3430 1466 
L 5248 1466 
L 5248 294 
L 3430 294 
z
M 5267 4326 
C 5037 3917 4717 3565 4333 3258 
C 4000 3546 3725 3878 3533 4250 
L 3584 4326 
L 5267 4326 
z
" transform="scale(0.015625)"/>
     <path id="NotoSansCJKjp-Regular-53ef" d="M 358 4922 
L 358 4442 
L 4781 4442 
L 4781 186 
C 4781 51 4736 13 4595 0 
C 4442 0 3917 -6 3405 19 
C 3482 -122 3571 -358 3603 -499 
C 4237 -499 4685 -499 4941 -416 
C 5190 -333 5280 -166 5280 179 
L 5280 4442 
L 6067 4442 
L 6067 4922 
L 358 4922 
z
M 1478 3040 
L 3162 3040 
L 3162 1568 
L 1478 1568 
L 1478 3040 
z
M 1011 3501 
L 1011 595 
L 1478 595 
L 1478 1107 
L 3635 1107 
L 3635 3501 
L 1011 3501 
z
" transform="scale(0.015625)"/>
     <path id="NotoSansCJKjp-Regular-80fd" d="M 2131 4774 
C 2278 4576 2432 4339 2560 4109 
L 1248 4058 
C 1446 4422 1651 4864 1824 5261 
L 1331 5382 
C 1197 4979 966 4442 742 4038 
L 256 4019 
L 294 3552 
C 960 3590 1882 3635 2784 3693 
C 2854 3552 2912 3424 2950 3309 
L 3366 3494 
C 3226 3891 2867 4486 2528 4928 
L 2131 4774 
z
M 2451 2688 
L 2451 2138 
L 1088 2138 
L 1088 2688 
L 2451 2688 
z
M 640 3098 
L 640 -506 
L 1088 -506 
L 1088 800 
L 2451 800 
L 2451 51 
C 2451 -32 2432 -58 2349 -58 
C 2253 -64 1984 -64 1683 -51 
C 1747 -179 1818 -365 1843 -493 
C 2246 -493 2522 -486 2701 -416 
C 2874 -339 2925 -205 2925 45 
L 2925 3098 
L 640 3098 
z
M 1088 1760 
L 2451 1760 
L 2451 1178 
L 1088 1178 
L 1088 1760 
z
M 5491 4896 
C 5126 4704 4550 4474 4006 4288 
L 4006 5363 
L 3526 5363 
L 3526 3238 
C 3526 2707 3686 2566 4307 2566 
C 4429 2566 5267 2566 5408 2566 
C 5920 2566 6061 2771 6118 3558 
C 5984 3590 5786 3661 5683 3744 
C 5658 3110 5613 3002 5363 3002 
C 5184 3002 4480 3002 4352 3002 
C 4058 3002 4006 3040 4006 3245 
L 4006 3904 
C 4621 4083 5306 4307 5811 4538 
L 5491 4896 
z
M 5568 2042 
C 5197 1805 4582 1555 4000 1363 
L 4000 2387 
L 3526 2387 
L 3526 224 
C 3526 -314 3693 -454 4320 -454 
C 4454 -454 5318 -454 5459 -454 
C 5997 -454 6138 -224 6195 634 
C 6061 666 5875 742 5760 819 
C 5734 96 5690 -26 5421 -26 
C 5229 -26 4506 -26 4365 -26 
C 4058 -26 4000 13 4000 224 
L 4000 966 
C 4646 1146 5382 1395 5882 1683 
L 5568 2042 
z
" transform="scale(0.015625)"/>
     <path id="NotoSansCJKjp-Regular-6709" d="M 2502 5376 
C 2426 5101 2336 4819 2221 4544 
L 403 4544 
L 403 4096 
L 2022 4096 
C 1613 3251 1024 2470 256 1946 
C 346 1856 499 1683 563 1574 
C 966 1862 1325 2208 1632 2598 
L 1632 -506 
L 2106 -506 
L 2106 762 
L 4787 762 
L 4787 96 
C 4787 0 4755 -38 4646 -38 
C 4525 -45 4134 -51 3712 -32 
C 3776 -166 3846 -365 3872 -493 
C 4422 -493 4774 -493 4986 -422 
C 5197 -339 5261 -192 5261 90 
L 5261 3354 
L 2150 3354 
C 2298 3597 2426 3840 2541 4096 
L 6010 4096 
L 6010 4544 
L 2733 4544 
C 2829 4781 2912 5024 2989 5261 
L 2502 5376 
z
M 2106 1850 
L 4787 1850 
L 4787 1178 
L 2106 1178 
L 2106 1850 
z
M 2106 2259 
L 2106 2918 
L 4787 2918 
L 4787 2259 
L 2106 2259 
z
" transform="scale(0.015625)"/>
     <path id="NotoSansCJKjp-Regular-591a" d="M 2899 5389 
C 2458 4845 1619 4243 461 3840 
C 570 3763 723 3597 794 3482 
C 1120 3610 1427 3757 1709 3910 
C 2106 3706 2554 3424 2835 3187 
C 2086 2778 1222 2483 416 2336 
C 499 2227 602 2035 640 1907 
C 2336 2278 4224 3181 5056 4672 
L 4749 4858 
L 4666 4838 
L 3014 4838 
C 3174 4979 3315 5126 3443 5274 
L 2899 5389 
z
M 3251 3437 
C 2989 3661 2528 3942 2118 4154 
C 2259 4243 2394 4333 2522 4429 
L 4352 4429 
C 4070 4058 3686 3725 3251 3437 
z
M 3936 3194 
C 3443 2586 2464 1920 1114 1498 
C 1216 1414 1350 1242 1408 1126 
C 1798 1267 2157 1421 2490 1587 
C 2925 1344 3418 998 3712 723 
C 2893 288 1901 32 896 -90 
C 979 -198 1069 -390 1107 -525 
C 3194 -224 5190 582 6003 2445 
L 5690 2618 
L 5600 2598 
L 4006 2598 
C 4179 2752 4333 2912 4474 3072 
L 3936 3194 
z
M 4147 973 
C 3853 1242 3360 1574 2925 1818 
C 3123 1933 3309 2054 3488 2182 
L 5325 2182 
C 5043 1696 4634 1293 4147 973 
z
" transform="scale(0.015625)"/>
     <path id="NotoSansCJKjp-Regular-5957" d="M 3808 4307 
C 3974 4090 4166 3878 4378 3680 
L 2086 3680 
C 2304 3878 2496 4090 2669 4307 
L 3808 4307 
z
M 2758 5376 
C 2669 5158 2554 4934 2400 4717 
L 461 4717 
L 461 4307 
L 2074 4307 
C 1626 3808 998 3341 179 3008 
C 282 2925 416 2758 480 2650 
C 902 2835 1280 3053 1613 3296 
L 1613 1363 
L 390 1363 
L 390 954 
L 1965 954 
C 1850 640 1696 288 1549 6 
L 832 -26 
L 883 -461 
C 1914 -397 3469 -307 4941 -205 
C 5075 -346 5190 -480 5280 -589 
L 5702 -346 
C 5408 0 4819 544 4358 922 
L 3955 717 
C 4154 550 4371 358 4576 160 
L 2061 26 
C 2214 301 2374 634 2515 954 
L 6016 954 
L 6016 1363 
L 2099 1363 
L 2099 1792 
L 4774 1792 
L 4774 2138 
L 2099 2138 
L 2099 2547 
L 4774 2547 
L 4774 2893 
L 2099 2893 
L 2099 3296 
L 4768 3296 
L 4768 3354 
C 5120 3078 5504 2848 5875 2694 
C 5946 2810 6086 2982 6189 3072 
C 5517 3309 4794 3782 4320 4307 
L 5952 4307 
L 5952 4717 
L 2950 4717 
C 3072 4909 3174 5101 3258 5293 
L 2758 5376 
z
" transform="scale(0.015625)"/>
     <path id="NotoSansCJKjp-Regular-201c" d="M 858 3072 
C 1075 3072 1229 3213 1229 3462 
C 1229 3693 1050 3821 858 3821 
L 794 3814 
C 800 4224 979 4467 1331 4704 
L 1165 4979 
C 672 4691 403 4282 403 3718 
C 403 3302 570 3072 858 3072 
z
M 2112 3072 
C 2330 3072 2490 3213 2490 3462 
C 2490 3693 2304 3821 2112 3821 
L 2054 3814 
C 2061 4224 2240 4467 2586 4704 
L 2426 4979 
C 1933 4691 1664 4282 1664 3718 
C 1664 3302 1830 3072 2112 3072 
z
" transform="scale(0.015625)"/>
     <path id="NotoSansCJKjp-Regular-6700" d="M 1600 4064 
L 4813 4064 
L 4813 3610 
L 1600 3610 
L 1600 4064 
z
M 1600 4832 
L 4813 4832 
L 4813 4384 
L 1600 4384 
L 1600 4832 
z
M 1139 5171 
L 1139 3270 
L 5293 3270 
L 5293 5171 
L 1139 5171 
z
M 2534 2509 
L 2534 2074 
L 1370 2074 
L 1370 2509 
L 2534 2509 
z
M 314 282 
L 358 -147 
L 2534 115 
L 2534 -512 
L 2995 -512 
L 2995 -109 
C 3091 -198 3200 -365 3251 -474 
C 3699 -320 4141 -96 4531 205 
C 4909 -115 5363 -358 5875 -506 
C 5939 -397 6061 -218 6163 -134 
C 5664 -6 5229 205 4858 486 
C 5280 883 5613 1389 5811 2010 
L 5517 2131 
L 5434 2112 
L 3219 2112 
L 3219 1722 
L 3776 1722 
L 3501 1638 
C 3674 1216 3910 832 4205 512 
C 3840 237 3418 32 2995 -90 
L 2995 2509 
L 6016 2509 
L 6016 2912 
L 371 2912 
L 371 2509 
L 928 2509 
L 928 339 
L 314 282 
z
M 3898 1722 
L 5222 1722 
C 5056 1363 4813 1050 4531 781 
C 4262 1050 4045 1370 3898 1722 
z
M 2534 1709 
L 2534 1261 
L 1370 1261 
L 1370 1709 
L 2534 1709 
z
M 2534 902 
L 2534 518 
L 1370 384 
L 1370 902 
L 2534 902 
z
" transform="scale(0.015625)"/>
     <path id="NotoSansCJKjp-Regular-5c11" d="M 2950 5370 
L 2950 2125 
C 2950 2022 2918 1997 2810 1997 
C 2694 1997 2304 1990 1875 1997 
C 1952 1862 2029 1651 2054 1510 
C 2592 1510 2944 1517 3155 1600 
C 3373 1677 3443 1824 3443 2118 
L 3443 5370 
L 2950 5370 
z
M 4339 4403 
C 4890 3738 5478 2835 5696 2253 
L 6176 2515 
C 5933 3110 5331 3981 4774 4627 
L 4339 4403 
z
M 4762 2656 
C 4211 1011 2989 243 723 -51 
C 819 -179 928 -378 979 -525 
C 3354 -160 4659 698 5261 2502 
L 4762 2656 
z
M 1536 4563 
C 1299 3859 806 3002 243 2464 
C 371 2394 563 2266 672 2176 
C 1242 2758 1747 3661 2061 4435 
L 1536 4563 
z
" transform="scale(0.015625)"/>
     <path id="NotoSansCJKjp-Regular-63a7" d="M 2099 109 
L 2099 -333 
L 6144 -333 
L 6144 109 
L 4371 109 
L 4371 1459 
L 5837 1459 
L 5837 1901 
L 2509 1901 
L 2509 1459 
L 3891 1459 
L 3891 109 
L 2099 109 
z
M 3898 5382 
L 3898 4704 
L 2298 4704 
L 2298 3610 
L 2720 3610 
L 2720 4288 
L 3398 4288 
C 3354 3360 3187 2867 2266 2611 
C 2355 2534 2470 2374 2502 2272 
C 3558 2592 3782 3194 3840 4288 
L 4442 4288 
L 4442 3027 
C 4442 2598 4544 2470 4998 2470 
C 5088 2470 5491 2470 5587 2470 
C 5933 2470 6054 2637 6099 3264 
C 5978 3296 5798 3366 5709 3437 
C 5690 2944 5664 2874 5530 2874 
C 5446 2874 5120 2874 5056 2874 
C 4915 2874 4890 2893 4890 3034 
L 4890 4288 
L 5651 4288 
L 5651 3661 
L 6093 3661 
L 6093 4704 
L 4371 4704 
L 4371 5382 
L 3898 5382 
z
M 1069 5370 
L 1069 4083 
L 269 4083 
L 269 3635 
L 1069 3635 
L 1069 2349 
L 179 2054 
L 301 1594 
L 1069 1869 
L 1069 45 
C 1069 -45 1037 -70 960 -70 
C 883 -77 634 -77 358 -64 
C 416 -198 480 -397 493 -512 
C 902 -518 1146 -499 1299 -422 
C 1459 -352 1517 -218 1517 45 
L 1517 2029 
L 2234 2291 
L 2150 2726 
L 1517 2502 
L 1517 3635 
L 2189 3635 
L 2189 4083 
L 1517 4083 
L 1517 5370 
L 1069 5370 
z
" transform="scale(0.015625)"/>
     <path id="NotoSansCJKjp-Regular-5236" d="M 4326 4787 
L 4326 1242 
L 4781 1242 
L 4781 4787 
L 4326 4787 
z
M 5466 5312 
L 5466 147 
C 5466 45 5434 13 5338 13 
C 5216 6 4858 6 4480 19 
C 4544 -128 4614 -352 4640 -486 
C 5120 -486 5472 -474 5664 -397 
C 5862 -307 5939 -166 5939 154 
L 5939 5312 
L 5466 5312 
z
M 909 5222 
C 774 4602 557 3962 262 3533 
C 384 3488 595 3405 691 3354 
C 800 3539 909 3763 1011 4013 
L 1850 4013 
L 1850 3341 
L 288 3341 
L 288 2899 
L 1850 2899 
L 1850 2246 
L 582 2246 
L 582 13 
L 1018 13 
L 1018 1811 
L 1850 1811 
L 1850 -506 
L 2310 -506 
L 2310 1811 
L 3200 1811 
L 3200 499 
C 3200 429 3181 410 3110 410 
C 3040 403 2829 403 2560 416 
C 2618 294 2675 122 2694 -6 
C 3046 -6 3296 0 3443 70 
C 3603 147 3642 269 3642 486 
L 3642 2246 
L 2310 2246 
L 2310 2899 
L 3866 2899 
L 3866 3341 
L 2310 3341 
L 2310 4013 
L 3616 4013 
L 3616 4454 
L 2310 4454 
L 2310 5350 
L 1850 5350 
L 1850 4454 
L 1171 4454 
C 1242 4672 1306 4902 1357 5133 
L 909 5222 
z
" transform="scale(0.015625)"/>
     <path id="NotoSansCJKjp-Regular-70b9" d="M 1517 2976 
L 4864 2976 
L 4864 1830 
L 1517 1830 
L 1517 2976 
z
M 2176 819 
C 2259 403 2310 -134 2310 -454 
L 2797 -390 
C 2790 -83 2726 448 2630 858 
L 2176 819 
z
M 3501 813 
C 3686 416 3878 -122 3949 -442 
L 4416 -320 
C 4339 0 4134 518 3936 909 
L 3501 813 
z
M 4806 864 
C 5126 461 5485 -109 5632 -461 
L 6086 -269 
C 5926 83 5555 627 5235 1030 
L 4806 864 
z
M 1133 992 
C 934 518 608 0 269 -294 
L 704 -506 
C 1056 -166 1382 371 1587 870 
L 1133 992 
z
M 1062 3430 
L 1062 1382 
L 5344 1382 
L 5344 3430 
L 3392 3430 
L 3392 4243 
L 5824 4243 
L 5824 4698 
L 3392 4698 
L 3392 5376 
L 2912 5376 
L 2912 3430 
L 1062 3430 
z
" transform="scale(0.015625)"/>
     <path id="NotoSansCJKjp-Regular-201d" d="M 614 3085 
C 1107 3373 1376 3782 1376 4352 
C 1376 4762 1210 4992 928 4992 
C 704 4992 550 4851 550 4608 
C 550 4371 730 4243 928 4243 
L 986 4250 
C 979 3840 800 3597 448 3360 
L 614 3085 
z
M 1869 3085 
C 2362 3373 2630 3782 2630 4352 
C 2630 4762 2464 4992 2182 4992 
C 1965 4992 1805 4851 1805 4608 
C 1805 4371 1984 4243 2182 4243 
L 2246 4250 
C 2240 3840 2061 3597 1702 3360 
L 1869 3085 
z
" transform="scale(0.015625)"/>
     <path id="NotoSansCJKjp-Regular-ff08" d="M 4448 2432 
C 4448 1184 4954 166 5722 -614 
L 6106 -416 
C 5370 346 4915 1293 4915 2432 
C 4915 3571 5370 4518 6106 5280 
L 5722 5478 
C 4954 4698 4448 3680 4448 2432 
z
" transform="scale(0.015625)"/>
     <path id="NotoSansCJKjp-Regular-610f" d="M 1645 1651 
L 1645 2080 
L 4787 2080 
L 4787 1651 
L 1645 1651 
z
M 1645 2400 
L 1645 2829 
L 4787 2829 
L 4787 2400 
L 1645 2400 
z
M 1581 851 
L 1178 998 
C 1018 576 717 141 269 -109 
L 646 -365 
C 1120 -83 1395 384 1581 851 
z
M 5005 1056 
L 4634 832 
C 5069 506 5549 19 5754 -326 
L 6150 -77 
C 5926 269 5434 736 5005 1056 
z
M 2374 128 
L 2374 954 
L 1907 954 
L 1907 128 
C 1907 -333 2074 -454 2726 -454 
C 2861 -454 3795 -454 3936 -454 
C 4461 -454 4602 -288 4659 435 
C 4531 461 4346 525 4237 595 
C 4211 26 4166 -51 3898 -51 
C 3686 -51 2912 -51 2765 -51 
C 2432 -51 2374 -26 2374 128 
z
M 5261 3155 
L 1190 3155 
L 1190 1318 
L 2842 1318 
L 2586 1075 
C 2950 870 3398 570 3622 371 
L 3904 659 
C 3674 858 3226 1139 2861 1318 
L 5261 1318 
L 5261 3155 
z
M 4051 3872 
L 2272 3872 
L 2464 3923 
C 2419 4096 2310 4346 2189 4557 
L 4218 4557 
C 4141 4352 4006 4090 3904 3910 
L 4051 3872 
z
M 5638 4954 
L 3430 4954 
L 3430 5376 
L 2950 5376 
L 2950 4954 
L 755 4954 
L 755 4557 
L 1914 4557 
L 1722 4512 
C 1837 4320 1939 4064 1984 3872 
L 467 3872 
L 467 3482 
L 5971 3482 
L 5971 3872 
L 4371 3872 
C 4480 4051 4614 4275 4736 4506 
L 4518 4557 
L 5638 4557 
L 5638 4954 
z
" transform="scale(0.015625)"/>
     <path id="NotoSansCJKjp-Regular-56fe" d="M 2400 1786 
C 2912 1677 3565 1453 3923 1274 
L 4122 1600 
C 3763 1766 3117 1978 2605 2080 
L 2400 1786 
z
M 1760 973 
C 2643 864 3750 608 4365 390 
L 4576 749 
C 3955 954 2848 1203 1984 1299 
L 1760 973 
z
M 538 5094 
L 538 -512 
L 998 -512 
L 998 -243 
L 5389 -243 
L 5389 -512 
L 5869 -512 
L 5869 5094 
L 538 5094 
z
M 998 186 
L 998 4659 
L 5389 4659 
L 5389 186 
L 998 186 
z
M 2650 4531 
C 2330 4006 1779 3507 1229 3181 
C 1331 3117 1498 2970 1568 2893 
C 1760 3021 1958 3174 2157 3347 
C 2349 3142 2586 2950 2842 2778 
C 2298 2522 1683 2330 1114 2214 
C 1197 2125 1299 1939 1344 1824 
C 1971 1971 2643 2208 3251 2534 
C 3782 2246 4390 2029 4998 1894 
C 5056 2010 5178 2176 5267 2259 
C 4704 2362 4141 2534 3642 2765 
C 4122 3078 4525 3443 4794 3878 
L 4518 4038 
L 4448 4019 
L 2790 4019 
C 2886 4141 2976 4262 3053 4390 
L 2650 4531 
z
M 2419 3603 
L 2464 3648 
L 4122 3648 
C 3891 3398 3584 3174 3238 2976 
C 2912 3162 2630 3373 2419 3603 
z
" transform="scale(0.015625)"/>
     <path id="NotoSansCJKjp-Regular-ff09" d="M 1952 2432 
C 1952 3680 1446 4698 678 5478 
L 294 5280 
C 1030 4518 1485 3571 1485 2432 
C 1485 1293 1030 346 294 -416 
L 678 -614 
C 1446 166 1952 1184 1952 2432 
z
" transform="scale(0.015625)"/>
    </defs>
    <use xlink:href="#NotoSansCJKjp-Regular-540c"/>
    <use xlink:href="#NotoSansCJKjp-Regular-4e00" x="99.999985"/>
    <use xlink:href="#NotoSansCJKjp-Regular-5f20" x="199.999969"/>
    <use xlink:href="#NotoSansCJKjp-Regular-7f51" x="299.999954"/>
    <use xlink:href="#NotoSansCJKjp-Regular-7edc" x="399.999939"/>
    <use xlink:href="#NotoSansCJKjp-Regular-53ef" x="499.999924"/>
    <use xlink:href="#NotoSansCJKjp-Regular-80fd" x="599.999908"/>
    <use xlink:href="#NotoSansCJKjp-Regular-6709" x="699.999893"/>
    <use xlink:href="#NotoSansCJKjp-Regular-591a" x="799.999878"/>
    <use xlink:href="#NotoSansCJKjp-Regular-5957" x="899.999863"/>
    <use xlink:href="#NotoSansCJKjp-Regular-201c" x="999.999847"/>
    <use xlink:href="#NotoSansCJKjp-Regular-6700" x="1047.399841"/>
    <use xlink:href="#NotoSansCJKjp-Regular-5c11" x="1147.399826"/>
    <use xlink:href="#NotoSansCJKjp-Regular-63a7" x="1247.399811"/>
    <use xlink:href="#NotoSansCJKjp-Regular-5236" x="1347.399796"/>
    <use xlink:href="#NotoSansCJKjp-Regular-70b9" x="1447.39978"/>
    <use xlink:href="#NotoSansCJKjp-Regular-201d" x="1547.399765"/>
    <use xlink:href="#NotoSansCJKjp-Regular-ff08" x="1594.799759"/>
    <use xlink:href="#NotoSansCJKjp-Regular-793a" x="1694.799744"/>
    <use xlink:href="#NotoSansCJKjp-Regular-610f" x="1794.799728"/>
    <use xlink:href="#NotoSansCJKjp-Regular-56fe" x="1894.799713"/>
    <use xlink:href="#NotoSansCJKjp-Regular-ff09" x="1994.799698"/>
   </g>
  </g>
 </g>
 <defs>
  <clipPath id="pab51be7a5a">
   <rect x="7.2" y="37.44" width="147.705882" height="166.32"/>
  </clipPath>
  <clipPath id="pb2381fcb4f">
   <rect x="184.447059" y="37.44" width="147.705882" height="166.32"/>
  </clipPath>
  <clipPath id="p4e2ac9379d">
   <rect x="361.694118" y="37.44" width="147.705882" height="166.32"/>
  </clipPath>
 </defs>
</svg>
