<?xml version="1.0" encoding="utf-8" standalone="no"?>
<!DOCTYPE svg PUBLIC "-//W3C//DTD SVG 1.1//EN"
  "http://www.w3.org/Graphics/SVG/1.1/DTD/svg11.dtd">
<svg xmlns:xlink="http://www.w3.org/1999/xlink" width="384.429687pt" height="338.65125pt" viewBox="0 0 384.429687 338.65125" xmlns="http://www.w3.org/2000/svg" version="1.1">
 <metadata>
  <rdf:RDF xmlns:dc="http://purl.org/dc/elements/1.1/" xmlns:cc="http://creativecommons.org/ns#" xmlns:rdf="http://www.w3.org/1999/02/22-rdf-syntax-ns#">
   <cc:Work>
    <dc:type rdf:resource="http://purl.org/dc/dcmitype/StillImage"/>
    <dc:date>2026-02-15T17:58:31.366597</dc:date>
    <dc:format>image/svg+xml</dc:format>
    <dc:creator>
     <cc:Agent>
      <dc:title>Matplotlib v3.7.5, https://matplotlib.org/</dc:title>
     </cc:Agent>
    </dc:creator>
   </cc:Work>
  </rdf:RDF>
 </metadata>
 <defs>
  <style type="text/css">*{stroke-linejoin: round; stroke-linecap: butt}</style>
 </defs>
 <g id="figure_1">
  <g id="patch_1">
   <path d="M 0 338.65125 
L 384.429687 338.65125 
L 384.429687 0 
L 0 0 
z
" style="fill: #ffffff"/>
  </g>
  <g id="axes_1">
   <g id="patch_2">
    <path d="M 42.429688 299.95125 
L 377.229688 299.95125 
L 377.229688 22.75125 
L 42.429688 22.75125 
z
" style="fill: #ffffff"/>
   </g>
   <g id="PathCollection_1">
    <defs>
     <path id="m3aa2792c35" d="M 0 3 
C 0.795609 3 1.55874 2.683901 2.12132 2.12132 
C 2.683901 1.55874 3 0.795609 3 0 
C 3 -0.795609 2.683901 -1.55874 2.12132 -2.12132 
C 1.55874 -2.683901 0.795609 -3 0 -3 
C -0.795609 -3 -1.55874 -2.683901 -2.12132 -2.12132 
C -2.683901 -1.55874 -3 -0.795609 -3 0 
C -3 0.795609 -2.683901 1.55874 -2.12132 2.12132 
C -1.55874 2.683901 -0.795609 3 0 3 
z
" style="stroke: #1f77b4"/>
    </defs>
    <g clip-path="url(#p45219891f4)">
     <use xlink:href="#m3aa2792c35" x="99.251532" y="76.494107" style="fill: #1f77b4; stroke: #1f77b4"/>
     <use xlink:href="#m3aa2792c35" x="252.528183" y="287.35125" style="fill: #1f77b4; stroke: #1f77b4"/>
     <use xlink:href="#m3aa2792c35" x="301.795678" y="256.494107" style="fill: #1f77b4; stroke: #1f77b4"/>
     <use xlink:href="#m3aa2792c35" x="351.063173" y="246.208393" style="fill: #1f77b4; stroke: #1f77b4"/>
     <use xlink:href="#m3aa2792c35" x="241.579851" y="277.065536" style="fill: #1f77b4; stroke: #1f77b4"/>
     <use xlink:href="#m3aa2792c35" x="362.011506" y="256.494107" style="fill: #1f77b4; stroke: #1f77b4"/>
     <use xlink:href="#m3aa2792c35" x="82.829033" y="61.065536" style="fill: #1f77b4; stroke: #1f77b4"/>
     <use xlink:href="#m3aa2792c35" x="66.406535" y="50.779821" style="fill: #1f77b4; stroke: #1f77b4"/>
     <use xlink:href="#m3aa2792c35" x="88.3032" y="40.494107" style="fill: #1f77b4; stroke: #1f77b4"/>
     <use xlink:href="#m3aa2792c35" x="77.354867" y="55.922679" style="fill: #1f77b4; stroke: #1f77b4"/>
     <use xlink:href="#m3aa2792c35" x="66.406535" y="40.494107" style="fill: #1f77b4; stroke: #1f77b4"/>
     <use xlink:href="#m3aa2792c35" x="57.647869" y="35.35125" style="fill: #1f77b4; stroke: #1f77b4"/>
     <use xlink:href="#m3aa2792c35" x="66.406535" y="35.35125" style="fill: #1f77b4; stroke: #1f77b4"/>
     <use xlink:href="#m3aa2792c35" x="186.83819" y="174.208393" style="fill: #1f77b4; stroke: #1f77b4"/>
     <use xlink:href="#m3aa2792c35" x="170.415691" y="81.636964" style="fill: #1f77b4; stroke: #1f77b4"/>
     <use xlink:href="#m3aa2792c35" x="82.829033" y="35.35125" style="fill: #1f77b4; stroke: #1f77b4"/>
     <use xlink:href="#m3aa2792c35" x="181.364024" y="148.494107" style="fill: #1f77b4; stroke: #1f77b4"/>
     <use xlink:href="#m3aa2792c35" x="159.467359" y="107.35125" style="fill: #1f77b4; stroke: #1f77b4"/>
     <use xlink:href="#m3aa2792c35" x="126.622362" y="91.922679" style="fill: #1f77b4; stroke: #1f77b4"/>
     <use xlink:href="#m3aa2792c35" x="143.044861" y="179.35125" style="fill: #1f77b4; stroke: #1f77b4"/>
    </g>
   </g>
   <g id="matplotlib.axis_1">
    <g id="xtick_1">
     <g id="line2d_1">
      <defs>
       <path id="m11e5bac918" d="M 0 0 
L 0 3.5 
" style="stroke: #000000; stroke-width: 0.8"/>
      </defs>
      <g>
       <use xlink:href="#m11e5bac918" x="55.458203" y="299.95125" style="stroke: #000000; stroke-width: 0.8"/>
      </g>
     </g>
     <g id="text_1">
      <!-- 0.0 -->
      <g transform="translate(48.518359 314.910625) scale(0.1 -0.1)">
       <defs>
        <path id="NotoSansCJKjp-Regular-30" d="M 1779 -83 
C 2669 -83 3238 723 3238 2362 
C 3238 3987 2669 4774 1779 4774 
C 883 4774 320 3987 320 2362 
C 320 723 883 -83 1779 -83 
z
M 1779 390 
C 1248 390 883 986 883 2362 
C 883 3731 1248 4314 1779 4314 
C 2310 4314 2675 3731 2675 2362 
C 2675 986 2310 390 1779 390 
z
" transform="scale(0.015625)"/>
        <path id="NotoSansCJKjp-Regular-2e" d="M 890 -83 
C 1120 -83 1312 96 1312 358 
C 1312 627 1120 806 890 806 
C 653 806 467 627 467 358 
C 467 96 653 -83 890 -83 
z
" transform="scale(0.015625)"/>
       </defs>
       <use xlink:href="#NotoSansCJKjp-Regular-30"/>
       <use xlink:href="#NotoSansCJKjp-Regular-2e" x="55.499985"/>
       <use xlink:href="#NotoSansCJKjp-Regular-30" x="83.299973"/>
      </g>
     </g>
    </g>
    <g id="xtick_2">
     <g id="line2d_2">
      <g>
       <use xlink:href="#m11e5bac918" x="110.199864" y="299.95125" style="stroke: #000000; stroke-width: 0.8"/>
      </g>
     </g>
     <g id="text_2">
      <!-- 0.1 -->
      <g transform="translate(103.26002 314.910625) scale(0.1 -0.1)">
       <defs>
        <path id="NotoSansCJKjp-Regular-31" d="M 563 0 
L 3136 0 
L 3136 486 
L 2195 486 
L 2195 4691 
L 1747 4691 
C 1491 4544 1190 4435 774 4358 
L 774 3987 
L 1613 3987 
L 1613 486 
L 563 486 
L 563 0 
z
" transform="scale(0.015625)"/>
       </defs>
       <use xlink:href="#NotoSansCJKjp-Regular-30"/>
       <use xlink:href="#NotoSansCJKjp-Regular-2e" x="55.499985"/>
       <use xlink:href="#NotoSansCJKjp-Regular-31" x="83.299973"/>
      </g>
     </g>
    </g>
    <g id="xtick_3">
     <g id="line2d_3">
      <g>
       <use xlink:href="#m11e5bac918" x="164.941525" y="299.95125" style="stroke: #000000; stroke-width: 0.8"/>
      </g>
     </g>
     <g id="text_3">
      <!-- 0.2 -->
      <g transform="translate(158.001682 314.910625) scale(0.1 -0.1)">
       <defs>
        <path id="NotoSansCJKjp-Regular-32" d="M 282 0 
L 3232 0 
L 3232 506 
L 1933 506 
C 1696 506 1408 480 1165 461 
C 2266 1504 3008 2458 3008 3398 
C 3008 4230 2477 4774 1638 4774 
C 1043 4774 634 4506 256 4090 
L 595 3757 
C 858 4070 1184 4301 1568 4301 
C 2150 4301 2432 3910 2432 3373 
C 2432 2566 1754 1632 282 346 
L 282 0 
z
" transform="scale(0.015625)"/>
       </defs>
       <use xlink:href="#NotoSansCJKjp-Regular-30"/>
       <use xlink:href="#NotoSansCJKjp-Regular-2e" x="55.499985"/>
       <use xlink:href="#NotoSansCJKjp-Regular-32" x="83.299973"/>
      </g>
     </g>
    </g>
    <g id="xtick_4">
     <g id="line2d_4">
      <g>
       <use xlink:href="#m11e5bac918" x="219.683187" y="299.95125" style="stroke: #000000; stroke-width: 0.8"/>
      </g>
     </g>
     <g id="text_4">
      <!-- 0.3 -->
      <g transform="translate(212.743343 314.910625) scale(0.1 -0.1)">
       <defs>
        <path id="NotoSansCJKjp-Regular-33" d="M 1683 -83 
C 2522 -83 3194 416 3194 1254 
C 3194 1901 2752 2310 2202 2445 
L 2202 2477 
C 2701 2650 3034 3034 3034 3603 
C 3034 4346 2458 4774 1664 4774 
C 1126 4774 710 4538 358 4218 
L 672 3846 
C 941 4115 1267 4301 1645 4301 
C 2138 4301 2438 4006 2438 3558 
C 2438 3053 2112 2662 1139 2662 
L 1139 2214 
C 2227 2214 2598 1843 2598 1274 
C 2598 736 2208 403 1645 403 
C 1114 403 762 659 486 941 
L 186 563 
C 493 224 954 -83 1683 -83 
z
" transform="scale(0.015625)"/>
       </defs>
       <use xlink:href="#NotoSansCJKjp-Regular-30"/>
       <use xlink:href="#NotoSansCJKjp-Regular-2e" x="55.499985"/>
       <use xlink:href="#NotoSansCJKjp-Regular-33" x="83.299973"/>
      </g>
     </g>
    </g>
    <g id="xtick_5">
     <g id="line2d_5">
      <g>
       <use xlink:href="#m11e5bac918" x="274.424848" y="299.95125" style="stroke: #000000; stroke-width: 0.8"/>
      </g>
     </g>
     <g id="text_5">
      <!-- 0.4 -->
      <g transform="translate(267.485004 314.910625) scale(0.1 -0.1)">
       <defs>
        <path id="NotoSansCJKjp-Regular-34" d="M 2176 0 
L 2726 0 
L 2726 1293 
L 3354 1293 
L 3354 1760 
L 2726 1760 
L 2726 4691 
L 2080 4691 
L 128 1677 
L 128 1293 
L 2176 1293 
L 2176 0 
z
M 2176 1760 
L 736 1760 
L 1805 3360 
C 1939 3590 2067 3827 2182 4051 
L 2208 4051 
C 2195 3814 2176 3430 2176 3200 
L 2176 1760 
z
" transform="scale(0.015625)"/>
       </defs>
       <use xlink:href="#NotoSansCJKjp-Regular-30"/>
       <use xlink:href="#NotoSansCJKjp-Regular-2e" x="55.499985"/>
       <use xlink:href="#NotoSansCJKjp-Regular-34" x="83.299973"/>
      </g>
     </g>
    </g>
    <g id="xtick_6">
     <g id="line2d_6">
      <g>
       <use xlink:href="#m11e5bac918" x="329.166509" y="299.95125" style="stroke: #000000; stroke-width: 0.8"/>
      </g>
     </g>
     <g id="text_6">
      <!-- 0.5 -->
      <g transform="translate(322.226665 314.910625) scale(0.1 -0.1)">
       <defs>
        <path id="NotoSansCJKjp-Regular-35" d="M 1677 -83 
C 2464 -83 3213 499 3213 1523 
C 3213 2560 2573 3021 1798 3021 
C 1517 3021 1306 2950 1094 2835 
L 1216 4192 
L 2982 4192 
L 2982 4691 
L 704 4691 
L 550 2502 
L 864 2304 
C 1133 2483 1331 2579 1645 2579 
C 2234 2579 2618 2182 2618 1510 
C 2618 826 2176 403 1619 403 
C 1075 403 730 653 467 922 
L 173 538 
C 493 224 941 -83 1677 -83 
z
" transform="scale(0.015625)"/>
       </defs>
       <use xlink:href="#NotoSansCJKjp-Regular-30"/>
       <use xlink:href="#NotoSansCJKjp-Regular-2e" x="55.499985"/>
       <use xlink:href="#NotoSansCJKjp-Regular-35" x="83.299973"/>
      </g>
     </g>
    </g>
    <g id="text_7">
     <!-- 平均边相似度 Se（Jaccard） -->
     <g transform="translate(144.514844 329.160625) scale(0.1 -0.1)">
      <defs>
       <path id="NotoSansCJKjp-Regular-5e73" d="M 1114 4032 
C 1363 3558 1613 2938 1702 2554 
L 2157 2714 
C 2067 3085 1805 3699 1549 4160 
L 1114 4032 
z
M 4832 4192 
C 4672 3725 4378 3072 4134 2669 
L 4550 2534 
C 4800 2918 5101 3533 5338 4051 
L 4832 4192 
z
M 333 2227 
L 333 1747 
L 2938 1747 
L 2938 -506 
L 3437 -506 
L 3437 1747 
L 6074 1747 
L 6074 2227 
L 3437 2227 
L 3437 4467 
L 5715 4467 
L 5715 4947 
L 672 4947 
L 672 4467 
L 2938 4467 
L 2938 2227 
L 333 2227 
z
" transform="scale(0.015625)"/>
       <path id="NotoSansCJKjp-Regular-5747" d="M 2803 3021 
L 2803 2579 
L 4794 2579 
L 4794 3021 
L 2803 3021 
z
M 2509 954 
L 2707 506 
C 3334 742 4173 1075 4954 1389 
L 4870 1805 
C 4000 1478 3091 1146 2509 954 
z
M 3245 5376 
C 3002 4480 2586 3610 2054 3053 
C 2176 2982 2381 2835 2477 2746 
C 2726 3046 2970 3430 3181 3853 
L 5542 3853 
C 5459 1254 5357 269 5152 51 
C 5075 -32 5005 -58 4877 -51 
C 4723 -51 4326 -51 3898 -13 
C 3981 -154 4045 -358 4058 -499 
C 4442 -518 4838 -531 5062 -506 
C 5293 -486 5440 -429 5587 -237 
C 5843 77 5939 1101 6029 4058 
C 6035 4128 6035 4314 6035 4314 
L 3392 4314 
C 3526 4621 3635 4941 3731 5267 
L 3245 5376 
z
M 218 1030 
L 390 550 
C 986 794 1773 1126 2509 1440 
L 2406 1894 
L 1606 1568 
L 1606 3430 
L 2362 3430 
L 2362 3885 
L 1606 3885 
L 1606 5338 
L 1139 5338 
L 1139 3885 
L 333 3885 
L 333 3430 
L 1139 3430 
L 1139 1382 
C 794 1248 474 1120 218 1030 
z
" transform="scale(0.015625)"/>
       <path id="NotoSansCJKjp-Regular-8fb9" d="M 525 5018 
C 877 4685 1306 4218 1510 3917 
L 1901 4224 
C 1690 4512 1248 4960 896 5280 
L 525 5018 
z
M 3539 5280 
C 3533 4922 3526 4570 3507 4230 
L 2189 4230 
L 2189 3770 
L 3475 3770 
C 3366 2541 3046 1517 2003 896 
C 2131 813 2278 659 2349 544 
C 3482 1261 3840 2400 3974 3770 
L 5395 3770 
C 5312 1971 5222 1267 5062 1094 
C 4998 1024 4928 1011 4806 1018 
C 4659 1018 4301 1018 3923 1050 
C 4013 909 4077 704 4090 557 
C 4442 544 4806 531 4998 550 
C 5216 570 5357 621 5491 787 
C 5709 1050 5798 1824 5888 4000 
C 5894 4064 5894 4230 5894 4230 
L 4006 4230 
C 4026 4570 4038 4922 4045 5280 
L 3539 5280 
z
M 1587 3206 
L 269 3206 
L 269 2733 
L 1107 2733 
L 1107 742 
C 826 627 499 326 154 -58 
L 512 -525 
C 826 -77 1126 333 1331 333 
C 1472 333 1690 102 1958 -77 
C 2419 -371 2963 -442 3795 -442 
C 4442 -442 5626 -403 6080 -371 
C 6093 -224 6170 32 6234 166 
C 5587 96 4608 38 3814 38 
C 3066 38 2502 83 2080 358 
C 1856 499 1709 627 1587 704 
L 1587 3206 
z
" transform="scale(0.015625)"/>
       <path id="NotoSansCJKjp-Regular-76f8" d="M 3494 3034 
L 5440 3034 
L 5440 1920 
L 3494 1920 
L 3494 3034 
z
M 3494 3469 
L 3494 4544 
L 5440 4544 
L 5440 3469 
L 3494 3469 
z
M 3494 1478 
L 5440 1478 
L 5440 365 
L 3494 365 
L 3494 1478 
z
M 3027 4998 
L 3027 -467 
L 3494 -467 
L 3494 -77 
L 5440 -77 
L 5440 -448 
L 5926 -448 
L 5926 4998 
L 3027 4998 
z
M 1370 5376 
L 1370 4006 
L 333 4006 
L 333 3546 
L 1312 3546 
C 1088 2662 634 1651 186 1120 
C 262 1005 384 813 435 685 
C 781 1126 1120 1837 1370 2573 
L 1370 -506 
L 1837 -506 
L 1837 2419 
C 2080 2106 2368 1709 2490 1498 
L 2784 1888 
C 2643 2061 2061 2746 1837 2970 
L 1837 3546 
L 2752 3546 
L 2752 4006 
L 1837 4006 
L 1837 5376 
L 1370 5376 
z
" transform="scale(0.015625)"/>
       <path id="NotoSansCJKjp-Regular-4f3c" d="M 3373 4371 
C 3699 3898 4051 3245 4186 2842 
L 4614 3046 
C 4474 3450 4115 4077 3770 4550 
L 3373 4371 
z
M 2406 5005 
L 2445 1197 
L 1766 973 
L 1965 493 
C 2592 736 3392 1056 4147 1363 
L 4058 1779 
L 2906 1363 
L 2867 5011 
L 2406 5005 
z
M 5376 5114 
C 5261 2093 4813 595 2477 -134 
C 2579 -237 2739 -454 2790 -557 
C 3757 -211 4416 256 4870 890 
C 5254 403 5677 -160 5894 -518 
L 6266 -173 
C 6029 205 5542 813 5126 1299 
C 5613 2214 5792 3437 5862 5094 
L 5376 5114 
z
M 1690 5350 
C 1331 4378 736 3418 102 2797 
C 192 2688 326 2438 371 2323 
C 595 2554 813 2822 1024 3117 
L 1024 -499 
L 1485 -499 
L 1485 3840 
C 1734 4282 1965 4749 2144 5216 
L 1690 5350 
z
" transform="scale(0.015625)"/>
       <path id="NotoSansCJKjp-Regular-5ea6" d="M 2470 4141 
L 2470 3584 
L 1440 3584 
L 1440 3187 
L 2470 3187 
L 2470 2125 
L 4960 2125 
L 4960 3187 
L 5997 3187 
L 5997 3584 
L 4960 3584 
L 4960 4141 
L 4486 4141 
L 4486 3584 
L 2931 3584 
L 2931 4141 
L 2470 4141 
z
M 4486 3187 
L 4486 2509 
L 2931 2509 
L 2931 3187 
L 4486 3187 
z
M 4851 1318 
C 4582 986 4211 717 3770 506 
C 3334 723 2970 992 2720 1318 
L 4851 1318 
z
M 1530 1715 
L 1530 1318 
L 2502 1318 
L 2259 1222 
C 2515 858 2861 550 3270 301 
C 2662 90 1978 -38 1280 -109 
C 1357 -211 1453 -397 1485 -512 
C 2291 -416 3072 -243 3757 45 
C 4365 -237 5088 -422 5869 -525 
C 5933 -403 6048 -211 6150 -109 
C 5466 -38 4819 96 4269 294 
C 4813 608 5261 1024 5549 1574 
L 5248 1734 
L 5165 1715 
L 1530 1715 
z
M 774 4742 
L 774 2893 
C 774 1965 730 659 198 -256 
C 314 -307 512 -435 595 -518 
C 1152 448 1235 1901 1235 2893 
L 1235 4307 
L 6035 4307 
L 6035 4742 
L 3635 4742 
L 3635 5376 
L 3142 5376 
L 3142 4742 
L 774 4742 
z
" transform="scale(0.015625)"/>
       <path id="NotoSansCJKjp-Regular-20" transform="scale(0.015625)"/>
       <path id="NotoSansCJKjp-Regular-53" d="M 1946 -83 
C 2925 -83 3539 506 3539 1248 
C 3539 1946 3117 2266 2573 2502 
L 1907 2790 
C 1542 2944 1126 3117 1126 3578 
C 1126 3994 1472 4256 2003 4256 
C 2438 4256 2784 4090 3072 3821 
L 3379 4198 
C 3053 4538 2560 4774 2003 4774 
C 1152 4774 525 4256 525 3533 
C 525 2848 1043 2515 1478 2330 
L 2150 2035 
C 2598 1837 2938 1683 2938 1197 
C 2938 742 2573 435 1952 435 
C 1466 435 992 666 659 1018 
L 307 608 
C 710 186 1280 -83 1946 -83 
z
" transform="scale(0.015625)"/>
       <path id="NotoSansCJKjp-Regular-65" d="M 1997 -83 
C 2464 -83 2835 70 3136 269 
L 2931 659 
C 2669 486 2400 384 2061 384 
C 1402 384 947 858 909 1600 
L 3251 1600 
C 3264 1690 3277 1805 3277 1933 
C 3277 2925 2778 3565 1888 3565 
C 1094 3565 333 2867 333 1734 
C 333 589 1069 -83 1997 -83 
z
M 902 2016 
C 973 2707 1408 3098 1901 3098 
C 2445 3098 2765 2720 2765 2016 
L 902 2016 
z
" transform="scale(0.015625)"/>
       <path id="NotoSansCJKjp-Regular-ff08" d="M 4448 2432 
C 4448 1184 4954 166 5722 -614 
L 6106 -416 
C 5370 346 4915 1293 4915 2432 
C 4915 3571 5370 4518 6106 5280 
L 5722 5478 
C 4954 4698 4448 3680 4448 2432 
z
" transform="scale(0.015625)"/>
       <path id="NotoSansCJKjp-Regular-4a" d="M 1517 -83 
C 2432 -83 2810 563 2810 1376 
L 2810 4691 
L 2214 4691 
L 2214 1434 
C 2214 723 1965 435 1459 435 
C 1120 435 858 589 646 966 
L 224 659 
C 499 173 922 -83 1517 -83 
z
" transform="scale(0.015625)"/>
       <path id="NotoSansCJKjp-Regular-61" d="M 1389 -83 
C 1818 -83 2208 141 2541 416 
L 2560 416 
L 2611 0 
L 3091 0 
L 3091 2138 
C 3091 3002 2739 3565 1888 3565 
C 1325 3565 838 3315 525 3110 
L 749 2707 
C 1024 2893 1389 3078 1792 3078 
C 2362 3078 2509 2650 2509 2202 
C 1030 2035 378 1658 378 902 
C 378 275 806 -83 1389 -83 
z
M 1555 390 
C 1210 390 941 544 941 941 
C 941 1389 1338 1677 2509 1811 
L 2509 845 
C 2170 544 1888 390 1555 390 
z
" transform="scale(0.015625)"/>
       <path id="NotoSansCJKjp-Regular-63" d="M 1958 -83 
C 2374 -83 2771 83 3085 352 
L 2829 749 
C 2611 557 2330 403 2010 403 
C 1370 403 934 934 934 1734 
C 934 2534 1395 3072 2029 3072 
C 2298 3072 2522 2950 2720 2771 
L 3014 3155 
C 2771 3373 2458 3565 2003 3565 
C 1107 3565 333 2893 333 1734 
C 333 582 1037 -83 1958 -83 
z
" transform="scale(0.015625)"/>
       <path id="NotoSansCJKjp-Regular-72" d="M 589 0 
L 1178 0 
L 1178 2234 
C 1408 2822 1760 3040 2048 3040 
C 2195 3040 2272 3021 2387 2982 
L 2496 3488 
C 2387 3546 2278 3565 2125 3565 
C 1741 3565 1382 3283 1139 2842 
L 1126 2842 
L 1069 3475 
L 589 3475 
L 589 0 
z
" transform="scale(0.015625)"/>
       <path id="NotoSansCJKjp-Regular-64" d="M 1773 -83 
C 2189 -83 2560 141 2829 410 
L 2848 410 
L 2899 0 
L 3379 0 
L 3379 5094 
L 2790 5094 
L 2790 3757 
L 2822 3162 
C 2515 3411 2253 3565 1843 3565 
C 1050 3565 339 2861 339 1734 
C 339 576 902 -83 1773 -83 
z
M 1901 410 
C 1293 410 941 902 941 1741 
C 941 2534 1389 3072 1946 3072 
C 2234 3072 2502 2970 2790 2707 
L 2790 883 
C 2502 563 2221 410 1901 410 
z
" transform="scale(0.015625)"/>
       <path id="NotoSansCJKjp-Regular-ff09" d="M 1952 2432 
C 1952 3680 1446 4698 678 5478 
L 294 5280 
C 1030 4518 1485 3571 1485 2432 
C 1485 1293 1030 346 294 -416 
L 678 -614 
C 1446 166 1952 1184 1952 2432 
z
" transform="scale(0.015625)"/>
      </defs>
      <use xlink:href="#NotoSansCJKjp-Regular-5e73"/>
      <use xlink:href="#NotoSansCJKjp-Regular-5747" x="99.999985"/>
      <use xlink:href="#NotoSansCJKjp-Regular-8fb9" x="199.999969"/>
      <use xlink:href="#NotoSansCJKjp-Regular-76f8" x="299.999954"/>
      <use xlink:href="#NotoSansCJKjp-Regular-4f3c" x="399.999939"/>
      <use xlink:href="#NotoSansCJKjp-Regular-5ea6" x="499.999924"/>
      <use xlink:href="#NotoSansCJKjp-Regular-20" x="599.999908"/>
      <use xlink:href="#NotoSansCJKjp-Regular-53" x="622.399902"/>
      <use xlink:href="#NotoSansCJKjp-Regular-65" x="681.999893"/>
      <use xlink:href="#NotoSansCJKjp-Regular-ff08" x="737.399887"/>
      <use xlink:href="#NotoSansCJKjp-Regular-4a" x="837.399872"/>
      <use xlink:href="#NotoSansCJKjp-Regular-61" x="890.899857"/>
      <use xlink:href="#NotoSansCJKjp-Regular-63" x="947.199844"/>
      <use xlink:href="#NotoSansCJKjp-Regular-63" x="998.199829"/>
      <use xlink:href="#NotoSansCJKjp-Regular-61" x="1049.199814"/>
      <use xlink:href="#NotoSansCJKjp-Regular-72" x="1105.499802"/>
      <use xlink:href="#NotoSansCJKjp-Regular-64" x="1144.299789"/>
      <use xlink:href="#NotoSansCJKjp-Regular-ff09" x="1206.299774"/>
     </g>
    </g>
   </g>
   <g id="matplotlib.axis_2">
    <g id="ytick_1">
     <g id="line2d_7">
      <defs>
       <path id="m748bcb6519" d="M 0 0 
L -3.5 0 
" style="stroke: #000000; stroke-width: 0.8"/>
      </defs>
      <g>
       <use xlink:href="#m748bcb6519" x="42.429688" y="287.35125" style="stroke: #000000; stroke-width: 0.8"/>
      </g>
     </g>
     <g id="text_8">
      <!-- 0.5 -->
      <g transform="translate(21.55 291.330938) scale(0.1 -0.1)">
       <use xlink:href="#NotoSansCJKjp-Regular-30"/>
       <use xlink:href="#NotoSansCJKjp-Regular-2e" x="55.499985"/>
       <use xlink:href="#NotoSansCJKjp-Regular-35" x="83.299973"/>
      </g>
     </g>
    </g>
    <g id="ytick_2">
     <g id="line2d_8">
      <g>
       <use xlink:href="#m748bcb6519" x="42.429688" y="235.922679" style="stroke: #000000; stroke-width: 0.8"/>
      </g>
     </g>
     <g id="text_9">
      <!-- 0.6 -->
      <g transform="translate(21.55 239.902366) scale(0.1 -0.1)">
       <defs>
        <path id="NotoSansCJKjp-Regular-36" d="M 1926 -83 
C 2656 -83 3277 531 3277 1440 
C 3277 2426 2765 2912 1971 2912 
C 1606 2912 1197 2701 909 2349 
C 934 3802 1466 4294 2118 4294 
C 2400 4294 2682 4154 2861 3936 
L 3194 4294 
C 2931 4576 2579 4774 2093 4774 
C 1184 4774 358 4077 358 2240 
C 358 691 1030 -83 1926 -83 
z
M 922 1882 
C 1229 2317 1587 2477 1875 2477 
C 2445 2477 2720 2074 2720 1440 
C 2720 800 2374 378 1926 378 
C 1338 378 986 909 922 1882 
z
" transform="scale(0.015625)"/>
       </defs>
       <use xlink:href="#NotoSansCJKjp-Regular-30"/>
       <use xlink:href="#NotoSansCJKjp-Regular-2e" x="55.499985"/>
       <use xlink:href="#NotoSansCJKjp-Regular-36" x="83.299973"/>
      </g>
     </g>
    </g>
    <g id="ytick_3">
     <g id="line2d_9">
      <g>
       <use xlink:href="#m748bcb6519" x="42.429688" y="184.494107" style="stroke: #000000; stroke-width: 0.8"/>
      </g>
     </g>
     <g id="text_10">
      <!-- 0.7 -->
      <g transform="translate(21.55 188.473795) scale(0.1 -0.1)">
       <defs>
        <path id="NotoSansCJKjp-Regular-37" d="M 1267 0 
L 1875 0 
C 1952 1837 2150 2931 3251 4339 
L 3251 4691 
L 314 4691 
L 314 4192 
L 2592 4192 
C 1670 2912 1350 1779 1267 0 
z
" transform="scale(0.015625)"/>
       </defs>
       <use xlink:href="#NotoSansCJKjp-Regular-30"/>
       <use xlink:href="#NotoSansCJKjp-Regular-2e" x="55.499985"/>
       <use xlink:href="#NotoSansCJKjp-Regular-37" x="83.299973"/>
      </g>
     </g>
    </g>
    <g id="ytick_4">
     <g id="line2d_10">
      <g>
       <use xlink:href="#m748bcb6519" x="42.429688" y="133.065536" style="stroke: #000000; stroke-width: 0.8"/>
      </g>
     </g>
     <g id="text_11">
      <!-- 0.8 -->
      <g transform="translate(21.55 137.045223) scale(0.1 -0.1)">
       <defs>
        <path id="NotoSansCJKjp-Regular-38" d="M 1792 -83 
C 2669 -83 3258 448 3258 1126 
C 3258 1773 2880 2125 2470 2362 
L 2470 2394 
C 2746 2611 3091 3034 3091 3526 
C 3091 4250 2605 4762 1805 4762 
C 1075 4762 518 4282 518 3571 
C 518 3078 813 2726 1152 2490 
L 1152 2464 
C 723 2234 294 1792 294 1165 
C 294 442 922 -83 1792 -83 
z
M 2112 2547 
C 1555 2765 1050 3014 1050 3571 
C 1050 4026 1363 4326 1798 4326 
C 2298 4326 2592 3962 2592 3494 
C 2592 3149 2426 2829 2112 2547 
z
M 1798 352 
C 1235 352 813 717 813 1216 
C 813 1664 1082 2035 1459 2278 
C 2125 2010 2701 1779 2701 1146 
C 2701 678 2342 352 1798 352 
z
" transform="scale(0.015625)"/>
       </defs>
       <use xlink:href="#NotoSansCJKjp-Regular-30"/>
       <use xlink:href="#NotoSansCJKjp-Regular-2e" x="55.499985"/>
       <use xlink:href="#NotoSansCJKjp-Regular-38" x="83.299973"/>
      </g>
     </g>
    </g>
    <g id="ytick_5">
     <g id="line2d_11">
      <g>
       <use xlink:href="#m748bcb6519" x="42.429688" y="81.636964" style="stroke: #000000; stroke-width: 0.8"/>
      </g>
     </g>
     <g id="text_12">
      <!-- 0.9 -->
      <g transform="translate(21.55 85.616652) scale(0.1 -0.1)">
       <defs>
        <path id="NotoSansCJKjp-Regular-39" d="M 1504 -83 
C 2381 -83 3206 646 3206 2547 
C 3206 4038 2528 4774 1626 4774 
C 896 4774 282 4166 282 3251 
C 282 2285 794 1779 1574 1779 
C 1965 1779 2368 2003 2656 2349 
C 2611 896 2086 403 1485 403 
C 1178 403 896 538 691 762 
L 371 397 
C 634 122 992 -83 1504 -83 
z
M 2650 2842 
C 2336 2394 1984 2214 1670 2214 
C 1114 2214 832 2624 832 3251 
C 832 3898 1178 4320 1632 4320 
C 2227 4320 2586 3808 2650 2842 
z
" transform="scale(0.015625)"/>
       </defs>
       <use xlink:href="#NotoSansCJKjp-Regular-30"/>
       <use xlink:href="#NotoSansCJKjp-Regular-2e" x="55.499985"/>
       <use xlink:href="#NotoSansCJKjp-Regular-39" x="83.299973"/>
      </g>
     </g>
    </g>
    <g id="ytick_6">
     <g id="line2d_12">
      <g>
       <use xlink:href="#m748bcb6519" x="42.429688" y="30.208393" style="stroke: #000000; stroke-width: 0.8"/>
      </g>
     </g>
     <g id="text_13">
      <!-- 1.0 -->
      <g transform="translate(21.55 34.18808) scale(0.1 -0.1)">
       <use xlink:href="#NotoSansCJKjp-Regular-31"/>
       <use xlink:href="#NotoSansCJKjp-Regular-2e" x="55.499985"/>
       <use xlink:href="#NotoSansCJKjp-Regular-30" x="83.299973"/>
      </g>
     </g>
    </g>
    <g id="text_14">
     <!-- ECC_AC / ECC_MM（越小越好） -->
     <g transform="translate(15.259375 234.142656) rotate(-90) scale(0.1 -0.1)">
      <defs>
       <path id="NotoSansCJKjp-Regular-45" d="M 646 0 
L 3418 0 
L 3418 506 
L 1235 506 
L 1235 2214 
L 3014 2214 
L 3014 2720 
L 1235 2720 
L 1235 4192 
L 3347 4192 
L 3347 4691 
L 646 4691 
L 646 0 
z
" transform="scale(0.015625)"/>
       <path id="NotoSansCJKjp-Regular-43" d="M 2413 -83 
C 3021 -83 3482 160 3853 589 
L 3526 966 
C 3226 634 2886 435 2438 435 
C 1542 435 979 1178 979 2362 
C 979 3533 1574 4256 2458 4256 
C 2861 4256 3168 4077 3418 3814 
L 3738 4198 
C 3469 4499 3021 4774 2451 4774 
C 1261 4774 371 3859 371 2342 
C 371 819 1242 -83 2413 -83 
z
" transform="scale(0.015625)"/>
       <path id="NotoSansCJKjp-Regular-5f" d="M 83 -896 
L 3488 -896 
L 3488 -512 
L 83 -512 
L 83 -896 
z
" transform="scale(0.015625)"/>
       <path id="NotoSansCJKjp-Regular-41" d="M 26 0 
L 621 0 
L 1075 1434 
L 2790 1434 
L 3238 0 
L 3866 0 
L 2272 4691 
L 1613 4691 
L 26 0 
z
M 1222 1901 
L 1453 2624 
C 1619 3155 1773 3661 1920 4211 
L 1946 4211 
C 2099 3667 2246 3155 2419 2624 
L 2643 1901 
L 1222 1901 
z
" transform="scale(0.015625)"/>
       <path id="NotoSansCJKjp-Regular-2f" d="M 70 -1146 
L 499 -1146 
L 2413 5082 
L 1990 5082 
L 70 -1146 
z
" transform="scale(0.015625)"/>
       <path id="NotoSansCJKjp-Regular-4d" d="M 646 0 
L 1178 0 
L 1178 2598 
C 1178 3002 1139 3571 1101 3981 
L 1126 3981 
L 1504 2912 
L 2394 474 
L 2790 474 
L 3674 2912 
L 4051 3981 
L 4077 3981 
C 4045 3571 4000 3002 4000 2598 
L 4000 0 
L 4550 0 
L 4550 4691 
L 3840 4691 
L 2944 2182 
C 2835 1862 2739 1530 2618 1203 
L 2592 1203 
C 2477 1530 2374 1862 2253 2182 
L 1357 4691 
L 646 4691 
L 646 0 
z
" transform="scale(0.015625)"/>
       <path id="NotoSansCJKjp-Regular-8d8a" d="M 5050 5139 
C 5280 4902 5549 4570 5670 4346 
L 6016 4557 
C 5894 4768 5619 5088 5382 5318 
L 5050 5139 
z
M 5632 3443 
C 5491 2963 5293 2496 5050 2074 
C 4947 2554 4870 3162 4826 3853 
L 6144 3853 
L 6144 4262 
L 4800 4262 
C 4787 4614 4781 4986 4781 5376 
L 4326 5376 
C 4333 4992 4346 4621 4358 4262 
L 3200 4262 
L 3200 1414 
L 2643 1114 
L 2854 730 
C 3328 1005 3936 1370 4499 1715 
L 4371 2074 
L 3635 1658 
L 3635 3853 
L 4384 3853 
C 4448 2963 4550 2182 4723 1594 
C 4422 1203 4077 883 3699 666 
C 3789 589 3923 435 3994 326 
C 4320 538 4614 806 4883 1126 
C 5075 691 5318 435 5632 435 
C 6022 435 6170 710 6240 1600 
C 6131 1651 5984 1734 5888 1830 
C 5869 1158 5805 883 5683 883 
C 5498 883 5325 1120 5190 1536 
C 5542 2061 5818 2675 6010 3341 
L 5632 3443 
z
M 646 2483 
C 659 1626 602 557 134 -211 
C 237 -256 390 -397 461 -493 
C 704 -96 851 365 941 838 
C 1434 -122 2234 -346 3648 -346 
L 6010 -346 
C 6035 -205 6125 19 6202 128 
C 5824 115 3936 115 3642 115 
C 2976 115 2451 166 2042 352 
L 2042 1600 
L 2963 1600 
L 2963 2029 
L 2042 2029 
L 2042 2918 
L 3040 2918 
L 3040 3347 
L 1952 3347 
L 1952 4160 
L 2925 4160 
L 2925 4582 
L 1952 4582 
L 1952 5376 
L 1510 5376 
L 1510 4582 
L 525 4582 
L 525 4160 
L 1510 4160 
L 1510 3347 
L 282 3347 
L 282 2918 
L 1606 2918 
L 1606 634 
C 1357 864 1171 1184 1030 1632 
C 1050 1920 1056 2195 1050 2458 
L 646 2483 
z
" transform="scale(0.015625)"/>
       <path id="NotoSansCJKjp-Regular-5c0f" d="M 2970 5286 
L 2970 154 
C 2970 26 2918 -13 2790 -19 
C 2656 -26 2195 -32 1728 -13 
C 1805 -147 1894 -378 1926 -512 
C 2528 -518 2925 -506 3162 -422 
C 3392 -346 3488 -198 3488 154 
L 3488 5286 
L 2970 5286 
z
M 4512 3654 
C 5062 2733 5581 1536 5728 774 
L 6246 986 
C 6080 1754 5536 2931 4973 3827 
L 4512 3654 
z
M 1293 3782 
C 1133 2925 774 1818 205 1139 
C 339 1082 550 966 659 883 
C 1242 1594 1619 2752 1830 3693 
L 1293 3782 
z
" transform="scale(0.015625)"/>
       <path id="NotoSansCJKjp-Regular-597d" d="M 4160 3648 
L 4160 2797 
L 2643 2797 
L 2643 2342 
L 4160 2342 
L 4160 96 
C 4160 0 4122 -26 4013 -32 
C 3898 -38 3546 -38 3136 -26 
C 3206 -160 3290 -365 3315 -499 
C 3821 -499 4160 -486 4365 -416 
C 4570 -333 4634 -198 4634 96 
L 4634 2342 
L 6163 2342 
L 6163 2797 
L 4634 2797 
L 4634 3360 
C 5126 3750 5677 4326 6035 4845 
L 5715 5075 
L 5619 5050 
L 2861 5050 
L 2861 4602 
L 5267 4602 
C 5005 4269 4666 3904 4346 3648 
L 4160 3648 
z
M 1242 5376 
C 1171 4979 1082 4525 986 4058 
L 275 4058 
L 275 3603 
L 883 3603 
C 710 2803 518 2016 365 1466 
L 762 1248 
L 832 1517 
C 1056 1382 1280 1222 1498 1062 
C 1190 506 800 109 333 -141 
C 435 -237 563 -410 627 -525 
C 1126 -224 1542 198 1869 768 
C 2138 544 2368 320 2522 122 
L 2816 512 
C 2643 723 2381 960 2080 1197 
C 2394 1920 2592 2842 2675 4013 
L 2387 4070 
L 2304 4058 
L 1440 4058 
C 1536 4499 1626 4934 1702 5325 
L 1242 5376 
z
M 1338 3603 
L 2195 3603 
C 2106 2765 1939 2054 1696 1478 
C 1446 1651 1190 1818 947 1958 
C 1075 2458 1210 3034 1338 3603 
z
" transform="scale(0.015625)"/>
      </defs>
      <use xlink:href="#NotoSansCJKjp-Regular-45"/>
      <use xlink:href="#NotoSansCJKjp-Regular-43" x="58.899994"/>
      <use xlink:href="#NotoSansCJKjp-Regular-43" x="122.699982"/>
      <use xlink:href="#NotoSansCJKjp-Regular-5f" x="186.499969"/>
      <use xlink:href="#NotoSansCJKjp-Regular-41" x="242.399963"/>
      <use xlink:href="#NotoSansCJKjp-Regular-43" x="303.199951"/>
      <use xlink:href="#NotoSansCJKjp-Regular-20" x="366.999939"/>
      <use xlink:href="#NotoSansCJKjp-Regular-2f" x="389.399933"/>
      <use xlink:href="#NotoSansCJKjp-Regular-20" x="428.59993"/>
      <use xlink:href="#NotoSansCJKjp-Regular-45" x="450.999924"/>
      <use xlink:href="#NotoSansCJKjp-Regular-43" x="509.899918"/>
      <use xlink:href="#NotoSansCJKjp-Regular-43" x="573.699905"/>
      <use xlink:href="#NotoSansCJKjp-Regular-5f" x="637.499893"/>
      <use xlink:href="#NotoSansCJKjp-Regular-4d" x="693.399887"/>
      <use xlink:href="#NotoSansCJKjp-Regular-4d" x="774.599869"/>
      <use xlink:href="#NotoSansCJKjp-Regular-ff08" x="855.79985"/>
      <use xlink:href="#NotoSansCJKjp-Regular-8d8a" x="955.799835"/>
      <use xlink:href="#NotoSansCJKjp-Regular-5c0f" x="1055.79982"/>
      <use xlink:href="#NotoSansCJKjp-Regular-8d8a" x="1155.799805"/>
      <use xlink:href="#NotoSansCJKjp-Regular-597d" x="1255.799789"/>
      <use xlink:href="#NotoSansCJKjp-Regular-ff09" x="1355.799774"/>
     </g>
    </g>
   </g>
   <g id="line2d_13">
    <path d="M 42.429688 30.208393 
L 377.229688 30.208393 
" clip-path="url(#p45219891f4)" style="fill: none; stroke-dasharray: 5.55,2.4; stroke-dashoffset: 0; stroke: #1f77b4; stroke-width: 1.5"/>
   </g>
   <g id="patch_3">
    <path d="M 42.429688 299.95125 
L 42.429688 22.75125 
" style="fill: none; stroke: #000000; stroke-width: 0.8; stroke-linejoin: miter; stroke-linecap: square"/>
   </g>
   <g id="patch_4">
    <path d="M 377.229688 299.95125 
L 377.229688 22.75125 
" style="fill: none; stroke: #000000; stroke-width: 0.8; stroke-linejoin: miter; stroke-linecap: square"/>
   </g>
   <g id="patch_5">
    <path d="M 42.429688 299.95125 
L 377.229687 299.95125 
" style="fill: none; stroke: #000000; stroke-width: 0.8; stroke-linejoin: miter; stroke-linecap: square"/>
   </g>
   <g id="patch_6">
    <path d="M 42.429688 22.75125 
L 377.229687 22.75125 
" style="fill: none; stroke: #000000; stroke-width: 0.8; stroke-linejoin: miter; stroke-linecap: square"/>
   </g>
   <g id="text_15">
    <!-- 相邻快照越相似，AC越有效（Se vs 比值） -->
    <g transform="translate(96.831875 16.75125) scale(0.12 -0.12)">
     <defs>
      <path id="NotoSansCJKjp-Regular-90bb" d="M 1651 3507 
C 1875 3270 2150 2944 2278 2733 
L 2630 2976 
C 2502 3181 2234 3482 1990 3712 
L 1651 3507 
z
M 4000 5037 
L 4000 -499 
L 4442 -499 
L 4442 4595 
L 5466 4595 
C 5293 4090 5043 3411 4800 2867 
C 5376 2291 5536 1818 5536 1421 
C 5536 1197 5498 992 5370 915 
C 5299 870 5203 851 5107 845 
C 4979 845 4800 845 4614 864 
C 4691 730 4736 531 4742 410 
C 4928 397 5133 397 5293 416 
C 5446 435 5587 474 5690 544 
C 5901 691 5984 998 5984 1376 
C 5984 1818 5843 2323 5267 2925 
C 5536 3520 5837 4250 6061 4845 
L 5734 5056 
L 5658 5037 
L 4000 5037 
z
M 2029 5382 
C 1677 4608 1005 3776 224 3232 
C 333 3155 493 2995 570 2906 
C 1158 3347 1677 3917 2080 4544 
C 2592 4090 3181 3514 3469 3136 
L 3770 3514 
C 3469 3891 2835 4474 2298 4915 
L 2470 5248 
L 2029 5382 
z
M 813 2470 
L 813 2042 
L 2784 2042 
C 2554 1594 2214 1056 1933 685 
C 1734 870 1536 1056 1350 1210 
L 1018 960 
C 1504 531 2093 -70 2368 -461 
L 2726 -160 
C 2611 -6 2438 186 2240 384 
C 2611 883 3123 1658 3405 2304 
L 3091 2496 
L 3008 2470 
L 813 2470 
z
" transform="scale(0.015625)"/>
      <path id="NotoSansCJKjp-Regular-5feb" d="M 1088 5376 
L 1088 -506 
L 1568 -506 
L 1568 5376 
L 1088 5376 
z
M 512 4141 
C 467 3622 352 2918 179 2496 
L 557 2362 
C 730 2829 845 3571 877 4090 
L 512 4141 
z
M 1581 4198 
C 1773 3814 1978 3309 2054 3002 
L 2413 3181 
C 2336 3482 2118 3974 1920 4346 
L 1581 4198 
z
M 5152 2438 
L 4160 2438 
C 4186 2714 4192 2982 4192 3245 
L 4192 3904 
L 5152 3904 
L 5152 2438 
z
M 3712 5376 
L 3712 4358 
L 2458 4358 
L 2458 3904 
L 3712 3904 
L 3712 3245 
C 3712 2989 3706 2714 3680 2438 
L 2112 2438 
L 2112 1971 
L 3616 1971 
C 3450 1184 3027 397 1901 -166 
C 2010 -256 2176 -435 2240 -538 
C 3315 58 3802 851 4019 1664 
C 4390 659 4986 -134 5888 -531 
C 5958 -390 6118 -186 6234 -83 
C 5338 243 4723 1024 4378 1971 
L 6176 1971 
L 6176 2438 
L 5626 2438 
L 5626 4358 
L 4192 4358 
L 4192 5376 
L 3712 5376 
z
" transform="scale(0.015625)"/>
      <path id="NotoSansCJKjp-Regular-7167" d="M 3379 2605 
L 5254 2605 
L 5254 1632 
L 3379 1632 
L 3379 2605 
z
M 2931 3008 
L 2931 1229 
L 5728 1229 
L 5728 3008 
L 2931 3008 
z
M 2176 800 
C 2253 378 2304 -160 2310 -486 
L 2778 -416 
C 2771 -96 2701 435 2618 845 
L 2176 800 
z
M 3546 819 
C 3712 403 3872 -147 3936 -474 
L 4410 -371 
C 4346 -32 4166 499 3994 902 
L 3546 819 
z
M 4851 851 
C 5158 429 5510 -160 5664 -525 
L 6118 -320 
C 5958 45 5594 614 5286 1030 
L 4851 851 
z
M 1114 986 
C 902 512 563 -19 275 -339 
L 736 -544 
C 1030 -179 1350 378 1574 851 
L 1114 986 
z
M 1050 4672 
L 2010 4672 
L 2010 3546 
L 1050 3546 
L 1050 4672 
z
M 1050 1869 
L 1050 3123 
L 2010 3123 
L 2010 1869 
L 1050 1869 
z
M 595 5101 
L 595 1107 
L 1050 1107 
L 1050 1434 
L 2458 1434 
L 2458 5101 
L 595 5101 
z
M 2739 5114 
L 2739 4685 
L 3808 4685 
C 3680 4090 3379 3680 2534 3450 
C 2630 3373 2752 3200 2803 3091 
C 3776 3392 4141 3910 4282 4685 
L 5427 4685 
C 5382 4077 5338 3827 5254 3744 
C 5210 3699 5152 3693 5062 3693 
C 4960 3693 4698 3693 4416 3718 
C 4486 3610 4531 3443 4538 3322 
C 4832 3302 5120 3309 5267 3315 
C 5434 3328 5542 3366 5645 3469 
C 5779 3616 5843 3994 5901 4928 
C 5907 4992 5914 5114 5914 5114 
L 2739 5114 
z
" transform="scale(0.015625)"/>
      <path id="NotoSansCJKjp-Regular-ff0c" d="M 1005 -685 
C 1677 -448 2112 77 2112 768 
C 2112 1216 1920 1504 1568 1504 
C 1306 1504 1082 1344 1082 1043 
C 1082 742 1299 589 1562 589 
L 1670 602 
C 1638 160 1357 -141 864 -346 
L 1005 -685 
z
" transform="scale(0.015625)"/>
      <path id="NotoSansCJKjp-Regular-6709" d="M 2502 5376 
C 2426 5101 2336 4819 2221 4544 
L 403 4544 
L 403 4096 
L 2022 4096 
C 1613 3251 1024 2470 256 1946 
C 346 1856 499 1683 563 1574 
C 966 1862 1325 2208 1632 2598 
L 1632 -506 
L 2106 -506 
L 2106 762 
L 4787 762 
L 4787 96 
C 4787 0 4755 -38 4646 -38 
C 4525 -45 4134 -51 3712 -32 
C 3776 -166 3846 -365 3872 -493 
C 4422 -493 4774 -493 4986 -422 
C 5197 -339 5261 -192 5261 90 
L 5261 3354 
L 2150 3354 
C 2298 3597 2426 3840 2541 4096 
L 6010 4096 
L 6010 4544 
L 2733 4544 
C 2829 4781 2912 5024 2989 5261 
L 2502 5376 
z
M 2106 1850 
L 4787 1850 
L 4787 1178 
L 2106 1178 
L 2106 1850 
z
M 2106 2259 
L 2106 2918 
L 4787 2918 
L 4787 2259 
L 2106 2259 
z
" transform="scale(0.015625)"/>
      <path id="NotoSansCJKjp-Regular-6548" d="M 1050 3859 
C 864 3392 557 2925 218 2598 
C 326 2534 518 2394 602 2317 
C 934 2669 1286 3213 1504 3744 
L 1050 3859 
z
M 2195 3661 
C 2470 3354 2771 2918 2893 2643 
L 3277 2874 
C 3149 3155 2842 3565 2560 3866 
L 2195 3661 
z
M 1626 5350 
L 1626 4506 
L 275 4506 
L 275 4070 
L 3482 4070 
L 3482 4506 
L 2093 4506 
L 2093 5350 
L 1626 5350 
z
M 774 2182 
C 1075 1933 1389 1632 1677 1331 
C 1312 717 845 211 269 -147 
C 378 -237 563 -422 634 -518 
C 1171 -134 1632 365 2010 966 
C 2278 659 2509 358 2656 109 
L 3046 435 
C 2867 717 2586 1062 2259 1408 
C 2445 1773 2605 2170 2733 2592 
L 2259 2701 
C 2163 2368 2048 2054 1907 1760 
C 1651 2016 1382 2253 1126 2464 
L 774 2182 
z
M 4166 3738 
L 5261 3738 
C 5146 2931 4966 2246 4691 1677 
C 4442 2266 4262 2944 4141 3661 
L 4166 3738 
z
M 4064 5376 
C 3885 4256 3571 3162 3053 2470 
C 3168 2400 3360 2227 3437 2144 
C 3590 2368 3731 2624 3859 2912 
C 4000 2278 4179 1696 4416 1184 
C 4051 634 3558 205 2886 -109 
C 2982 -211 3123 -416 3168 -525 
C 3795 -198 4282 211 4659 717 
C 4973 198 5357 -224 5843 -518 
C 5920 -390 6067 -211 6176 -122 
C 5664 154 5261 595 4947 1158 
C 5338 1850 5581 2694 5741 3738 
L 6150 3738 
L 6150 4186 
L 4294 4186 
C 4390 4544 4467 4922 4538 5306 
L 4064 5376 
z
" transform="scale(0.015625)"/>
      <path id="NotoSansCJKjp-Regular-76" d="M 1338 0 
L 2022 0 
L 3251 3475 
L 2675 3475 
L 2016 1498 
C 1914 1158 1798 806 1696 474 
L 1664 474 
C 1562 806 1453 1158 1344 1498 
L 691 3475 
L 83 3475 
L 1338 0 
z
" transform="scale(0.015625)"/>
      <path id="NotoSansCJKjp-Regular-73" d="M 1498 -83 
C 2317 -83 2758 384 2758 947 
C 2758 1606 2208 1811 1702 2003 
C 1312 2150 954 2278 954 2605 
C 954 2880 1158 3110 1600 3110 
C 1907 3110 2150 2976 2387 2803 
L 2669 3168 
C 2406 3386 2022 3565 1594 3565 
C 832 3565 397 3130 397 2579 
C 397 1984 922 1754 1408 1574 
C 1792 1434 2202 1267 2202 915 
C 2202 614 1978 371 1517 371 
C 1101 371 794 538 486 787 
L 205 397 
C 531 122 1005 -83 1498 -83 
z
" transform="scale(0.015625)"/>
      <path id="NotoSansCJKjp-Regular-6bd4" d="M 250 128 
L 397 -371 
C 1197 -179 2278 77 3290 326 
L 3245 787 
C 2694 659 2125 525 1600 410 
L 1600 2925 
L 3046 2925 
L 3046 3398 
L 1600 3398 
L 1600 5344 
L 1107 5344 
L 1107 301 
L 250 128 
z
M 3520 5344 
L 3520 512 
C 3520 -186 3693 -371 4320 -371 
C 4448 -371 5261 -371 5395 -371 
C 6003 -371 6138 -13 6202 1037 
C 6061 1069 5869 1152 5747 1248 
C 5709 320 5670 83 5370 83 
C 5190 83 4506 83 4371 83 
C 4064 83 4013 147 4013 499 
L 4013 2586 
C 4691 2874 5414 3219 5952 3571 
L 5594 3974 
C 5216 3674 4608 3328 4013 3046 
L 4013 5344 
L 3520 5344 
z
" transform="scale(0.015625)"/>
      <path id="NotoSansCJKjp-Regular-503c" d="M 3834 5376 
C 3814 5184 3782 4954 3750 4723 
L 2106 4723 
L 2106 4294 
L 3674 4294 
C 3635 4077 3597 3872 3552 3699 
L 2445 3699 
L 2445 90 
L 1830 90 
L 1830 -326 
L 6131 -326 
L 6131 90 
L 5562 90 
L 5562 3699 
L 3987 3699 
C 4038 3872 4090 4077 4134 4294 
L 5939 4294 
L 5939 4723 
L 4230 4723 
L 4346 5344 
L 3834 5376 
z
M 2880 90 
L 2880 621 
L 5114 621 
L 5114 90 
L 2880 90 
z
M 2880 2426 
L 5114 2426 
L 5114 1875 
L 2880 1875 
L 2880 2426 
z
M 2880 2784 
L 2880 3322 
L 5114 3322 
L 5114 2784 
L 2880 2784 
z
M 2880 1530 
L 5114 1530 
L 5114 973 
L 2880 973 
L 2880 1530 
z
M 1690 5370 
C 1350 4397 794 3443 205 2816 
C 288 2701 422 2451 474 2342 
C 659 2547 845 2784 1018 3040 
L 1018 -512 
L 1466 -512 
L 1466 3770 
C 1722 4230 1946 4730 2131 5229 
L 1690 5370 
z
" transform="scale(0.015625)"/>
     </defs>
     <use xlink:href="#NotoSansCJKjp-Regular-76f8"/>
     <use xlink:href="#NotoSansCJKjp-Regular-90bb" x="99.999985"/>
     <use xlink:href="#NotoSansCJKjp-Regular-5feb" x="199.999969"/>
     <use xlink:href="#NotoSansCJKjp-Regular-7167" x="299.999954"/>
     <use xlink:href="#NotoSansCJKjp-Regular-8d8a" x="399.999939"/>
     <use xlink:href="#NotoSansCJKjp-Regular-76f8" x="499.999924"/>
     <use xlink:href="#NotoSansCJKjp-Regular-4f3c" x="599.999908"/>
     <use xlink:href="#NotoSansCJKjp-Regular-ff0c" x="699.999893"/>
     <use xlink:href="#NotoSansCJKjp-Regular-41" x="799.999878"/>
     <use xlink:href="#NotoSansCJKjp-Regular-43" x="860.799866"/>
     <use xlink:href="#NotoSansCJKjp-Regular-8d8a" x="924.599854"/>
     <use xlink:href="#NotoSansCJKjp-Regular-6709" x="1024.599838"/>
     <use xlink:href="#NotoSansCJKjp-Regular-6548" x="1124.599823"/>
     <use xlink:href="#NotoSansCJKjp-Regular-ff08" x="1224.599808"/>
     <use xlink:href="#NotoSansCJKjp-Regular-53" x="1324.599792"/>
     <use xlink:href="#NotoSansCJKjp-Regular-65" x="1384.199783"/>
     <use xlink:href="#NotoSansCJKjp-Regular-20" x="1439.599777"/>
     <use xlink:href="#NotoSansCJKjp-Regular-76" x="1461.999771"/>
     <use xlink:href="#NotoSansCJKjp-Regular-73" x="1514.099762"/>
     <use xlink:href="#NotoSansCJKjp-Regular-20" x="1560.89975"/>
     <use xlink:href="#NotoSansCJKjp-Regular-6bd4" x="1583.299744"/>
     <use xlink:href="#NotoSansCJKjp-Regular-503c" x="1683.299728"/>
     <use xlink:href="#NotoSansCJKjp-Regular-ff09" x="1783.299713"/>
    </g>
   </g>
  </g>
 </g>
 <defs>
  <clipPath id="p45219891f4">
   <rect x="42.429688" y="22.75125" width="334.8" height="277.2"/>
  </clipPath>
 </defs>
</svg>
