<?xml version="1.0" encoding="utf-8" standalone="no"?>
<!DOCTYPE svg PUBLIC "-//W3C//DTD SVG 1.1//EN"
  "http://www.w3.org/Graphics/SVG/1.1/DTD/svg11.dtd">
<svg xmlns:xlink="http://www.w3.org/1999/xlink" width="384.429687pt" height="280.934375pt" viewBox="0 0 384.429687 280.934375" xmlns="http://www.w3.org/2000/svg" version="1.1">
 <metadata>
  <rdf:RDF xmlns:dc="http://purl.org/dc/elements/1.1/" xmlns:cc="http://creativecommons.org/ns#" xmlns:rdf="http://www.w3.org/1999/02/22-rdf-syntax-ns#">
   <cc:Work>
    <dc:type rdf:resource="http://purl.org/dc/dcmitype/StillImage"/>
    <dc:date>2026-02-15T17:58:42.970467</dc:date>
    <dc:format>image/svg+xml</dc:format>
    <dc:creator>
     <cc:Agent>
      <dc:title>Matplotlib v3.7.5, https://matplotlib.org/</dc:title>
     </cc:Agent>
    </dc:creator>
   </cc:Work>
  </rdf:RDF>
 </metadata>
 <defs>
  <style type="text/css">*{stroke-linejoin: round; stroke-linecap: butt}</style>
 </defs>
 <g id="figure_1">
  <g id="patch_1">
   <path d="M 0 280.934375 
L 384.429687 280.934375 
L 384.429687 0 
L 0 0 
z
" style="fill: #ffffff"/>
  </g>
  <g id="axes_1">
   <g id="patch_2">
    <path d="M 42.429688 244.51125 
L 377.229688 244.51125 
L 377.229688 22.75125 
L 42.429688 22.75125 
z
" style="fill: #ffffff"/>
   </g>
   <g id="patch_3">
    <path d="M 57.647869 244.51125 
L 192.920597 244.51125 
L 192.920597 111.45525 
L 57.647869 111.45525 
z
" clip-path="url(#p8315b20970)" style="fill: #1f77b4"/>
   </g>
   <g id="patch_4">
    <path d="M 226.738778 244.51125 
L 362.011506 244.51125 
L 362.011506 89.27925 
L 226.738778 89.27925 
z
" clip-path="url(#p8315b20970)" style="fill: #1f77b4"/>
   </g>
   <g id="matplotlib.axis_1">
    <g id="xtick_1">
     <g id="line2d_1">
      <defs>
       <path id="m6b44b50f65" d="M 0 0 
L 0 3.5 
" style="stroke: #000000; stroke-width: 0.8"/>
      </defs>
      <g>
       <use xlink:href="#m6b44b50f65" x="125.284233" y="244.51125" style="stroke: #000000; stroke-width: 0.8"/>
      </g>
     </g>
     <g id="text_1">
      <!-- SF模型动态网络 -->
      <g transform="translate(89.544389 259.470625) scale(0.1 -0.1)">
       <defs>
        <path id="NotoSansCJKjp-Regular-53" d="M 1946 -83 
C 2925 -83 3539 506 3539 1248 
C 3539 1946 3117 2266 2573 2502 
L 1907 2790 
C 1542 2944 1126 3117 1126 3578 
C 1126 3994 1472 4256 2003 4256 
C 2438 4256 2784 4090 3072 3821 
L 3379 4198 
C 3053 4538 2560 4774 2003 4774 
C 1152 4774 525 4256 525 3533 
C 525 2848 1043 2515 1478 2330 
L 2150 2035 
C 2598 1837 2938 1683 2938 1197 
C 2938 742 2573 435 1952 435 
C 1466 435 992 666 659 1018 
L 307 608 
C 710 186 1280 -83 1946 -83 
z
" transform="scale(0.015625)"/>
        <path id="NotoSansCJKjp-Regular-46" d="M 646 0 
L 1235 0 
L 1235 2106 
L 3027 2106 
L 3027 2605 
L 1235 2605 
L 1235 4192 
L 3347 4192 
L 3347 4691 
L 646 4691 
L 646 0 
z
" transform="scale(0.015625)"/>
        <path id="NotoSansCJKjp-Regular-6a21" d="M 3021 2669 
L 5248 2669 
L 5248 2208 
L 3021 2208 
L 3021 2669 
z
M 3021 3469 
L 5248 3469 
L 5248 3021 
L 3021 3021 
L 3021 3469 
z
M 4685 5376 
L 4685 4845 
L 3699 4845 
L 3699 5376 
L 3245 5376 
L 3245 4845 
L 2304 4845 
L 2304 4435 
L 3245 4435 
L 3245 3955 
L 3699 3955 
L 3699 4435 
L 4685 4435 
L 4685 3955 
L 5152 3955 
L 5152 4435 
L 6048 4435 
L 6048 4845 
L 5152 4845 
L 5152 5376 
L 4685 5376 
z
M 2573 3834 
L 2573 1850 
L 3878 1850 
C 3853 1658 3827 1485 3782 1318 
L 2176 1318 
L 2176 909 
L 3642 909 
C 3398 416 2938 77 1997 -128 
C 2086 -224 2208 -403 2253 -512 
C 3366 -243 3885 218 4141 896 
C 4461 192 5056 -288 5888 -512 
C 5952 -390 6080 -211 6182 -115 
C 5459 38 4909 390 4602 909 
L 6035 909 
L 6035 1318 
L 4262 1318 
C 4294 1485 4326 1664 4346 1850 
L 5715 1850 
L 5715 3834 
L 2573 3834 
z
M 1120 5376 
L 1120 4141 
L 320 4141 
L 320 3693 
L 1120 3693 
L 1120 3686 
C 947 2816 576 1798 205 1261 
C 288 1146 403 934 461 794 
C 704 1171 934 1754 1120 2381 
L 1120 -506 
L 1581 -506 
L 1581 2790 
C 1754 2451 1952 2042 2035 1830 
L 2342 2176 
C 2234 2374 1747 3174 1581 3424 
L 1581 3693 
L 2240 3693 
L 2240 4141 
L 1581 4141 
L 1581 5376 
L 1120 5376 
z
" transform="scale(0.015625)"/>
        <path id="NotoSansCJKjp-Regular-578b" d="M 4064 5011 
L 4064 2867 
L 4506 2867 
L 4506 5011 
L 4064 5011 
z
M 5261 5338 
L 5261 2477 
C 5261 2394 5235 2368 5133 2362 
C 5037 2355 4717 2355 4352 2368 
C 4422 2240 4486 2054 4512 1926 
C 4966 1926 5280 1933 5472 2010 
C 5664 2080 5715 2202 5715 2470 
L 5715 5338 
L 5261 5338 
z
M 2483 4691 
L 2483 3808 
L 1690 3808 
L 1690 3846 
L 1690 4691 
L 2483 4691 
z
M 429 3808 
L 429 3379 
L 1210 3379 
C 1139 2950 928 2515 378 2176 
C 467 2112 627 1933 691 1843 
C 1344 2246 1587 2822 1658 3379 
L 2483 3379 
L 2483 2003 
L 2938 2003 
L 2938 3379 
L 3667 3379 
L 3667 3808 
L 2938 3808 
L 2938 4691 
L 3533 4691 
L 3533 5114 
L 640 5114 
L 640 4691 
L 1248 4691 
L 1248 3853 
L 1248 3808 
L 429 3808 
z
M 2989 2125 
L 2989 1414 
L 966 1414 
L 966 973 
L 2989 973 
L 2989 160 
L 301 160 
L 301 -288 
L 6093 -288 
L 6093 160 
L 3482 160 
L 3482 973 
L 5427 973 
L 5427 1414 
L 3482 1414 
L 3482 2125 
L 2989 2125 
z
" transform="scale(0.015625)"/>
        <path id="NotoSansCJKjp-Regular-52a8" d="M 570 4851 
L 570 4422 
L 3046 4422 
L 3046 4851 
L 570 4851 
z
M 4179 5267 
C 4179 4813 4179 4352 4160 3898 
L 3245 3898 
L 3245 3437 
L 4141 3437 
C 4064 1978 3808 640 2931 -160 
C 3059 -230 3226 -390 3309 -506 
C 4250 390 4525 1850 4614 3437 
L 5568 3437 
C 5498 1165 5414 314 5242 122 
C 5178 45 5107 26 4992 26 
C 4858 26 4518 26 4160 64 
C 4243 -77 4294 -275 4307 -410 
C 4646 -435 4998 -435 5197 -416 
C 5402 -397 5530 -339 5658 -173 
C 5882 109 5958 1018 6048 3654 
C 6048 3725 6048 3898 6048 3898 
L 4634 3898 
C 4646 4352 4653 4813 4653 5267 
L 4179 5267 
z
M 570 282 
L 576 288 
L 576 275 
C 723 365 954 435 2733 838 
L 2854 410 
L 3277 550 
C 3155 998 2867 1760 2624 2336 
L 2227 2227 
C 2355 1926 2483 1574 2598 1242 
L 1075 922 
C 1325 1498 1568 2214 1728 2886 
L 3162 2886 
L 3162 3328 
L 346 3328 
L 346 2886 
L 1235 2886 
C 1069 2138 800 1382 710 1171 
C 602 928 518 755 416 723 
C 474 608 544 378 570 282 
z
" transform="scale(0.015625)"/>
        <path id="NotoSansCJKjp-Regular-6001" d="M 2438 2618 
C 2816 2400 3270 2067 3475 1830 
L 3904 2106 
C 3667 2349 3219 2669 2842 2874 
L 2438 2618 
z
M 1728 1542 
L 1728 288 
C 1728 -237 1920 -371 2662 -371 
C 2822 -371 3994 -371 4160 -371 
C 4774 -371 4928 -173 4992 634 
C 4858 666 4659 736 4557 819 
C 4518 160 4467 64 4128 64 
C 3866 64 2880 64 2688 64 
C 2272 64 2202 102 2202 288 
L 2202 1542 
L 1728 1542 
z
M 2624 1696 
C 2989 1357 3437 883 3635 576 
L 4032 838 
C 3814 1139 3360 1594 2989 1914 
L 2624 1696 
z
M 4800 1504 
C 5120 960 5446 230 5555 -224 
L 6016 -58 
C 5894 397 5555 1107 5222 1638 
L 4800 1504 
z
M 986 1542 
C 864 1030 640 378 346 -38 
L 781 -256 
C 1062 179 1274 870 1414 1402 
L 986 1542 
z
M 2982 5402 
C 2950 5088 2912 4774 2842 4474 
L 358 4474 
L 358 4026 
L 2714 4026 
C 2413 3194 1779 2502 288 2131 
C 390 2022 512 1837 563 1722 
C 2221 2170 2906 3014 3226 4026 
C 3706 2874 4544 2099 5805 1754 
C 5875 1888 6016 2086 6131 2195 
C 4979 2458 4166 3104 3725 4026 
L 6067 4026 
L 6067 4474 
L 3341 4474 
C 3405 4774 3450 5082 3482 5402 
L 2982 5402 
z
" transform="scale(0.015625)"/>
        <path id="NotoSansCJKjp-Regular-7f51" d="M 563 4992 
L 563 -499 
L 1030 -499 
L 1030 4531 
L 2304 4531 
C 2278 3955 2246 3411 2182 2912 
C 1971 3142 1747 3360 1536 3558 
L 1274 3270 
C 1549 3008 1837 2701 2099 2387 
C 1952 1568 1696 883 1254 378 
C 1357 314 1555 166 1626 90 
C 2029 595 2285 1222 2451 1965 
C 2656 1709 2829 1459 2950 1254 
L 3238 1594 
C 3078 1850 2835 2170 2554 2502 
C 2650 3110 2707 3789 2746 4531 
L 4006 4531 
C 3987 3994 3962 3488 3910 3021 
C 3706 3232 3494 3443 3290 3629 
L 3021 3341 
C 3290 3085 3571 2790 3834 2483 
C 3693 1606 3430 890 2950 365 
C 3059 301 3258 154 3328 77 
C 3763 602 4026 1261 4192 2054 
C 4435 1747 4646 1459 4794 1216 
L 5088 1562 
C 4902 1856 4614 2221 4288 2598 
C 4371 3181 4416 3827 4448 4531 
L 5402 4531 
L 5402 109 
C 5402 0 5357 -32 5248 -38 
C 5139 -38 4768 -45 4384 -32 
C 4448 -160 4525 -371 4550 -493 
C 5088 -499 5408 -486 5606 -410 
C 5798 -333 5869 -179 5869 109 
L 5869 4992 
L 563 4992 
z
" transform="scale(0.015625)"/>
        <path id="NotoSansCJKjp-Regular-7edc" d="M 262 320 
L 378 -160 
C 966 32 1754 269 2502 499 
L 2432 915 
C 1626 685 806 454 262 320 
z
M 3648 5459 
C 3386 4768 2944 4102 2451 3648 
L 2509 3744 
L 2086 4006 
C 1971 3782 1837 3552 1702 3334 
L 883 3251 
C 1267 3789 1645 4474 1933 5133 
L 1472 5350 
C 1210 4595 742 3776 589 3558 
C 454 3347 339 3200 218 3174 
C 275 3046 358 2803 384 2707 
C 474 2752 627 2790 1408 2893 
C 1126 2490 870 2163 755 2042 
C 557 1805 403 1651 269 1626 
C 320 1498 397 1267 422 1165 
C 563 1254 781 1325 2362 1702 
C 2342 1805 2336 1997 2349 2125 
L 1165 1869 
C 1600 2368 2029 2970 2406 3571 
C 2496 3482 2637 3296 2694 3213 
C 2893 3398 3091 3622 3277 3872 
C 3462 3558 3706 3270 3987 3008 
C 3507 2688 2957 2445 2394 2278 
C 2464 2182 2566 1965 2605 1837 
C 3213 2035 3814 2330 4346 2714 
C 4819 2355 5382 2067 5984 1875 
C 6010 2003 6093 2202 6170 2310 
C 5626 2458 5126 2688 4691 2982 
C 5210 3424 5632 3962 5907 4602 
L 5626 4781 
L 5542 4762 
L 3827 4762 
C 3923 4947 4013 5139 4090 5331 
L 3648 5459 
z
M 2982 1894 
L 2982 -454 
L 3430 -454 
L 3430 -134 
L 5248 -134 
L 5248 -442 
L 5709 -442 
L 5709 1894 
L 2982 1894 
z
M 3430 294 
L 3430 1466 
L 5248 1466 
L 5248 294 
L 3430 294 
z
M 5267 4326 
C 5037 3917 4717 3565 4333 3258 
C 4000 3546 3725 3878 3533 4250 
L 3584 4326 
L 5267 4326 
z
" transform="scale(0.015625)"/>
       </defs>
       <use xlink:href="#NotoSansCJKjp-Regular-53"/>
       <use xlink:href="#NotoSansCJKjp-Regular-46" x="59.599991"/>
       <use xlink:href="#NotoSansCJKjp-Regular-6a21" x="114.799988"/>
       <use xlink:href="#NotoSansCJKjp-Regular-578b" x="214.799973"/>
       <use xlink:href="#NotoSansCJKjp-Regular-52a8" x="314.799957"/>
       <use xlink:href="#NotoSansCJKjp-Regular-6001" x="414.799942"/>
       <use xlink:href="#NotoSansCJKjp-Regular-7f51" x="514.799927"/>
       <use xlink:href="#NotoSansCJKjp-Regular-7edc" x="614.799911"/>
      </g>
      <!-- (平均比值) -->
      <g transform="translate(101.904545 271.44375) scale(0.1 -0.1)">
       <defs>
        <path id="NotoSansCJKjp-Regular-28" d="M 1530 -1254 
L 1888 -1094 
C 1338 -186 1075 902 1075 1990 
C 1075 3072 1338 4154 1888 5069 
L 1530 5235 
C 941 4275 589 3245 589 1990 
C 589 730 941 -301 1530 -1254 
z
" transform="scale(0.015625)"/>
        <path id="NotoSansCJKjp-Regular-5e73" d="M 1114 4032 
C 1363 3558 1613 2938 1702 2554 
L 2157 2714 
C 2067 3085 1805 3699 1549 4160 
L 1114 4032 
z
M 4832 4192 
C 4672 3725 4378 3072 4134 2669 
L 4550 2534 
C 4800 2918 5101 3533 5338 4051 
L 4832 4192 
z
M 333 2227 
L 333 1747 
L 2938 1747 
L 2938 -506 
L 3437 -506 
L 3437 1747 
L 6074 1747 
L 6074 2227 
L 3437 2227 
L 3437 4467 
L 5715 4467 
L 5715 4947 
L 672 4947 
L 672 4467 
L 2938 4467 
L 2938 2227 
L 333 2227 
z
" transform="scale(0.015625)"/>
        <path id="NotoSansCJKjp-Regular-5747" d="M 2803 3021 
L 2803 2579 
L 4794 2579 
L 4794 3021 
L 2803 3021 
z
M 2509 954 
L 2707 506 
C 3334 742 4173 1075 4954 1389 
L 4870 1805 
C 4000 1478 3091 1146 2509 954 
z
M 3245 5376 
C 3002 4480 2586 3610 2054 3053 
C 2176 2982 2381 2835 2477 2746 
C 2726 3046 2970 3430 3181 3853 
L 5542 3853 
C 5459 1254 5357 269 5152 51 
C 5075 -32 5005 -58 4877 -51 
C 4723 -51 4326 -51 3898 -13 
C 3981 -154 4045 -358 4058 -499 
C 4442 -518 4838 -531 5062 -506 
C 5293 -486 5440 -429 5587 -237 
C 5843 77 5939 1101 6029 4058 
C 6035 4128 6035 4314 6035 4314 
L 3392 4314 
C 3526 4621 3635 4941 3731 5267 
L 3245 5376 
z
M 218 1030 
L 390 550 
C 986 794 1773 1126 2509 1440 
L 2406 1894 
L 1606 1568 
L 1606 3430 
L 2362 3430 
L 2362 3885 
L 1606 3885 
L 1606 5338 
L 1139 5338 
L 1139 3885 
L 333 3885 
L 333 3430 
L 1139 3430 
L 1139 1382 
C 794 1248 474 1120 218 1030 
z
" transform="scale(0.015625)"/>
        <path id="NotoSansCJKjp-Regular-6bd4" d="M 250 128 
L 397 -371 
C 1197 -179 2278 77 3290 326 
L 3245 787 
C 2694 659 2125 525 1600 410 
L 1600 2925 
L 3046 2925 
L 3046 3398 
L 1600 3398 
L 1600 5344 
L 1107 5344 
L 1107 301 
L 250 128 
z
M 3520 5344 
L 3520 512 
C 3520 -186 3693 -371 4320 -371 
C 4448 -371 5261 -371 5395 -371 
C 6003 -371 6138 -13 6202 1037 
C 6061 1069 5869 1152 5747 1248 
C 5709 320 5670 83 5370 83 
C 5190 83 4506 83 4371 83 
C 4064 83 4013 147 4013 499 
L 4013 2586 
C 4691 2874 5414 3219 5952 3571 
L 5594 3974 
C 5216 3674 4608 3328 4013 3046 
L 4013 5344 
L 3520 5344 
z
" transform="scale(0.015625)"/>
        <path id="NotoSansCJKjp-Regular-503c" d="M 3834 5376 
C 3814 5184 3782 4954 3750 4723 
L 2106 4723 
L 2106 4294 
L 3674 4294 
C 3635 4077 3597 3872 3552 3699 
L 2445 3699 
L 2445 90 
L 1830 90 
L 1830 -326 
L 6131 -326 
L 6131 90 
L 5562 90 
L 5562 3699 
L 3987 3699 
C 4038 3872 4090 4077 4134 4294 
L 5939 4294 
L 5939 4723 
L 4230 4723 
L 4346 5344 
L 3834 5376 
z
M 2880 90 
L 2880 621 
L 5114 621 
L 5114 90 
L 2880 90 
z
M 2880 2426 
L 5114 2426 
L 5114 1875 
L 2880 1875 
L 2880 2426 
z
M 2880 2784 
L 2880 3322 
L 5114 3322 
L 5114 2784 
L 2880 2784 
z
M 2880 1530 
L 5114 1530 
L 5114 973 
L 2880 973 
L 2880 1530 
z
M 1690 5370 
C 1350 4397 794 3443 205 2816 
C 288 2701 422 2451 474 2342 
C 659 2547 845 2784 1018 3040 
L 1018 -512 
L 1466 -512 
L 1466 3770 
C 1722 4230 1946 4730 2131 5229 
L 1690 5370 
z
" transform="scale(0.015625)"/>
        <path id="NotoSansCJKjp-Regular-29" d="M 634 -1254 
C 1222 -301 1574 730 1574 1990 
C 1574 3245 1222 4275 634 5235 
L 269 5069 
C 819 4154 1094 3072 1094 1990 
C 1094 902 819 -186 269 -1094 
L 634 -1254 
z
" transform="scale(0.015625)"/>
       </defs>
       <use xlink:href="#NotoSansCJKjp-Regular-28"/>
       <use xlink:href="#NotoSansCJKjp-Regular-5e73" x="33.799988"/>
       <use xlink:href="#NotoSansCJKjp-Regular-5747" x="133.799973"/>
       <use xlink:href="#NotoSansCJKjp-Regular-6bd4" x="233.799957"/>
       <use xlink:href="#NotoSansCJKjp-Regular-503c" x="333.799942"/>
       <use xlink:href="#NotoSansCJKjp-Regular-29" x="433.799927"/>
      </g>
     </g>
    </g>
    <g id="xtick_2">
     <g id="line2d_2">
      <g>
       <use xlink:href="#m6b44b50f65" x="294.375142" y="244.51125" style="stroke: #000000; stroke-width: 0.8"/>
      </g>
     </g>
     <g id="text_2">
      <!-- ER模型动态网络 -->
      <g transform="translate(258.25483 259.470625) scale(0.1 -0.1)">
       <defs>
        <path id="NotoSansCJKjp-Regular-45" d="M 646 0 
L 3418 0 
L 3418 506 
L 1235 506 
L 1235 2214 
L 3014 2214 
L 3014 2720 
L 1235 2720 
L 1235 4192 
L 3347 4192 
L 3347 4691 
L 646 4691 
L 646 0 
z
" transform="scale(0.015625)"/>
        <path id="NotoSansCJKjp-Regular-52" d="M 1235 2464 
L 1235 4211 
L 2022 4211 
C 2758 4211 3162 3994 3162 3379 
C 3162 2765 2758 2464 2022 2464 
L 1235 2464 
z
M 3219 0 
L 3885 0 
L 2694 2054 
C 3328 2208 3750 2643 3750 3379 
C 3750 4352 3066 4691 2112 4691 
L 646 4691 
L 646 0 
L 1235 0 
L 1235 1990 
L 2080 1990 
L 3219 0 
z
" transform="scale(0.015625)"/>
       </defs>
       <use xlink:href="#NotoSansCJKjp-Regular-45"/>
       <use xlink:href="#NotoSansCJKjp-Regular-52" x="58.899994"/>
       <use xlink:href="#NotoSansCJKjp-Regular-6a21" x="122.399979"/>
       <use xlink:href="#NotoSansCJKjp-Regular-578b" x="222.399963"/>
       <use xlink:href="#NotoSansCJKjp-Regular-52a8" x="322.399948"/>
       <use xlink:href="#NotoSansCJKjp-Regular-6001" x="422.399933"/>
       <use xlink:href="#NotoSansCJKjp-Regular-7f51" x="522.399918"/>
       <use xlink:href="#NotoSansCJKjp-Regular-7edc" x="622.399902"/>
      </g>
      <!-- (平均比值) -->
      <g transform="translate(270.995455 271.44375) scale(0.1 -0.1)">
       <use xlink:href="#NotoSansCJKjp-Regular-28"/>
       <use xlink:href="#NotoSansCJKjp-Regular-5e73" x="33.799988"/>
       <use xlink:href="#NotoSansCJKjp-Regular-5747" x="133.799973"/>
       <use xlink:href="#NotoSansCJKjp-Regular-6bd4" x="233.799957"/>
       <use xlink:href="#NotoSansCJKjp-Regular-503c" x="333.799942"/>
       <use xlink:href="#NotoSansCJKjp-Regular-29" x="433.799927"/>
      </g>
     </g>
    </g>
   </g>
   <g id="matplotlib.axis_2">
    <g id="ytick_1">
     <g id="line2d_3">
      <defs>
       <path id="mb0bfc08700" d="M 0 0 
L -3.5 0 
" style="stroke: #000000; stroke-width: 0.8"/>
      </defs>
      <g>
       <use xlink:href="#mb0bfc08700" x="42.429688" y="244.51125" style="stroke: #000000; stroke-width: 0.8"/>
      </g>
     </g>
     <g id="text_3">
      <!-- 0.0 -->
      <g transform="translate(21.55 248.490937) scale(0.1 -0.1)">
       <defs>
        <path id="NotoSansCJKjp-Regular-30" d="M 1779 -83 
C 2669 -83 3238 723 3238 2362 
C 3238 3987 2669 4774 1779 4774 
C 883 4774 320 3987 320 2362 
C 320 723 883 -83 1779 -83 
z
M 1779 390 
C 1248 390 883 986 883 2362 
C 883 3731 1248 4314 1779 4314 
C 2310 4314 2675 3731 2675 2362 
C 2675 986 2310 390 1779 390 
z
" transform="scale(0.015625)"/>
        <path id="NotoSansCJKjp-Regular-2e" d="M 890 -83 
C 1120 -83 1312 96 1312 358 
C 1312 627 1120 806 890 806 
C 653 806 467 627 467 358 
C 467 96 653 -83 890 -83 
z
" transform="scale(0.015625)"/>
       </defs>
       <use xlink:href="#NotoSansCJKjp-Regular-30"/>
       <use xlink:href="#NotoSansCJKjp-Regular-2e" x="55.499985"/>
       <use xlink:href="#NotoSansCJKjp-Regular-30" x="83.299973"/>
      </g>
     </g>
    </g>
    <g id="ytick_2">
     <g id="line2d_4">
      <g>
       <use xlink:href="#mb0bfc08700" x="42.429688" y="207.55125" style="stroke: #000000; stroke-width: 0.8"/>
      </g>
     </g>
     <g id="text_4">
      <!-- 0.2 -->
      <g transform="translate(21.55 211.530937) scale(0.1 -0.1)">
       <defs>
        <path id="NotoSansCJKjp-Regular-32" d="M 282 0 
L 3232 0 
L 3232 506 
L 1933 506 
C 1696 506 1408 480 1165 461 
C 2266 1504 3008 2458 3008 3398 
C 3008 4230 2477 4774 1638 4774 
C 1043 4774 634 4506 256 4090 
L 595 3757 
C 858 4070 1184 4301 1568 4301 
C 2150 4301 2432 3910 2432 3373 
C 2432 2566 1754 1632 282 346 
L 282 0 
z
" transform="scale(0.015625)"/>
       </defs>
       <use xlink:href="#NotoSansCJKjp-Regular-30"/>
       <use xlink:href="#NotoSansCJKjp-Regular-2e" x="55.499985"/>
       <use xlink:href="#NotoSansCJKjp-Regular-32" x="83.299973"/>
      </g>
     </g>
    </g>
    <g id="ytick_3">
     <g id="line2d_5">
      <g>
       <use xlink:href="#mb0bfc08700" x="42.429688" y="170.59125" style="stroke: #000000; stroke-width: 0.8"/>
      </g>
     </g>
     <g id="text_5">
      <!-- 0.4 -->
      <g transform="translate(21.55 174.570937) scale(0.1 -0.1)">
       <defs>
        <path id="NotoSansCJKjp-Regular-34" d="M 2176 0 
L 2726 0 
L 2726 1293 
L 3354 1293 
L 3354 1760 
L 2726 1760 
L 2726 4691 
L 2080 4691 
L 128 1677 
L 128 1293 
L 2176 1293 
L 2176 0 
z
M 2176 1760 
L 736 1760 
L 1805 3360 
C 1939 3590 2067 3827 2182 4051 
L 2208 4051 
C 2195 3814 2176 3430 2176 3200 
L 2176 1760 
z
" transform="scale(0.015625)"/>
       </defs>
       <use xlink:href="#NotoSansCJKjp-Regular-30"/>
       <use xlink:href="#NotoSansCJKjp-Regular-2e" x="55.499985"/>
       <use xlink:href="#NotoSansCJKjp-Regular-34" x="83.299973"/>
      </g>
     </g>
    </g>
    <g id="ytick_4">
     <g id="line2d_6">
      <g>
       <use xlink:href="#mb0bfc08700" x="42.429688" y="133.63125" style="stroke: #000000; stroke-width: 0.8"/>
      </g>
     </g>
     <g id="text_6">
      <!-- 0.6 -->
      <g transform="translate(21.55 137.610937) scale(0.1 -0.1)">
       <defs>
        <path id="NotoSansCJKjp-Regular-36" d="M 1926 -83 
C 2656 -83 3277 531 3277 1440 
C 3277 2426 2765 2912 1971 2912 
C 1606 2912 1197 2701 909 2349 
C 934 3802 1466 4294 2118 4294 
C 2400 4294 2682 4154 2861 3936 
L 3194 4294 
C 2931 4576 2579 4774 2093 4774 
C 1184 4774 358 4077 358 2240 
C 358 691 1030 -83 1926 -83 
z
M 922 1882 
C 1229 2317 1587 2477 1875 2477 
C 2445 2477 2720 2074 2720 1440 
C 2720 800 2374 378 1926 378 
C 1338 378 986 909 922 1882 
z
" transform="scale(0.015625)"/>
       </defs>
       <use xlink:href="#NotoSansCJKjp-Regular-30"/>
       <use xlink:href="#NotoSansCJKjp-Regular-2e" x="55.499985"/>
       <use xlink:href="#NotoSansCJKjp-Regular-36" x="83.299973"/>
      </g>
     </g>
    </g>
    <g id="ytick_5">
     <g id="line2d_7">
      <g>
       <use xlink:href="#mb0bfc08700" x="42.429688" y="96.67125" style="stroke: #000000; stroke-width: 0.8"/>
      </g>
     </g>
     <g id="text_7">
      <!-- 0.8 -->
      <g transform="translate(21.55 100.650937) scale(0.1 -0.1)">
       <defs>
        <path id="NotoSansCJKjp-Regular-38" d="M 1792 -83 
C 2669 -83 3258 448 3258 1126 
C 3258 1773 2880 2125 2470 2362 
L 2470 2394 
C 2746 2611 3091 3034 3091 3526 
C 3091 4250 2605 4762 1805 4762 
C 1075 4762 518 4282 518 3571 
C 518 3078 813 2726 1152 2490 
L 1152 2464 
C 723 2234 294 1792 294 1165 
C 294 442 922 -83 1792 -83 
z
M 2112 2547 
C 1555 2765 1050 3014 1050 3571 
C 1050 4026 1363 4326 1798 4326 
C 2298 4326 2592 3962 2592 3494 
C 2592 3149 2426 2829 2112 2547 
z
M 1798 352 
C 1235 352 813 717 813 1216 
C 813 1664 1082 2035 1459 2278 
C 2125 2010 2701 1779 2701 1146 
C 2701 678 2342 352 1798 352 
z
" transform="scale(0.015625)"/>
       </defs>
       <use xlink:href="#NotoSansCJKjp-Regular-30"/>
       <use xlink:href="#NotoSansCJKjp-Regular-2e" x="55.499985"/>
       <use xlink:href="#NotoSansCJKjp-Regular-38" x="83.299973"/>
      </g>
     </g>
    </g>
    <g id="ytick_6">
     <g id="line2d_8">
      <g>
       <use xlink:href="#mb0bfc08700" x="42.429688" y="59.71125" style="stroke: #000000; stroke-width: 0.8"/>
      </g>
     </g>
     <g id="text_8">
      <!-- 1.0 -->
      <g transform="translate(21.55 63.690937) scale(0.1 -0.1)">
       <defs>
        <path id="NotoSansCJKjp-Regular-31" d="M 563 0 
L 3136 0 
L 3136 486 
L 2195 486 
L 2195 4691 
L 1747 4691 
C 1491 4544 1190 4435 774 4358 
L 774 3987 
L 1613 3987 
L 1613 486 
L 563 486 
L 563 0 
z
" transform="scale(0.015625)"/>
       </defs>
       <use xlink:href="#NotoSansCJKjp-Regular-31"/>
       <use xlink:href="#NotoSansCJKjp-Regular-2e" x="55.499985"/>
       <use xlink:href="#NotoSansCJKjp-Regular-30" x="83.299973"/>
      </g>
     </g>
    </g>
    <g id="ytick_7">
     <g id="line2d_9">
      <g>
       <use xlink:href="#mb0bfc08700" x="42.429688" y="22.75125" style="stroke: #000000; stroke-width: 0.8"/>
      </g>
     </g>
     <g id="text_9">
      <!-- 1.2 -->
      <g transform="translate(21.55 26.730937) scale(0.1 -0.1)">
       <use xlink:href="#NotoSansCJKjp-Regular-31"/>
       <use xlink:href="#NotoSansCJKjp-Regular-2e" x="55.499985"/>
       <use xlink:href="#NotoSansCJKjp-Regular-32" x="83.299973"/>
      </g>
     </g>
    </g>
    <g id="text_10">
     <!-- ECC_AC / ECC_MM（越小越好） -->
     <g transform="translate(15.259375 206.422656) rotate(-90) scale(0.1 -0.1)">
      <defs>
       <path id="NotoSansCJKjp-Regular-43" d="M 2413 -83 
C 3021 -83 3482 160 3853 589 
L 3526 966 
C 3226 634 2886 435 2438 435 
C 1542 435 979 1178 979 2362 
C 979 3533 1574 4256 2458 4256 
C 2861 4256 3168 4077 3418 3814 
L 3738 4198 
C 3469 4499 3021 4774 2451 4774 
C 1261 4774 371 3859 371 2342 
C 371 819 1242 -83 2413 -83 
z
" transform="scale(0.015625)"/>
       <path id="NotoSansCJKjp-Regular-5f" d="M 83 -896 
L 3488 -896 
L 3488 -512 
L 83 -512 
L 83 -896 
z
" transform="scale(0.015625)"/>
       <path id="NotoSansCJKjp-Regular-41" d="M 26 0 
L 621 0 
L 1075 1434 
L 2790 1434 
L 3238 0 
L 3866 0 
L 2272 4691 
L 1613 4691 
L 26 0 
z
M 1222 1901 
L 1453 2624 
C 1619 3155 1773 3661 1920 4211 
L 1946 4211 
C 2099 3667 2246 3155 2419 2624 
L 2643 1901 
L 1222 1901 
z
" transform="scale(0.015625)"/>
       <path id="NotoSansCJKjp-Regular-20" transform="scale(0.015625)"/>
       <path id="NotoSansCJKjp-Regular-2f" d="M 70 -1146 
L 499 -1146 
L 2413 5082 
L 1990 5082 
L 70 -1146 
z
" transform="scale(0.015625)"/>
       <path id="NotoSansCJKjp-Regular-4d" d="M 646 0 
L 1178 0 
L 1178 2598 
C 1178 3002 1139 3571 1101 3981 
L 1126 3981 
L 1504 2912 
L 2394 474 
L 2790 474 
L 3674 2912 
L 4051 3981 
L 4077 3981 
C 4045 3571 4000 3002 4000 2598 
L 4000 0 
L 4550 0 
L 4550 4691 
L 3840 4691 
L 2944 2182 
C 2835 1862 2739 1530 2618 1203 
L 2592 1203 
C 2477 1530 2374 1862 2253 2182 
L 1357 4691 
L 646 4691 
L 646 0 
z
" transform="scale(0.015625)"/>
       <path id="NotoSansCJKjp-Regular-ff08" d="M 4448 2432 
C 4448 1184 4954 166 5722 -614 
L 6106 -416 
C 5370 346 4915 1293 4915 2432 
C 4915 3571 5370 4518 6106 5280 
L 5722 5478 
C 4954 4698 4448 3680 4448 2432 
z
" transform="scale(0.015625)"/>
       <path id="NotoSansCJKjp-Regular-8d8a" d="M 5050 5139 
C 5280 4902 5549 4570 5670 4346 
L 6016 4557 
C 5894 4768 5619 5088 5382 5318 
L 5050 5139 
z
M 5632 3443 
C 5491 2963 5293 2496 5050 2074 
C 4947 2554 4870 3162 4826 3853 
L 6144 3853 
L 6144 4262 
L 4800 4262 
C 4787 4614 4781 4986 4781 5376 
L 4326 5376 
C 4333 4992 4346 4621 4358 4262 
L 3200 4262 
L 3200 1414 
L 2643 1114 
L 2854 730 
C 3328 1005 3936 1370 4499 1715 
L 4371 2074 
L 3635 1658 
L 3635 3853 
L 4384 3853 
C 4448 2963 4550 2182 4723 1594 
C 4422 1203 4077 883 3699 666 
C 3789 589 3923 435 3994 326 
C 4320 538 4614 806 4883 1126 
C 5075 691 5318 435 5632 435 
C 6022 435 6170 710 6240 1600 
C 6131 1651 5984 1734 5888 1830 
C 5869 1158 5805 883 5683 883 
C 5498 883 5325 1120 5190 1536 
C 5542 2061 5818 2675 6010 3341 
L 5632 3443 
z
M 646 2483 
C 659 1626 602 557 134 -211 
C 237 -256 390 -397 461 -493 
C 704 -96 851 365 941 838 
C 1434 -122 2234 -346 3648 -346 
L 6010 -346 
C 6035 -205 6125 19 6202 128 
C 5824 115 3936 115 3642 115 
C 2976 115 2451 166 2042 352 
L 2042 1600 
L 2963 1600 
L 2963 2029 
L 2042 2029 
L 2042 2918 
L 3040 2918 
L 3040 3347 
L 1952 3347 
L 1952 4160 
L 2925 4160 
L 2925 4582 
L 1952 4582 
L 1952 5376 
L 1510 5376 
L 1510 4582 
L 525 4582 
L 525 4160 
L 1510 4160 
L 1510 3347 
L 282 3347 
L 282 2918 
L 1606 2918 
L 1606 634 
C 1357 864 1171 1184 1030 1632 
C 1050 1920 1056 2195 1050 2458 
L 646 2483 
z
" transform="scale(0.015625)"/>
       <path id="NotoSansCJKjp-Regular-5c0f" d="M 2970 5286 
L 2970 154 
C 2970 26 2918 -13 2790 -19 
C 2656 -26 2195 -32 1728 -13 
C 1805 -147 1894 -378 1926 -512 
C 2528 -518 2925 -506 3162 -422 
C 3392 -346 3488 -198 3488 154 
L 3488 5286 
L 2970 5286 
z
M 4512 3654 
C 5062 2733 5581 1536 5728 774 
L 6246 986 
C 6080 1754 5536 2931 4973 3827 
L 4512 3654 
z
M 1293 3782 
C 1133 2925 774 1818 205 1139 
C 339 1082 550 966 659 883 
C 1242 1594 1619 2752 1830 3693 
L 1293 3782 
z
" transform="scale(0.015625)"/>
       <path id="NotoSansCJKjp-Regular-597d" d="M 4160 3648 
L 4160 2797 
L 2643 2797 
L 2643 2342 
L 4160 2342 
L 4160 96 
C 4160 0 4122 -26 4013 -32 
C 3898 -38 3546 -38 3136 -26 
C 3206 -160 3290 -365 3315 -499 
C 3821 -499 4160 -486 4365 -416 
C 4570 -333 4634 -198 4634 96 
L 4634 2342 
L 6163 2342 
L 6163 2797 
L 4634 2797 
L 4634 3360 
C 5126 3750 5677 4326 6035 4845 
L 5715 5075 
L 5619 5050 
L 2861 5050 
L 2861 4602 
L 5267 4602 
C 5005 4269 4666 3904 4346 3648 
L 4160 3648 
z
M 1242 5376 
C 1171 4979 1082 4525 986 4058 
L 275 4058 
L 275 3603 
L 883 3603 
C 710 2803 518 2016 365 1466 
L 762 1248 
L 832 1517 
C 1056 1382 1280 1222 1498 1062 
C 1190 506 800 109 333 -141 
C 435 -237 563 -410 627 -525 
C 1126 -224 1542 198 1869 768 
C 2138 544 2368 320 2522 122 
L 2816 512 
C 2643 723 2381 960 2080 1197 
C 2394 1920 2592 2842 2675 4013 
L 2387 4070 
L 2304 4058 
L 1440 4058 
C 1536 4499 1626 4934 1702 5325 
L 1242 5376 
z
M 1338 3603 
L 2195 3603 
C 2106 2765 1939 2054 1696 1478 
C 1446 1651 1190 1818 947 1958 
C 1075 2458 1210 3034 1338 3603 
z
" transform="scale(0.015625)"/>
       <path id="NotoSansCJKjp-Regular-ff09" d="M 1952 2432 
C 1952 3680 1446 4698 678 5478 
L 294 5280 
C 1030 4518 1485 3571 1485 2432 
C 1485 1293 1030 346 294 -416 
L 678 -614 
C 1446 166 1952 1184 1952 2432 
z
" transform="scale(0.015625)"/>
      </defs>
      <use xlink:href="#NotoSansCJKjp-Regular-45"/>
      <use xlink:href="#NotoSansCJKjp-Regular-43" x="58.899994"/>
      <use xlink:href="#NotoSansCJKjp-Regular-43" x="122.699982"/>
      <use xlink:href="#NotoSansCJKjp-Regular-5f" x="186.499969"/>
      <use xlink:href="#NotoSansCJKjp-Regular-41" x="242.399963"/>
      <use xlink:href="#NotoSansCJKjp-Regular-43" x="303.199951"/>
      <use xlink:href="#NotoSansCJKjp-Regular-20" x="366.999939"/>
      <use xlink:href="#NotoSansCJKjp-Regular-2f" x="389.399933"/>
      <use xlink:href="#NotoSansCJKjp-Regular-20" x="428.59993"/>
      <use xlink:href="#NotoSansCJKjp-Regular-45" x="450.999924"/>
      <use xlink:href="#NotoSansCJKjp-Regular-43" x="509.899918"/>
      <use xlink:href="#NotoSansCJKjp-Regular-43" x="573.699905"/>
      <use xlink:href="#NotoSansCJKjp-Regular-5f" x="637.499893"/>
      <use xlink:href="#NotoSansCJKjp-Regular-4d" x="693.399887"/>
      <use xlink:href="#NotoSansCJKjp-Regular-4d" x="774.599869"/>
      <use xlink:href="#NotoSansCJKjp-Regular-ff08" x="855.79985"/>
      <use xlink:href="#NotoSansCJKjp-Regular-8d8a" x="955.799835"/>
      <use xlink:href="#NotoSansCJKjp-Regular-5c0f" x="1055.79982"/>
      <use xlink:href="#NotoSansCJKjp-Regular-8d8a" x="1155.799805"/>
      <use xlink:href="#NotoSansCJKjp-Regular-597d" x="1255.799789"/>
      <use xlink:href="#NotoSansCJKjp-Regular-ff09" x="1355.799774"/>
     </g>
    </g>
   </g>
   <g id="line2d_10">
    <path d="M 42.429688 59.71125 
L 377.229688 59.71125 
" clip-path="url(#p8315b20970)" style="fill: none; stroke-dasharray: 5.55,2.4; stroke-dashoffset: 0; stroke: #1f77b4; stroke-width: 1.5"/>
   </g>
   <g id="patch_5">
    <path d="M 42.429688 244.51125 
L 42.429688 22.75125 
" style="fill: none; stroke: #000000; stroke-width: 0.8; stroke-linejoin: miter; stroke-linecap: square"/>
   </g>
   <g id="patch_6">
    <path d="M 377.229688 244.51125 
L 377.229688 22.75125 
" style="fill: none; stroke: #000000; stroke-width: 0.8; stroke-linejoin: miter; stroke-linecap: square"/>
   </g>
   <g id="patch_7">
    <path d="M 42.429688 244.51125 
L 377.229688 244.51125 
" style="fill: none; stroke: #000000; stroke-width: 0.8; stroke-linejoin: miter; stroke-linecap: square"/>
   </g>
   <g id="patch_8">
    <path d="M 42.429688 22.75125 
L 377.229688 22.75125 
" style="fill: none; stroke: #000000; stroke-width: 0.8; stroke-linejoin: miter; stroke-linecap: square"/>
   </g>
   <g id="text_11">
    <!-- 0.72 -->
    <g transform="translate(115.569389 105.91125) scale(0.1 -0.1)">
     <defs>
      <path id="NotoSansCJKjp-Regular-37" d="M 1267 0 
L 1875 0 
C 1952 1837 2150 2931 3251 4339 
L 3251 4691 
L 314 4691 
L 314 4192 
L 2592 4192 
C 1670 2912 1350 1779 1267 0 
z
" transform="scale(0.015625)"/>
     </defs>
     <use xlink:href="#NotoSansCJKjp-Regular-30"/>
     <use xlink:href="#NotoSansCJKjp-Regular-2e" x="55.499985"/>
     <use xlink:href="#NotoSansCJKjp-Regular-37" x="83.299973"/>
     <use xlink:href="#NotoSansCJKjp-Regular-32" x="138.799957"/>
    </g>
   </g>
   <g id="text_12">
    <!-- 0.84 -->
    <g transform="translate(284.660298 83.73525) scale(0.1 -0.1)">
     <use xlink:href="#NotoSansCJKjp-Regular-30"/>
     <use xlink:href="#NotoSansCJKjp-Regular-2e" x="55.499985"/>
     <use xlink:href="#NotoSansCJKjp-Regular-38" x="83.299973"/>
     <use xlink:href="#NotoSansCJKjp-Regular-34" x="138.799957"/>
    </g>
   </g>
   <g id="text_13">
    <!-- 论文还报告：在更稳定的网络(r&lt;0.1)上， -->
    <g transform="translate(128.79875 220.704) scale(0.09 -0.09)">
     <defs>
      <path id="NotoSansCJKjp-Regular-8bba" d="M 685 4915 
C 1075 4595 1568 4141 1798 3846 
L 2125 4211 
C 1882 4493 1376 4934 986 5235 
L 685 4915 
z
M 3981 5389 
C 3667 4621 3008 3680 2016 3021 
C 2125 2944 2272 2771 2342 2662 
C 3142 3226 3731 3930 4147 4627 
C 4621 3885 5306 3142 5914 2714 
C 5990 2835 6144 3008 6253 3091 
C 5587 3501 4819 4307 4384 5062 
L 4499 5299 
L 3981 5389 
z
M 5158 2733 
C 4704 2400 4006 2010 3424 1722 
L 3424 3021 
L 2944 3021 
L 2944 397 
C 2944 -186 3136 -339 3827 -339 
C 3974 -339 5005 -339 5158 -339 
C 5773 -339 5920 -96 5984 794 
C 5850 819 5651 902 5542 986 
C 5504 230 5453 96 5133 96 
C 4902 96 4032 96 3859 96 
C 3488 96 3424 141 3424 390 
L 3424 1235 
C 4064 1523 4883 1946 5478 2330 
L 5158 2733 
z
M 1216 -384 
L 1216 -378 
C 1306 -243 1485 -102 2534 742 
C 2477 832 2400 1018 2355 1146 
L 1722 653 
L 1722 3366 
L 256 3366 
L 256 2899 
L 1261 2899 
L 1261 582 
C 1261 269 1062 58 954 -38 
C 1030 -109 1165 -282 1216 -384 
z
" transform="scale(0.015625)"/>
      <path id="NotoSansCJKjp-Regular-6587" d="M 2944 5376 
L 2944 4288 
L 320 4288 
L 320 3821 
L 1274 3821 
C 1638 2797 2138 1920 2803 1216 
C 2118 653 1274 237 250 -58 
C 346 -173 499 -403 557 -518 
C 1594 -186 2458 262 3162 864 
C 3878 230 4755 -237 5824 -512 
C 5907 -378 6061 -154 6176 -45 
C 5133 198 4262 640 3558 1229 
C 4230 1914 4742 2758 5120 3821 
L 6106 3821 
L 6106 4288 
L 3437 4288 
L 3437 5376 
L 2944 5376 
z
M 3187 1574 
C 2579 2195 2118 2950 1798 3821 
L 4563 3821 
C 4230 2912 3782 2170 3187 1574 
z
" transform="scale(0.015625)"/>
      <path id="NotoSansCJKjp-Regular-8fd8" d="M 4333 3117 
C 4800 2656 5414 2016 5709 1638 
L 6067 1978 
C 5760 2342 5139 2957 4678 3398 
L 4333 3117 
z
M 525 5018 
C 877 4685 1306 4218 1510 3917 
L 1901 4224 
C 1690 4512 1248 4960 896 5280 
L 525 5018 
z
M 2080 4941 
L 2080 4461 
L 4019 4461 
C 3514 3437 2714 2560 1798 2003 
C 1914 1914 2093 1715 2163 1626 
C 2714 1990 3238 2477 3686 3046 
L 3686 422 
L 4179 422 
L 4179 3750 
C 4320 3974 4454 4218 4570 4461 
L 5939 4461 
L 5939 4941 
L 2080 4941 
z
M 1587 3206 
L 269 3206 
L 269 2733 
L 1107 2733 
L 1107 742 
C 826 627 499 326 154 -58 
L 512 -525 
C 826 -77 1126 333 1331 333 
C 1472 333 1690 102 1958 -77 
C 2419 -371 2963 -442 3795 -442 
C 4442 -442 5626 -403 6080 -371 
C 6093 -224 6170 32 6234 166 
C 5587 96 4608 38 3814 38 
C 3066 38 2502 83 2080 358 
C 1856 499 1709 627 1587 704 
L 1587 3206 
z
" transform="scale(0.015625)"/>
      <path id="NotoSansCJKjp-Regular-62a5" d="M 2707 5158 
L 2707 -499 
L 3187 -499 
L 3187 2528 
L 3379 2528 
C 3622 1856 3955 1235 4371 710 
C 4051 352 3667 51 3219 -173 
C 3334 -262 3475 -416 3546 -525 
C 3981 -294 4358 6 4685 358 
C 5024 0 5408 -288 5830 -493 
C 5907 -371 6054 -179 6163 -90 
C 5734 96 5338 378 4992 723 
C 5453 1344 5773 2086 5939 2880 
L 5626 2982 
L 5536 2970 
L 3187 2970 
L 3187 4710 
L 5229 4710 
C 5203 4134 5165 3885 5088 3802 
C 5030 3757 4960 3750 4819 3750 
C 4691 3750 4275 3757 3853 3789 
C 3923 3680 3981 3514 3987 3392 
C 4416 3366 4819 3360 5024 3373 
C 5235 3386 5376 3424 5491 3539 
C 5632 3686 5690 4051 5728 4954 
C 5734 5024 5734 5158 5734 5158 
L 2707 5158 
z
M 3834 2528 
L 5363 2528 
C 5216 2016 4986 1517 4672 1082 
C 4320 1510 4038 2003 3834 2528 
z
M 1210 5376 
L 1210 4083 
L 301 4083 
L 301 3616 
L 1210 3616 
L 1210 2253 
L 205 1990 
L 333 1498 
L 1210 1754 
L 1210 83 
C 1210 -26 1171 -51 1062 -58 
C 973 -58 640 -64 282 -51 
C 352 -186 416 -384 435 -512 
C 947 -512 1248 -499 1434 -422 
C 1619 -346 1696 -211 1696 90 
L 1696 1901 
L 2470 2131 
L 2413 2592 
L 1696 2387 
L 1696 3616 
L 2426 3616 
L 2426 4083 
L 1696 4083 
L 1696 5376 
L 1210 5376 
z
" transform="scale(0.015625)"/>
      <path id="NotoSansCJKjp-Regular-544a" d="M 1587 5325 
C 1344 4595 934 3866 467 3405 
C 582 3347 806 3219 902 3142 
C 1114 3379 1318 3680 1510 4013 
L 3091 4013 
L 3091 3002 
L 390 3002 
L 390 2554 
L 6029 2554 
L 6029 3002 
L 3590 3002 
L 3590 4013 
L 5555 4013 
L 5555 4454 
L 3590 4454 
L 3590 5376 
L 3091 5376 
L 3091 4454 
L 1747 4454 
C 1869 4698 1978 4947 2067 5203 
L 1587 5325 
z
M 1184 1914 
L 1184 -570 
L 1664 -570 
L 1664 -205 
L 4787 -205 
L 4787 -557 
L 5286 -557 
L 5286 1914 
L 1184 1914 
z
M 1664 243 
L 1664 1472 
L 4787 1472 
L 4787 243 
L 1664 243 
z
" transform="scale(0.015625)"/>
      <path id="NotoSansCJKjp-Regular-ff1a" d="M 3200 3482 
C 3456 3482 3686 3667 3686 3962 
C 3686 4256 3456 4442 3200 4442 
C 2944 4442 2714 4256 2714 3962 
C 2714 3667 2944 3482 3200 3482 
z
M 3200 346 
C 3456 346 3686 538 3686 826 
C 3686 1120 3456 1312 3200 1312 
C 2944 1312 2714 1120 2714 826 
C 2714 538 2944 346 3200 346 
z
" transform="scale(0.015625)"/>
      <path id="NotoSansCJKjp-Regular-5728" d="M 2502 5376 
C 2413 5050 2298 4710 2163 4384 
L 403 4384 
L 403 3923 
L 1952 3923 
C 1542 3104 979 2342 243 1830 
C 320 1722 442 1517 493 1389 
C 762 1581 1011 1798 1235 2035 
L 1235 -486 
L 1715 -486 
L 1715 2605 
C 2016 3014 2278 3462 2496 3923 
L 6010 3923 
L 6010 4384 
L 2694 4384 
C 2810 4672 2912 4966 3002 5254 
L 2502 5376 
z
M 3827 3590 
L 3827 2355 
L 2387 2355 
L 2387 1907 
L 3827 1907 
L 3827 90 
L 2131 90 
L 2131 -358 
L 6003 -358 
L 6003 90 
L 4307 90 
L 4307 1907 
L 5760 1907 
L 5760 2355 
L 4307 2355 
L 4307 3590 
L 3827 3590 
z
" transform="scale(0.015625)"/>
      <path id="NotoSansCJKjp-Regular-66f4" d="M 1613 1523 
L 1203 1357 
C 1421 986 1690 691 2003 454 
C 1613 230 1062 45 301 -96 
C 403 -205 531 -410 589 -518 
C 1421 -339 2016 -102 2445 179 
C 3328 -288 4506 -435 5997 -493 
C 6022 -333 6112 -128 6202 -19 
C 4768 19 3661 115 2835 486 
C 3168 813 3341 1184 3418 1581 
L 5587 1581 
L 5587 4058 
L 3488 4058 
L 3488 4602 
L 5984 4602 
L 5984 5037 
L 416 5037 
L 416 4602 
L 2989 4602 
L 2989 4058 
L 998 4058 
L 998 1581 
L 2912 1581 
C 2835 1274 2688 986 2394 730 
C 2086 934 1824 1190 1613 1523 
z
M 1459 2630 
L 2989 2630 
L 2989 2374 
C 2989 2240 2989 2106 2976 1978 
L 1459 1978 
L 1459 2630 
z
M 3475 1978 
C 3482 2106 3488 2234 3488 2368 
L 3488 2630 
L 5107 2630 
L 5107 1978 
L 3475 1978 
z
M 1459 3654 
L 2989 3654 
L 2989 3014 
L 1459 3014 
L 1459 3654 
z
M 3488 3654 
L 5107 3654 
L 5107 3014 
L 3488 3014 
L 3488 3654 
z
" transform="scale(0.015625)"/>
      <path id="NotoSansCJKjp-Regular-7a33" d="M 3142 1197 
L 3142 141 
C 3142 -294 3277 -410 3814 -410 
C 3930 -410 4614 -410 4730 -410 
C 5165 -410 5293 -237 5338 454 
C 5216 486 5037 550 4941 614 
C 4922 51 4883 -19 4685 -19 
C 4538 -19 3974 -19 3866 -19 
C 3616 -19 3578 6 3578 147 
L 3578 1197 
L 3142 1197 
z
M 3776 1370 
C 4019 1120 4301 774 4435 550 
L 4787 768 
C 4646 986 4352 1318 4115 1562 
L 3776 1370 
z
M 5184 1120 
C 5408 723 5658 179 5754 -141 
L 6163 6 
C 6048 326 5792 851 5562 1242 
L 5184 1120 
z
M 2566 1197 
C 2438 845 2214 326 2003 6 
L 2381 -198 
C 2586 147 2790 666 2938 1024 
L 2566 1197 
z
M 3418 5408 
C 3213 4934 2816 4365 2234 3949 
C 2330 3885 2458 3738 2522 3635 
L 2714 3789 
L 2714 3533 
L 5210 3533 
L 5210 3002 
L 2803 3002 
L 2803 2618 
L 5210 2618 
L 5210 2067 
L 2630 2067 
L 2630 1664 
L 5651 1664 
L 5651 3936 
L 4813 3936 
C 5005 4192 5203 4499 5344 4774 
L 5050 4966 
L 4973 4941 
L 3661 4941 
C 3738 5069 3808 5203 3866 5331 
L 3418 5408 
z
M 2874 3936 
C 3078 4134 3258 4339 3411 4557 
L 4730 4557 
C 4614 4346 4461 4115 4320 3936 
L 2874 3936 
z
M 2131 5325 
C 1722 5126 1030 4941 422 4819 
C 480 4710 550 4550 570 4448 
C 794 4486 1024 4531 1261 4582 
L 1261 3539 
L 358 3539 
L 358 3091 
L 1190 3091 
C 966 2368 582 1530 211 1069 
C 301 947 422 742 474 602 
C 749 986 1037 1587 1261 2208 
L 1261 -518 
L 1709 -518 
L 1709 2362 
C 1882 2067 2067 1715 2150 1523 
L 2458 1926 
C 2349 2086 1882 2746 1709 2944 
L 1709 3091 
L 2445 3091 
L 2445 3539 
L 1709 3539 
L 1709 4691 
C 1978 4762 2227 4845 2438 4941 
L 2131 5325 
z
" transform="scale(0.015625)"/>
      <path id="NotoSansCJKjp-Regular-5b9a" d="M 1421 2413 
C 1286 1248 934 333 224 -218 
C 339 -294 538 -461 621 -544 
C 1037 -179 1350 307 1574 896 
C 2163 -198 3117 -422 4454 -422 
L 5952 -422 
C 5971 -282 6061 -51 6131 64 
C 5818 58 4717 58 4480 58 
C 4109 58 3757 77 3443 134 
L 3443 1440 
L 5350 1440 
L 5350 1888 
L 3443 1888 
L 3443 2957 
L 5088 2957 
L 5088 3418 
L 1350 3418 
L 1350 2957 
L 2944 2957 
L 2944 269 
C 2419 461 2016 832 1760 1504 
C 1824 1766 1882 2054 1920 2355 
L 1421 2413 
z
M 525 4640 
L 525 3245 
L 998 3245 
L 998 4186 
L 5382 4186 
L 5382 3245 
L 5875 3245 
L 5875 4640 
L 3443 4640 
L 3443 5376 
L 2938 5376 
L 2938 4640 
L 525 4640 
z
" transform="scale(0.015625)"/>
      <path id="NotoSansCJKjp-Regular-7684" d="M 3533 2707 
C 3885 2240 4320 1600 4512 1210 
L 4922 1466 
C 4710 1843 4269 2464 3904 2918 
L 3533 2707 
z
M 1536 5389 
C 1485 5082 1376 4659 1274 4346 
L 557 4346 
L 557 -346 
L 998 -346 
L 998 160 
L 2784 160 
L 2784 4346 
L 1715 4346 
C 1824 4621 1946 4979 2054 5299 
L 1536 5389 
z
M 998 3917 
L 2342 3917 
L 2342 2566 
L 998 2566 
L 998 3917 
z
M 998 595 
L 998 2144 
L 2342 2144 
L 2342 595 
L 998 595 
z
M 3827 5402 
C 3622 4518 3277 3635 2835 3066 
C 2950 3002 3149 2867 3238 2790 
C 3456 3098 3661 3488 3840 3923 
L 5478 3923 
C 5402 1357 5299 371 5094 154 
C 5018 64 4947 45 4819 45 
C 4672 45 4288 51 3866 83 
C 3955 -38 4013 -243 4026 -378 
C 4384 -397 4762 -410 4979 -390 
C 5210 -365 5350 -314 5498 -122 
C 5754 192 5843 1184 5939 4122 
C 5946 4186 5946 4365 5946 4365 
L 4013 4365 
C 4115 4666 4211 4986 4288 5299 
L 3827 5402 
z
" transform="scale(0.015625)"/>
      <path id="NotoSansCJKjp-Regular-72" d="M 589 0 
L 1178 0 
L 1178 2234 
C 1408 2822 1760 3040 2048 3040 
C 2195 3040 2272 3021 2387 2982 
L 2496 3488 
C 2387 3546 2278 3565 2125 3565 
C 1741 3565 1382 3283 1139 2842 
L 1126 2842 
L 1069 3475 
L 589 3475 
L 589 0 
z
" transform="scale(0.015625)"/>
      <path id="NotoSansCJKjp-Regular-3c" d="M 3315 934 
L 3315 1446 
L 1798 2003 
L 838 2362 
L 838 2387 
L 1798 2746 
L 3315 3309 
L 3315 3814 
L 243 2605 
L 243 2144 
L 3315 934 
z
" transform="scale(0.015625)"/>
      <path id="NotoSansCJKjp-Regular-4e0a" d="M 2733 5280 
L 2733 275 
L 326 275 
L 326 -205 
L 6080 -205 
L 6080 275 
L 3238 275 
L 3238 2822 
L 5638 2822 
L 5638 3302 
L 3238 3302 
L 3238 5280 
L 2733 5280 
z
" transform="scale(0.015625)"/>
      <path id="NotoSansCJKjp-Regular-ff0c" d="M 1005 -685 
C 1677 -448 2112 77 2112 768 
C 2112 1216 1920 1504 1568 1504 
C 1306 1504 1082 1344 1082 1043 
C 1082 742 1299 589 1562 589 
L 1670 602 
C 1638 160 1357 -141 864 -346 
L 1005 -685 
z
" transform="scale(0.015625)"/>
     </defs>
     <use xlink:href="#NotoSansCJKjp-Regular-8bba"/>
     <use xlink:href="#NotoSansCJKjp-Regular-6587" x="99.999985"/>
     <use xlink:href="#NotoSansCJKjp-Regular-8fd8" x="199.999969"/>
     <use xlink:href="#NotoSansCJKjp-Regular-62a5" x="299.999954"/>
     <use xlink:href="#NotoSansCJKjp-Regular-544a" x="399.999939"/>
     <use xlink:href="#NotoSansCJKjp-Regular-ff1a" x="499.999924"/>
     <use xlink:href="#NotoSansCJKjp-Regular-5728" x="599.999908"/>
     <use xlink:href="#NotoSansCJKjp-Regular-66f4" x="699.999893"/>
     <use xlink:href="#NotoSansCJKjp-Regular-7a33" x="799.999878"/>
     <use xlink:href="#NotoSansCJKjp-Regular-5b9a" x="899.999863"/>
     <use xlink:href="#NotoSansCJKjp-Regular-7684" x="999.999847"/>
     <use xlink:href="#NotoSansCJKjp-Regular-7f51" x="1099.999832"/>
     <use xlink:href="#NotoSansCJKjp-Regular-7edc" x="1199.999817"/>
     <use xlink:href="#NotoSansCJKjp-Regular-28" x="1299.999802"/>
     <use xlink:href="#NotoSansCJKjp-Regular-72" x="1333.799789"/>
     <use xlink:href="#NotoSansCJKjp-Regular-3c" x="1372.599777"/>
     <use xlink:href="#NotoSansCJKjp-Regular-30" x="1428.099762"/>
     <use xlink:href="#NotoSansCJKjp-Regular-2e" x="1483.599747"/>
     <use xlink:href="#NotoSansCJKjp-Regular-31" x="1511.399734"/>
     <use xlink:href="#NotoSansCJKjp-Regular-29" x="1566.899719"/>
     <use xlink:href="#NotoSansCJKjp-Regular-4e0a" x="1600.699707"/>
     <use xlink:href="#NotoSansCJKjp-Regular-ff0c" x="1700.699692"/>
    </g>
    <!-- AC几乎可把ECC降到接近一半。 -->
    <g transform="translate(146.330469 231.361687) scale(0.09 -0.09)">
     <defs>
      <path id="NotoSansCJKjp-Regular-51e0" d="M 1626 5011 
L 1626 3053 
C 1626 2010 1498 717 282 -166 
C 384 -243 576 -429 646 -525 
C 1939 416 2125 1920 2125 3040 
L 2125 4538 
L 4154 4538 
L 4154 435 
C 4154 -198 4307 -371 4794 -371 
C 4896 -371 5408 -371 5504 -371 
C 6016 -371 6125 6 6176 1094 
C 6035 1133 5843 1222 5715 1318 
C 5690 352 5664 102 5472 102 
C 5363 102 4960 102 4870 102 
C 4685 102 4653 147 4653 429 
L 4653 5011 
L 1626 5011 
z
" transform="scale(0.015625)"/>
      <path id="NotoSansCJKjp-Regular-4e4e" d="M 1056 4013 
C 1306 3558 1568 2963 1658 2592 
L 2106 2765 
C 2003 3130 1734 3718 1472 4154 
L 1056 4013 
z
M 5005 4269 
C 4845 3808 4550 3162 4307 2765 
L 4704 2605 
C 4954 2982 5267 3590 5517 4096 
L 5005 4269 
z
M 346 2355 
L 346 1862 
L 3002 1862 
L 3002 141 
C 3002 6 2950 -32 2803 -38 
C 2656 -45 2157 -51 1619 -26 
C 1702 -166 1792 -384 1824 -518 
C 2502 -518 2925 -512 3162 -435 
C 3411 -358 3514 -211 3514 141 
L 3514 1862 
L 6067 1862 
L 6067 2355 
L 3514 2355 
L 3514 4531 
C 4256 4608 4954 4710 5491 4851 
L 5242 5286 
C 4192 5011 2304 4851 762 4794 
C 806 4678 864 4493 870 4365 
C 1542 4384 2285 4416 3002 4480 
L 3002 2355 
L 346 2355 
z
" transform="scale(0.015625)"/>
      <path id="NotoSansCJKjp-Regular-53ef" d="M 358 4922 
L 358 4442 
L 4781 4442 
L 4781 186 
C 4781 51 4736 13 4595 0 
C 4442 0 3917 -6 3405 19 
C 3482 -122 3571 -358 3603 -499 
C 4237 -499 4685 -499 4941 -416 
C 5190 -333 5280 -166 5280 179 
L 5280 4442 
L 6067 4442 
L 6067 4922 
L 358 4922 
z
M 1478 3040 
L 3162 3040 
L 3162 1568 
L 1478 1568 
L 1478 3040 
z
M 1011 3501 
L 1011 595 
L 1478 595 
L 1478 1107 
L 3635 1107 
L 3635 3501 
L 1011 3501 
z
" transform="scale(0.015625)"/>
      <path id="NotoSansCJKjp-Regular-628a" d="M 3078 4570 
L 3987 4570 
L 3987 2534 
L 3078 2534 
L 3078 4570 
z
M 2592 5043 
L 2592 563 
C 2592 -166 2822 -346 3584 -346 
C 3763 -346 5062 -346 5248 -346 
C 5965 -346 6131 -32 6208 870 
C 6067 896 5862 979 5741 1062 
C 5690 301 5626 109 5235 109 
C 4966 109 3827 109 3610 109 
C 3162 109 3078 192 3078 557 
L 3078 2080 
L 5357 2080 
L 5357 1658 
L 5850 1658 
L 5850 5043 
L 2592 5043 
z
M 5357 2534 
L 4435 2534 
L 4435 4570 
L 5357 4570 
L 5357 2534 
z
M 1094 5376 
L 1094 4083 
L 326 4083 
L 326 3629 
L 1094 3629 
L 1094 2214 
C 768 2125 474 2042 230 1984 
L 365 1517 
L 1094 1734 
L 1094 38 
C 1094 -38 1069 -64 992 -64 
C 922 -70 698 -70 448 -64 
C 512 -192 570 -390 589 -506 
C 966 -512 1203 -493 1357 -416 
C 1510 -346 1574 -218 1574 45 
L 1574 1882 
L 2355 2112 
L 2291 2560 
L 1574 2355 
L 1574 3629 
L 2234 3629 
L 2234 4083 
L 1574 4083 
L 1574 5376 
L 1094 5376 
z
" transform="scale(0.015625)"/>
      <path id="NotoSansCJKjp-Regular-964d" d="M 4390 1734 
L 4390 877 
L 3533 877 
L 3533 1734 
L 4390 1734 
z
M 4390 2656 
L 4390 2138 
L 2643 2138 
L 2643 1734 
L 3104 1734 
L 3104 877 
L 2323 877 
L 2323 454 
L 4390 454 
L 4390 -512 
L 4851 -512 
L 4851 454 
L 6067 454 
L 6067 877 
L 4851 877 
L 4851 1734 
L 5882 1734 
L 5882 2138 
L 4851 2138 
L 4851 2656 
L 4390 2656 
z
M 518 5101 
L 518 -512 
L 947 -512 
L 947 4666 
L 1786 4666 
C 1651 4230 1459 3648 1274 3181 
C 1734 2682 1856 2253 1856 1901 
C 1856 1709 1818 1536 1722 1466 
C 1670 1427 1600 1414 1517 1408 
C 1414 1402 1293 1408 1146 1414 
C 1216 1293 1261 1107 1267 992 
C 1408 986 1568 992 1696 1005 
C 1830 1018 1939 1056 2029 1120 
C 2208 1242 2285 1510 2285 1856 
C 2285 2253 2176 2707 1709 3238 
C 1926 3750 2163 4403 2349 4934 
L 2035 5120 
L 1965 5101 
L 518 5101 
z
M 5056 4429 
C 4870 4096 4614 3808 4314 3558 
C 4026 3795 3789 4077 3616 4378 
L 3654 4429 
L 5056 4429 
z
M 3763 5382 
C 3514 4864 3034 4250 2323 3802 
C 2426 3738 2573 3590 2637 3494 
C 2899 3674 3130 3866 3334 4070 
C 3507 3789 3725 3526 3968 3302 
C 3475 2970 2899 2733 2317 2598 
C 2406 2502 2515 2330 2566 2214 
C 3187 2381 3795 2643 4320 3021 
C 4781 2688 5325 2451 5933 2310 
C 5997 2432 6125 2611 6221 2701 
C 5638 2810 5114 3014 4672 3296 
C 5101 3674 5453 4134 5677 4698 
L 5376 4838 
L 5293 4819 
L 3942 4819 
C 4051 4979 4141 5146 4224 5306 
L 3763 5382 
z
" transform="scale(0.015625)"/>
      <path id="NotoSansCJKjp-Regular-5230" d="M 3885 4608 
L 3885 1056 
L 4352 1056 
L 4352 4608 
L 3885 4608 
z
M 5402 5197 
L 5402 134 
C 5402 19 5370 -13 5254 -19 
C 5126 -19 4723 -26 4294 -13 
C 4371 -154 4442 -378 4467 -512 
C 4986 -512 5370 -499 5587 -422 
C 5792 -346 5869 -198 5869 134 
L 5869 5197 
L 5402 5197 
z
M 2349 3994 
C 2522 3795 2701 3565 2861 3334 
L 1382 3264 
C 1562 3648 1747 4115 1914 4518 
L 3610 4518 
L 3610 4960 
L 326 4960 
L 326 4518 
L 1370 4518 
C 1248 4115 1069 3622 896 3245 
L 307 3219 
L 346 2765 
L 3136 2925 
C 3226 2778 3296 2643 3354 2528 
L 3731 2758 
C 3546 3149 3098 3750 2714 4192 
L 2349 3994 
z
M 256 160 
L 326 -320 
C 1184 -205 2445 -19 3635 147 
L 3622 595 
L 2208 410 
L 2208 1472 
L 3424 1472 
L 3424 1907 
L 2208 1907 
L 2208 2675 
L 1734 2675 
L 1734 1907 
L 512 1907 
L 512 1472 
L 1734 1472 
L 1734 346 
L 256 160 
z
" transform="scale(0.015625)"/>
      <path id="NotoSansCJKjp-Regular-63a5" d="M 1152 5370 
L 1152 4083 
L 282 4083 
L 282 3635 
L 1152 3635 
L 1152 2240 
L 173 1971 
L 288 1504 
L 1152 1766 
L 1152 70 
C 1152 -19 1120 -51 1037 -51 
C 954 -51 691 -51 397 -45 
C 461 -179 525 -384 544 -506 
C 966 -512 1222 -493 1389 -416 
C 1555 -339 1613 -198 1613 77 
L 1613 1914 
L 2176 2086 
L 2176 1722 
L 3123 1722 
C 2938 1331 2752 954 2592 672 
L 3014 531 
L 3110 704 
C 3373 621 3648 518 3923 403 
C 3475 134 2854 -26 2016 -109 
C 2093 -205 2170 -378 2208 -506 
C 3187 -378 3898 -160 4397 198 
C 4915 -32 5382 -288 5690 -518 
L 5990 -154 
C 5690 64 5242 301 4755 518 
C 5043 832 5229 1229 5344 1722 
L 6112 1722 
L 6112 2144 
L 3827 2144 
L 4115 2771 
L 6138 2771 
L 6138 3194 
L 4966 3194 
C 5101 3482 5248 3885 5376 4250 
L 5184 4275 
L 5952 4275 
L 5952 4698 
L 4397 4698 
L 4397 5376 
L 3917 5376 
L 3917 4698 
L 2394 4698 
L 2394 4275 
L 3290 4275 
L 3002 4218 
C 3123 3898 3226 3475 3258 3194 
L 2138 3194 
L 2138 2771 
L 3597 2771 
L 3322 2144 
L 2291 2144 
L 2234 2554 
L 1613 2374 
L 1613 3635 
L 2234 3635 
L 2234 4083 
L 1613 4083 
L 1613 5370 
L 1152 5370 
z
M 3430 4275 
L 4890 4275 
C 4806 3955 4659 3507 4538 3219 
L 4685 3194 
L 3526 3194 
L 3706 3238 
C 3680 3501 3558 3936 3430 4275 
z
M 3622 1722 
L 4858 1722 
C 4749 1306 4576 966 4314 704 
C 3968 845 3622 966 3296 1062 
L 3622 1722 
z
" transform="scale(0.015625)"/>
      <path id="NotoSansCJKjp-Regular-8fd1" d="M 384 4934 
C 794 4646 1274 4218 1478 3904 
L 1862 4224 
C 1632 4531 1152 4947 730 5222 
L 384 4934 
z
M 5331 5350 
C 4806 5158 3885 4986 3040 4864 
L 2656 4947 
L 2656 3456 
C 2656 2662 2573 1645 1869 890 
C 1984 826 2157 659 2221 557 
C 2886 1267 3072 2240 3110 3040 
L 4429 3040 
L 4429 390 
L 4902 390 
L 4902 3040 
L 6093 3040 
L 6093 3488 
L 3123 3488 
L 3123 4461 
C 4026 4576 5043 4755 5747 4992 
L 5331 5350 
z
M 1677 2848 
L 314 2848 
L 314 2400 
L 1210 2400 
L 1210 768 
C 890 499 518 230 230 32 
L 480 -461 
C 826 -173 1152 102 1459 378 
C 1869 -128 2445 -358 3283 -390 
C 3994 -416 5318 -403 6016 -371 
C 6035 -224 6118 6 6176 115 
C 5414 64 3981 45 3283 77 
C 2541 102 1978 326 1677 794 
L 1677 2848 
z
" transform="scale(0.015625)"/>
      <path id="NotoSansCJKjp-Regular-4e00" d="M 282 2758 
L 282 2234 
L 6144 2234 
L 6144 2758 
L 282 2758 
z
" transform="scale(0.015625)"/>
      <path id="NotoSansCJKjp-Regular-534a" d="M 941 5037 
C 1242 4582 1555 3968 1677 3590 
L 2138 3789 
C 2010 4173 1683 4768 1376 5210 
L 941 5037 
z
M 4986 5229 
C 4800 4774 4467 4141 4198 3757 
L 4621 3590 
C 4890 3968 5229 4550 5491 5050 
L 4986 5229 
z
M 2931 5382 
L 2931 3302 
L 755 3302 
L 755 2829 
L 2931 2829 
L 2931 1798 
L 339 1798 
L 339 1318 
L 2931 1318 
L 2931 -499 
L 3430 -499 
L 3430 1318 
L 6067 1318 
L 6067 1798 
L 3430 1798 
L 3430 2829 
L 5696 2829 
L 5696 3302 
L 3430 3302 
L 3430 5382 
L 2931 5382 
z
" transform="scale(0.015625)"/>
      <path id="NotoSansCJKjp-Regular-3002" d="M 1242 1562 
C 710 1562 269 1126 269 589 
C 269 45 710 -390 1242 -390 
C 1786 -390 2221 45 2221 589 
C 2221 1126 1786 1562 1242 1562 
z
M 1242 -64 
C 890 -64 595 224 595 589 
C 595 941 890 1235 1242 1235 
C 1606 1235 1894 941 1894 589 
C 1894 224 1606 -64 1242 -64 
z
" transform="scale(0.015625)"/>
     </defs>
     <use xlink:href="#NotoSansCJKjp-Regular-41"/>
     <use xlink:href="#NotoSansCJKjp-Regular-43" x="60.799988"/>
     <use xlink:href="#NotoSansCJKjp-Regular-51e0" x="124.599976"/>
     <use xlink:href="#NotoSansCJKjp-Regular-4e4e" x="224.59996"/>
     <use xlink:href="#NotoSansCJKjp-Regular-53ef" x="324.599945"/>
     <use xlink:href="#NotoSansCJKjp-Regular-628a" x="424.59993"/>
     <use xlink:href="#NotoSansCJKjp-Regular-45" x="524.599915"/>
     <use xlink:href="#NotoSansCJKjp-Regular-43" x="583.499908"/>
     <use xlink:href="#NotoSansCJKjp-Regular-43" x="647.299896"/>
     <use xlink:href="#NotoSansCJKjp-Regular-964d" x="711.099884"/>
     <use xlink:href="#NotoSansCJKjp-Regular-5230" x="811.099869"/>
     <use xlink:href="#NotoSansCJKjp-Regular-63a5" x="911.099854"/>
     <use xlink:href="#NotoSansCJKjp-Regular-8fd1" x="1011.099838"/>
     <use xlink:href="#NotoSansCJKjp-Regular-4e00" x="1111.099823"/>
     <use xlink:href="#NotoSansCJKjp-Regular-534a" x="1211.099808"/>
     <use xlink:href="#NotoSansCJKjp-Regular-3002" x="1311.099792"/>
    </g>
   </g>
   <g id="text_14">
    <!-- 合成网络平均表现：SF优于ER（论文汇总值） -->
    <g transform="translate(87.5975 16.75125) scale(0.12 -0.12)">
     <defs>
      <path id="NotoSansCJKjp-Regular-5408" d="M 1587 3283 
L 1587 2854 
L 4819 2854 
L 4819 3283 
L 1587 3283 
z
M 3187 4890 
C 3789 4070 4915 3168 5914 2637 
C 5997 2778 6118 2944 6234 3066 
C 5216 3520 4090 4410 3405 5363 
L 2912 5363 
C 2413 4531 1338 3552 218 2982 
C 320 2880 454 2714 518 2605 
C 1613 3194 2656 4109 3187 4890 
z
M 1254 2048 
L 1254 -518 
L 1728 -518 
L 1728 -250 
L 4685 -250 
L 4685 -518 
L 5171 -518 
L 5171 2048 
L 1254 2048 
z
M 1728 179 
L 1728 1613 
L 4685 1613 
L 4685 179 
L 1728 179 
z
" transform="scale(0.015625)"/>
      <path id="NotoSansCJKjp-Regular-6210" d="M 3482 5370 
C 3482 5005 3494 4640 3514 4288 
L 819 4288 
L 819 2490 
C 819 1658 762 550 230 -237 
C 346 -294 550 -461 634 -557 
C 1222 288 1318 1581 1318 2483 
L 1318 2528 
L 2490 2528 
C 2464 1427 2432 1018 2349 922 
C 2298 864 2240 851 2144 851 
C 2035 851 1760 851 1466 883 
C 1542 762 1594 570 1600 435 
C 1914 416 2208 416 2374 429 
C 2547 448 2656 493 2758 614 
C 2893 787 2925 1331 2957 2771 
C 2957 2835 2963 2976 2963 2976 
L 1318 2976 
L 1318 3821 
L 3546 3821 
C 3622 2784 3776 1837 4019 1101 
C 3597 614 3104 218 2534 -83 
C 2637 -179 2810 -378 2886 -480 
C 3379 -186 3821 166 4211 589 
C 4506 -70 4890 -467 5382 -467 
C 5875 -467 6054 -147 6138 947 
C 6010 992 5830 1101 5722 1210 
C 5683 358 5606 26 5421 26 
C 5094 26 4806 390 4570 1018 
C 5043 1632 5421 2362 5696 3200 
L 5216 3322 
C 5011 2675 4736 2093 4390 1581 
C 4224 2202 4102 2963 4032 3821 
L 6086 3821 
L 6086 4288 
L 4006 4288 
C 3987 4640 3981 4998 3981 5370 
L 3482 5370 
z
M 4294 5056 
C 4704 4845 5197 4518 5440 4288 
L 5741 4621 
C 5491 4838 4986 5152 4582 5350 
L 4294 5056 
z
" transform="scale(0.015625)"/>
      <path id="NotoSansCJKjp-Regular-8868" d="M 896 -64 
L 1050 -512 
C 1811 -320 2912 -45 3923 224 
L 3872 653 
L 2272 256 
L 2272 1715 
C 2637 1946 2970 2208 3232 2470 
C 3680 1005 4512 -26 5875 -493 
C 5946 -358 6086 -166 6195 -70 
C 5472 147 4896 538 4461 1062 
C 4896 1312 5421 1664 5824 1990 
L 5446 2285 
C 5133 1997 4640 1638 4224 1376 
C 4000 1709 3821 2086 3686 2502 
L 5997 2502 
L 5997 2918 
L 3430 2918 
L 3430 3501 
L 5523 3501 
L 5523 3898 
L 3430 3898 
L 3430 4422 
L 5773 4422 
L 5773 4845 
L 3430 4845 
L 3430 5376 
L 2944 5376 
L 2944 4845 
L 640 4845 
L 640 4422 
L 2944 4422 
L 2944 3898 
L 928 3898 
L 928 3501 
L 2944 3501 
L 2944 2918 
L 403 2918 
L 403 2502 
L 2630 2502 
C 1990 1971 1024 1491 179 1254 
C 282 1152 422 979 493 858 
C 909 998 1363 1197 1798 1434 
L 1798 141 
L 896 -64 
z
" transform="scale(0.015625)"/>
      <path id="NotoSansCJKjp-Regular-73b0" d="M 2765 5062 
L 2765 1658 
L 3226 1658 
L 3226 4640 
L 5165 4640 
L 5165 1658 
L 5638 1658 
L 5638 5062 
L 2765 5062 
z
M 275 640 
L 384 173 
C 992 358 1805 602 2566 826 
L 2509 1274 
L 1670 1024 
L 1670 2643 
L 2342 2643 
L 2342 3091 
L 1670 3091 
L 1670 4493 
L 2470 4493 
L 2470 4941 
L 352 4941 
L 352 4493 
L 1210 4493 
L 1210 3091 
L 448 3091 
L 448 2643 
L 1210 2643 
L 1210 890 
C 858 794 538 704 275 640 
z
M 3949 4096 
L 3949 2861 
C 3949 1856 3744 646 2125 -186 
C 2221 -256 2374 -435 2426 -531 
C 3488 26 3994 787 4224 1555 
L 4224 205 
C 4224 -230 4390 -346 4838 -346 
L 5427 -346 
C 5978 -346 6054 -90 6112 922 
C 5990 947 5837 1018 5722 1114 
C 5690 198 5651 19 5427 19 
L 4902 19 
C 4723 19 4672 64 4672 250 
L 4672 1766 
L 4282 1766 
C 4371 2138 4397 2509 4397 2848 
L 4397 4096 
L 3949 4096 
z
" transform="scale(0.015625)"/>
      <path id="NotoSansCJKjp-Regular-4f18" d="M 4083 2899 
L 4083 339 
C 4083 -186 4211 -339 4717 -339 
C 4826 -339 5357 -339 5466 -339 
C 5933 -339 6054 -70 6099 896 
C 5971 928 5773 1011 5670 1094 
C 5651 250 5619 102 5427 102 
C 5306 102 4870 102 4774 102 
C 4582 102 4550 147 4550 339 
L 4550 2899 
L 4083 2899 
z
M 4474 4979 
C 4787 4678 5165 4256 5338 3994 
L 5690 4262 
C 5504 4525 5120 4928 4806 5210 
L 4474 4979 
z
M 3334 5299 
C 3334 4819 3328 4333 3309 3859 
L 1862 3859 
L 1862 3398 
L 3283 3398 
C 3181 1952 2854 634 1760 -134 
C 1882 -218 2035 -371 2112 -486 
C 3290 365 3648 1818 3763 3398 
L 6080 3398 
L 6080 3859 
L 3789 3859 
C 3808 4339 3814 4819 3814 5299 
L 3334 5299 
z
M 1734 5363 
C 1395 4390 832 3430 237 2810 
C 326 2694 467 2445 512 2330 
C 698 2534 883 2765 1056 3014 
L 1056 -512 
L 1517 -512 
L 1517 3757 
C 1779 4224 2003 4723 2189 5222 
L 1734 5363 
z
" transform="scale(0.015625)"/>
      <path id="NotoSansCJKjp-Regular-4e8e" d="M 794 4922 
L 794 4442 
L 3008 4442 
L 3008 2822 
L 352 2822 
L 352 2342 
L 3008 2342 
L 3008 192 
C 3008 58 2957 19 2816 19 
C 2675 13 2182 6 1658 26 
C 1734 -115 1824 -339 1856 -480 
C 2515 -480 2938 -474 3174 -390 
C 3418 -314 3514 -160 3514 192 
L 3514 2342 
L 6054 2342 
L 6054 2822 
L 3514 2822 
L 3514 4442 
L 5606 4442 
L 5606 4922 
L 794 4922 
z
" transform="scale(0.015625)"/>
      <path id="NotoSansCJKjp-Regular-6c47" d="M 582 4909 
C 966 4685 1434 4339 1670 4102 
L 1978 4461 
C 1741 4691 1254 5018 877 5235 
L 582 4909 
z
M 269 3142 
C 659 2938 1152 2624 1389 2406 
L 1690 2784 
C 1434 3002 934 3290 550 3475 
L 269 3142 
z
M 403 -64 
L 813 -384 
C 1171 192 1581 947 1901 1594 
L 1536 1907 
C 1184 1210 723 410 403 -64 
z
M 5971 5005 
L 2208 5005 
L 2208 -192 
L 6099 -192 
L 6099 288 
L 2701 288 
L 2701 4531 
L 5971 4531 
L 5971 5005 
z
" transform="scale(0.015625)"/>
      <path id="NotoSansCJKjp-Regular-603b" d="M 4858 1370 
C 5222 928 5600 333 5741 -64 
L 6131 179 
C 5990 582 5600 1152 5222 1581 
L 4858 1370 
z
M 2637 1722 
C 3059 1434 3546 979 3782 666 
L 4141 973 
C 3898 1274 3405 1709 2976 1990 
L 2637 1722 
z
M 1798 1542 
L 1798 218 
C 1798 -301 1997 -442 2758 -442 
C 2912 -442 4032 -442 4198 -442 
C 4787 -442 4947 -262 5018 474 
C 4877 499 4672 576 4563 646 
C 4525 83 4480 -6 4160 -6 
C 3910 -6 2970 -6 2784 -6 
C 2374 -6 2304 32 2304 224 
L 2304 1542 
L 1798 1542 
z
M 877 1440 
C 762 947 538 384 275 58 
L 717 -154 
C 1005 230 1216 832 1331 1357 
L 877 1440 
z
M 1696 3629 
L 4717 3629 
L 4717 2502 
L 1696 2502 
L 1696 3629 
z
M 1190 4083 
L 1190 2042 
L 5248 2042 
L 5248 4083 
L 4205 4083 
C 4429 4410 4666 4806 4870 5171 
L 4378 5370 
C 4211 4986 3930 4454 3680 4083 
L 2368 4083 
L 2746 4275 
C 2630 4576 2336 5018 2054 5350 
L 1645 5158 
C 1914 4832 2182 4384 2291 4083 
L 1190 4083 
z
" transform="scale(0.015625)"/>
     </defs>
     <use xlink:href="#NotoSansCJKjp-Regular-5408"/>
     <use xlink:href="#NotoSansCJKjp-Regular-6210" x="99.999985"/>
     <use xlink:href="#NotoSansCJKjp-Regular-7f51" x="199.999969"/>
     <use xlink:href="#NotoSansCJKjp-Regular-7edc" x="299.999954"/>
     <use xlink:href="#NotoSansCJKjp-Regular-5e73" x="399.999939"/>
     <use xlink:href="#NotoSansCJKjp-Regular-5747" x="499.999924"/>
     <use xlink:href="#NotoSansCJKjp-Regular-8868" x="599.999908"/>
     <use xlink:href="#NotoSansCJKjp-Regular-73b0" x="699.999893"/>
     <use xlink:href="#NotoSansCJKjp-Regular-ff1a" x="799.999878"/>
     <use xlink:href="#NotoSansCJKjp-Regular-53" x="899.999863"/>
     <use xlink:href="#NotoSansCJKjp-Regular-46" x="959.599854"/>
     <use xlink:href="#NotoSansCJKjp-Regular-4f18" x="1014.79985"/>
     <use xlink:href="#NotoSansCJKjp-Regular-4e8e" x="1114.799835"/>
     <use xlink:href="#NotoSansCJKjp-Regular-45" x="1214.79982"/>
     <use xlink:href="#NotoSansCJKjp-Regular-52" x="1273.699814"/>
     <use xlink:href="#NotoSansCJKjp-Regular-ff08" x="1337.199799"/>
     <use xlink:href="#NotoSansCJKjp-Regular-8bba" x="1437.199783"/>
     <use xlink:href="#NotoSansCJKjp-Regular-6587" x="1537.199768"/>
     <use xlink:href="#NotoSansCJKjp-Regular-6c47" x="1637.199753"/>
     <use xlink:href="#NotoSansCJKjp-Regular-603b" x="1737.199738"/>
     <use xlink:href="#NotoSansCJKjp-Regular-503c" x="1837.199722"/>
     <use xlink:href="#NotoSansCJKjp-Regular-ff09" x="1937.199707"/>
    </g>
   </g>
  </g>
 </g>
 <defs>
  <clipPath id="p8315b20970">
   <rect x="42.429688" y="22.75125" width="334.8" height="221.76"/>
  </clipPath>
 </defs>
</svg>
