<?xml version="1.0" encoding="utf-8" standalone="no"?>
<!DOCTYPE svg PUBLIC "-//W3C//DTD SVG 1.1//EN"
  "http://www.w3.org/Graphics/SVG/1.1/DTD/svg11.dtd">
<svg xmlns:xlink="http://www.w3.org/1999/xlink" width="615.898125pt" height="193.2576pt" viewBox="0 0 615.898125 193.2576" xmlns="http://www.w3.org/2000/svg" version="1.1">
 <metadata>
  <rdf:RDF xmlns:dc="http://purl.org/dc/elements/1.1/" xmlns:cc="http://creativecommons.org/ns#" xmlns:rdf="http://www.w3.org/1999/02/22-rdf-syntax-ns#">
   <cc:Work>
    <dc:type rdf:resource="http://purl.org/dc/dcmitype/StillImage"/>
    <dc:date>2026-02-15T18:00:25.577369</dc:date>
    <dc:format>image/svg+xml</dc:format>
    <dc:creator>
     <cc:Agent>
      <dc:title>Matplotlib v3.7.5, https://matplotlib.org/</dc:title>
     </cc:Agent>
    </dc:creator>
   </cc:Work>
  </rdf:RDF>
 </metadata>
 <defs>
  <style type="text/css">*{stroke-linejoin: round; stroke-linecap: butt}</style>
 </defs>
 <g id="figure_1">
  <g id="patch_1">
   <path d="M 0 193.2576 
L 615.898125 193.2576 
L 615.898125 -0 
L 0 -0 
z
" style="fill: #ffffff"/>
  </g>
  <g id="axes_1">
   <g id="patch_2">
    <path d="M 23.94 84.93504 
L 102.06 84.93504 
Q 103.176 84.93504 103.176 84.048 
L 103.176 57.4368 
Q 103.176 56.54976 102.06 56.54976 
L 23.94 56.54976 
Q 22.824 56.54976 22.824 57.4368 
L 22.824 84.048 
Q 22.824 84.93504 23.94 84.93504 
z
" clip-path="url(#p32bb467224)" style="fill: #ffffff; stroke: #000000; stroke-linejoin: miter"/>
   </g>
   <g id="patch_3">
    <path d="M 135.54 84.93504 
L 213.66 84.93504 
Q 214.776 84.93504 214.776 84.048 
L 214.776 57.4368 
Q 214.776 56.54976 213.66 56.54976 
L 135.54 56.54976 
Q 134.424 56.54976 134.424 57.4368 
L 134.424 84.048 
Q 134.424 84.93504 135.54 84.93504 
z
" clip-path="url(#p32bb467224)" style="fill: #ffffff; stroke: #000000; stroke-linejoin: miter"/>
   </g>
   <g id="patch_4">
    <path d="M 247.14 84.93504 
L 325.26 84.93504 
Q 326.376 84.93504 326.376 84.048 
L 326.376 57.4368 
Q 326.376 56.54976 325.26 56.54976 
L 247.14 56.54976 
Q 246.024 56.54976 246.024 57.4368 
L 246.024 84.048 
Q 246.024 84.93504 247.14 84.93504 
z
" clip-path="url(#p32bb467224)" style="fill: #ffffff; stroke: #000000; stroke-linejoin: miter"/>
   </g>
   <g id="patch_5">
    <path d="M 358.74 84.93504 
L 436.86 84.93504 
Q 437.976 84.93504 437.976 84.048 
L 437.976 57.4368 
Q 437.976 56.54976 436.86 56.54976 
L 358.74 56.54976 
Q 357.624 56.54976 357.624 57.4368 
L 357.624 84.048 
Q 357.624 84.93504 358.74 84.93504 
z
" clip-path="url(#p32bb467224)" style="fill: #ffffff; stroke: #000000; stroke-linejoin: miter"/>
   </g>
   <g id="patch_6">
    <path d="M 470.34 84.93504 
L 548.46 84.93504 
Q 549.576 84.93504 549.576 84.048 
L 549.576 57.4368 
Q 549.576 56.54976 548.46 56.54976 
L 470.34 56.54976 
Q 469.224 56.54976 469.224 57.4368 
L 469.224 84.048 
Q 469.224 84.93504 470.34 84.93504 
z
" clip-path="url(#p32bb467224)" style="fill: #ffffff; stroke: #000000; stroke-linejoin: miter"/>
   </g>
   <g id="patch_7">
    <path d="M 23.94 142.59264 
L 102.06 142.59264 
Q 103.176 142.59264 103.176 141.7056 
L 103.176 115.0944 
Q 103.176 114.20736 102.06 114.20736 
L 23.94 114.20736 
Q 22.824 114.20736 22.824 115.0944 
L 22.824 141.7056 
Q 22.824 142.59264 23.94 142.59264 
z
" clip-path="url(#p32bb467224)" style="fill: #ffffff; stroke: #000000; stroke-linejoin: miter"/>
   </g>
   <g id="patch_8">
    <path d="M 135.54 142.59264 
L 213.66 142.59264 
Q 214.776 142.59264 214.776 141.7056 
L 214.776 115.0944 
Q 214.776 114.20736 213.66 114.20736 
L 135.54 114.20736 
Q 134.424 114.20736 134.424 115.0944 
L 134.424 141.7056 
Q 134.424 142.59264 135.54 142.59264 
z
" clip-path="url(#p32bb467224)" style="fill: #ffffff; stroke: #000000; stroke-linejoin: miter"/>
   </g>
   <g id="patch_9">
    <path d="M 247.14 142.59264 
L 325.26 142.59264 
Q 326.376 142.59264 326.376 141.7056 
L 326.376 115.0944 
Q 326.376 114.20736 325.26 114.20736 
L 247.14 114.20736 
Q 246.024 114.20736 246.024 115.0944 
L 246.024 141.7056 
Q 246.024 142.59264 247.14 142.59264 
z
" clip-path="url(#p32bb467224)" style="fill: #ffffff; stroke: #000000; stroke-linejoin: miter"/>
   </g>
   <g id="patch_10">
    <path d="M 358.74 142.59264 
L 436.86 142.59264 
Q 437.976 142.59264 437.976 141.7056 
L 437.976 115.0944 
Q 437.976 114.20736 436.86 114.20736 
L 358.74 114.20736 
Q 357.624 114.20736 357.624 115.0944 
L 357.624 141.7056 
Q 357.624 142.59264 358.74 142.59264 
z
" clip-path="url(#p32bb467224)" style="fill: #ffffff; stroke: #000000; stroke-linejoin: miter"/>
   </g>
   <g id="patch_11">
    <path d="M 470.34 142.59264 
L 548.46 142.59264 
Q 549.576 142.59264 549.576 141.7056 
L 549.576 115.0944 
Q 549.576 114.20736 548.46 114.20736 
L 470.34 114.20736 
Q 469.224 114.20736 469.224 115.0944 
L 469.224 141.7056 
Q 469.224 142.59264 470.34 142.59264 
z
" clip-path="url(#p32bb467224)" style="fill: #ffffff; stroke: #000000; stroke-linejoin: miter"/>
   </g>
   <g id="text_1">
    <!-- ECC（额外控制成本）= Σ |D_i - D_{i-1}|：统计每步“新增的驱动节点”数量（示意） -->
    <g transform="translate(7.2 17.52) scale(0.12 -0.12)">
     <defs>
      <path id="NotoSansCJKjp-Bold-45" d="M 582 0 
L 3558 0 
L 3558 794 
L 1530 794 
L 1530 2061 
L 3187 2061 
L 3187 2854 
L 1530 2854 
L 1530 3949 
L 3488 3949 
L 3488 4742 
L 582 4742 
L 582 0 
z
" transform="scale(0.015625)"/>
      <path id="NotoSansCJKjp-Bold-43" d="M 2509 -90 
C 3130 -90 3635 154 4026 608 
L 3520 1197 
C 3270 922 2957 730 2547 730 
C 1798 730 1318 1350 1318 2381 
C 1318 3398 1850 4013 2566 4013 
C 2925 4013 3200 3846 3443 3616 
L 3936 4218 
C 3629 4538 3155 4826 2547 4826 
C 1350 4826 346 3910 346 2349 
C 346 768 1318 -90 2509 -90 
z
" transform="scale(0.015625)"/>
      <path id="NotoSansCJKjp-Bold-ff08" d="M 4243 2432 
C 4243 1062 4813 38 5504 -640 
L 6112 -371 
C 5472 320 4966 1203 4966 2432 
C 4966 3661 5472 4544 6112 5235 
L 5504 5504 
C 4813 4826 4243 3802 4243 2432 
z
" transform="scale(0.015625)"/>
      <path id="NotoSansCJKjp-Bold-989d" d="M 4742 384 
C 5120 102 5632 -307 5875 -570 
L 6285 -32 
C 6035 218 5504 602 5133 864 
L 4742 384 
z
M 3354 3866 
L 3354 858 
L 3987 858 
L 3987 3283 
L 5318 3283 
L 5318 883 
L 5978 883 
L 5978 3866 
L 4813 3866 
L 5030 4410 
L 6176 4410 
L 6176 5075 
L 3302 5075 
L 3302 4410 
L 4352 4410 
C 4294 4230 4224 4032 4160 3866 
L 3354 3866 
z
M 845 2522 
L 1171 2355 
C 864 2189 525 2061 173 1971 
C 269 1818 403 1446 442 1248 
L 736 1350 
L 736 -518 
L 1402 -518 
L 1402 -352 
L 2221 -352 
L 2221 -512 
L 2918 -512 
L 2918 -134 
C 3040 -269 3174 -461 3226 -608 
C 4838 -45 4966 1005 4998 3053 
L 4352 3053 
C 4320 1254 4275 429 2918 -38 
L 2918 1466 
L 2848 1466 
L 3347 1952 
C 3117 2093 2784 2266 2432 2445 
C 2720 2733 2963 3072 3136 3443 
L 2771 3686 
L 3200 3686 
L 3200 4813 
L 2246 4813 
L 1958 5414 
L 1229 5267 
L 1427 4813 
L 275 4813 
L 275 3686 
L 934 3686 
L 934 4198 
L 2509 4198 
L 2509 3699 
L 1741 3699 
L 1907 3981 
L 1235 4109 
C 1030 3731 653 3296 115 2982 
C 250 2886 448 2643 544 2490 
C 838 2688 1088 2899 1299 3130 
L 2157 3130 
C 2048 3002 1926 2874 1786 2765 
L 1344 2976 
L 845 2522 
z
M 1402 243 
L 1402 870 
L 2221 870 
L 2221 243 
L 1402 243 
z
M 1005 1466 
C 1318 1606 1613 1773 1888 1978 
C 2227 1792 2547 1606 2765 1466 
L 1005 1466 
z
" transform="scale(0.015625)"/>
      <path id="NotoSansCJKjp-Bold-5916" d="M 1843 3776 
L 2784 3776 
C 2688 3270 2547 2816 2374 2406 
C 2118 2618 1773 2848 1459 3034 
C 1594 3270 1722 3514 1843 3776 
z
M 3808 3885 
L 3565 3795 
C 3603 3974 3635 4166 3667 4358 
L 3162 4531 
L 3027 4506 
L 2138 4506 
C 2227 4762 2304 5018 2374 5286 
L 1606 5440 
C 1325 4288 806 3213 96 2566 
C 282 2458 602 2202 736 2074 
C 851 2189 960 2317 1062 2451 
C 1408 2227 1773 1952 2022 1715 
C 1581 973 986 422 282 58 
C 474 -64 768 -352 896 -518 
C 2048 134 2938 1363 3424 3181 
C 3654 2816 3917 2464 4205 2144 
L 4205 -563 
L 5005 -563 
L 5005 1402 
C 5254 1203 5517 1030 5786 890 
C 5914 1094 6163 1402 6342 1555 
C 5869 1760 5414 2067 5005 2419 
L 5005 5421 
L 4205 5421 
L 4205 3270 
C 4051 3469 3917 3680 3808 3885 
z
" transform="scale(0.015625)"/>
      <path id="NotoSansCJKjp-Bold-63a7" d="M 2118 301 
L 2118 -397 
L 6195 -397 
L 6195 301 
L 4525 301 
L 4525 1350 
L 5869 1350 
L 5869 2042 
L 2490 2042 
L 2490 1350 
L 3770 1350 
L 3770 301 
L 2118 301 
z
M 3789 5440 
L 3789 4883 
L 2214 4883 
L 2214 3661 
L 2880 3661 
L 2880 4250 
L 3264 4250 
C 3238 3424 3123 3014 2170 2790 
C 2304 2662 2477 2406 2534 2246 
C 3725 2560 3917 3168 3955 4250 
L 4326 4250 
L 4326 3194 
C 4326 2605 4448 2406 5037 2406 
C 5146 2406 5414 2406 5536 2406 
C 5965 2406 6138 2592 6208 3270 
C 6016 3309 5734 3418 5600 3520 
C 5581 3085 5555 3021 5446 3021 
C 5395 3021 5203 3021 5152 3021 
C 5043 3021 5030 3034 5030 3194 
L 5030 4250 
L 5453 4250 
L 5453 3680 
L 6150 3680 
L 6150 4883 
L 4538 4883 
L 4538 5440 
L 3789 5440 
z
M 909 5434 
L 909 4224 
L 237 4224 
L 237 3520 
L 909 3520 
L 909 2464 
L 134 2221 
L 314 1485 
L 909 1696 
L 909 237 
C 909 154 883 128 806 128 
C 730 122 506 122 269 134 
C 365 -70 448 -390 467 -576 
C 883 -576 1165 -550 1357 -429 
C 1555 -314 1613 -115 1613 237 
L 1613 1952 
L 2253 2189 
L 2118 2867 
L 1613 2694 
L 1613 3520 
L 2150 3520 
L 2150 4224 
L 1613 4224 
L 1613 5434 
L 909 5434 
z
" transform="scale(0.015625)"/>
      <path id="NotoSansCJKjp-Bold-5236" d="M 4115 4909 
L 4115 1286 
L 4832 1286 
L 4832 4909 
L 4115 4909 
z
M 5267 5325 
L 5267 333 
C 5267 230 5229 205 5126 198 
C 5018 198 4685 198 4352 211 
C 4448 -13 4557 -352 4582 -563 
C 5082 -563 5453 -538 5690 -416 
C 5926 -288 6003 -77 6003 333 
L 6003 5325 
L 5267 5325 
z
M 723 5318 
C 614 4710 403 4058 134 3648 
C 288 3597 538 3494 710 3411 
L 237 3411 
L 237 2714 
L 1696 2714 
L 1696 2253 
L 486 2253 
L 486 -58 
L 1171 -58 
L 1171 1568 
L 1696 1568 
L 1696 -570 
L 2426 -570 
L 2426 1568 
L 2989 1568 
L 2989 627 
C 2989 570 2970 550 2912 550 
C 2854 550 2688 550 2509 557 
C 2592 378 2682 102 2701 -90 
C 3021 -96 3264 -90 3450 19 
C 3635 134 3680 320 3680 614 
L 3680 2253 
L 2426 2253 
L 2426 2714 
L 3827 2714 
L 3827 3411 
L 2426 3411 
L 2426 3891 
L 3578 3891 
L 3578 4582 
L 2426 4582 
L 2426 5395 
L 1696 5395 
L 1696 4582 
L 1286 4582 
C 1344 4774 1395 4973 1434 5171 
L 723 5318 
z
M 1696 3411 
L 826 3411 
C 902 3552 979 3712 1050 3891 
L 1696 3891 
L 1696 3411 
z
" transform="scale(0.015625)"/>
      <path id="NotoSansCJKjp-Bold-6210" d="M 3290 5427 
C 3290 5114 3302 4794 3315 4480 
L 691 4480 
L 691 2598 
C 691 1766 653 640 160 -128 
C 333 -218 678 -499 813 -653 
C 1344 134 1478 1389 1498 2330 
L 2336 2330 
C 2323 1523 2298 1210 2227 1120 
C 2182 1062 2118 1043 2035 1043 
C 1926 1043 1715 1050 1485 1069 
C 1594 877 1677 576 1690 352 
C 1990 346 2266 352 2438 378 
C 2624 410 2758 467 2886 627 
C 3034 819 3066 1395 3091 2746 
C 3091 2835 3091 3027 3091 3027 
L 1498 3027 
L 1498 3725 
L 3360 3725 
C 3443 2758 3584 1856 3808 1126 
C 3437 704 2995 352 2496 83 
C 2662 -64 2944 -384 3053 -550 
C 3450 -307 3808 -19 4134 320 
C 4416 -205 4781 -525 5229 -525 
C 5824 -525 6080 -243 6202 954 
C 5997 1030 5722 1210 5549 1382 
C 5517 576 5440 256 5293 256 
C 5082 256 4877 525 4698 986 
C 5165 1619 5536 2362 5805 3200 
L 5030 3386 
C 4877 2867 4672 2387 4416 1958 
C 4301 2477 4211 3078 4154 3725 
L 6144 3725 
L 6144 4480 
L 5478 4480 
L 5792 4806 
C 5555 5024 5088 5312 4736 5498 
L 4269 5037 
C 4531 4883 4858 4666 5088 4480 
L 4109 4480 
C 4096 4794 4090 5107 4096 5427 
L 3290 5427 
z
" transform="scale(0.015625)"/>
      <path id="NotoSansCJKjp-Bold-672c" d="M 2790 5434 
L 2790 4192 
L 378 4192 
L 378 3411 
L 2336 3411 
C 1837 2419 1024 1498 122 1005 
C 301 851 550 557 685 365 
C 1043 589 1376 870 1690 1190 
L 1690 512 
L 2790 512 
L 2790 -576 
L 3603 -576 
L 3603 512 
L 4666 512 
L 4666 1248 
C 4986 909 5338 621 5715 390 
C 5850 608 6118 922 6310 1082 
C 5389 1568 4570 2451 4064 3411 
L 6035 3411 
L 6035 4192 
L 3603 4192 
L 3603 5434 
L 2790 5434 
z
M 2790 1293 
L 1786 1293 
C 2163 1702 2502 2176 2790 2694 
L 2790 1293 
z
M 3603 1293 
L 3603 2707 
C 3891 2182 4237 1709 4627 1293 
L 3603 1293 
z
" transform="scale(0.015625)"/>
      <path id="NotoSansCJKjp-Bold-ff09" d="M 2157 2432 
C 2157 3802 1587 4826 896 5504 
L 288 5235 
C 928 4544 1434 3661 1434 2432 
C 1434 1203 928 320 288 -371 
L 896 -640 
C 1587 38 2157 1062 2157 2432 
z
" transform="scale(0.015625)"/>
      <path id="NotoSansCJKjp-Bold-3d" d="M 250 2893 
L 3526 2893 
L 3526 3558 
L 250 3558 
L 250 2893 
z
M 250 1235 
L 3526 1235 
L 3526 1907 
L 250 1907 
L 250 1235 
z
" transform="scale(0.015625)"/>
      <path id="NotoSansCJKjp-Bold-20" transform="scale(0.015625)"/>
      <path id="NotoSansCJKjp-Bold-3a3" d="M 282 0 
L 3712 0 
L 3712 794 
L 1472 794 
L 2746 2426 
L 1491 3949 
L 3507 3949 
L 3507 4742 
L 314 4742 
L 314 4173 
L 1798 2400 
L 282 570 
L 282 0 
z
" transform="scale(0.015625)"/>
      <path id="NotoSansCJKjp-Bold-7c" d="M 640 -1818 
L 1254 -1818 
L 1254 5446 
L 640 5446 
L 640 -1818 
z
" transform="scale(0.015625)"/>
      <path id="NotoSansCJKjp-Bold-44" d="M 582 0 
L 1933 0 
C 3334 0 4224 794 4224 2394 
C 4224 3987 3334 4742 1882 4742 
L 582 4742 
L 582 0 
z
M 1530 768 
L 1530 3981 
L 1818 3981 
C 2707 3981 3258 3546 3258 2394 
C 3258 1242 2707 768 1818 768 
L 1530 768 
z
" transform="scale(0.015625)"/>
      <path id="NotoSansCJKjp-Bold-5f" d="M 90 -992 
L 3539 -992 
L 3539 -448 
L 90 -448 
L 90 -992 
z
" transform="scale(0.015625)"/>
      <path id="NotoSansCJKjp-Bold-69" d="M 506 0 
L 1446 0 
L 1446 3584 
L 506 3584 
L 506 0 
z
M 979 4166 
C 1299 4166 1523 4365 1523 4678 
C 1523 4986 1299 5190 979 5190 
C 646 5190 435 4986 435 4678 
C 435 4365 646 4166 979 4166 
z
" transform="scale(0.015625)"/>
      <path id="NotoSansCJKjp-Bold-2d" d="M 314 1491 
L 2061 1491 
L 2061 2170 
L 314 2170 
L 314 1491 
z
" transform="scale(0.015625)"/>
      <path id="NotoSansCJKjp-Bold-7b" d="M 1690 -1101 
L 2112 -1101 
L 2112 -602 
L 1965 -602 
C 1632 -602 1549 -467 1549 -51 
C 1549 358 1574 717 1574 1165 
C 1574 1696 1421 1914 1069 2003 
L 1069 2029 
C 1421 2118 1574 2336 1574 2867 
C 1574 3322 1549 3680 1549 4083 
C 1549 4506 1632 4634 1965 4634 
L 2112 4634 
L 2112 5139 
L 1690 5139 
C 1069 5139 787 4902 787 4122 
C 787 3610 851 3309 851 2842 
C 851 2579 710 2310 237 2298 
L 237 1741 
C 710 1728 851 1466 851 1190 
C 851 723 787 429 787 -90 
C 787 -864 1069 -1101 1690 -1101 
z
" transform="scale(0.015625)"/>
      <path id="NotoSansCJKjp-Bold-31" d="M 525 0 
L 3373 0 
L 3373 768 
L 2483 768 
L 2483 4742 
L 1786 4742 
C 1485 4550 1165 4429 685 4346 
L 685 3757 
L 1549 3757 
L 1549 768 
L 525 768 
L 525 0 
z
" transform="scale(0.015625)"/>
      <path id="NotoSansCJKjp-Bold-7d" d="M 307 -1101 
L 723 -1101 
C 1344 -1101 1632 -864 1632 -90 
C 1632 429 1568 723 1568 1190 
C 1568 1466 1709 1728 2189 1741 
L 2189 2298 
C 1709 2310 1568 2579 1568 2842 
C 1568 3309 1632 3610 1632 4122 
C 1632 4902 1344 5139 723 5139 
L 307 5139 
L 307 4634 
L 454 4634 
C 781 4634 870 4506 870 4083 
C 870 3680 838 3322 838 2867 
C 838 2336 998 2118 1350 2029 
L 1350 2003 
C 998 1914 838 1696 838 1165 
C 838 717 870 358 870 -51 
C 870 -467 781 -602 454 -602 
L 307 -602 
L 307 -1101 
z
" transform="scale(0.015625)"/>
      <path id="NotoSansCJKjp-Bold-ff1a" d="M 3200 3302 
C 3539 3302 3808 3558 3808 3898 
C 3808 4250 3539 4506 3200 4506 
C 2861 4506 2592 4250 2592 3898 
C 2592 3558 2861 3302 3200 3302 
z
M 3200 250 
C 3539 250 3808 506 3808 845 
C 3808 1197 3539 1453 3200 1453 
C 2861 1453 2592 1197 2592 845 
C 2592 506 2861 250 3200 250 
z
" transform="scale(0.015625)"/>
      <path id="NotoSansCJKjp-Bold-7edf" d="M 4358 2208 
L 4358 397 
C 4358 -250 4493 -467 5069 -467 
C 5171 -467 5402 -467 5510 -467 
C 6003 -467 6170 -179 6227 832 
C 6035 883 5728 1005 5581 1139 
C 5562 320 5536 179 5434 179 
C 5389 179 5254 179 5216 179 
C 5126 179 5114 198 5114 403 
L 5114 2208 
L 4358 2208 
z
M 3149 2202 
C 3110 1114 3027 435 2048 26 
C 2214 -115 2426 -416 2515 -608 
C 3686 -70 3853 851 3904 2202 
L 3149 2202 
z
M 218 435 
L 397 -320 
C 1018 -83 1805 224 2528 525 
L 2387 1178 
C 1587 890 762 595 218 435 
z
M 3712 5286 
C 3802 5075 3904 4806 3968 4602 
L 2541 4602 
L 2541 3917 
L 3546 3917 
C 3283 3565 2970 3168 2854 3053 
C 2707 2925 2522 2867 2381 2835 
C 2451 2675 2579 2285 2611 2099 
C 2822 2195 3142 2240 5325 2470 
C 5414 2298 5491 2144 5542 2010 
L 6189 2349 
C 6016 2752 5606 3354 5267 3802 
L 4678 3507 
C 4781 3373 4883 3219 4979 3059 
L 3718 2950 
C 3949 3245 4218 3597 4448 3917 
L 6118 3917 
L 6118 4602 
L 4352 4602 
L 4762 4717 
C 4698 4909 4557 5229 4442 5466 
L 3712 5286 
z
M 390 2643 
C 486 2694 634 2733 1139 2797 
C 947 2515 781 2304 691 2208 
C 486 1971 352 1830 179 1792 
C 269 1600 390 1235 429 1082 
C 595 1190 864 1280 2400 1626 
C 2374 1792 2374 2093 2394 2304 
L 1504 2125 
C 1907 2618 2298 3187 2605 3744 
L 1933 4160 
C 1824 3936 1702 3706 1581 3494 
L 1114 3456 
C 1472 3955 1811 4570 2048 5139 
L 1267 5498 
C 1050 4768 640 3987 506 3789 
C 365 3584 256 3450 115 3411 
C 211 3194 346 2803 390 2643 
z
" transform="scale(0.015625)"/>
      <path id="NotoSansCJKjp-Bold-8ba1" d="M 736 4877 
C 1101 4576 1574 4147 1792 3866 
L 2310 4422 
C 2080 4698 1581 5101 1229 5376 
L 736 4877 
z
M 243 3462 
L 243 2701 
L 1178 2701 
L 1178 768 
C 1178 480 973 269 826 173 
C 954 6 1146 -346 1203 -544 
C 1325 -384 1562 -205 2854 736 
C 2778 896 2656 1222 2611 1446 
L 1958 986 
L 1958 3462 
L 243 3462 
z
M 3885 5408 
L 3885 3418 
L 2349 3418 
L 2349 2618 
L 3885 2618 
L 3885 -576 
L 4710 -576 
L 4710 2618 
L 6189 2618 
L 6189 3418 
L 4710 3418 
L 4710 5408 
L 3885 5408 
z
" transform="scale(0.015625)"/>
      <path id="NotoSansCJKjp-Bold-6bcf" d="M 4531 3008 
L 4512 2304 
L 3744 2304 
L 3962 2522 
C 3795 2675 3514 2861 3232 3008 
L 4531 3008 
z
M 224 2330 
L 224 1645 
L 1120 1645 
C 1030 1062 941 512 851 83 
L 1632 26 
L 1677 282 
L 4346 282 
C 4320 192 4294 134 4269 96 
C 4205 6 4147 -6 4038 -6 
C 3904 -13 3654 -6 3366 19 
C 3462 -147 3539 -403 3546 -570 
C 3878 -589 4198 -589 4410 -557 
C 4627 -525 4800 -461 4941 -250 
C 5011 -154 5069 6 5114 282 
L 5907 282 
L 5907 947 
L 5190 947 
L 5235 1645 
L 6189 1645 
L 6189 2330 
L 5267 2330 
L 5299 3341 
C 5299 3437 5306 3680 5306 3680 
L 1562 3680 
L 1830 4077 
L 5939 4077 
L 5939 4762 
L 2234 4762 
C 2317 4922 2394 5082 2464 5242 
L 1658 5478 
C 1338 4685 781 3866 198 3373 
C 403 3264 762 3040 922 2906 
C 1056 3046 1197 3200 1331 3379 
L 1210 2330 
L 224 2330 
z
M 2496 2752 
C 2746 2637 3021 2464 3238 2304 
L 1971 2304 
L 2054 3008 
L 2758 3008 
L 2496 2752 
z
M 4435 947 
L 3686 947 
L 3898 1165 
C 3731 1325 3443 1510 3162 1670 
L 4486 1670 
L 4435 947 
z
M 2413 1427 
C 2669 1299 2957 1120 3181 947 
L 1779 947 
L 1888 1670 
L 2662 1670 
L 2413 1427 
z
" transform="scale(0.015625)"/>
      <path id="NotoSansCJKjp-Bold-6b65" d="M 1517 2803 
C 1229 2342 723 1869 224 1587 
C 416 1466 742 1210 890 1062 
C 1382 1414 1952 1984 2310 2547 
L 1517 2803 
z
M 4730 2618 
C 4160 998 2918 384 774 147 
C 928 -45 1088 -352 1165 -582 
C 3488 -224 4826 493 5517 2368 
L 4730 2618 
z
M 1184 5018 
L 1184 3622 
L 307 3622 
L 307 2899 
L 2835 2899 
L 2835 1690 
C 2835 1619 2803 1606 2714 1606 
C 2624 1600 2285 1600 2010 1606 
C 2099 1414 2208 1126 2240 922 
C 2688 922 3027 922 3277 1030 
C 3533 1139 3603 1318 3603 1670 
L 3603 2899 
L 6093 2899 
L 6093 3622 
L 3616 3622 
L 3616 4109 
L 5421 4109 
L 5421 4826 
L 3616 4826 
L 3616 5440 
L 2829 5440 
L 2829 3622 
L 1965 3622 
L 1965 5018 
L 1184 5018 
z
" transform="scale(0.015625)"/>
      <path id="NotoSansCJKjp-Bold-201c" d="M 1024 2637 
C 1318 2637 1530 2848 1530 3174 
C 1530 3482 1299 3667 1024 3667 
L 954 3661 
C 960 4083 1165 4346 1581 4570 
L 1363 4986 
C 723 4653 397 4166 397 3507 
C 397 2957 621 2637 1024 2637 
z
M 2624 2637 
C 2918 2637 3130 2848 3130 3174 
C 3130 3482 2899 3667 2624 3667 
L 2560 3661 
C 2566 4083 2765 4346 3181 4570 
L 2963 4986 
C 2323 4653 1997 4166 1997 3507 
C 1997 2957 2221 2637 2624 2637 
z
" transform="scale(0.015625)"/>
      <path id="NotoSansCJKjp-Bold-65b0" d="M 5555 5370 
C 5165 5158 4525 4954 3917 4806 
L 3469 4934 
L 3469 2701 
C 3469 1818 3392 723 2650 -64 
C 2829 -154 3104 -416 3200 -589 
C 4051 294 4192 1658 4198 2611 
L 4845 2611 
L 4845 -538 
L 5594 -538 
L 5594 2611 
L 6202 2611 
L 6202 3322 
L 4198 3322 
L 4198 4224 
C 4870 4358 5600 4557 6170 4813 
L 5555 5370 
z
M 659 4083 
C 749 3866 832 3584 858 3373 
L 262 3373 
L 262 2746 
L 1414 2746 
L 1414 2253 
L 282 2253 
L 282 1606 
L 1267 1606 
C 966 1120 525 646 102 371 
C 262 243 486 -6 602 -173 
C 877 51 1165 365 1414 723 
L 1414 -563 
L 2157 -563 
L 2157 806 
C 2342 627 2522 435 2624 307 
L 3072 858 
C 2931 973 2381 1395 2157 1549 
L 2157 1606 
L 3219 1606 
L 3219 2253 
L 2157 2253 
L 2157 2746 
L 3277 2746 
L 3277 3373 
L 2624 3373 
C 2720 3565 2822 3821 2938 4102 
L 2547 4179 
L 3226 4179 
L 3226 4800 
L 2157 4800 
L 2157 5382 
L 1414 5382 
L 1414 4800 
L 339 4800 
L 339 4179 
L 1062 4179 
L 659 4083 
z
M 1274 4179 
L 2240 4179 
C 2182 3955 2086 3667 1997 3469 
L 2458 3373 
L 1139 3373 
L 1485 3469 
C 1459 3661 1376 3955 1274 4179 
z
" transform="scale(0.015625)"/>
      <path id="NotoSansCJKjp-Bold-589e" d="M 3046 3309 
C 3130 3110 3213 2842 3245 2669 
L 3686 2816 
C 3654 2970 3565 3232 3469 3424 
L 3046 3309 
z
M 4595 3430 
C 4557 3251 4467 2989 4397 2797 
L 4781 2682 
C 4877 2848 4986 3072 5107 3302 
L 4595 3430 
z
M 2861 5094 
C 2643 4634 2253 4186 1843 3891 
L 1850 3885 
L 1562 3885 
L 1562 5338 
L 819 5338 
L 819 3885 
L 230 3885 
L 230 3155 
L 819 3155 
L 819 1408 
C 557 1293 314 1197 115 1126 
L 371 358 
C 947 621 1658 954 2310 1280 
L 2118 1971 
L 1562 1722 
L 1562 3155 
L 2048 3155 
L 2048 3693 
C 2163 3571 2278 3437 2342 3354 
L 2381 3386 
L 2381 2042 
L 5811 2042 
L 5811 3450 
C 5920 3635 6138 3904 6285 4032 
C 5779 4314 5267 4813 4992 5306 
L 3437 5306 
L 3437 4928 
L 2861 5094 
z
M 2624 1818 
L 2624 -576 
L 3354 -576 
L 3354 -378 
L 4832 -378 
L 4832 -557 
L 5600 -557 
L 5600 1818 
L 2624 1818 
z
M 3354 192 
L 3354 480 
L 4832 480 
L 4832 192 
L 3354 192 
z
M 3354 986 
L 3354 1267 
L 4832 1267 
L 4832 986 
L 3354 986 
z
M 2976 3526 
L 3776 3526 
L 3776 2592 
L 2976 2592 
L 2976 3526 
z
M 4314 3526 
L 5184 3526 
L 5184 2592 
L 4314 2592 
L 4314 3526 
z
M 3027 4077 
C 3181 4275 3322 4486 3437 4698 
L 3437 4659 
L 4608 4659 
C 4749 4461 4909 4262 5082 4077 
L 3027 4077 
z
" transform="scale(0.015625)"/>
      <path id="NotoSansCJKjp-Bold-7684" d="M 3430 2598 
C 3744 2131 4141 1498 4320 1107 
L 4973 1504 
C 4774 1882 4346 2496 4032 2938 
L 3430 2598 
z
M 3744 5434 
C 3558 4672 3251 3898 2880 3347 
L 2880 4397 
L 1888 4397 
C 1997 4666 2112 4998 2214 5318 
L 1382 5440 
C 1357 5133 1280 4717 1197 4397 
L 467 4397 
L 467 -384 
L 1165 -384 
L 1165 90 
L 2880 90 
L 2880 3098 
C 3053 2989 3270 2829 3379 2726 
C 3578 3002 3770 3354 3942 3744 
L 5318 3744 
C 5254 1478 5171 512 4973 307 
C 4896 218 4826 198 4698 198 
C 4531 198 4147 198 3738 237 
C 3872 26 3974 -301 3987 -512 
C 4365 -525 4755 -531 4998 -499 
C 5261 -454 5440 -384 5613 -141 
C 5882 198 5952 1222 6035 4102 
C 6042 4192 6042 4448 6042 4448 
L 4230 4448 
C 4326 4717 4416 4992 4486 5261 
L 3744 5434 
z
M 1165 3731 
L 2189 3731 
L 2189 2688 
L 1165 2688 
L 1165 3731 
z
M 1165 762 
L 1165 2022 
L 2189 2022 
L 2189 762 
L 1165 762 
z
" transform="scale(0.015625)"/>
      <path id="NotoSansCJKjp-Bold-9a71" d="M 96 1082 
L 224 486 
C 691 589 1242 717 1779 845 
L 1722 1408 
C 1120 1280 525 1152 96 1082 
z
M 512 4134 
C 486 3411 410 2451 333 1869 
L 1958 1869 
C 1901 742 1830 275 1715 154 
C 1651 90 1594 77 1485 77 
C 1370 77 1101 83 819 109 
C 922 -64 998 -320 1011 -506 
C 1318 -518 1619 -518 1792 -499 
C 1997 -474 2144 -422 2278 -256 
C 2470 -32 2554 595 2630 2195 
C 2637 2278 2643 2470 2643 2470 
L 2214 2470 
C 2298 3181 2374 4314 2413 5210 
L 1760 5210 
L 1760 5190 
L 333 5190 
L 333 4550 
L 1734 4550 
C 1696 3814 1626 3021 1562 2464 
L 1050 2464 
C 1094 2976 1139 3590 1171 4096 
L 512 4134 
z
M 5222 4160 
C 5120 3814 4998 3462 4858 3130 
C 4634 3450 4403 3757 4192 4038 
L 3648 3693 
C 3936 3302 4237 2861 4525 2413 
C 4250 1875 3930 1402 3590 1030 
L 3590 4410 
L 6099 4410 
L 6099 5101 
L 2874 5101 
L 2874 -339 
L 6208 -339 
L 6208 352 
L 3590 352 
L 3590 1011 
C 3757 890 4026 646 4147 518 
C 4422 851 4698 1261 4947 1715 
C 5178 1318 5370 947 5498 640 
L 6106 1062 
C 5933 1446 5645 1939 5318 2445 
C 5542 2944 5747 3462 5914 3987 
L 5222 4160 
z
" transform="scale(0.015625)"/>
      <path id="NotoSansCJKjp-Bold-52a8" d="M 518 4941 
L 518 4269 
L 3034 4269 
L 3034 4941 
L 518 4941 
z
M 576 128 
L 582 141 
L 582 122 
C 768 243 1043 333 2637 749 
L 2707 448 
L 3322 640 
C 3187 416 3027 205 2835 19 
C 3027 -102 3283 -378 3405 -563 
C 4314 339 4582 1690 4672 3309 
L 5331 3309 
C 5274 1299 5210 518 5069 339 
C 4998 256 4941 237 4832 237 
C 4691 237 4422 237 4115 262 
C 4243 51 4333 -269 4346 -486 
C 4678 -499 5005 -499 5210 -467 
C 5434 -422 5581 -358 5741 -134 
C 5958 160 6022 1101 6086 3699 
C 6086 3795 6093 4045 6093 4045 
L 4698 4045 
L 4710 5325 
L 3949 5325 
L 3942 4045 
L 3226 4045 
L 3226 3309 
L 3917 3309 
C 3872 2291 3738 1408 3360 710 
C 3245 1152 2995 1830 2765 2349 
L 2144 2182 
C 2246 1939 2349 1664 2438 1389 
L 1350 1133 
C 1555 1632 1754 2208 1888 2758 
L 3149 2758 
L 3149 3456 
L 307 3456 
L 307 2758 
L 1101 2758 
C 960 2080 736 1427 653 1235 
C 550 998 461 851 333 813 
C 422 621 538 269 576 128 
z
" transform="scale(0.015625)"/>
      <path id="NotoSansCJKjp-Bold-8282" d="M 608 3149 
L 608 2406 
L 2118 2406 
L 2118 -557 
L 2938 -557 
L 2938 2406 
L 4774 2406 
L 4774 1126 
C 4774 1037 4736 1018 4614 1011 
C 4493 1011 4032 1011 3661 1030 
C 3763 800 3859 454 3885 218 
C 4480 218 4902 218 5197 339 
C 5504 461 5581 698 5581 1107 
L 5581 3149 
L 608 3149 
z
M 3942 5440 
L 3942 4806 
L 2483 4806 
L 2483 5440 
L 1696 5440 
L 1696 4806 
L 314 4806 
L 314 4070 
L 1696 4070 
L 1696 3456 
L 2483 3456 
L 2483 4070 
L 3942 4070 
L 3942 3456 
L 4755 3456 
L 4755 4070 
L 6093 4070 
L 6093 4806 
L 4755 4806 
L 4755 5440 
L 3942 5440 
z
" transform="scale(0.015625)"/>
      <path id="NotoSansCJKjp-Bold-70b9" d="M 1715 2842 
L 4653 2842 
L 4653 2016 
L 1715 2016 
L 1715 2842 
z
M 2042 819 
C 2125 378 2176 -192 2176 -531 
L 2950 -435 
C 2944 -96 2867 461 2771 890 
L 2042 819 
z
M 3360 813 
C 3546 397 3738 -160 3802 -499 
L 4550 -307 
C 4474 32 4256 570 4064 973 
L 3360 813 
z
M 4666 851 
C 4966 422 5318 -160 5453 -531 
L 6195 -243 
C 6035 134 5664 691 5350 1101 
L 4666 851 
z
M 992 1050 
C 806 582 499 70 186 -205 
L 896 -550 
C 1229 -205 1542 352 1728 864 
L 992 1050 
z
M 979 3552 
L 979 1306 
L 5440 1306 
L 5440 3552 
L 3558 3552 
L 3558 4154 
L 5862 4154 
L 5862 4870 
L 3558 4870 
L 3558 5440 
L 2778 5440 
L 2778 3552 
L 979 3552 
z
" transform="scale(0.015625)"/>
      <path id="NotoSansCJKjp-Bold-201d" d="M 717 2714 
C 1357 3040 1677 3539 1677 4198 
C 1677 4742 1466 5056 1056 5056 
C 762 5056 544 4858 544 4525 
C 544 4218 781 4032 1056 4032 
L 1126 4038 
C 1120 3616 909 3354 499 3123 
L 717 2714 
z
M 2317 2714 
C 2957 3040 3277 3539 3277 4198 
C 3277 4742 3059 5056 2656 5056 
C 2362 5056 2144 4858 2144 4525 
C 2144 4218 2374 4032 2656 4032 
L 2726 4038 
C 2720 3616 2509 3354 2093 3123 
L 2317 2714 
z
" transform="scale(0.015625)"/>
      <path id="NotoSansCJKjp-Bold-6570" d="M 3917 5440 
C 3770 4294 3456 3200 2918 2541 
C 3053 2445 3277 2246 3424 2099 
L 3520 1997 
C 3629 2138 3725 2291 3821 2464 
C 3936 2003 4077 1574 4250 1190 
C 3968 794 3603 474 3123 224 
C 2970 333 2790 448 2592 563 
C 2746 813 2861 1114 2931 1478 
L 3424 1478 
L 3424 2099 
L 1901 2099 
L 2054 2406 
L 1779 2464 
L 2189 2464 
L 2189 3245 
C 2438 3046 2714 2822 2854 2682 
L 3258 3213 
C 3123 3309 2669 3578 2355 3750 
L 3405 3750 
L 3405 4358 
L 2797 4358 
C 2957 4550 3149 4832 3347 5101 
L 2701 5363 
C 2605 5120 2419 4768 2278 4544 
L 2701 4358 
L 2189 4358 
L 2189 5440 
L 1485 5440 
L 1485 4358 
L 954 4358 
L 1363 4538 
C 1306 4762 1139 5088 973 5331 
L 422 5101 
C 557 4870 698 4576 755 4358 
L 262 4358 
L 262 3750 
L 1261 3750 
C 960 3418 525 3110 134 2950 
C 275 2810 442 2560 525 2394 
C 845 2573 1190 2835 1485 3130 
L 1485 2522 
L 1344 2554 
L 1126 2099 
L 192 2099 
L 192 1478 
L 806 1478 
C 646 1171 486 883 346 659 
L 1018 454 
L 1088 576 
L 1446 403 
C 1139 230 736 122 218 51 
C 346 -102 480 -365 525 -582 
C 1210 -442 1728 -256 2106 32 
C 2368 -134 2598 -301 2771 -454 
L 3066 -160 
C 3168 -314 3270 -486 3315 -595 
C 3872 -320 4314 26 4666 448 
C 4954 38 5306 -307 5747 -563 
C 5862 -352 6106 -51 6278 102 
C 5811 346 5440 710 5146 1165 
C 5491 1818 5709 2611 5843 3571 
L 6202 3571 
L 6202 4282 
L 4493 4282 
C 4576 4621 4640 4973 4698 5331 
L 3917 5440 
z
M 1581 1478 
L 2202 1478 
C 2144 1248 2067 1056 1965 896 
C 1779 979 1587 1062 1402 1139 
L 1581 1478 
z
M 5050 3571 
C 4979 3002 4864 2496 4704 2061 
C 4525 2522 4397 3027 4307 3571 
L 5050 3571 
z
" transform="scale(0.015625)"/>
      <path id="NotoSansCJKjp-Bold-91cf" d="M 1843 4262 
L 4506 4262 
L 4506 4045 
L 1843 4045 
L 1843 4262 
z
M 1843 4851 
L 4506 4851 
L 4506 4634 
L 1843 4634 
L 1843 4851 
z
M 1107 5242 
L 1107 3654 
L 5280 3654 
L 5280 5242 
L 1107 5242 
z
M 294 3462 
L 294 2912 
L 6125 2912 
L 6125 3462 
L 294 3462 
z
M 1709 1709 
L 2822 1709 
L 2822 1485 
L 1709 1485 
L 1709 1709 
z
M 3565 1709 
L 4685 1709 
L 4685 1485 
L 3565 1485 
L 3565 1709 
z
M 1709 2317 
L 2822 2317 
L 2822 2093 
L 1709 2093 
L 1709 2317 
z
M 3565 2317 
L 4685 2317 
L 4685 2093 
L 3565 2093 
L 3565 2317 
z
M 282 141 
L 282 -416 
L 6138 -416 
L 6138 141 
L 3565 141 
L 3565 378 
L 5562 378 
L 5562 864 
L 3565 864 
L 3565 1075 
L 5440 1075 
L 5440 2720 
L 992 2720 
L 992 1075 
L 2822 1075 
L 2822 864 
L 858 864 
L 858 378 
L 2822 378 
L 2822 141 
L 282 141 
z
" transform="scale(0.015625)"/>
      <path id="NotoSansCJKjp-Bold-793a" d="M 1261 2253 
C 1030 1587 608 902 141 480 
C 339 378 691 154 851 19 
C 1306 499 1786 1274 2074 2042 
L 1261 2253 
z
M 4294 1978 
C 4710 1350 5146 525 5286 0 
L 6086 346 
C 5907 896 5440 1683 5018 2272 
L 4294 1978 
z
M 928 5024 
L 928 4262 
L 5466 4262 
L 5466 5024 
L 928 5024 
z
M 346 3482 
L 346 2720 
L 2803 2720 
L 2803 346 
C 2803 256 2758 224 2643 224 
C 2522 218 2061 224 1696 243 
C 1811 13 1933 -339 1971 -576 
C 2528 -576 2950 -563 3251 -442 
C 3552 -320 3642 -102 3642 326 
L 3642 2720 
L 6067 2720 
L 6067 3482 
L 346 3482 
z
" transform="scale(0.015625)"/>
      <path id="NotoSansCJKjp-Bold-610f" d="M 1830 1734 
L 1830 2016 
L 4608 2016 
L 4608 1734 
L 1830 1734 
z
M 1830 2464 
L 1830 2739 
L 4608 2739 
L 4608 2464 
L 1830 2464 
z
M 1664 819 
L 1018 1050 
C 870 627 576 211 173 -38 
L 774 -448 
C 1229 -147 1485 333 1664 819 
z
M 5171 1126 
L 4576 794 
C 4973 442 5408 -64 5587 -410 
L 6221 -38 
C 6022 320 5568 794 5171 1126 
z
M 2573 301 
L 2573 966 
L 1830 966 
L 1830 288 
C 1830 -320 2029 -506 2835 -506 
C 3002 -506 3699 -506 3878 -506 
C 4474 -506 4678 -326 4762 397 
C 4563 435 4262 531 4109 634 
C 4077 179 4038 115 3802 115 
C 3622 115 3053 115 2925 115 
C 2630 115 2573 128 2573 301 
z
M 5370 3206 
L 1101 3206 
L 1101 1261 
L 2797 1261 
L 2534 998 
C 2899 832 3354 557 3571 365 
L 4013 813 
C 3840 954 3552 1120 3264 1261 
L 5370 1261 
L 5370 3206 
z
M 3846 4038 
L 2515 4038 
L 2573 4051 
C 2541 4173 2483 4346 2413 4499 
L 4006 4499 
C 3955 4346 3878 4179 3814 4045 
L 3846 4038 
z
M 5651 5094 
L 3578 5094 
L 3578 5440 
L 2810 5440 
L 2810 5094 
L 736 5094 
L 736 4499 
L 1677 4499 
L 1645 4493 
C 1702 4358 1766 4186 1805 4038 
L 429 4038 
L 429 3443 
L 5990 3443 
L 5990 4038 
L 4582 4038 
L 4845 4493 
L 4806 4499 
L 5651 4499 
L 5651 5094 
z
" transform="scale(0.015625)"/>
     </defs>
     <use xlink:href="#NotoSansCJKjp-Bold-45"/>
     <use xlink:href="#NotoSansCJKjp-Bold-43" x="61.499985"/>
     <use xlink:href="#NotoSansCJKjp-Bold-43" x="127.099976"/>
     <use xlink:href="#NotoSansCJKjp-Bold-ff08" x="192.699966"/>
     <use xlink:href="#NotoSansCJKjp-Bold-989d" x="292.699951"/>
     <use xlink:href="#NotoSansCJKjp-Bold-5916" x="392.699936"/>
     <use xlink:href="#NotoSansCJKjp-Bold-63a7" x="492.699921"/>
     <use xlink:href="#NotoSansCJKjp-Bold-5236" x="592.699905"/>
     <use xlink:href="#NotoSansCJKjp-Bold-6210" x="692.69989"/>
     <use xlink:href="#NotoSansCJKjp-Bold-672c" x="792.699875"/>
     <use xlink:href="#NotoSansCJKjp-Bold-ff09" x="892.69986"/>
     <use xlink:href="#NotoSansCJKjp-Bold-3d" x="992.699844"/>
     <use xlink:href="#NotoSansCJKjp-Bold-20" x="1051.699829"/>
     <use xlink:href="#NotoSansCJKjp-Bold-3a3" x="1074.399826"/>
     <use xlink:href="#NotoSansCJKjp-Bold-20" x="1136.29982"/>
     <use xlink:href="#NotoSansCJKjp-Bold-7c" x="1158.999817"/>
     <use xlink:href="#NotoSansCJKjp-Bold-44" x="1188.599808"/>
     <use xlink:href="#NotoSansCJKjp-Bold-5f" x="1259.999802"/>
     <use xlink:href="#NotoSansCJKjp-Bold-69" x="1316.699799"/>
     <use xlink:href="#NotoSansCJKjp-Bold-20" x="1347.099792"/>
     <use xlink:href="#NotoSansCJKjp-Bold-2d" x="1369.799789"/>
     <use xlink:href="#NotoSansCJKjp-Bold-20" x="1406.799774"/>
     <use xlink:href="#NotoSansCJKjp-Bold-44" x="1429.499771"/>
     <use xlink:href="#NotoSansCJKjp-Bold-5f" x="1500.899765"/>
     <use xlink:href="#NotoSansCJKjp-Bold-7b" x="1557.599762"/>
     <use xlink:href="#NotoSansCJKjp-Bold-69" x="1595.39975"/>
     <use xlink:href="#NotoSansCJKjp-Bold-2d" x="1625.799744"/>
     <use xlink:href="#NotoSansCJKjp-Bold-31" x="1662.799728"/>
     <use xlink:href="#NotoSansCJKjp-Bold-7d" x="1721.799713"/>
     <use xlink:href="#NotoSansCJKjp-Bold-7c" x="1759.599701"/>
     <use xlink:href="#NotoSansCJKjp-Bold-ff1a" x="1789.199692"/>
     <use xlink:href="#NotoSansCJKjp-Bold-7edf" x="1889.199677"/>
     <use xlink:href="#NotoSansCJKjp-Bold-8ba1" x="1989.199661"/>
     <use xlink:href="#NotoSansCJKjp-Bold-6bcf" x="2089.199646"/>
     <use xlink:href="#NotoSansCJKjp-Bold-6b65" x="2189.199631"/>
     <use xlink:href="#NotoSansCJKjp-Bold-201c" x="2289.199615"/>
     <use xlink:href="#NotoSansCJKjp-Bold-65b0" x="2346.599609"/>
     <use xlink:href="#NotoSansCJKjp-Bold-589e" x="2446.599594"/>
     <use xlink:href="#NotoSansCJKjp-Bold-7684" x="2546.599579"/>
     <use xlink:href="#NotoSansCJKjp-Bold-9a71" x="2646.599564"/>
     <use xlink:href="#NotoSansCJKjp-Bold-52a8" x="2746.599548"/>
     <use xlink:href="#NotoSansCJKjp-Bold-8282" x="2846.599533"/>
     <use xlink:href="#NotoSansCJKjp-Bold-70b9" x="2946.599518"/>
     <use xlink:href="#NotoSansCJKjp-Bold-201d" x="3046.599503"/>
     <use xlink:href="#NotoSansCJKjp-Bold-6570" x="3103.999496"/>
     <use xlink:href="#NotoSansCJKjp-Bold-91cf" x="3203.999481"/>
     <use xlink:href="#NotoSansCJKjp-Bold-ff08" x="3303.999466"/>
     <use xlink:href="#NotoSansCJKjp-Bold-793a" x="3403.999451"/>
     <use xlink:href="#NotoSansCJKjp-Bold-610f" x="3503.999435"/>
     <use xlink:href="#NotoSansCJKjp-Bold-ff09" x="3603.99942"/>
    </g>
   </g>
   <g id="text_2">
    <!-- 高ECC示例 -->
    <g transform="translate(18.36 61.872) scale(0.1 -0.1)">
     <defs>
      <path id="NotoSansCJKjp-Bold-9ad8" d="M 2170 3494 
L 4179 3494 
L 4179 3104 
L 2170 3104 
L 2170 3494 
z
M 1440 4006 
L 1440 2592 
L 4960 2592 
L 4960 4006 
L 1440 4006 
z
M 2765 5446 
L 2765 4909 
L 390 4909 
L 390 4250 
L 6010 4250 
L 6010 4909 
L 3552 4909 
L 3552 5446 
L 2765 5446 
z
M 1965 1395 
L 1965 -339 
L 2630 -339 
L 2630 -45 
L 4294 -45 
C 4365 -218 4422 -416 4442 -563 
C 4909 -563 5242 -557 5491 -442 
C 5734 -326 5805 -115 5805 237 
L 5805 2323 
L 640 2323 
L 640 -576 
L 1389 -576 
L 1389 1690 
L 5037 1690 
L 5037 250 
C 5037 173 5005 154 4909 147 
C 4838 141 4640 141 4422 147 
L 4422 1395 
L 1965 1395 
z
M 2630 877 
L 3750 877 
L 3750 474 
L 2630 474 
L 2630 877 
z
" transform="scale(0.015625)"/>
      <path id="NotoSansCJKjp-Bold-4f8b" d="M 5299 5312 
L 5299 301 
C 5299 192 5261 166 5158 160 
C 5050 154 4717 154 4371 173 
C 4474 -38 4576 -378 4602 -576 
C 5114 -576 5472 -557 5702 -429 
C 5939 -307 6016 -109 6016 294 
L 6016 5312 
L 5299 5312 
z
M 1344 5427 
C 1062 4493 589 3558 77 2957 
C 192 2752 384 2310 442 2125 
C 576 2278 704 2458 832 2643 
L 832 -570 
L 1536 -570 
L 1536 1939 
C 1677 1811 1869 1568 1965 1414 
C 2106 1574 2227 1760 2342 1958 
C 2541 1792 2758 1594 2893 1434 
C 2611 813 2234 333 1766 13 
C 1914 -102 2150 -397 2246 -576 
C 3238 147 3910 1600 4134 3686 
L 3699 3814 
L 3578 3795 
L 3002 3795 
C 3053 4026 3098 4262 3142 4486 
L 4224 4486 
L 4224 947 
L 4902 947 
L 4902 4691 
L 4269 4691 
L 4269 5158 
L 2035 5158 
L 2054 5216 
L 1344 5427 
z
M 2413 4486 
C 2285 3603 2029 2598 1536 1984 
L 1536 3910 
C 1709 4275 1862 4653 1990 5024 
L 1990 4486 
L 2413 4486 
z
M 2829 3130 
L 3379 3130 
C 3322 2778 3251 2445 3155 2144 
C 3014 2278 2810 2438 2630 2566 
C 2701 2746 2765 2938 2829 3130 
z
" transform="scale(0.015625)"/>
     </defs>
     <use xlink:href="#NotoSansCJKjp-Bold-9ad8"/>
     <use xlink:href="#NotoSansCJKjp-Bold-45" x="99.999985"/>
     <use xlink:href="#NotoSansCJKjp-Bold-43" x="161.499969"/>
     <use xlink:href="#NotoSansCJKjp-Bold-43" x="227.09996"/>
     <use xlink:href="#NotoSansCJKjp-Bold-793a" x="292.699951"/>
     <use xlink:href="#NotoSansCJKjp-Bold-4f8b" x="392.699936"/>
    </g>
   </g>
   <g id="text_3">
    <!-- {A,B} -->
    <g transform="translate(53.014922 73.293337) scale(0.09 -0.09)">
     <defs>
      <path id="NotoSansCJKjp-Regular-7b" d="M 1626 -1088 
L 1946 -1088 
L 1946 -755 
L 1760 -755 
C 1376 -755 1274 -563 1274 -102 
C 1274 333 1312 710 1312 1197 
C 1312 1651 1197 1888 883 1971 
L 883 2003 
C 1197 2086 1312 2317 1312 2778 
C 1312 3270 1274 3642 1274 4077 
C 1274 4544 1376 4730 1760 4730 
L 1946 4730 
L 1946 5069 
L 1626 5069 
C 1062 5069 794 4851 794 4109 
C 794 3590 858 3213 858 2726 
C 858 2458 730 2182 243 2176 
L 243 1805 
C 730 1805 858 1530 858 1242 
C 858 762 794 384 794 -141 
C 794 -877 1062 -1088 1626 -1088 
z
" transform="scale(0.015625)"/>
      <path id="NotoSansCJKjp-Regular-41" d="M 26 0 
L 621 0 
L 1075 1434 
L 2790 1434 
L 3238 0 
L 3866 0 
L 2272 4691 
L 1613 4691 
L 26 0 
z
M 1222 1901 
L 1453 2624 
C 1619 3155 1773 3661 1920 4211 
L 1946 4211 
C 2099 3667 2246 3155 2419 2624 
L 2643 1901 
L 1222 1901 
z
" transform="scale(0.015625)"/>
      <path id="NotoSansCJKjp-Regular-2c" d="M 480 -1216 
C 1056 -973 1414 -493 1414 122 
C 1414 550 1229 806 922 806 
C 685 806 480 653 480 397 
C 480 141 678 -13 909 -13 
L 979 -6 
C 973 -390 736 -698 339 -870 
L 480 -1216 
z
" transform="scale(0.015625)"/>
      <path id="NotoSansCJKjp-Regular-42" d="M 646 0 
L 2138 0 
C 3187 0 3917 454 3917 1376 
C 3917 2016 3520 2387 2963 2496 
L 2963 2528 
C 3405 2669 3648 3078 3648 3546 
C 3648 4371 2982 4691 2035 4691 
L 646 4691 
L 646 0 
z
M 1235 2701 
L 1235 4224 
L 1958 4224 
C 2694 4224 3066 4019 3066 3469 
C 3066 2989 2739 2701 1933 2701 
L 1235 2701 
z
M 1235 474 
L 1235 2240 
L 2054 2240 
C 2880 2240 3334 1978 3334 1395 
C 3334 762 2861 474 2054 474 
L 1235 474 
z
" transform="scale(0.015625)"/>
      <path id="NotoSansCJKjp-Regular-7d" d="M 218 -1088 
L 538 -1088 
C 1101 -1088 1376 -877 1376 -141 
C 1376 384 1312 762 1312 1242 
C 1312 1530 1440 1805 1920 1805 
L 1920 2176 
C 1440 2182 1312 2458 1312 2726 
C 1312 3213 1376 3590 1376 4109 
C 1376 4851 1101 5069 538 5069 
L 218 5069 
L 218 4730 
L 403 4730 
C 787 4730 890 4544 890 4077 
C 890 3642 858 3270 858 2778 
C 858 2317 966 2086 1280 2003 
L 1280 1971 
C 966 1888 858 1651 858 1197 
C 858 710 890 333 890 -102 
C 890 -563 787 -755 403 -755 
L 218 -755 
L 218 -1088 
z
" transform="scale(0.015625)"/>
     </defs>
     <use xlink:href="#NotoSansCJKjp-Regular-7b"/>
     <use xlink:href="#NotoSansCJKjp-Regular-41" x="33.799988"/>
     <use xlink:href="#NotoSansCJKjp-Regular-2c" x="94.599976"/>
     <use xlink:href="#NotoSansCJKjp-Regular-42" x="122.399963"/>
     <use xlink:href="#NotoSansCJKjp-Regular-7d" x="188.09996"/>
    </g>
   </g>
   <g id="text_4">
    <!-- {C,D} -->
    <g transform="translate(164.340703 73.293337) scale(0.09 -0.09)">
     <defs>
      <path id="NotoSansCJKjp-Regular-43" d="M 2413 -83 
C 3021 -83 3482 160 3853 589 
L 3526 966 
C 3226 634 2886 435 2438 435 
C 1542 435 979 1178 979 2362 
C 979 3533 1574 4256 2458 4256 
C 2861 4256 3168 4077 3418 3814 
L 3738 4198 
C 3469 4499 3021 4774 2451 4774 
C 1261 4774 371 3859 371 2342 
C 371 819 1242 -83 2413 -83 
z
" transform="scale(0.015625)"/>
      <path id="NotoSansCJKjp-Regular-44" d="M 646 0 
L 1843 0 
C 3258 0 4026 877 4026 2362 
C 4026 3859 3258 4691 1818 4691 
L 646 4691 
L 646 0 
z
M 1235 486 
L 1235 4211 
L 1766 4211 
C 2874 4211 3418 3552 3418 2362 
C 3418 1178 2874 486 1766 486 
L 1235 486 
z
" transform="scale(0.015625)"/>
     </defs>
     <use xlink:href="#NotoSansCJKjp-Regular-7b"/>
     <use xlink:href="#NotoSansCJKjp-Regular-43" x="33.799988"/>
     <use xlink:href="#NotoSansCJKjp-Regular-2c" x="97.599976"/>
     <use xlink:href="#NotoSansCJKjp-Regular-44" x="125.399963"/>
     <use xlink:href="#NotoSansCJKjp-Regular-7d" x="194.199951"/>
    </g>
   </g>
   <g id="text_5">
    <!-- {E,F} -->
    <g transform="translate(276.7725 73.293337) scale(0.09 -0.09)">
     <defs>
      <path id="NotoSansCJKjp-Regular-45" d="M 646 0 
L 3418 0 
L 3418 506 
L 1235 506 
L 1235 2214 
L 3014 2214 
L 3014 2720 
L 1235 2720 
L 1235 4192 
L 3347 4192 
L 3347 4691 
L 646 4691 
L 646 0 
z
" transform="scale(0.015625)"/>
      <path id="NotoSansCJKjp-Regular-46" d="M 646 0 
L 1235 0 
L 1235 2106 
L 3027 2106 
L 3027 2605 
L 1235 2605 
L 1235 4192 
L 3347 4192 
L 3347 4691 
L 646 4691 
L 646 0 
z
" transform="scale(0.015625)"/>
     </defs>
     <use xlink:href="#NotoSansCJKjp-Regular-7b"/>
     <use xlink:href="#NotoSansCJKjp-Regular-45" x="33.799988"/>
     <use xlink:href="#NotoSansCJKjp-Regular-2c" x="92.699982"/>
     <use xlink:href="#NotoSansCJKjp-Regular-46" x="120.499969"/>
     <use xlink:href="#NotoSansCJKjp-Regular-7d" x="175.699966"/>
    </g>
   </g>
   <g id="text_6">
    <!-- {G,H} -->
    <g transform="translate(387.130781 73.293337) scale(0.09 -0.09)">
     <defs>
      <path id="NotoSansCJKjp-Regular-47" d="M 2490 -83 
C 3117 -83 3635 147 3936 461 
L 3936 2432 
L 2394 2432 
L 2394 1939 
L 3392 1939 
L 3392 710 
C 3206 538 2880 435 2547 435 
C 1542 435 979 1178 979 2362 
C 979 3533 1594 4256 2541 4256 
C 3008 4256 3315 4058 3552 3814 
L 3872 4198 
C 3603 4480 3174 4774 2522 4774 
C 1280 4774 371 3859 371 2342 
C 371 819 1254 -83 2490 -83 
z
" transform="scale(0.015625)"/>
      <path id="NotoSansCJKjp-Regular-48" d="M 646 0 
L 1235 0 
L 1235 2214 
L 3424 2214 
L 3424 0 
L 4019 0 
L 4019 4691 
L 3424 4691 
L 3424 2726 
L 1235 2726 
L 1235 4691 
L 646 4691 
L 646 0 
z
" transform="scale(0.015625)"/>
     </defs>
     <use xlink:href="#NotoSansCJKjp-Regular-7b"/>
     <use xlink:href="#NotoSansCJKjp-Regular-47" x="33.799988"/>
     <use xlink:href="#NotoSansCJKjp-Regular-2c" x="102.699982"/>
     <use xlink:href="#NotoSansCJKjp-Regular-48" x="130.499969"/>
     <use xlink:href="#NotoSansCJKjp-Regular-7d" x="203.299957"/>
    </g>
   </g>
   <g id="text_7">
    <!-- {I,J} -->
    <g transform="translate(501.381563 73.293337) scale(0.09 -0.09)">
     <defs>
      <path id="NotoSansCJKjp-Regular-49" d="M 646 0 
L 1235 0 
L 1235 4691 
L 646 4691 
L 646 0 
z
" transform="scale(0.015625)"/>
      <path id="NotoSansCJKjp-Regular-4a" d="M 1517 -83 
C 2432 -83 2810 563 2810 1376 
L 2810 4691 
L 2214 4691 
L 2214 1434 
C 2214 723 1965 435 1459 435 
C 1120 435 858 589 646 966 
L 224 659 
C 499 173 922 -83 1517 -83 
z
" transform="scale(0.015625)"/>
     </defs>
     <use xlink:href="#NotoSansCJKjp-Regular-7b"/>
     <use xlink:href="#NotoSansCJKjp-Regular-49" x="33.799988"/>
     <use xlink:href="#NotoSansCJKjp-Regular-2c" x="63.099976"/>
     <use xlink:href="#NotoSansCJKjp-Regular-4a" x="90.899963"/>
     <use xlink:href="#NotoSansCJKjp-Regular-7d" x="144.399948"/>
    </g>
   </g>
   <g id="text_8">
    <!-- 低ECC示例 -->
    <g transform="translate(18.36 119.5296) scale(0.1 -0.1)">
     <defs>
      <path id="NotoSansCJKjp-Bold-4f4e" d="M 2131 224 
L 2131 -448 
L 4704 -448 
L 4704 224 
L 2131 224 
z
M 1901 1178 
L 2048 467 
C 2675 563 3494 691 4256 819 
L 4218 1504 
L 3066 1331 
L 3066 2586 
L 4160 2586 
C 4346 947 4755 -358 5498 -358 
C 5997 -358 6234 -134 6336 851 
C 6144 928 5894 1094 5734 1254 
C 5722 666 5670 390 5574 390 
C 5331 390 5062 1344 4922 2586 
L 6202 2586 
L 6202 3277 
L 4858 3277 
C 4832 3635 4819 4006 4819 4378 
C 5222 4461 5606 4557 5946 4666 
L 5376 5248 
C 4749 5030 3757 4832 2816 4710 
L 2317 4870 
L 2317 1229 
L 1901 1178 
z
M 3066 4102 
C 3386 4141 3718 4186 4051 4237 
C 4058 3917 4077 3590 4096 3277 
L 3066 3277 
L 3066 4102 
z
M 1517 5414 
C 1190 4499 640 3584 58 3008 
C 186 2822 397 2400 467 2208 
C 614 2362 762 2534 902 2726 
L 902 -563 
L 1632 -563 
L 1632 3866 
C 1869 4294 2074 4742 2240 5184 
L 1517 5414 
z
" transform="scale(0.015625)"/>
     </defs>
     <use xlink:href="#NotoSansCJKjp-Bold-4f4e"/>
     <use xlink:href="#NotoSansCJKjp-Bold-45" x="99.999985"/>
     <use xlink:href="#NotoSansCJKjp-Bold-43" x="161.499969"/>
     <use xlink:href="#NotoSansCJKjp-Bold-43" x="227.09996"/>
     <use xlink:href="#NotoSansCJKjp-Bold-793a" x="292.699951"/>
     <use xlink:href="#NotoSansCJKjp-Bold-4f8b" x="392.699936"/>
    </g>
   </g>
   <g id="text_9">
    <!-- {A,B} -->
    <g transform="translate(53.014922 130.950938) scale(0.09 -0.09)">
     <use xlink:href="#NotoSansCJKjp-Regular-7b"/>
     <use xlink:href="#NotoSansCJKjp-Regular-41" x="33.799988"/>
     <use xlink:href="#NotoSansCJKjp-Regular-2c" x="94.599976"/>
     <use xlink:href="#NotoSansCJKjp-Regular-42" x="122.399963"/>
     <use xlink:href="#NotoSansCJKjp-Regular-7d" x="188.09996"/>
    </g>
   </g>
   <g id="text_10">
    <!-- {A,B} -->
    <g transform="translate(164.614922 130.950938) scale(0.09 -0.09)">
     <use xlink:href="#NotoSansCJKjp-Regular-7b"/>
     <use xlink:href="#NotoSansCJKjp-Regular-41" x="33.799988"/>
     <use xlink:href="#NotoSansCJKjp-Regular-2c" x="94.599976"/>
     <use xlink:href="#NotoSansCJKjp-Regular-42" x="122.399963"/>
     <use xlink:href="#NotoSansCJKjp-Regular-7d" x="188.09996"/>
    </g>
   </g>
   <g id="text_11">
    <!-- {A,B,C} -->
    <g transform="translate(272.093203 130.950938) scale(0.09 -0.09)">
     <use xlink:href="#NotoSansCJKjp-Regular-7b"/>
     <use xlink:href="#NotoSansCJKjp-Regular-41" x="33.799988"/>
     <use xlink:href="#NotoSansCJKjp-Regular-2c" x="94.599976"/>
     <use xlink:href="#NotoSansCJKjp-Regular-42" x="122.399963"/>
     <use xlink:href="#NotoSansCJKjp-Regular-2c" x="188.09996"/>
     <use xlink:href="#NotoSansCJKjp-Regular-43" x="215.899948"/>
     <use xlink:href="#NotoSansCJKjp-Regular-7d" x="279.699936"/>
    </g>
   </g>
   <g id="text_12">
    <!-- {A,B,C} -->
    <g transform="translate(383.693203 130.950938) scale(0.09 -0.09)">
     <use xlink:href="#NotoSansCJKjp-Regular-7b"/>
     <use xlink:href="#NotoSansCJKjp-Regular-41" x="33.799988"/>
     <use xlink:href="#NotoSansCJKjp-Regular-2c" x="94.599976"/>
     <use xlink:href="#NotoSansCJKjp-Regular-42" x="122.399963"/>
     <use xlink:href="#NotoSansCJKjp-Regular-2c" x="188.09996"/>
     <use xlink:href="#NotoSansCJKjp-Regular-43" x="215.899948"/>
     <use xlink:href="#NotoSansCJKjp-Regular-7d" x="279.699936"/>
    </g>
   </g>
   <g id="text_13">
    <!-- {A,B} -->
    <g transform="translate(499.414922 130.950938) scale(0.09 -0.09)">
     <use xlink:href="#NotoSansCJKjp-Regular-7b"/>
     <use xlink:href="#NotoSansCJKjp-Regular-41" x="33.799988"/>
     <use xlink:href="#NotoSansCJKjp-Regular-2c" x="94.599976"/>
     <use xlink:href="#NotoSansCJKjp-Regular-42" x="122.399963"/>
     <use xlink:href="#NotoSansCJKjp-Regular-7d" x="188.09996"/>
    </g>
   </g>
   <g id="patch_12">
    <path d="M 115.222588 70.7424 
Q 118.801938 70.7424 121.263254 70.7424 
" style="fill: none; stroke: #000000; stroke-linecap: round"/>
    <path d="M 117.263254 68.7424 
L 121.263254 70.7424 
L 117.263254 72.7424 
" style="fill: none; stroke: #000000; stroke-linecap: round"/>
   </g>
   <g id="patch_13">
    <path d="M 115.222588 128.4 
Q 118.801938 128.4 121.263254 128.4 
" style="fill: none; stroke: #000000; stroke-linecap: round"/>
    <path d="M 117.263254 126.4 
L 121.263254 128.4 
L 117.263254 130.4 
" style="fill: none; stroke: #000000; stroke-linecap: round"/>
   </g>
   <g id="patch_14">
    <path d="M 226.822588 70.7424 
Q 230.401938 70.7424 232.863254 70.7424 
" style="fill: none; stroke: #000000; stroke-linecap: round"/>
    <path d="M 228.863254 68.7424 
L 232.863254 70.7424 
L 228.863254 72.7424 
" style="fill: none; stroke: #000000; stroke-linecap: round"/>
   </g>
   <g id="patch_15">
    <path d="M 226.822588 128.4 
Q 230.401938 128.4 232.863254 128.4 
" style="fill: none; stroke: #000000; stroke-linecap: round"/>
    <path d="M 228.863254 126.4 
L 232.863254 128.4 
L 228.863254 130.4 
" style="fill: none; stroke: #000000; stroke-linecap: round"/>
   </g>
   <g id="patch_16">
    <path d="M 338.422588 70.7424 
Q 342.001938 70.7424 344.463254 70.7424 
" style="fill: none; stroke: #000000; stroke-linecap: round"/>
    <path d="M 340.463254 68.7424 
L 344.463254 70.7424 
L 340.463254 72.7424 
" style="fill: none; stroke: #000000; stroke-linecap: round"/>
   </g>
   <g id="patch_17">
    <path d="M 338.422588 128.4 
Q 342.001938 128.4 344.463254 128.4 
" style="fill: none; stroke: #000000; stroke-linecap: round"/>
    <path d="M 340.463254 126.4 
L 344.463254 128.4 
L 340.463254 130.4 
" style="fill: none; stroke: #000000; stroke-linecap: round"/>
   </g>
   <g id="patch_18">
    <path d="M 450.022588 70.7424 
Q 453.601938 70.7424 456.063254 70.7424 
" style="fill: none; stroke: #000000; stroke-linecap: round"/>
    <path d="M 452.063254 68.7424 
L 456.063254 70.7424 
L 452.063254 72.7424 
" style="fill: none; stroke: #000000; stroke-linecap: round"/>
   </g>
   <g id="patch_19">
    <path d="M 450.022588 128.4 
Q 453.601938 128.4 456.063254 128.4 
" style="fill: none; stroke: #000000; stroke-linecap: round"/>
    <path d="M 452.063254 126.4 
L 456.063254 128.4 
L 452.063254 130.4 
" style="fill: none; stroke: #000000; stroke-linecap: round"/>
   </g>
   <g id="text_14">
    <!-- 新增多 → ECC大 -->
    <g transform="translate(542.88 73.293337) scale(0.09 -0.09)">
     <defs>
      <path id="NotoSansCJKjp-Regular-65b0" d="M 774 4179 
C 902 3891 1005 3501 1024 3251 
L 1434 3360 
C 1402 3610 1293 3987 1158 4269 
L 774 4179 
z
M 2419 4282 
C 2349 4013 2208 3610 2093 3360 
L 2483 3264 
C 2598 3501 2733 3859 2854 4186 
L 2419 4282 
z
M 5670 5306 
C 5254 5094 4538 4890 3872 4749 
L 3526 4851 
L 3526 2611 
C 3526 1709 3443 602 2624 -211 
C 2733 -275 2906 -435 2970 -538 
C 3866 352 3987 1645 3987 2605 
L 3987 2765 
L 4954 2765 
L 4954 -480 
L 5414 -480 
L 5414 2765 
L 6144 2765 
L 6144 3213 
L 3987 3213 
L 3987 4365 
C 4704 4506 5510 4704 6061 4954 
L 5670 5306 
z
M 1581 5350 
L 1581 4704 
L 390 4704 
L 390 4301 
L 3219 4301 
L 3219 4704 
L 2048 4704 
L 2048 5350 
L 1581 5350 
z
M 301 3245 
L 301 2835 
L 1581 2835 
L 1581 2170 
L 320 2170 
L 320 1747 
L 1472 1747 
C 1152 1184 640 595 179 301 
C 282 224 422 64 506 -45 
C 870 243 1267 698 1581 1197 
L 1581 -499 
L 2048 -499 
L 2048 1139 
C 2317 896 2637 576 2778 416 
L 3066 774 
C 2912 909 2291 1421 2048 1594 
L 2048 1747 
L 3245 1747 
L 3245 2170 
L 2048 2170 
L 2048 2835 
L 3296 2835 
L 3296 3245 
L 301 3245 
z
" transform="scale(0.015625)"/>
      <path id="NotoSansCJKjp-Regular-589e" d="M 2995 3405 
C 3110 3174 3219 2861 3264 2662 
L 3571 2765 
C 3533 2957 3411 3264 3290 3488 
L 2995 3405 
z
M 4768 3494 
C 4710 3290 4582 2970 4486 2758 
L 4742 2662 
C 4858 2854 4986 3123 5107 3386 
L 4768 3494 
z
M 3002 5030 
C 2765 4576 2374 4128 1978 3808 
L 1427 3808 
L 1427 5286 
L 960 5286 
L 960 3808 
L 282 3808 
L 282 3354 
L 960 3354 
L 960 1293 
L 179 986 
L 352 512 
C 896 742 1581 1050 2240 1338 
L 2125 1773 
L 1427 1485 
L 1427 3354 
L 1997 3354 
L 1997 3616 
C 2074 3539 2157 3450 2202 3392 
L 2368 3533 
L 2368 2182 
L 5805 2182 
L 5805 3571 
L 5952 3462 
C 6029 3578 6170 3744 6266 3834 
C 5786 4122 5235 4672 4934 5210 
L 3539 5210 
L 3539 4787 
L 4685 4787 
C 4864 4512 5088 4243 5331 4000 
L 2816 4000 
C 3053 4282 3270 4589 3430 4902 
L 3002 5030 
z
M 2675 1824 
L 2675 -512 
L 3130 -512 
L 3130 -269 
L 5030 -269 
L 5030 -493 
L 5504 -493 
L 5504 1824 
L 2675 1824 
z
M 3130 102 
L 3130 614 
L 5030 614 
L 5030 102 
L 3130 102 
z
M 3130 954 
L 3130 1453 
L 5030 1453 
L 5030 954 
L 3130 954 
z
M 2752 3635 
L 3872 3635 
L 3872 2554 
L 2752 2554 
L 2752 3635 
z
M 4237 3635 
L 5395 3635 
L 5395 2554 
L 4237 2554 
L 4237 3635 
z
" transform="scale(0.015625)"/>
      <path id="NotoSansCJKjp-Regular-591a" d="M 2899 5389 
C 2458 4845 1619 4243 461 3840 
C 570 3763 723 3597 794 3482 
C 1120 3610 1427 3757 1709 3910 
C 2106 3706 2554 3424 2835 3187 
C 2086 2778 1222 2483 416 2336 
C 499 2227 602 2035 640 1907 
C 2336 2278 4224 3181 5056 4672 
L 4749 4858 
L 4666 4838 
L 3014 4838 
C 3174 4979 3315 5126 3443 5274 
L 2899 5389 
z
M 3251 3437 
C 2989 3661 2528 3942 2118 4154 
C 2259 4243 2394 4333 2522 4429 
L 4352 4429 
C 4070 4058 3686 3725 3251 3437 
z
M 3936 3194 
C 3443 2586 2464 1920 1114 1498 
C 1216 1414 1350 1242 1408 1126 
C 1798 1267 2157 1421 2490 1587 
C 2925 1344 3418 998 3712 723 
C 2893 288 1901 32 896 -90 
C 979 -198 1069 -390 1107 -525 
C 3194 -224 5190 582 6003 2445 
L 5690 2618 
L 5600 2598 
L 4006 2598 
C 4179 2752 4333 2912 4474 3072 
L 3936 3194 
z
M 4147 973 
C 3853 1242 3360 1574 2925 1818 
C 3123 1933 3309 2054 3488 2182 
L 5325 2182 
C 5043 1696 4634 1293 4147 973 
z
" transform="scale(0.015625)"/>
      <path id="NotoSansCJKjp-Regular-20" transform="scale(0.015625)"/>
      <path id="NotoSansCJKjp-Regular-2192" d="M 5190 2650 
L 256 2650 
L 256 2214 
L 5190 2214 
C 4864 1965 4442 1562 4154 1165 
L 4538 941 
C 4966 1504 5606 2067 6176 2432 
C 5606 2797 4966 3360 4538 3923 
L 4154 3699 
C 4442 3302 4864 2899 5190 2650 
z
" transform="scale(0.015625)"/>
      <path id="NotoSansCJKjp-Regular-5927" d="M 2950 5370 
C 2944 4864 2950 4218 2854 3539 
L 397 3539 
L 397 3046 
L 2771 3046 
C 2515 1830 1875 589 275 -102 
C 410 -205 563 -378 640 -499 
C 2202 218 2893 1446 3206 2682 
C 3706 1222 4531 90 5773 -499 
C 5856 -358 6010 -160 6131 -51 
C 4890 467 4051 1632 3603 3046 
L 6029 3046 
L 6029 3539 
L 3366 3539 
C 3456 4211 3462 4851 3469 5370 
L 2950 5370 
z
" transform="scale(0.015625)"/>
     </defs>
     <use xlink:href="#NotoSansCJKjp-Regular-65b0"/>
     <use xlink:href="#NotoSansCJKjp-Regular-589e" x="99.999985"/>
     <use xlink:href="#NotoSansCJKjp-Regular-591a" x="199.999969"/>
     <use xlink:href="#NotoSansCJKjp-Regular-20" x="299.999954"/>
     <use xlink:href="#NotoSansCJKjp-Regular-2192" x="322.399948"/>
     <use xlink:href="#NotoSansCJKjp-Regular-20" x="422.399933"/>
     <use xlink:href="#NotoSansCJKjp-Regular-45" x="444.799927"/>
     <use xlink:href="#NotoSansCJKjp-Regular-43" x="503.699921"/>
     <use xlink:href="#NotoSansCJKjp-Regular-43" x="567.499908"/>
     <use xlink:href="#NotoSansCJKjp-Regular-5927" x="631.299896"/>
    </g>
   </g>
   <g id="text_15">
    <!-- 新增少 → ECC小 -->
    <g transform="translate(542.88 130.950938) scale(0.09 -0.09)">
     <defs>
      <path id="NotoSansCJKjp-Regular-5c11" d="M 2950 5370 
L 2950 2125 
C 2950 2022 2918 1997 2810 1997 
C 2694 1997 2304 1990 1875 1997 
C 1952 1862 2029 1651 2054 1510 
C 2592 1510 2944 1517 3155 1600 
C 3373 1677 3443 1824 3443 2118 
L 3443 5370 
L 2950 5370 
z
M 4339 4403 
C 4890 3738 5478 2835 5696 2253 
L 6176 2515 
C 5933 3110 5331 3981 4774 4627 
L 4339 4403 
z
M 4762 2656 
C 4211 1011 2989 243 723 -51 
C 819 -179 928 -378 979 -525 
C 3354 -160 4659 698 5261 2502 
L 4762 2656 
z
M 1536 4563 
C 1299 3859 806 3002 243 2464 
C 371 2394 563 2266 672 2176 
C 1242 2758 1747 3661 2061 4435 
L 1536 4563 
z
" transform="scale(0.015625)"/>
      <path id="NotoSansCJKjp-Regular-5c0f" d="M 2970 5286 
L 2970 154 
C 2970 26 2918 -13 2790 -19 
C 2656 -26 2195 -32 1728 -13 
C 1805 -147 1894 -378 1926 -512 
C 2528 -518 2925 -506 3162 -422 
C 3392 -346 3488 -198 3488 154 
L 3488 5286 
L 2970 5286 
z
M 4512 3654 
C 5062 2733 5581 1536 5728 774 
L 6246 986 
C 6080 1754 5536 2931 4973 3827 
L 4512 3654 
z
M 1293 3782 
C 1133 2925 774 1818 205 1139 
C 339 1082 550 966 659 883 
C 1242 1594 1619 2752 1830 3693 
L 1293 3782 
z
" transform="scale(0.015625)"/>
     </defs>
     <use xlink:href="#NotoSansCJKjp-Regular-65b0"/>
     <use xlink:href="#NotoSansCJKjp-Regular-589e" x="99.999985"/>
     <use xlink:href="#NotoSansCJKjp-Regular-5c11" x="199.999969"/>
     <use xlink:href="#NotoSansCJKjp-Regular-20" x="299.999954"/>
     <use xlink:href="#NotoSansCJKjp-Regular-2192" x="322.399948"/>
     <use xlink:href="#NotoSansCJKjp-Regular-20" x="422.399933"/>
     <use xlink:href="#NotoSansCJKjp-Regular-45" x="444.799927"/>
     <use xlink:href="#NotoSansCJKjp-Regular-43" x="503.699921"/>
     <use xlink:href="#NotoSansCJKjp-Regular-43" x="567.499908"/>
     <use xlink:href="#NotoSansCJKjp-Regular-5c0f" x="631.299896"/>
    </g>
   </g>
   <g id="text_16">
    <!-- 说明：这是为了直观解释ECC的构造示例，不对应论文图3的具体节点编号。 -->
    <g style="opacity: 0.8" transform="translate(18.36 172.752) scale(0.08 -0.08)">
     <defs>
      <path id="NotoSansCJKjp-Regular-8bf4" d="M 710 4947 
C 1056 4634 1485 4186 1683 3904 
L 2029 4243 
C 1824 4512 1382 4941 1037 5242 
L 710 4947 
z
M 2925 3654 
L 5101 3654 
L 5101 2490 
L 2925 2490 
L 2925 3654 
z
M 1126 -269 
C 1216 -141 1395 6 2598 890 
C 2547 986 2470 1178 2432 1318 
L 1702 806 
L 1702 3366 
L 288 3366 
L 288 2899 
L 1222 2899 
L 1222 762 
C 1222 480 973 256 845 173 
C 941 70 1075 -141 1126 -269 
z
M 2458 4090 
L 2458 2054 
L 3270 2054 
C 3187 1005 2970 256 1901 -147 
C 2003 -237 2138 -403 2195 -518 
C 3379 -32 3654 832 3757 2054 
L 4326 2054 
L 4326 218 
C 4326 -282 4442 -422 4915 -422 
C 5018 -422 5466 -422 5555 -422 
C 5965 -422 6086 -205 6138 621 
C 6003 659 5805 736 5702 819 
C 5696 122 5664 26 5510 26 
C 5421 26 5056 26 4986 26 
C 4826 26 4800 51 4800 224 
L 4800 2054 
L 5581 2054 
L 5581 4090 
L 4915 4090 
C 5094 4429 5286 4838 5453 5216 
L 4954 5370 
C 4832 4986 4602 4454 4403 4090 
L 3315 4090 
L 3744 4275 
C 3642 4570 3386 5024 3136 5357 
L 2726 5190 
C 2970 4845 3206 4384 3302 4090 
L 2458 4090 
z
" transform="scale(0.015625)"/>
      <path id="NotoSansCJKjp-Regular-660e" d="M 2163 2886 
L 2163 1613 
L 966 1613 
L 966 2886 
L 2163 2886 
z
M 2163 3322 
L 966 3322 
L 966 4544 
L 2163 4544 
L 2163 3322 
z
M 512 4986 
L 512 563 
L 966 563 
L 966 1165 
L 2611 1165 
L 2611 4986 
L 512 4986 
z
M 5466 4653 
L 5466 3546 
L 3674 3546 
L 3674 4653 
L 5466 4653 
z
M 3206 5101 
L 3206 2822 
C 3206 1824 3098 602 2010 -224 
C 2112 -294 2291 -454 2362 -557 
C 3098 6 3424 781 3571 1542 
L 5466 1542 
L 5466 122 
C 5466 6 5421 -32 5306 -32 
C 5197 -38 4794 -45 4378 -26 
C 4448 -160 4531 -365 4550 -499 
C 5107 -499 5453 -486 5664 -410 
C 5869 -333 5939 -179 5939 122 
L 5939 5101 
L 3206 5101 
z
M 5466 3110 
L 5466 1978 
L 3635 1978 
C 3667 2266 3674 2554 3674 2816 
L 3674 3110 
L 5466 3110 
z
" transform="scale(0.015625)"/>
      <path id="NotoSansCJKjp-Regular-ff1a" d="M 3200 3482 
C 3456 3482 3686 3667 3686 3962 
C 3686 4256 3456 4442 3200 4442 
C 2944 4442 2714 4256 2714 3962 
C 2714 3667 2944 3482 3200 3482 
z
M 3200 346 
C 3456 346 3686 538 3686 826 
C 3686 1120 3456 1312 3200 1312 
C 2944 1312 2714 1120 2714 826 
C 2714 538 2944 346 3200 346 
z
" transform="scale(0.015625)"/>
      <path id="NotoSansCJKjp-Regular-8fd9" d="M 390 4845 
C 730 4544 1120 4115 1299 3827 
L 1696 4109 
C 1510 4397 1107 4813 762 5094 
L 390 4845 
z
M 1606 2963 
L 314 2963 
L 314 2515 
L 1146 2515 
L 1146 653 
C 864 550 544 307 230 6 
L 570 -461 
C 877 -96 1190 237 1408 237 
C 1549 237 1747 64 2016 -83 
C 2458 -320 3002 -384 3763 -384 
C 4410 -384 5504 -346 6010 -314 
C 6016 -160 6099 83 6157 224 
C 5510 147 4499 102 3776 102 
C 3085 102 2515 141 2112 365 
C 1882 486 1741 595 1606 659 
L 1606 2963 
z
M 2086 3277 
C 2592 2931 3149 2515 3686 2099 
C 3206 1613 2605 1254 1856 992 
C 1946 890 2093 678 2144 570 
C 2912 877 3546 1280 4051 1811 
C 4608 1363 5107 928 5440 589 
L 5811 947 
C 5453 1286 4928 1722 4352 2163 
C 4730 2650 5024 3232 5235 3923 
L 6048 3923 
L 6048 4378 
L 3968 4378 
L 4288 4493 
C 4205 4742 3994 5126 3808 5414 
L 3347 5267 
C 3520 4992 3706 4627 3789 4378 
L 1888 4378 
L 1888 3923 
L 4730 3923 
C 4550 3347 4301 2861 3981 2445 
C 3450 2842 2906 3238 2419 3565 
L 2086 3277 
z
" transform="scale(0.015625)"/>
      <path id="NotoSansCJKjp-Regular-662f" d="M 1510 3885 
L 4845 3885 
L 4845 3360 
L 1510 3360 
L 1510 3885 
z
M 1510 4749 
L 4845 4749 
L 4845 4230 
L 1510 4230 
L 1510 4749 
z
M 1050 5114 
L 1050 2995 
L 5331 2995 
L 5331 5114 
L 1050 5114 
z
M 1478 1914 
C 1312 979 902 256 224 -186 
C 333 -256 518 -435 589 -518 
C 1011 -218 1344 192 1587 698 
C 2112 -186 2938 -384 4230 -384 
L 5984 -384 
C 6010 -250 6086 -38 6163 77 
C 5830 70 4493 64 4250 70 
C 3981 70 3725 77 3494 102 
L 3494 986 
L 5619 986 
L 5619 1408 
L 3494 1408 
L 3494 2125 
L 6035 2125 
L 6035 2554 
L 378 2554 
L 378 2125 
L 3014 2125 
L 3014 186 
C 2458 326 2048 627 1798 1216 
C 1862 1414 1914 1626 1958 1850 
L 1478 1914 
z
" transform="scale(0.015625)"/>
      <path id="NotoSansCJKjp-Regular-4e3a" d="M 1037 5018 
C 1293 4717 1581 4307 1709 4045 
L 2144 4256 
C 2010 4518 1709 4915 1446 5197 
L 1037 5018 
z
M 3194 2374 
C 3520 1984 3898 1446 4064 1107 
L 4486 1338 
C 4314 1670 3923 2189 3590 2566 
L 3194 2374 
z
M 2630 5363 
L 2630 4608 
C 2630 4365 2624 4109 2605 3834 
L 525 3834 
L 525 3354 
L 2554 3354 
C 2394 2214 1888 928 352 -70 
C 467 -147 646 -314 730 -422 
C 2368 666 2893 2099 3046 3354 
L 5254 3354 
C 5165 1178 5062 320 4870 122 
C 4800 45 4730 26 4589 32 
C 4435 32 4032 32 3597 70 
C 3693 -70 3757 -282 3763 -429 
C 4160 -448 4563 -461 4787 -442 
C 5024 -416 5171 -365 5318 -179 
C 5568 115 5658 1018 5760 3584 
C 5760 3661 5766 3834 5766 3834 
L 3098 3834 
C 3110 4102 3117 4365 3117 4602 
L 3117 5363 
L 2630 5363 
z
" transform="scale(0.015625)"/>
      <path id="NotoSansCJKjp-Regular-4e86" d="M 627 4877 
L 627 4403 
L 4774 4403 
C 4371 3981 3808 3514 3277 3194 
L 2957 3194 
L 2957 115 
C 2957 0 2912 -38 2778 -38 
C 2630 -45 2131 -45 1600 -32 
C 1677 -166 1773 -378 1798 -512 
C 2451 -512 2874 -512 3123 -435 
C 3373 -358 3462 -218 3462 109 
L 3462 2771 
C 4243 3226 5126 3962 5690 4634 
L 5318 4909 
L 5203 4877 
L 627 4877 
z
" transform="scale(0.015625)"/>
      <path id="NotoSansCJKjp-Regular-76f4" d="M 2374 2586 
L 4832 2586 
L 4832 2061 
L 2374 2061 
L 2374 2586 
z
M 2374 1715 
L 4832 1715 
L 4832 1178 
L 2374 1178 
L 2374 1715 
z
M 2374 3456 
L 4832 3456 
L 4832 2931 
L 2374 2931 
L 2374 3456 
z
M 736 3635 
L 736 -518 
L 1203 -518 
L 1203 -179 
L 6080 -179 
L 6080 269 
L 1203 269 
L 1203 3635 
L 736 3635 
z
M 3053 5395 
L 3008 4787 
L 397 4787 
L 397 4339 
L 2963 4339 
L 2899 3814 
L 1914 3814 
L 1914 813 
L 5306 813 
L 5306 3814 
L 3379 3814 
L 3469 4339 
L 6029 4339 
L 6029 4787 
L 3533 4787 
L 3603 5363 
L 3053 5395 
z
" transform="scale(0.015625)"/>
      <path id="NotoSansCJKjp-Regular-89c2" d="M 2957 5062 
L 2957 1658 
L 3411 1658 
L 3411 4634 
L 5299 4634 
L 5299 1658 
L 5773 1658 
L 5773 5062 
L 2957 5062 
z
M 4090 4096 
L 4090 2867 
C 4090 1875 3885 666 2278 -160 
C 2368 -230 2522 -410 2573 -506 
C 3654 51 4160 838 4384 1613 
L 4384 154 
C 4384 -275 4557 -390 4973 -390 
L 5517 -390 
C 6067 -390 6138 -134 6189 877 
C 6074 909 5914 973 5798 1062 
C 5766 147 5734 -26 5523 -26 
L 5050 -26 
C 4877 -26 4826 26 4826 198 
L 4826 1754 
L 4422 1754 
C 4512 2138 4544 2515 4544 2861 
L 4544 4096 
L 4090 4096 
z
M 365 3578 
C 730 3085 1114 2502 1434 1946 
C 1101 1158 685 525 218 115 
C 339 32 499 -134 576 -250 
C 1018 173 1408 730 1728 1414 
C 1926 1043 2080 698 2182 410 
L 2592 691 
C 2458 1050 2234 1498 1965 1965 
C 2272 2771 2496 3725 2618 4806 
L 2310 4902 
L 2227 4883 
L 333 4883 
L 333 4422 
L 2106 4422 
C 2010 3731 1850 3078 1645 2490 
C 1357 2957 1037 3418 730 3821 
L 365 3578 
z
" transform="scale(0.015625)"/>
      <path id="NotoSansCJKjp-Regular-89e3" d="M 1677 3379 
L 1677 2662 
L 1101 2662 
L 1101 3379 
L 1677 3379 
z
M 2029 3379 
L 2605 3379 
L 2605 2662 
L 2029 2662 
L 2029 3379 
z
M 1037 3750 
C 1152 3962 1261 4186 1357 4422 
L 2067 4422 
C 1984 4192 1875 3942 1779 3750 
L 1037 3750 
z
M 1210 5382 
C 1011 4595 659 3834 205 3341 
C 307 3277 493 3130 563 3053 
L 698 3219 
L 698 2048 
C 698 1325 653 371 218 -307 
C 314 -346 493 -454 563 -525 
C 864 -58 1005 576 1062 1171 
L 2605 1171 
L 2605 19 
C 2605 -70 2573 -96 2483 -96 
C 2400 -102 2106 -102 1779 -96 
C 1837 -205 1907 -390 1926 -506 
C 2374 -506 2630 -499 2797 -429 
C 2957 -352 3014 -218 3014 13 
L 3014 3219 
C 3110 3142 3219 2995 3270 2906 
C 4070 3258 4384 3885 4518 4646 
L 5536 4646 
C 5498 3898 5446 3597 5376 3514 
C 5331 3462 5280 3456 5184 3456 
C 5101 3456 4864 3462 4608 3482 
C 4672 3373 4710 3206 4723 3085 
C 4986 3066 5254 3066 5389 3078 
C 5549 3091 5651 3136 5734 3238 
C 5875 3392 5933 3802 5978 4870 
C 5984 4934 5990 5050 5990 5050 
L 3200 5050 
L 3200 4646 
L 4070 4646 
C 3955 4045 3699 3526 3014 3238 
L 3014 3750 
L 2202 3750 
C 2355 4026 2509 4352 2611 4646 
L 2330 4826 
L 2259 4806 
L 1504 4806 
C 1555 4966 1606 5126 1651 5286 
L 1210 5382 
z
M 1677 2298 
L 1677 1555 
L 1088 1555 
L 1101 2048 
L 1101 2298 
L 1677 2298 
z
M 2029 2298 
L 2605 2298 
L 2605 1555 
L 2029 1555 
L 2029 2298 
z
M 3642 2944 
C 3533 2406 3334 1869 3053 1504 
C 3162 1459 3347 1363 3430 1306 
C 3552 1478 3661 1690 3763 1926 
L 4480 1926 
L 4480 1152 
L 3123 1152 
L 3123 723 
L 4480 723 
L 4480 -486 
L 4934 -486 
L 4934 723 
L 6163 723 
L 6163 1152 
L 4934 1152 
L 4934 1926 
L 6048 1926 
L 6048 2349 
L 4934 2349 
L 4934 3002 
L 4480 3002 
L 4480 2349 
L 3917 2349 
C 3968 2515 4019 2694 4058 2867 
L 3642 2944 
z
" transform="scale(0.015625)"/>
      <path id="NotoSansCJKjp-Regular-91ca" d="M 384 4262 
C 570 3974 755 3584 832 3334 
L 1178 3475 
C 1101 3718 902 4102 717 4384 
L 384 4262 
z
M 2438 4448 
C 2330 4166 2125 3738 1971 3482 
L 2298 3373 
C 2464 3616 2650 3987 2816 4326 
L 2438 4448 
z
M 2970 5043 
L 2970 4614 
L 3258 4614 
C 3475 4179 3763 3795 4109 3469 
C 3648 3181 3142 2957 2650 2816 
L 2650 3066 
L 1818 3066 
L 1818 4749 
C 2176 4800 2509 4870 2784 4947 
L 2528 5318 
C 1990 5158 1043 5037 262 4966 
C 314 4870 365 4710 384 4608 
C 698 4627 1037 4653 1376 4691 
L 1376 3066 
L 320 3066 
L 320 2650 
L 1293 2650 
C 1037 2010 602 1280 205 896 
C 282 774 397 563 442 422 
C 768 787 1114 1382 1376 1978 
L 1376 -518 
L 1818 -518 
L 1818 2080 
C 2061 1798 2342 1453 2470 1274 
L 2778 1606 
C 2637 1766 2035 2394 1818 2586 
L 1818 2650 
L 2650 2650 
L 2650 2797 
C 2733 2701 2842 2534 2893 2426 
C 3418 2605 3962 2854 4448 3181 
C 4896 2842 5414 2586 5984 2419 
C 6042 2541 6157 2726 6246 2822 
C 5722 2950 5229 3162 4813 3443 
C 5318 3840 5754 4333 6029 4909 
L 5741 5062 
L 5658 5043 
L 2970 5043 
z
M 5370 4614 
C 5133 4275 4819 3968 4454 3706 
C 4141 3968 3878 4275 3680 4614 
L 5370 4614 
z
M 4198 2618 
L 4198 2048 
L 3034 2048 
L 3034 1613 
L 4198 1613 
L 4198 954 
L 2778 954 
L 2778 525 
L 4198 525 
L 4198 -518 
L 4678 -518 
L 4678 525 
L 6086 525 
L 6086 954 
L 4678 954 
L 4678 1613 
L 5818 1613 
L 5818 2048 
L 4678 2048 
L 4678 2618 
L 4198 2618 
z
" transform="scale(0.015625)"/>
      <path id="NotoSansCJKjp-Regular-7684" d="M 3533 2707 
C 3885 2240 4320 1600 4512 1210 
L 4922 1466 
C 4710 1843 4269 2464 3904 2918 
L 3533 2707 
z
M 1536 5389 
C 1485 5082 1376 4659 1274 4346 
L 557 4346 
L 557 -346 
L 998 -346 
L 998 160 
L 2784 160 
L 2784 4346 
L 1715 4346 
C 1824 4621 1946 4979 2054 5299 
L 1536 5389 
z
M 998 3917 
L 2342 3917 
L 2342 2566 
L 998 2566 
L 998 3917 
z
M 998 595 
L 998 2144 
L 2342 2144 
L 2342 595 
L 998 595 
z
M 3827 5402 
C 3622 4518 3277 3635 2835 3066 
C 2950 3002 3149 2867 3238 2790 
C 3456 3098 3661 3488 3840 3923 
L 5478 3923 
C 5402 1357 5299 371 5094 154 
C 5018 64 4947 45 4819 45 
C 4672 45 4288 51 3866 83 
C 3955 -38 4013 -243 4026 -378 
C 4384 -397 4762 -410 4979 -390 
C 5210 -365 5350 -314 5498 -122 
C 5754 192 5843 1184 5939 4122 
C 5946 4186 5946 4365 5946 4365 
L 4013 4365 
C 4115 4666 4211 4986 4288 5299 
L 3827 5402 
z
" transform="scale(0.015625)"/>
      <path id="NotoSansCJKjp-Regular-6784" d="M 3341 5376 
C 3181 4723 2931 4090 2618 3578 
L 2618 4006 
L 1766 4006 
L 1766 5376 
L 1306 5376 
L 1306 4006 
L 307 4006 
L 307 3546 
L 1242 3546 
C 1024 2694 576 1702 147 1184 
C 224 1069 346 870 397 742 
C 730 1171 1056 1882 1306 2605 
L 1306 -506 
L 1766 -506 
L 1766 2483 
C 1990 2176 2266 1779 2381 1568 
L 2682 1958 
C 2547 2138 1958 2842 1766 3046 
L 1766 3546 
L 2598 3546 
C 2483 3354 2349 3174 2214 3021 
C 2336 2950 2534 2797 2618 2720 
C 2874 3034 3110 3430 3322 3878 
L 5530 3878 
C 5446 1254 5350 275 5158 51 
C 5094 -32 5030 -51 4915 -45 
C 4781 -45 4474 -45 4128 -13 
C 4211 -154 4269 -358 4282 -493 
C 4595 -512 4915 -518 5107 -493 
C 5318 -467 5453 -416 5587 -237 
C 5824 77 5914 1069 6010 4077 
C 6010 4141 6010 4326 6010 4326 
L 3514 4326 
C 3629 4627 3738 4947 3827 5267 
L 3341 5376 
z
M 2432 1248 
L 2541 794 
L 4589 1101 
C 4646 928 4698 774 4723 640 
L 5126 794 
C 5030 1184 4749 1811 4474 2298 
L 4102 2170 
C 4224 1958 4339 1709 4442 1466 
L 3392 1344 
C 3603 1901 3827 2662 4000 3283 
L 3533 3386 
C 3411 2765 3168 1875 2950 1299 
L 2432 1248 
z
" transform="scale(0.015625)"/>
      <path id="NotoSansCJKjp-Regular-9020" d="M 384 4934 
C 794 4646 1274 4218 1478 3904 
L 1862 4224 
C 1632 4531 1152 4947 730 5222 
L 384 4934 
z
M 3002 2016 
L 5120 2016 
L 5120 998 
L 3002 998 
L 3002 2016 
z
M 2534 2413 
L 2534 595 
L 5613 595 
L 5613 2413 
L 2534 2413 
z
M 3782 5376 
L 3782 4570 
L 3034 4570 
C 3130 4768 3219 4979 3290 5190 
L 2842 5293 
C 2643 4698 2310 4102 1901 3712 
C 2022 3661 2221 3546 2310 3475 
C 2483 3667 2650 3898 2810 4154 
L 3782 4154 
L 3782 3328 
L 1952 3328 
L 1952 2918 
L 6074 2918 
L 6074 3328 
L 4256 3328 
L 4256 4154 
L 5792 4154 
L 5792 4570 
L 4256 4570 
L 4256 5376 
L 3782 5376 
z
M 1677 2848 
L 314 2848 
L 314 2400 
L 1210 2400 
L 1210 768 
C 890 499 518 230 230 32 
L 480 -461 
C 826 -173 1152 102 1459 378 
C 1869 -128 2445 -358 3283 -390 
C 3994 -416 5318 -403 6016 -371 
C 6035 -224 6118 6 6176 115 
C 5414 64 3981 45 3283 77 
C 2541 102 1978 326 1677 794 
L 1677 2848 
z
" transform="scale(0.015625)"/>
      <path id="NotoSansCJKjp-Regular-793a" d="M 1498 2246 
C 1222 1523 749 813 224 358 
C 346 294 563 154 666 70 
C 1171 563 1677 1325 1990 2112 
L 1498 2246 
z
M 4378 2048 
C 4838 1434 5325 602 5498 64 
L 5978 282 
C 5786 826 5286 1632 4819 2234 
L 4378 2048 
z
M 954 4902 
L 954 4429 
L 5459 4429 
L 5459 4902 
L 954 4902 
z
M 384 3347 
L 384 2874 
L 2950 2874 
L 2950 122 
C 2950 19 2912 -6 2797 -13 
C 2675 -19 2253 -19 1818 0 
C 1894 -147 1971 -358 1990 -506 
C 2560 -506 2938 -499 3162 -422 
C 3392 -339 3469 -198 3469 115 
L 3469 2874 
L 6022 2874 
L 6022 3347 
L 384 3347 
z
" transform="scale(0.015625)"/>
      <path id="NotoSansCJKjp-Regular-4f8b" d="M 4320 4653 
L 4320 954 
L 4755 954 
L 4755 4653 
L 4320 4653 
z
M 5491 5274 
L 5491 90 
C 5491 -19 5453 -45 5350 -51 
C 5242 -58 4902 -58 4512 -45 
C 4582 -179 4646 -390 4672 -518 
C 5178 -518 5491 -506 5683 -422 
C 5869 -346 5939 -211 5939 96 
L 5939 5274 
L 5491 5274 
z
M 1958 5050 
L 1958 4621 
L 2547 4621 
C 2413 3680 2131 2573 1562 1894 
C 1651 1818 1792 1658 1856 1568 
C 2016 1754 2157 1971 2285 2208 
C 2579 1997 2906 1722 3110 1510 
C 2790 762 2349 205 1818 -160 
C 1920 -237 2067 -416 2138 -525 
C 3117 179 3827 1549 4077 3635 
L 3795 3731 
L 3718 3712 
L 2822 3712 
C 2899 4019 2963 4326 3014 4621 
L 4288 4621 
L 4288 5050 
L 1958 5050 
z
M 2707 3283 
L 3584 3283 
C 3514 2797 3411 2355 3277 1958 
C 3072 2157 2752 2406 2464 2592 
C 2554 2810 2637 3046 2707 3283 
z
M 1491 5350 
C 1184 4365 672 3392 115 2752 
C 198 2630 320 2374 371 2266 
C 582 2509 781 2797 973 3110 
L 973 -512 
L 1421 -512 
L 1421 3942 
C 1619 4358 1792 4794 1933 5222 
L 1491 5350 
z
" transform="scale(0.015625)"/>
      <path id="NotoSansCJKjp-Regular-ff0c" d="M 1005 -685 
C 1677 -448 2112 77 2112 768 
C 2112 1216 1920 1504 1568 1504 
C 1306 1504 1082 1344 1082 1043 
C 1082 742 1299 589 1562 589 
L 1670 602 
C 1638 160 1357 -141 864 -346 
L 1005 -685 
z
" transform="scale(0.015625)"/>
      <path id="NotoSansCJKjp-Regular-4e0d" d="M 3578 3059 
C 4339 2547 5299 1792 5754 1299 
L 6144 1670 
C 5664 2163 4691 2880 3936 3366 
L 3578 3059 
z
M 442 4928 
L 442 4435 
L 3290 4435 
C 2656 3341 1555 2259 282 1632 
C 384 1523 531 1331 608 1210 
C 1498 1677 2291 2336 2938 3078 
L 2938 -499 
L 3456 -499 
L 3456 3738 
C 3622 3962 3770 4198 3904 4435 
L 5958 4435 
L 5958 4928 
L 442 4928 
z
" transform="scale(0.015625)"/>
      <path id="NotoSansCJKjp-Regular-5bf9" d="M 3213 2522 
C 3514 2067 3802 1459 3904 1075 
L 4326 1286 
C 4224 1670 3917 2259 3603 2701 
L 3213 2522 
z
M 582 2899 
C 973 2547 1389 2131 1760 1709 
C 1376 890 870 269 288 -109 
C 403 -205 550 -384 627 -499 
C 1216 -77 1715 512 2106 1299 
C 2394 941 2630 602 2784 314 
L 3168 666 
C 2982 998 2682 1395 2330 1798 
C 2624 2534 2835 3411 2944 4448 
L 2630 4538 
L 2547 4518 
L 448 4518 
L 448 4064 
L 2419 4064 
C 2323 3373 2170 2752 1965 2202 
C 1626 2554 1267 2899 922 3200 
L 582 2899 
z
M 4896 5376 
L 4896 3834 
L 3085 3834 
L 3085 3373 
L 4896 3373 
L 4896 141 
C 4896 26 4851 -6 4742 -13 
C 4634 -13 4275 -19 3872 0 
C 3936 -147 4006 -371 4032 -506 
C 4576 -506 4902 -493 5094 -410 
C 5293 -326 5370 -179 5370 141 
L 5370 3373 
L 6138 3373 
L 6138 3834 
L 5370 3834 
L 5370 5376 
L 4896 5376 
z
" transform="scale(0.015625)"/>
      <path id="NotoSansCJKjp-Regular-5e94" d="M 1690 3136 
C 1952 2445 2259 1530 2381 934 
L 2835 1120 
C 2694 1715 2387 2605 2106 3309 
L 1690 3136 
z
M 3078 3494 
C 3283 2797 3520 1888 3610 1293 
L 4070 1434 
C 3974 2029 3738 2918 3514 3616 
L 3078 3494 
z
M 2995 5299 
C 3117 5075 3245 4781 3334 4550 
L 774 4550 
L 774 2803 
C 774 1894 730 621 230 -288 
C 346 -333 563 -474 653 -557 
C 1178 397 1261 1830 1261 2803 
L 1261 4096 
L 6029 4096 
L 6029 4550 
L 3878 4550 
C 3795 4781 3616 5146 3462 5427 
L 2995 5299 
z
M 1338 250 
L 1338 -211 
L 6112 -211 
L 6112 250 
L 4378 250 
C 4966 1242 5440 2406 5747 3469 
L 5242 3654 
C 4998 2547 4506 1242 3885 250 
L 1338 250 
z
" transform="scale(0.015625)"/>
      <path id="NotoSansCJKjp-Regular-8bba" d="M 685 4915 
C 1075 4595 1568 4141 1798 3846 
L 2125 4211 
C 1882 4493 1376 4934 986 5235 
L 685 4915 
z
M 3981 5389 
C 3667 4621 3008 3680 2016 3021 
C 2125 2944 2272 2771 2342 2662 
C 3142 3226 3731 3930 4147 4627 
C 4621 3885 5306 3142 5914 2714 
C 5990 2835 6144 3008 6253 3091 
C 5587 3501 4819 4307 4384 5062 
L 4499 5299 
L 3981 5389 
z
M 5158 2733 
C 4704 2400 4006 2010 3424 1722 
L 3424 3021 
L 2944 3021 
L 2944 397 
C 2944 -186 3136 -339 3827 -339 
C 3974 -339 5005 -339 5158 -339 
C 5773 -339 5920 -96 5984 794 
C 5850 819 5651 902 5542 986 
C 5504 230 5453 96 5133 96 
C 4902 96 4032 96 3859 96 
C 3488 96 3424 141 3424 390 
L 3424 1235 
C 4064 1523 4883 1946 5478 2330 
L 5158 2733 
z
M 1216 -384 
L 1216 -378 
C 1306 -243 1485 -102 2534 742 
C 2477 832 2400 1018 2355 1146 
L 1722 653 
L 1722 3366 
L 256 3366 
L 256 2899 
L 1261 2899 
L 1261 582 
C 1261 269 1062 58 954 -38 
C 1030 -109 1165 -282 1216 -384 
z
" transform="scale(0.015625)"/>
      <path id="NotoSansCJKjp-Regular-6587" d="M 2944 5376 
L 2944 4288 
L 320 4288 
L 320 3821 
L 1274 3821 
C 1638 2797 2138 1920 2803 1216 
C 2118 653 1274 237 250 -58 
C 346 -173 499 -403 557 -518 
C 1594 -186 2458 262 3162 864 
C 3878 230 4755 -237 5824 -512 
C 5907 -378 6061 -154 6176 -45 
C 5133 198 4262 640 3558 1229 
C 4230 1914 4742 2758 5120 3821 
L 6106 3821 
L 6106 4288 
L 3437 4288 
L 3437 5376 
L 2944 5376 
z
M 3187 1574 
C 2579 2195 2118 2950 1798 3821 
L 4563 3821 
C 4230 2912 3782 2170 3187 1574 
z
" transform="scale(0.015625)"/>
      <path id="NotoSansCJKjp-Regular-56fe" d="M 2400 1786 
C 2912 1677 3565 1453 3923 1274 
L 4122 1600 
C 3763 1766 3117 1978 2605 2080 
L 2400 1786 
z
M 1760 973 
C 2643 864 3750 608 4365 390 
L 4576 749 
C 3955 954 2848 1203 1984 1299 
L 1760 973 
z
M 538 5094 
L 538 -512 
L 998 -512 
L 998 -243 
L 5389 -243 
L 5389 -512 
L 5869 -512 
L 5869 5094 
L 538 5094 
z
M 998 186 
L 998 4659 
L 5389 4659 
L 5389 186 
L 998 186 
z
M 2650 4531 
C 2330 4006 1779 3507 1229 3181 
C 1331 3117 1498 2970 1568 2893 
C 1760 3021 1958 3174 2157 3347 
C 2349 3142 2586 2950 2842 2778 
C 2298 2522 1683 2330 1114 2214 
C 1197 2125 1299 1939 1344 1824 
C 1971 1971 2643 2208 3251 2534 
C 3782 2246 4390 2029 4998 1894 
C 5056 2010 5178 2176 5267 2259 
C 4704 2362 4141 2534 3642 2765 
C 4122 3078 4525 3443 4794 3878 
L 4518 4038 
L 4448 4019 
L 2790 4019 
C 2886 4141 2976 4262 3053 4390 
L 2650 4531 
z
M 2419 3603 
L 2464 3648 
L 4122 3648 
C 3891 3398 3584 3174 3238 2976 
C 2912 3162 2630 3373 2419 3603 
z
" transform="scale(0.015625)"/>
      <path id="NotoSansCJKjp-Regular-33" d="M 1683 -83 
C 2522 -83 3194 416 3194 1254 
C 3194 1901 2752 2310 2202 2445 
L 2202 2477 
C 2701 2650 3034 3034 3034 3603 
C 3034 4346 2458 4774 1664 4774 
C 1126 4774 710 4538 358 4218 
L 672 3846 
C 941 4115 1267 4301 1645 4301 
C 2138 4301 2438 4006 2438 3558 
C 2438 3053 2112 2662 1139 2662 
L 1139 2214 
C 2227 2214 2598 1843 2598 1274 
C 2598 736 2208 403 1645 403 
C 1114 403 762 659 486 941 
L 186 563 
C 493 224 954 -83 1683 -83 
z
" transform="scale(0.015625)"/>
      <path id="NotoSansCJKjp-Regular-5177" d="M 1754 3757 
L 4691 3757 
L 4691 3149 
L 1754 3149 
L 1754 3757 
z
M 1754 2784 
L 4691 2784 
L 4691 2163 
L 1754 2163 
L 1754 2784 
z
M 1754 4723 
L 4691 4723 
L 4691 4122 
L 1754 4122 
L 1754 4723 
z
M 1286 5107 
L 1286 1786 
L 5184 1786 
L 5184 5107 
L 1286 5107 
z
M 365 1344 
L 365 896 
L 6048 896 
L 6048 1344 
L 365 1344 
z
M 3738 371 
C 4461 102 5210 -250 5651 -512 
L 6112 -179 
C 5619 83 4819 429 4083 691 
L 3738 371 
z
M 2246 723 
C 1818 422 986 64 326 -134 
C 435 -237 589 -410 659 -506 
C 1312 -294 2144 64 2688 410 
L 2246 723 
z
" transform="scale(0.015625)"/>
      <path id="NotoSansCJKjp-Regular-4f53" d="M 1606 5350 
C 1286 4384 762 3424 192 2797 
C 288 2688 429 2432 474 2323 
C 666 2541 851 2790 1024 3066 
L 1024 -499 
L 1485 -499 
L 1485 3872 
C 1702 4307 1894 4768 2054 5222 
L 1606 5350 
z
M 2662 1120 
L 2662 678 
L 3718 678 
L 3718 -474 
L 4186 -474 
L 4186 678 
L 5216 678 
L 5216 1120 
L 4186 1120 
L 4186 3334 
C 4582 2221 5197 1146 5862 538 
C 5952 666 6112 832 6227 915 
C 5536 1472 4870 2547 4493 3622 
L 6106 3622 
L 6106 4083 
L 4186 4083 
L 4186 5357 
L 3718 5357 
L 3718 4083 
L 1907 4083 
L 1907 3622 
L 3430 3622 
C 3034 2534 2362 1446 1658 883 
C 1766 800 1926 634 2003 518 
C 2682 1133 3309 2189 3718 3315 
L 3718 1120 
L 2662 1120 
z
" transform="scale(0.015625)"/>
      <path id="NotoSansCJKjp-Regular-8282" d="M 627 3110 
L 627 2650 
L 2304 2650 
L 2304 -499 
L 2810 -499 
L 2810 2650 
L 4941 2650 
L 4941 986 
C 4941 890 4902 864 4781 858 
C 4653 851 4218 851 3750 864 
C 3814 717 3878 512 3898 365 
C 4506 365 4902 365 5139 442 
C 5370 525 5434 678 5434 973 
L 5434 3110 
L 627 3110 
z
M 4058 5376 
L 4058 4653 
L 2342 4653 
L 2342 5376 
L 1850 5376 
L 1850 4653 
L 352 4653 
L 352 4192 
L 1850 4192 
L 1850 3456 
L 2342 3456 
L 2342 4192 
L 4058 4192 
L 4058 3456 
L 4557 3456 
L 4557 4192 
L 6054 4192 
L 6054 4653 
L 4557 4653 
L 4557 5376 
L 4058 5376 
z
" transform="scale(0.015625)"/>
      <path id="NotoSansCJKjp-Regular-70b9" d="M 1517 2976 
L 4864 2976 
L 4864 1830 
L 1517 1830 
L 1517 2976 
z
M 2176 819 
C 2259 403 2310 -134 2310 -454 
L 2797 -390 
C 2790 -83 2726 448 2630 858 
L 2176 819 
z
M 3501 813 
C 3686 416 3878 -122 3949 -442 
L 4416 -320 
C 4339 0 4134 518 3936 909 
L 3501 813 
z
M 4806 864 
C 5126 461 5485 -109 5632 -461 
L 6086 -269 
C 5926 83 5555 627 5235 1030 
L 4806 864 
z
M 1133 992 
C 934 518 608 0 269 -294 
L 704 -506 
C 1056 -166 1382 371 1587 870 
L 1133 992 
z
M 1062 3430 
L 1062 1382 
L 5344 1382 
L 5344 3430 
L 3392 3430 
L 3392 4243 
L 5824 4243 
L 5824 4698 
L 3392 4698 
L 3392 5376 
L 2912 5376 
L 2912 3430 
L 1062 3430 
z
" transform="scale(0.015625)"/>
      <path id="NotoSansCJKjp-Regular-7f16" d="M 256 346 
L 371 -96 
C 896 115 1568 390 2214 659 
L 2125 1043 
C 1427 774 730 506 256 346 
z
M 390 2707 
C 480 2752 627 2784 1312 2880 
C 1069 2470 845 2144 742 2022 
C 557 1779 422 1613 288 1587 
C 339 1472 410 1254 435 1165 
C 557 1242 755 1306 2170 1632 
C 2150 1734 2131 1907 2138 2029 
L 1069 1805 
C 1523 2394 1965 3110 2330 3821 
L 1939 4045 
C 1830 3795 1696 3546 1568 3309 
L 851 3232 
C 1216 3795 1574 4518 1837 5216 
L 1376 5376 
C 1146 4602 717 3757 582 3546 
C 454 3328 352 3174 243 3142 
C 294 3027 365 2803 390 2707 
z
M 3994 2240 
L 3994 1293 
L 3462 1293 
L 3462 2240 
L 3994 2240 
z
M 4320 2240 
L 4774 2240 
L 4774 1293 
L 4320 1293 
L 4320 2240 
z
M 3078 2637 
L 3078 -461 
L 3462 -461 
L 3462 915 
L 3994 915 
L 3994 -301 
L 4320 -301 
L 4320 915 
L 4774 915 
L 4774 -294 
L 5101 -294 
L 5101 915 
L 5574 915 
L 5574 -45 
C 5574 -90 5555 -102 5510 -109 
C 5466 -109 5350 -109 5210 -102 
C 5261 -205 5306 -358 5318 -467 
C 5549 -467 5696 -454 5811 -397 
C 5926 -333 5952 -224 5952 -51 
L 5952 2643 
L 5574 2637 
L 3078 2637 
z
M 5101 2240 
L 5574 2240 
L 5574 1293 
L 5101 1293 
L 5101 2240 
z
M 3872 5286 
C 3974 5107 4077 4877 4147 4685 
L 2650 4685 
L 2650 3296 
C 2650 2310 2592 890 2010 -134 
C 2106 -179 2304 -320 2381 -403 
C 2976 634 3085 2144 3091 3187 
L 5888 3187 
L 5888 4685 
L 4666 4685 
C 4589 4896 4461 5190 4320 5414 
L 3872 5286 
z
M 3091 4275 
L 5440 4275 
L 5440 3590 
L 3091 3590 
L 3091 4275 
z
" transform="scale(0.015625)"/>
      <path id="NotoSansCJKjp-Regular-53f7" d="M 1670 4685 
L 4781 4685 
L 4781 3654 
L 1670 3654 
L 1670 4685 
z
M 1197 5114 
L 1197 3232 
L 5280 3232 
L 5280 5114 
L 1197 5114 
z
M 314 2733 
L 314 2291 
L 1702 2291 
C 1549 1818 1357 1286 1203 928 
L 1709 838 
L 1882 1280 
L 4717 1280 
C 4595 493 4461 109 4288 -19 
C 4211 -77 4134 -83 3981 -83 
C 3802 -83 3334 -77 2880 -32 
C 2976 -160 3040 -352 3046 -493 
C 3494 -518 3923 -525 4141 -512 
C 4384 -506 4544 -474 4698 -333 
C 4934 -122 5094 378 5261 1504 
C 5274 1574 5286 1722 5286 1722 
L 2042 1722 
L 2234 2291 
L 6080 2291 
L 6080 2733 
L 314 2733 
z
" transform="scale(0.015625)"/>
      <path id="NotoSansCJKjp-Regular-3002" d="M 1242 1562 
C 710 1562 269 1126 269 589 
C 269 45 710 -390 1242 -390 
C 1786 -390 2221 45 2221 589 
C 2221 1126 1786 1562 1242 1562 
z
M 1242 -64 
C 890 -64 595 224 595 589 
C 595 941 890 1235 1242 1235 
C 1606 1235 1894 941 1894 589 
C 1894 224 1606 -64 1242 -64 
z
" transform="scale(0.015625)"/>
     </defs>
     <use xlink:href="#NotoSansCJKjp-Regular-8bf4"/>
     <use xlink:href="#NotoSansCJKjp-Regular-660e" x="99.999985"/>
     <use xlink:href="#NotoSansCJKjp-Regular-ff1a" x="199.999969"/>
     <use xlink:href="#NotoSansCJKjp-Regular-8fd9" x="299.999954"/>
     <use xlink:href="#NotoSansCJKjp-Regular-662f" x="399.999939"/>
     <use xlink:href="#NotoSansCJKjp-Regular-4e3a" x="499.999924"/>
     <use xlink:href="#NotoSansCJKjp-Regular-4e86" x="599.999908"/>
     <use xlink:href="#NotoSansCJKjp-Regular-76f4" x="699.999893"/>
     <use xlink:href="#NotoSansCJKjp-Regular-89c2" x="799.999878"/>
     <use xlink:href="#NotoSansCJKjp-Regular-89e3" x="899.999863"/>
     <use xlink:href="#NotoSansCJKjp-Regular-91ca" x="999.999847"/>
     <use xlink:href="#NotoSansCJKjp-Regular-45" x="1099.999832"/>
     <use xlink:href="#NotoSansCJKjp-Regular-43" x="1158.899826"/>
     <use xlink:href="#NotoSansCJKjp-Regular-43" x="1222.699814"/>
     <use xlink:href="#NotoSansCJKjp-Regular-7684" x="1286.499802"/>
     <use xlink:href="#NotoSansCJKjp-Regular-6784" x="1386.499786"/>
     <use xlink:href="#NotoSansCJKjp-Regular-9020" x="1486.499771"/>
     <use xlink:href="#NotoSansCJKjp-Regular-793a" x="1586.499756"/>
     <use xlink:href="#NotoSansCJKjp-Regular-4f8b" x="1686.499741"/>
     <use xlink:href="#NotoSansCJKjp-Regular-ff0c" x="1786.499725"/>
     <use xlink:href="#NotoSansCJKjp-Regular-4e0d" x="1886.49971"/>
     <use xlink:href="#NotoSansCJKjp-Regular-5bf9" x="1986.499695"/>
     <use xlink:href="#NotoSansCJKjp-Regular-5e94" x="2086.49968"/>
     <use xlink:href="#NotoSansCJKjp-Regular-8bba" x="2186.499664"/>
     <use xlink:href="#NotoSansCJKjp-Regular-6587" x="2286.499649"/>
     <use xlink:href="#NotoSansCJKjp-Regular-56fe" x="2386.499634"/>
     <use xlink:href="#NotoSansCJKjp-Regular-33" x="2486.499619"/>
     <use xlink:href="#NotoSansCJKjp-Regular-7684" x="2541.999603"/>
     <use xlink:href="#NotoSansCJKjp-Regular-5177" x="2641.999588"/>
     <use xlink:href="#NotoSansCJKjp-Regular-4f53" x="2741.999573"/>
     <use xlink:href="#NotoSansCJKjp-Regular-8282" x="2841.999557"/>
     <use xlink:href="#NotoSansCJKjp-Regular-70b9" x="2941.999542"/>
     <use xlink:href="#NotoSansCJKjp-Regular-7f16" x="3041.999527"/>
     <use xlink:href="#NotoSansCJKjp-Regular-53f7" x="3141.999512"/>
     <use xlink:href="#NotoSansCJKjp-Regular-3002" x="3241.999496"/>
    </g>
   </g>
  </g>
 </g>
 <defs>
  <clipPath id="p32bb467224">
   <rect x="7.2" y="8.6496" width="558" height="177.408"/>
  </clipPath>
 </defs>
</svg>
