<?xml version="1.0" encoding="utf-8" ?>
<svg baseProfile="full" height="520" version="1.1" width="980" xmlns="http://www.w3.org/2000/svg" xmlns:ev="http://www.w3.org/2001/xml-events" xmlns:xlink="http://www.w3.org/1999/xlink"><defs /><rect fill="white" height="520" width="980" x="0" y="0" /><text font-family="Arial" font-size="24" x="20" y="40">数据质量控制：从收集到可分析</text><text font-family="Arial" font-size="14" x="20" y="70">（证据：论文第3页 Data quality control；第4页 median/MAD规则）</text><rect fill="#f7f7f7" height="90" rx="14" ry="14" stroke="black" stroke-width="2" width="240" x="80" y="140" /><text font-family="Arial" font-size="18" x="98" y="175">完成问卷</text><text font-family="Arial" font-size="22" font-weight="bold" x="98" y="205">24,367 人</text><line stroke="black" stroke-width="3" x1="320" x2="380" y1="185.0" y2="185.0" /><polygon fill="black" points="380,185.0 368,178.0 368,192.0" /><rect fill="#f7f7f7" height="90" rx="14" ry="14" stroke="black" stroke-width="2" width="240" x="380" y="140" /><text font-family="Arial" font-size="18" x="398" y="175">剔除缺失值</text><text font-family="Arial" font-size="22" font-weight="bold" x="398" y="205">−75 人</text><line stroke="black" stroke-width="3" x1="620" x2="680" y1="185.0" y2="185.0" /><polygon fill="black" points="680,185.0 668,178.0 668,192.0" /><rect fill="#f7f7f7" height="90" rx="14" ry="14" stroke="black" stroke-width="2" width="240" x="680" y="140" /><text font-family="Arial" font-size="18" x="698" y="175">最终数据集</text><text font-family="Arial" font-size="22" font-weight="bold" x="698" y="205">24,292 人</text><text font-family="Arial" font-size="18" x="80" y="300">后续分析中的RT异常筛选（逐量表）</text><text font-family="Arial" font-size="14" x="80" y="330">计算每个量表总作答时间的中位数 median 与 MAD</text><text font-family="Arial" font-size="14" x="80" y="355">若 标准化偏差 &gt; 5 × MAD，则在后续分析中排除该参与者</text></svg>