<?xml version="1.0" encoding="utf-8" ?>
<svg baseProfile="full" height="520" version="1.1" width="980" xmlns="http://www.w3.org/2000/svg" xmlns:ev="http://www.w3.org/2001/xml-events" xmlns:xlink="http://www.w3.org/1999/xlink"><defs /><rect fill="white" height="520" width="980" x="0" y="0" /><text fill="black" font-family="Arial" font-size="24" x="20" y="40">数据集结构：5个CSV文件用 export_id 关联</text><text fill="black" font-family="Arial" font-size="14" x="20" y="70">（证据：论文第3页 Table 1）</text><rect fill="#f7f7f7" height="110" rx="10" ry="10" stroke="black" stroke-width="2" width="180" x="40" y="110" /><text fill="black" font-family="Arial" font-size="16" x="50" y="138">demographic.csv</text><text fill="black" font-family="Arial" font-size="12" x="52" y="160">• export_id</text><text fill="black" font-family="Arial" font-size="12" x="52" y="176">• gender</text><text fill="black" font-family="Arial" font-size="12" x="52" y="192">• age</text><text fill="black" font-family="Arial" font-size="12" x="52" y="208">• edu</text><text fill="black" font-family="Arial" font-size="12" x="52" y="224">• smoke</text><text fill="black" font-family="Arial" font-size="12" x="52" y="240">• drink</text><rect fill="#f7f7f7" height="110" rx="10" ry="10" stroke="black" stroke-width="2" width="180" x="240" y="110" /><text fill="black" font-family="Arial" font-size="16" x="250" y="138">phq9.csv</text><text fill="black" font-family="Arial" font-size="12" x="252" y="160">• export_id</text><text fill="black" font-family="Arial" font-size="12" x="252" y="176">• score</text><text fill="black" font-family="Arial" font-size="12" x="252" y="192">• question1..9</text><text fill="black" font-family="Arial" font-size="12" x="252" y="208">• time1..9 (s)</text><rect fill="#f7f7f7" height="110" rx="10" ry="10" stroke="black" stroke-width="2" width="180" x="440" y="110" /><text fill="black" font-family="Arial" font-size="16" x="450" y="138">gad7.csv</text><text fill="black" font-family="Arial" font-size="12" x="452" y="160">• export_id</text><text fill="black" font-family="Arial" font-size="12" x="452" y="176">• score</text><text fill="black" font-family="Arial" font-size="12" x="452" y="192">• question1..7</text><text fill="black" font-family="Arial" font-size="12" x="452" y="208">• time1..7 (s)</text><rect fill="#f7f7f7" height="110" rx="10" ry="10" stroke="black" stroke-width="2" width="180" x="140.0" y="250" /><text fill="black" font-family="Arial" font-size="16" x="150.0" y="278">pss.csv</text><text fill="black" font-family="Arial" font-size="12" x="152.0" y="300">• export_id</text><text fill="black" font-family="Arial" font-size="12" x="152.0" y="316">• score</text><text fill="black" font-family="Arial" font-size="12" x="152.0" y="332">• question1..14</text><text fill="black" font-family="Arial" font-size="12" x="152.0" y="348">• time1..14 (s)</text><rect fill="#f7f7f7" height="110" rx="10" ry="10" stroke="black" stroke-width="2" width="180" x="340.0" y="250" /><text fill="black" font-family="Arial" font-size="16" x="350.0" y="278">isi.csv</text><text fill="black" font-family="Arial" font-size="12" x="352.0" y="300">• export_id</text><text fill="black" font-family="Arial" font-size="12" x="352.0" y="316">• score</text><text fill="black" font-family="Arial" font-size="12" x="352.0" y="332">• question1..7</text><text fill="black" font-family="Arial" font-size="12" x="352.0" y="348">• time1..7 (s)</text><line stroke="black" stroke-dasharray="6,4" stroke-width="2" x1="220" x2="240" y1="165.0" y2="165.0" /><text fill="black" font-family="Arial" font-size="12" x="200.0" y="159.0">export_id</text><line stroke="black" stroke-dasharray="6,4" stroke-width="2" x1="220" x2="440" y1="165.0" y2="165.0" /><text fill="black" font-family="Arial" font-size="12" x="300.0" y="159.0">export_id</text><line stroke="black" stroke-dasharray="6,4" stroke-width="2" x1="220" x2="140.0" y1="165.0" y2="305.0" /><text fill="black" font-family="Arial" font-size="12" x="150.0" y="229.0">export_id</text><line stroke="black" stroke-dasharray="6,4" stroke-width="2" x1="220" x2="340.0" y1="165.0" y2="305.0" /><text fill="black" font-family="Arial" font-size="12" x="250.0" y="229.0">export_id</text></svg>