<svg xmlns="http://www.w3.org/2000/svg" width="800" height="440" viewBox="0 0 800 440">
<rect width="100%" height="100%" fill="white"/>
<text x="20" y="40" font-size="20" font-family="Arial" font-weight="bold">From audio to four feature types (Fig.1 concept)</text>

<defs>
  <marker id="arrow" markerWidth="10" markerHeight="10" refX="10" refY="3" orient="auto" markerUnits="strokeWidth">
    <path d="M0,0 L10,3 L0,6 Z" fill="#333" />
  </marker>
</defs>
<rect x="20" y="70" width="160" height="60" fill="#f5f5f5" stroke="#333" rx="10"/>
<text x="100.0" y="95" font-size="14" font-family="Arial" text-anchor="middle">Recording</text>
<text x="100.0" y="113" font-size="14" font-family="Arial" text-anchor="middle">(WAV/M4A)</text>
<rect x="210" y="70" width="140" height="60" fill="#f5f5f5" stroke="#333" rx="10"/>
<text x="280.0" y="95" font-size="14" font-family="Arial" text-anchor="middle">VAD</text>
<text x="280.0" y="113" font-size="14" font-family="Arial" text-anchor="middle">(trim speech)</text>
<rect x="380" y="70" width="160" height="60" fill="#f5f5f5" stroke="#333" rx="10"/>
<text x="460.0" y="95" font-size="14" font-family="Arial" text-anchor="middle">Resample</text>
<text x="460.0" y="113" font-size="14" font-family="Arial" text-anchor="middle">44.1kHz→16kHz</text>
<rect x="570" y="70" width="200" height="60" fill="#f5f5f5" stroke="#333" rx="10"/>
<text x="670.0" y="95" font-size="14" font-family="Arial" text-anchor="middle">Feature extraction</text>
<line x1="180" y1="100" x2="210" y2="100" stroke="#333" stroke-width="2" marker-end="url(#arrow)"/>
<line x1="350" y1="100" x2="380" y2="100" stroke="#333" stroke-width="2" marker-end="url(#arrow)"/>
<line x1="540" y1="100" x2="570" y2="100" stroke="#333" stroke-width="2" marker-end="url(#arrow)"/>
<rect x="570" y="160" width="200" height="55" fill="#ffffff" stroke="#333" rx="10"/>
<text x="670.0" y="182" font-size="13" font-family="Arial" text-anchor="middle">Envelope</text>
<text x="670.0" y="200" font-size="13" font-family="Arial" text-anchor="middle">(amplitude rhythm)</text>
<rect x="570" y="225" width="200" height="55" fill="#ffffff" stroke="#333" rx="10"/>
<text x="670.0" y="247" font-size="13" font-family="Arial" text-anchor="middle">Spectrogram</text>
<text x="670.0" y="265" font-size="13" font-family="Arial" text-anchor="middle">(time-frequency map)</text>
<rect x="570" y="290" width="200" height="55" fill="#ffffff" stroke="#333" rx="10"/>
<text x="670.0" y="312" font-size="13" font-family="Arial" text-anchor="middle">Mel-spectrogram</text>
<text x="670.0" y="330" font-size="13" font-family="Arial" text-anchor="middle">(human-like scale)</text>
<rect x="570" y="355" width="200" height="55" fill="#ffffff" stroke="#333" rx="10"/>
<text x="670.0" y="377" font-size="13" font-family="Arial" text-anchor="middle">HSFs (OpenSMILE)</text>
<text x="670.0" y="395" font-size="13" font-family="Arial" text-anchor="middle">6552 stats features</text>
<line x1="670" y1="130" x2="670" y2="160" stroke="#333" stroke-width="2" marker-end="url(#arrow)"/>
<line x1="670" y1="215" x2="670" y2="225" stroke="#333" stroke-width="2" marker-end="url(#arrow)"/>
<line x1="670" y1="280" x2="670" y2="290" stroke="#333" stroke-width="2" marker-end="url(#arrow)"/>
<line x1="670" y1="345" x2="670" y2="355" stroke="#333" stroke-width="2" marker-end="url(#arrow)"/>
</svg>