<?xml version="1.0" encoding="utf-8" ?>
<svg baseProfile="full" height="420" version="1.1" width="980" xmlns="http://www.w3.org/2000/svg" xmlns:ev="http://www.w3.org/2001/xml-events" xmlns:xlink="http://www.w3.org/1999/xlink"><defs /><rect fill="white" height="420" width="980" x="0" y="0" /><text font-family="Arial" font-size="24" x="20" y="40">参与者画像（最终纳入）</text><text font-family="Arial" font-size="14" x="20" y="70">（证据：论文第3页 Data quality control）</text><rect fill="#f7f7f7" height="240" rx="18" ry="18" stroke="black" stroke-width="2" width="260" x="60" y="110" /><text font-family="Arial" font-size="28" x="90" y="170">N</text><text font-family="Arial" font-size="54" font-weight="bold" x="90" y="230">24,292</text><text font-family="Arial" font-size="26" x="250" y="230">人</text><text font-family="Arial" font-size="16" x="90" y="280">完成四个量表</text><rect fill="#f7f7f7" height="70" rx="16" ry="16" stroke="black" stroke-width="2" width="560" x="360" y="110" /><text font-family="Arial" font-size="18" font-weight="bold" x="380" y="152">性别</text><text font-family="Arial" font-size="16" x="510" y="138">男 8,747</text><text font-family="Arial" font-size="16" x="510" y="160">女 15,545</text><rect fill="#f7f7f7" height="70" rx="16" ry="16" stroke="black" stroke-width="2" width="560" x="360" y="198" /><text font-family="Arial" font-size="18" font-weight="bold" x="380" y="240">年龄</text><text font-family="Arial" font-size="16" x="510" y="226">平均 20.65 岁</text><text font-family="Arial" font-size="16" x="510" y="248">SD = 2.4</text><rect fill="#f7f7f7" height="70" rx="16" ry="16" stroke="black" stroke-width="2" width="560" x="360" y="286" /><text font-family="Arial" font-size="18" font-weight="bold" x="380" y="328">逐题作答记录</text><text font-family="Arial" font-size="16" x="510" y="314">共 898,804 条</text><text font-family="Arial" font-size="16" x="510" y="336">（四量表合计）</text></svg>