<?xml version="1.0" encoding="utf-8" ?>
<svg baseProfile="full" height="460" version="1.1" width="980" xmlns="http://www.w3.org/2000/svg" xmlns:ev="http://www.w3.org/2001/xml-events" xmlns:xlink="http://www.w3.org/1999/xlink"><defs /><rect fill="white" height="460" width="980" x="0" y="0" /><text font-family="Arial" font-size="24" x="20" y="40">如何复用这份数据：从下载到分析</text><text font-family="Arial" font-size="14" x="20" y="70">（证据：论文第3页 Data Records；第6页 Code availability；第5–6页 Usage Notes）</text><rect fill="#f7f7f7" height="120" rx="16" ry="16" stroke="black" stroke-width="2" width="170" x="60" y="130" /><text font-family="Arial" font-size="16" font-weight="bold" x="76" y="168">下载数据</text><text font-family="Arial" font-size="13" x="76" y="194">Zenodo：5个CSV</text><text font-family="Arial" font-size="13" x="76" y="212">（含原始与清洗）</text><line stroke="black" stroke-width="3" x1="230" x2="250" y1="190.0" y2="190.0" /><polygon fill="black" points="250,190.0 238,183.0 238,197.0" /><rect fill="#f7f7f7" height="120" rx="16" ry="16" stroke="black" stroke-width="2" width="170" x="250" y="130" /><text font-family="Arial" font-size="16" font-weight="bold" x="266" y="168">联表整理</text><text font-family="Arial" font-size="13" x="266" y="194">用 export_id 合并</text><text font-family="Arial" font-size="13" x="266" y="212">人口学 + 四量表</text><line stroke="black" stroke-width="3" x1="420" x2="440" y1="190.0" y2="190.0" /><polygon fill="black" points="440,190.0 428,183.0 428,197.0" /><rect fill="#f7f7f7" height="120" rx="16" ry="16" stroke="black" stroke-width="2" width="170" x="440" y="130" /><text font-family="Arial" font-size="16" font-weight="bold" x="456" y="168">生成衍生指标</text><text font-family="Arial" font-size="13" x="456" y="194">总作答时间</text><text font-family="Arial" font-size="13" x="456" y="212">逐题中位数/SD</text><line stroke="black" stroke-width="3" x1="610" x2="630" y1="190.0" y2="190.0" /><polygon fill="black" points="630,190.0 618,183.0 618,197.0" /><rect fill="#f7f7f7" height="120" rx="16" ry="16" stroke="black" stroke-width="2" width="170" x="630" y="130" /><text font-family="Arial" font-size="16" font-weight="bold" x="646" y="168">探索与建模</text><text font-family="Arial" font-size="13" x="646" y="194">分布、异常识别</text><text font-family="Arial" font-size="13" x="646" y="212">行为模式分型</text><line stroke="black" stroke-width="3" x1="800" x2="820" y1="190.0" y2="190.0" /><polygon fill="black" points="820,190.0 808,183.0 808,197.0" /><rect fill="#f7f7f7" height="120" rx="16" ry="16" stroke="black" stroke-width="2" width="170" x="820" y="130" /><text font-family="Arial" font-size="16" font-weight="bold" x="836" y="168">应用与改进</text><text font-family="Arial" font-size="13" x="836" y="194">数据质控</text><text font-family="Arial" font-size="13" x="836" y="212">问卷与量表优化</text><text font-family="Arial" font-size="14" x="60" y="320">注：本内容包提供前端交互所需的数据结构与脚本模板；实际分析需以论文发布的数据为准。</text></svg>